<svg width="6709" height="4128" xmlns="http://www.w3.org/2000/svg" xmlns:xlink="http://www.w3.org/1999/xlink" overflow="hidden"><defs><clipPath id="clip0"><rect x="583" y="1133" width="6709" height="4128"/></clipPath><clipPath id="clip1"><rect x="584" y="1134" width="6706" height="4125"/></clipPath><clipPath id="clip2"><rect x="584" y="1134" width="6706" height="4125"/></clipPath><clipPath id="clip3"><rect x="584" y="1134" width="6706" height="4125"/></clipPath><clipPath id="clip4"><rect x="584" y="1134" width="6706" height="4125"/></clipPath><clipPath id="clip5"><rect x="584" y="1134" width="6706" height="4125"/></clipPath><clipPath id="clip6"><rect x="986" y="1299" width="6257" height="3575"/></clipPath><clipPath id="clip7"><rect x="986" y="1299" width="6257" height="3575"/></clipPath><clipPath id="clip8"><rect x="986" y="1299" width="6257" height="3575"/></clipPath><clipPath id="clip9"><rect x="986" y="1299" width="6257" height="3575"/></clipPath><clipPath id="clip10"><rect x="986" y="1299" width="6257" height="3575"/></clipPath><clipPath id="clip11"><rect x="986" y="1299" width="6257" height="3575"/></clipPath><clipPath id="clip12"><rect x="986" y="1299" width="6257" height="3575"/></clipPath><clipPath id="clip13"><rect x="986" y="1299" width="6257" height="3575"/></clipPath><clipPath id="clip14"><rect x="986" y="1299" width="6257" height="3575"/></clipPath><clipPath id="clip15"><rect x="986" y="1299" width="6257" height="3575"/></clipPath><clipPath id="clip16"><rect x="986" y="1299" width="6257" height="3575"/></clipPath><clipPath id="clip17"><rect x="986" y="1299" width="6257" height="3575"/></clipPath><clipPath id="clip18"><rect x="986" y="1299" width="6257" height="3575"/></clipPath><clipPath id="clip19"><rect x="986" y="1299" width="6257" height="3575"/></clipPath><clipPath id="clip20"><rect x="584" y="1134" width="6706" height="4125"/></clipPath><clipPath id="clip21"><rect x="584" y="1134" width="6706" height="4125"/></clipPath><clipPath id="clip22"><rect x="584" y="1134" width="6706" height="4125"/></clipPath><clipPath id="clip23"><rect x="584" y="1134" width="6706" height="4125"/></clipPath><clipPath id="clip24"><rect x="584" y="1134" width="6706" height="4125"/></clipPath><clipPath id="clip25"><rect x="584" y="1134" width="6706" height="4125"/></clipPath><clipPath id="clip26"><rect x="584" y="1134" width="6706" height="4125"/></clipPath><clipPath id="clip27"><rect x="584" y="1134" width="6706" height="4125"/></clipPath><clipPath id="clip28"><rect x="584" y="1134" width="6706" height="4125"/></clipPath><clipPath id="clip29"><rect x="584" y="1134" width="6706" height="4125"/></clipPath><clipPath id="clip30"><rect x="584" y="1134" width="6706" height="4125"/></clipPath><clipPath id="clip31"><rect x="584" y="1134" width="6706" height="4125"/></clipPath><clipPath id="clip32"><rect x="584" y="1134" width="6706" height="4125"/></clipPath><clipPath id="clip33"><rect x="584" y="1134" width="6706" height="4125"/></clipPath><clipPath id="clip34"><rect x="584" y="1134" width="6706" height="4125"/></clipPath><clipPath id="clip35"><rect x="584" y="1134" width="6706" height="4125"/></clipPath><clipPath id="clip36"><rect x="584" y="1134" width="6706" height="4125"/></clipPath><clipPath id="clip37"><rect x="584" y="1134" width="6706" height="4125"/></clipPath><clipPath id="clip38"><rect x="584" y="1134" width="6706" height="4125"/></clipPath><clipPath id="clip39"><rect x="584" y="1134" width="6706" height="4125"/></clipPath><clipPath id="clip40"><rect x="584" y="1134" width="6706" height="4125"/></clipPath><clipPath id="clip41"><rect x="584" y="1134" width="6706" height="4125"/></clipPath><clipPath id="clip42"><rect x="584" y="1134" width="6706" height="4125"/></clipPath><clipPath id="clip43"><rect x="584" y="1134" width="6706" height="4125"/></clipPath><clipPath id="clip44"><rect x="584" y="1134" width="6706" height="4125"/></clipPath><clipPath id="clip45"><rect x="584" y="1134" width="6706" height="4125"/></clipPath><clipPath id="clip46"><rect x="584" y="1134" width="6706" height="4125"/></clipPath><clipPath id="clip47"><rect x="584" y="1134" width="6706" height="4125"/></clipPath><clipPath id="clip48"><rect x="584" y="1134" width="6706" height="4125"/></clipPath><clipPath id="clip49"><rect x="584" y="1134" width="6706" height="4125"/></clipPath><clipPath id="clip50"><rect x="584" y="1134" width="6706" height="4125"/></clipPath><clipPath id="clip51"><rect x="584" y="1134" width="6706" height="4125"/></clipPath><clipPath id="clip52"><rect x="584" y="1134" width="6706" height="4125"/></clipPath><clipPath id="clip53"><rect x="584" y="1134" width="6706" height="4125"/></clipPath><clipPath id="clip54"><rect x="584" y="1134" width="6706" height="4125"/></clipPath><clipPath id="clip55"><rect x="584" y="1134" width="6706" height="4125"/></clipPath><clipPath id="clip56"><rect x="584" y="1134" width="6706" height="4125"/></clipPath><clipPath id="clip57"><rect x="584" y="1134" width="6706" height="4125"/></clipPath><clipPath id="clip58"><rect x="584" y="1134" width="6706" height="4125"/></clipPath><clipPath id="clip59"><rect x="584" y="1134" width="6706" height="4125"/></clipPath><clipPath id="clip60"><rect x="584" y="1134" width="6706" height="4125"/></clipPath><clipPath id="clip61"><rect x="584" y="1134" width="6706" height="4125"/></clipPath><clipPath id="clip62"><rect x="584" y="1134" width="6706" height="4125"/></clipPath><clipPath id="clip63"><rect x="584" y="1134" width="6706" height="4125"/></clipPath><clipPath id="clip64"><rect x="584" y="1134" width="6706" height="4125"/></clipPath><clipPath id="clip65"><rect x="584" y="1134" width="6706" height="4125"/></clipPath><clipPath id="clip66"><rect x="584" y="1134" width="6706" height="4125"/></clipPath><clipPath id="clip67"><rect x="584" y="1134" width="6706" height="4125"/></clipPath><clipPath id="clip68"><rect x="584" y="1134" width="6706" height="4125"/></clipPath><clipPath id="clip69"><rect x="584" y="1134" width="6706" height="4125"/></clipPath><clipPath id="clip70"><rect x="584" y="1134" width="6706" height="4125"/></clipPath><clipPath id="clip71"><rect x="584" y="1134" width="6706" height="4125"/></clipPath><clipPath id="clip72"><rect x="584" y="1134" width="6706" height="4125"/></clipPath><clipPath id="clip73"><rect x="584" y="1134" width="6706" height="4125"/></clipPath><clipPath id="clip74"><rect x="584" y="1134" width="6706" height="4125"/></clipPath><clipPath id="clip75"><rect x="584" y="1134" width="6706" height="4125"/></clipPath><clipPath id="clip76"><rect x="584" y="1134" width="6706" height="4125"/></clipPath><clipPath id="clip77"><rect x="584" y="1134" width="6706" height="4125"/></clipPath><clipPath id="clip78"><rect x="584" y="1134" width="6706" height="4125"/></clipPath><clipPath id="clip79"><rect x="584" y="1134" width="6706" height="4125"/></clipPath><clipPath id="clip80"><rect x="584" y="1134" width="6706" height="4125"/></clipPath><clipPath id="clip81"><rect x="584" y="1134" width="6706" height="4125"/></clipPath><clipPath id="clip82"><rect x="584" y="1134" width="6706" height="4125"/></clipPath><clipPath id="clip83"><rect x="584" y="1134" width="6706" height="4125"/></clipPath><clipPath id="clip84"><rect x="584" y="1134" width="6706" height="4125"/></clipPath><clipPath id="clip85"><rect x="584" y="1134" width="6706" height="4125"/></clipPath><clipPath id="clip86"><rect x="584" y="1134" width="6706" height="4125"/></clipPath><clipPath id="clip87"><rect x="584" y="1134" width="6706" height="4125"/></clipPath><clipPath id="clip88"><rect x="584" y="1134" width="6706" height="4125"/></clipPath><clipPath id="clip89"><rect x="584" y="1134" width="6706" height="4125"/></clipPath><clipPath id="clip90"><rect x="584" y="1134" width="6706" height="4125"/></clipPath><clipPath id="clip91"><rect x="584" y="1134" width="6706" height="4125"/></clipPath><clipPath id="clip92"><rect x="584" y="1134" width="6706" height="4125"/></clipPath><clipPath id="clip93"><rect x="584" y="1134" width="6706" height="4125"/></clipPath><clipPath id="clip94"><rect x="584" y="1134" width="6706" height="4125"/></clipPath><clipPath id="clip95"><rect x="584" y="1134" width="6706" height="4125"/></clipPath><clipPath id="clip96"><rect x="584" y="1134" width="6706" height="4125"/></clipPath><clipPath id="clip97"><rect x="584" y="1134" width="6706" height="4125"/></clipPath><clipPath id="clip98"><rect x="584" y="1134" width="6706" height="4125"/></clipPath><clipPath id="clip99"><rect x="584" y="1134" width="6706" height="4125"/></clipPath><clipPath id="clip100"><rect x="584" y="1134" width="6706" height="4125"/></clipPath><clipPath id="clip101"><rect x="584" y="1134" width="6706" height="4125"/></clipPath><clipPath id="clip102"><rect x="584" y="1134" width="6706" height="4125"/></clipPath><clipPath id="clip103"><rect x="584" y="1134" width="6706" height="4125"/></clipPath><clipPath id="clip104"><rect x="584" y="1134" width="6706" height="4125"/></clipPath><clipPath id="clip105"><rect x="584" y="1134" width="6706" height="4125"/></clipPath><clipPath id="clip106"><rect x="584" y="1134" width="6706" height="4125"/></clipPath><clipPath id="clip107"><rect x="584" y="1134" width="6706" height="4125"/></clipPath><clipPath id="clip108"><rect x="584" y="1134" width="6706" height="4125"/></clipPath><clipPath id="clip109"><rect x="584" y="1134" width="6706" height="4125"/></clipPath><clipPath id="clip110"><rect x="584" y="1134" width="6706" height="4125"/></clipPath><clipPath id="clip111"><rect x="584" y="1134" width="6706" height="4125"/></clipPath><clipPath id="clip112"><rect x="584" y="1134" width="6706" height="4125"/></clipPath><clipPath id="clip113"><rect x="584" y="1134" width="6706" height="4125"/></clipPath><clipPath id="clip114"><rect x="584" y="1134" width="6706" height="4125"/></clipPath><clipPath id="clip115"><rect x="584" y="1134" width="6706" height="4125"/></clipPath><clipPath id="clip116"><rect x="584" y="1134" width="6706" height="4125"/></clipPath><clipPath id="clip117"><rect x="584" y="1134" width="6706" height="4125"/></clipPath><clipPath id="clip118"><rect x="584" y="1134" width="6706" height="4125"/></clipPath><clipPath id="clip119"><rect x="584" y="1134" width="6706" height="4125"/></clipPath><clipPath id="clip120"><rect x="584" y="1134" width="6706" height="4125"/></clipPath><clipPath id="clip121"><rect x="584" y="1134" width="6706" height="4125"/></clipPath><clipPath id="clip122"><rect x="584" y="1134" width="6706" height="4125"/></clipPath><clipPath id="clip123"><rect x="584" y="1134" width="6706" height="4125"/></clipPath><clipPath id="clip124"><rect x="584" y="1134" width="6706" height="4125"/></clipPath><clipPath id="clip125"><rect x="584" y="1134" width="6706" height="4125"/></clipPath></defs><g clip-path="url(#clip0)" transform="translate(-583 -1133)"><rect x="584" y="1134" width="6706" height="4125" fill="#FFFFFF"/><g clip-path="url(#clip1)"><path d="M986.5 4751.66 7239.5 4751.66M986.5 4681.65 7239.5 4681.65M986.5 4632.65 7239.5 4632.65M986.5 4593.65 7239.5 4593.65M986.5 4562.65 7239.5 4562.65M986.5 4535.65 7239.5 4535.65M986.5 4512.65 7239.5 4512.65M986.5 4492.65 7239.5 4492.65M986.5 4354.64 7239.5 4354.64M986.5 4285.64 7239.5 4285.64M986.5 4235.64 7239.5 4235.64M986.5 4197.64 7239.5 4197.64M986.5 4165.64 7239.5 4165.64M986.5 4139.64 7239.5 4139.64M986.5 4116.64 7239.5 4116.64M986.5 4095.63 7239.5 4095.63M986.5 3958.63 7239.5 3958.63M986.5 3888.63 7239.5 3888.63M986.5 3838.63 7239.5 3838.63M986.5 3800.62 7239.5 3800.62M986.5 3768.62 7239.5 3768.62M986.5 3742.62 7239.5 3742.62M986.5 3719.62 7239.5 3719.62M986.5 3698.62 7239.5 3698.62M986.5 3561.62 7239.5 3561.62M986.5 3491.61 7239.5 3491.61M986.5 3441.61 7239.5 3441.61M986.5 3403.61 7239.5 3403.61M986.5 3371.61 7239.5 3371.61M986.5 3345.61 7239.5 3345.61M986.5 3322.61 7239.5 3322.61M986.5 3302.61 7239.5 3302.61M986.5 3164.6 7239.5 3164.6M986.5 3094.6 7239.5 3094.6M986.5 3045.6 7239.5 3045.6M986.5 3006.6 7239.5 3006.6M986.5 2975.6 7239.5 2975.6M986.5 2948.6 7239.5 2948.6M986.5 2925.6 7239.5 2925.6M986.5 2905.6 7239.5 2905.6M986.5 2767.59 7239.5 2767.59M986.5 2697.59 7239.5 2697.59M986.5 2648.59 7239.5 2648.59M986.5 2609.59 7239.5 2609.59M986.5 2578.58 7239.5 2578.58M986.5 2551.58 7239.5 2551.58M986.5 2528.58 7239.5 2528.58M986.5 2508.58 7239.5 2508.58M986.5 2370.58 7239.5 2370.58M986.5 2300.58 7239.5 2300.58M986.5 2251.57 7239.5 2251.57M986.5 2212.57 7239.5 2212.57M986.5 2181.57 7239.5 2181.57M986.5 2154.57 7239.5 2154.57M986.5 2131.57 7239.5 2131.57M986.5 2111.57 7239.5 2111.57M986.5 1973.56 7239.5 1973.56M986.5 1904.56 7239.5 1904.56M986.5 1854.56 7239.5 1854.56M986.5 1816.56 7239.5 1816.56M986.5 1784.56 7239.5 1784.56M986.5 1758.56 7239.5 1758.56M986.5 1735.56 7239.5 1735.56M986.5 1714.56 7239.5 1714.56M986.5 1577.55 7239.5 1577.55M986.5 1507.55 7239.5 1507.55M986.5 1457.55 7239.5 1457.55M986.5 1419.55 7239.5 1419.55M986.5 1387.55 7239.5 1387.55M986.5 1361.54 7239.5 1361.54M986.5 1338.54 7239.5 1338.54M986.5 1317.54 7239.5 1317.54" stroke="#F2F2F2" stroke-width="3.4375" stroke-linejoin="round" stroke-miterlimit="10" fill="none"/></g><g clip-path="url(#clip2)"><path d="M986.5 4474.65 7239.5 4474.65M986.5 4077.63 7239.5 4077.63M986.5 3680.62 7239.5 3680.62M986.5 3283.61 7239.5 3283.61M986.5 2887.59 7239.5 2887.59M986.5 2490.58 7239.5 2490.58M986.5 2093.57 7239.5 2093.57M986.5 1696.56 7239.5 1696.56M986.5 1299.5 7239.5 1299.5" stroke="#D9D9D9" stroke-width="3.4375" stroke-linejoin="round" stroke-miterlimit="10" fill="none"/></g><g clip-path="url(#clip3)"><path d="M1010.53 1299.5 1010.53 4871.5M1034.53 1299.5 1034.53 4871.5M1058.53 1299.5 1058.53 4871.5M1083.54 1299.5 1083.54 4871.5M1107.54 1299.5 1107.54 4871.5M1131.54 1299.5 1131.54 4871.5M1155.54 1299.5 1155.54 4871.5M1180.54 1299.5 1180.54 4871.5M1204.54 1299.5 1204.54 4871.5M1228.54 1299.5 1228.54 4871.5M1252.54 1299.5 1252.54 4871.5M1277.54 1299.5 1277.54 4871.5M1301.54 1299.5 1301.54 4871.5M1325.54 1299.5 1325.54 4871.5M1349.54 1299.5 1349.54 4871.5M1374.55 1299.5 1374.55 4871.5M1398.55 1299.5 1398.55 4871.5M1422.55 1299.5 1422.55 4871.5M1446.55 1299.5 1446.55 4871.5M1470.55 1299.5 1470.55 4871.5M1495.55 1299.5 1495.55 4871.5M1519.55 1299.5 1519.55 4871.5M1543.55 1299.5 1543.55 4871.5M1567.55 1299.5 1567.55 4871.5M1592.55 1299.5 1592.55 4871.5M1616.55 1299.5 1616.55 4871.5M1640.55 1299.5 1640.55 4871.5M1664.55 1299.5 1664.55 4871.5M1689.56 1299.5 1689.56 4871.5M1713.56 1299.5 1713.56 4871.5M1737.56 1299.5 1737.56 4871.5M1761.56 1299.5 1761.56 4871.5M1786.56 1299.5 1786.56 4871.5M1810.56 1299.5 1810.56 4871.5M1834.56 1299.5 1834.56 4871.5M1858.56 1299.5 1858.56 4871.5M1883.56 1299.5 1883.56 4871.5M1907.56 1299.5 1907.56 4871.5M1931.56 1299.5 1931.56 4871.5M1955.56 1299.5 1955.56 4871.5M1979.57 1299.5 1979.57 4871.5M2004.57 1299.5 2004.57 4871.5M2028.57 1299.5 2028.57 4871.5M2052.57 1299.5 2052.57 4871.5M2076.57 1299.5 2076.57 4871.5M2101.57 1299.5 2101.57 4871.5M2125.57 1299.5 2125.57 4871.5M2149.57 1299.5 2149.57 4871.5M2173.57 1299.5 2173.57 4871.5M2198.57 1299.5 2198.57 4871.5M2222.57 1299.5 2222.57 4871.5M2246.57 1299.5 2246.57 4871.5M2270.57 1299.5 2270.57 4871.5M2295.58 1299.5 2295.58 4871.5M2319.58 1299.5 2319.58 4871.5M2343.58 1299.5 2343.58 4871.5M2367.58 1299.5 2367.58 4871.5M2392.58 1299.5 2392.58 4871.5M2416.58 1299.5 2416.58 4871.5M2440.58 1299.5 2440.58 4871.5M2464.58 1299.5 2464.58 4871.5M2488.58 1299.5 2488.58 4871.5M2513.58 1299.5 2513.58 4871.5M2537.58 1299.5 2537.58 4871.5M2561.58 1299.5 2561.58 4871.5M2585.58 1299.5 2585.58 4871.5M2610.59 1299.5 2610.59 4871.5M2634.59 1299.5 2634.59 4871.5M2658.59 1299.5 2658.59 4871.5M2682.59 1299.5 2682.59 4871.5M2707.59 1299.5 2707.59 4871.5M2731.59 1299.5 2731.59 4871.5M2755.59 1299.5 2755.59 4871.5M2779.59 1299.5 2779.59 4871.5M2804.59 1299.5 2804.59 4871.5M2828.59 1299.5 2828.59 4871.5M2852.59 1299.5 2852.59 4871.5M2876.59 1299.5 2876.59 4871.5M2901.6 1299.5 2901.6 4871.5M2925.6 1299.5 2925.6 4871.5M2949.6 1299.5 2949.6 4871.5M2973.6 1299.5 2973.6 4871.5M2997.6 1299.5 2997.6 4871.5M3022.6 1299.5 3022.6 4871.5M3046.6 1299.5 3046.6 4871.5M3070.6 1299.5 3070.6 4871.5M3094.6 1299.5 3094.6 4871.5M3119.6 1299.5 3119.6 4871.5M3143.6 1299.5 3143.6 4871.5M3167.6 1299.5 3167.6 4871.5M3191.6 1299.5 3191.6 4871.5M3216.61 1299.5 3216.61 4871.5M3240.61 1299.5 3240.61 4871.5M3264.61 1299.5 3264.61 4871.5M3288.61 1299.5 3288.61 4871.5M3313.61 1299.5 3313.61 4871.5M3337.61 1299.5 3337.61 4871.5M3361.61 1299.5 3361.61 4871.5M3385.61 1299.5 3385.61 4871.5M3410.61 1299.5 3410.61 4871.5M3434.61 1299.5 3434.61 4871.5M3458.61 1299.5 3458.61 4871.5M3482.61 1299.5 3482.61 4871.5M3506.62 1299.5 3506.62 4871.5M3531.62 1299.5 3531.62 4871.5M3555.62 1299.5 3555.62 4871.5M3579.62 1299.5 3579.62 4871.5M3603.62 1299.5 3603.62 4871.5M3628.62 1299.5 3628.62 4871.5M3652.62 1299.5 3652.62 4871.5M3676.62 1299.5 3676.62 4871.5M3700.62 1299.5 3700.62 4871.5M3725.62 1299.5 3725.62 4871.5M3749.62 1299.5 3749.62 4871.5M3773.62 1299.5 3773.62 4871.5M3797.62 1299.5 3797.62 4871.5M3822.63 1299.5 3822.63 4871.5M3846.63 1299.5 3846.63 4871.5M3870.63 1299.5 3870.63 4871.5M3894.63 1299.5 3894.63 4871.5M3919.63 1299.5 3919.63 4871.5M3943.63 1299.5 3943.63 4871.5M3967.63 1299.5 3967.63 4871.5M3991.63 1299.5 3991.63 4871.5M4015.63 1299.5 4015.63 4871.5M4040.63 1299.5 4040.63 4871.5M4064.63 1299.5 4064.63 4871.5M4088.63 1299.5 4088.63 4871.5M4112.64 1299.5 4112.64 4871.5M4137.64 1299.5 4137.64 4871.5M4161.64 1299.5 4161.64 4871.5M4185.64 1299.5 4185.64 4871.5M4209.64 1299.5 4209.64 4871.5M4234.64 1299.5 4234.64 4871.5M4258.64 1299.5 4258.64 4871.5M4282.64 1299.5 4282.64 4871.5M4306.64 1299.5 4306.64 4871.5M4331.64 1299.5 4331.64 4871.5M4355.64 1299.5 4355.64 4871.5M4379.64 1299.5 4379.64 4871.5M4403.64 1299.5 4403.64 4871.5M4428.65 1299.5 4428.65 4871.5M4452.65 1299.5 4452.65 4871.5M4476.65 1299.5 4476.65 4871.5M4500.65 1299.5 4500.65 4871.5M4524.65 1299.5 4524.65 4871.5M4549.65 1299.5 4549.65 4871.5M4573.65 1299.5 4573.65 4871.5M4597.65 1299.5 4597.65 4871.5M4621.65 1299.5 4621.65 4871.5M4646.65 1299.5 4646.65 4871.5M4670.65 1299.5 4670.65 4871.5M4694.65 1299.5 4694.65 4871.5M4718.66 1299.5 4718.66 4871.5M4743.66 1299.5 4743.66 4871.5M4767.66 1299.5 4767.66 4871.5M4791.66 1299.5 4791.66 4871.5M4815.66 1299.5 4815.66 4871.5M4840.66 1299.5 4840.66 4871.5M4864.66 1299.5 4864.66 4871.5M4888.66 1299.5 4888.66 4871.5M4912.66 1299.5 4912.66 4871.5M4937.66 1299.5 4937.66 4871.5M4961.66 1299.5 4961.66 4871.5M4985.66 1299.5 4985.66 4871.5M5009.66 1299.5 5009.66 4871.5M5033.67 1299.5 5033.67 4871.5M5058.67 1299.5 5058.67 4871.5M5082.67 1299.5 5082.67 4871.5M5106.67 1299.5 5106.67 4871.5M5130.67 1299.5 5130.67 4871.5M5155.67 1299.5 5155.67 4871.5M5179.67 1299.5 5179.67 4871.5M5203.67 1299.5 5203.67 4871.5M5227.67 1299.5 5227.67 4871.5M5252.67 1299.5 5252.67 4871.5M5276.67 1299.5 5276.67 4871.5M5300.67 1299.5 5300.67 4871.5M5324.67 1299.5 5324.67 4871.5M5349.68 1299.5 5349.68 4871.5M5373.68 1299.5 5373.68 4871.5M5397.68 1299.5 5397.68 4871.5M5421.68 1299.5 5421.68 4871.5M5446.68 1299.5 5446.68 4871.5M5470.68 1299.5 5470.68 4871.5M5494.68 1299.5 5494.68 4871.5M5518.68 1299.5 5518.68 4871.5M5542.68 1299.5 5542.68 4871.5M5567.68 1299.5 5567.68 4871.5M5591.68 1299.5 5591.68 4871.5M5615.68 1299.5 5615.68 4871.5M5639.69 1299.5 5639.69 4871.5M5664.69 1299.5 5664.69 4871.5M5688.69 1299.5 5688.69 4871.5M5712.69 1299.5 5712.69 4871.5M5736.69 1299.5 5736.69 4871.5M5761.69 1299.5 5761.69 4871.5M5785.69 1299.5 5785.69 4871.5M5809.69 1299.5 5809.69 4871.5M5833.69 1299.5 5833.69 4871.5M5858.69 1299.5 5858.69 4871.5M5882.69 1299.5 5882.69 4871.5M5906.69 1299.5 5906.69 4871.5M5930.69 1299.5 5930.69 4871.5M5955.7 1299.5 5955.7 4871.5M5979.7 1299.5 5979.7 4871.5M6003.7 1299.5 6003.7 4871.5M6027.7 1299.5 6027.7 4871.5M6051.7 1299.5 6051.7 4871.5M6076.7 1299.5 6076.7 4871.5M6100.7 1299.5 6100.7 4871.5M6124.7 1299.5 6124.7 4871.5M6148.7 1299.5 6148.7 4871.5M6173.7 1299.5 6173.7 4871.5M6197.7 1299.5 6197.7 4871.5M6221.7 1299.5 6221.7 4871.5M6245.71 1299.5 6245.71 4871.5M6270.71 1299.5 6270.71 4871.5M6294.71 1299.5 6294.71 4871.5M6318.71 1299.5 6318.71 4871.5M6342.71 1299.5 6342.71 4871.5M6367.71 1299.5 6367.71 4871.5M6391.71 1299.5 6391.71 4871.5M6415.71 1299.5 6415.71 4871.5M6439.71 1299.5 6439.71 4871.5M6464.71 1299.5 6464.71 4871.5M6488.71 1299.5 6488.71 4871.5M6512.71 1299.5 6512.71 4871.5M6536.71 1299.5 6536.71 4871.5M6560.72 1299.5 6560.72 4871.5M6585.72 1299.5 6585.72 4871.5M6609.72 1299.5 6609.72 4871.5M6633.72 1299.5 6633.72 4871.5M6657.72 1299.5 6657.72 4871.5M6682.72 1299.5 6682.72 4871.5M6706.72 1299.5 6706.72 4871.5M6730.72 1299.5 6730.72 4871.5M6754.72 1299.5 6754.72 4871.5M6779.72 1299.5 6779.72 4871.5M6803.72 1299.5 6803.72 4871.5M6827.72 1299.5 6827.72 4871.5M6851.73 1299.5 6851.73 4871.5M6876.73 1299.5 6876.73 4871.5M6900.73 1299.5 6900.73 4871.5M6924.73 1299.5 6924.73 4871.5M6948.73 1299.5 6948.73 4871.5M6973.73 1299.5 6973.73 4871.5M6997.73 1299.5 6997.73 4871.5M7021.73 1299.5 7021.73 4871.5M7045.73 1299.5 7045.73 4871.5M7069.73 1299.5 7069.73 4871.5M7094.73 1299.5 7094.73 4871.5M7118.73 1299.5 7118.73 4871.5M7142.73 1299.5 7142.73 4871.5M7166.74 1299.5 7166.74 4871.5M7191.74 1299.5 7191.74 4871.5M7215.74 1299.5 7215.74 4871.5M7239.5 1299.5 7239.5 4871.5" stroke="#F2F2F2" stroke-width="3.4375" stroke-linejoin="round" stroke-miterlimit="10" fill="none"/></g><g clip-path="url(#clip4)"><path d="M0 0 0.000360892 3572" stroke="#E7E6E6" stroke-width="3.4375" stroke-linejoin="round" stroke-miterlimit="10" fill="none" fill-rule="evenodd" transform="matrix(1 0 0 -1 986.5 4871.5)"/></g><g clip-path="url(#clip5)"><path d="M986.5 4871.5 7239.5 4871.5" stroke="#D9D9D9" stroke-width="3.4375" stroke-linejoin="round" stroke-miterlimit="10" fill="none" fill-rule="evenodd"/></g><g clip-path="url(#clip6)"><path d="M1010 2945.1 1059.03 1784.06 1107.04 1674.05 1156.04 1609.05 1204.04 1564.05 1253.04 1528.05 1301.04 1529.05 1350.04 1530.05 1398.05 1531.05 1447.05 1532.05 1495.05 1532.05 1544.05 1532.05 1592.05 1533.05 1641.05 1533.05 1689.06 1533.05 1738.06 1533.05 1786.06 1533.05 1835.06 1534.05 1883.06 1536.05 1932.06 1539.05 1980.06 1545.05 2028.07 1558.05 2077.07 1581.05 2125.07 1614.05 2174.07 1660.05 2222.07 1669.05 2271.07 1679.06 2319.08 1686.06 2368.08 1688.06 2416.08 1687.06 2465.08 1685.06 2513.08 1685.06 2562.08 1686.06 2610.09 1685.06 2659.09 1680.06 2707.09 1672.05 2756.09 1665.05 2804.09 1659.05 2853.09 1657.05 2901.1 1655.05 2950.1 1654.05 2998.1 1653.05 3046.1 1654.05 3095.1 1654.05 3143.1 1655.05 3192.1 1654.05 3240.11 1654.05 3289.11 1654.05 3337.11 1654.05 3386.11 1655.05 3434.11 1657.05 3483.11 1658.05 3531.12 1659.05 3580.12 1660.05 3628.12 1659.05 3677.12 1658.05 3725.12 1656.05 3774.12 1655.05 3822.13 1655.05 3871.13 1655.05 3919.13 1655.05 3967.13 1655.05 4016.13 1656.05 4064.13 1656.05 4113.13 1658.05 4161.14 1660.05 4210.14 1661.05 4258.14 1662.05 4307.14 1662.05 4355.14 1661.05 4404.14 1661.05 4452.15 1660.05 4501.15 1659.05 4549.15 1659.05 4598.15 1659.05 4646.15 1660.05 4695.15 1660.05 4743.16 1659.05 4792.16 1659.05 4840.16 1658.05 4889.16 1657.05 4937.16 1657.05 4985.16 1658.05 5034.17 1658.05 5082.17 1658.05 5131.17 1657.05 5179.17 1657.05 5228.17 1656.05 5276.17 1656.05 5325.17 1656.05 5373.18 1656.05 5422.18 1656.05 5470.18 1657.05 5519.18 1656.05 5567.18 1656.05 5616.18 1656.05 5664.19 1657.05 5713.19 1658.05 5761.19 1660.05 5810.19 1662.05 5858.19 1664.05 5907.19 1665.05 5955.2 1664.05 6003.2 1661.05 6052.2 1654.05 6100.2 1627.05 6149.2 1603.05 6197.2 1581.05 6246.21 1563.05 6294.21 1549.05 6343.21 1540.05 6391.21 1534.05 6440.21 1530.05 6488.21 1528.05 6537.21 1527.05 6585.22 1526.05 6634.22 1525.05 6682.22 1524.05 6731.22 1523.05 6779.22 1523.05 6828.22 1523.05 6876.23 1511 6925.23 1512.05 6973.23 1550.05 7021.23 1605.05 7070.23 1693.06 7118.23 1832.06 7167.24 2945.1 7216 5665" stroke="#C16D91" stroke-width="10.3125" stroke-linecap="round" stroke-linejoin="round" stroke-miterlimit="10" fill="none"/></g><g clip-path="url(#clip7)"><path d="M1010 5665 1059.03 2279.07 1107.04 2100.07 1156.04 2002.07 1204.04 1937.06 1253.04 1888.06 1301.04 1882.06 1350.04 1879.06 1398.05 1876.06 1447.05 1874.06 1495.05 1872.06 1544.05 1870.06 1592.05 1868.06 1641.05 1866.06 1689.06 1863.06 1738.06 1861.06 1786.06 1859.06 1835.06 1858 1883.06 1860.06 1932.06 1867.06 1980.06 1878.06 2028.07 1887.06 2077.07 1889.06 2125.07 1888.06 2174.07 1895.06 2222.07 1919.06 2271.07 1941.06 2319.08 1959.06 2368.08 1974.06 2416.08 1985.07 2465.08 1992.07 2513.08 1996.07 2562.08 2002.07 2610.09 2002.07 2659.09 1998.07 2707.09 1993.07 2756.09 1991.07 2804.09 1988.07 2853.09 1987.07 2901.1 1988.07 2950.1 1992.07 2998.1 1995.07 3046.1 1996.07 3095.1 1996.07 3143.1 1996.07 3192.1 1996.07 3240.11 1996.07 3289.11 1997.07 3337.11 2000.07 3386.11 2003.07 3434.11 2004.07 3483.11 2005.07 3531.12 2005.07 3580.12 2003.07 3628.12 2000.07 3677.12 1999.07 3725.12 1998.07 3774.12 2002.07 3822.13 2005.07 3871.13 2006.07 3919.13 2007.07 3967.13 2007.07 4016.13 2008.07 4064.13 2011.07 4113.13 2014.07 4161.14 2012.07 4210.14 2009.07 4258.14 2006.07 4307.14 2006.07 4355.14 2005.07 4404.14 2004.07 4452.15 2004.07 4501.15 2007.07 4549.15 2010.07 4598.15 2011.07 4646.15 2012.07 4695.15 2014.07 4743.16 2015.07 4792.16 2016.07 4840.16 2017.07 4889.16 2019.07 4937.16 2021.07 4985.16 2022.07 5034.17 2022.07 5082.17 2023.07 5131.17 2024.07 5179.17 2024.07 5228.17 2025.07 5276.17 2027.07 5325.17 2028.07 5373.18 2029.07 5422.18 2029.07 5470.18 2029.07 5519.18 2028.07 5567.18 2028.07 5616.18 2029.07 5664.19 2031.07 5713.19 2032.07 5761.19 2032.07 5810.19 2031.07 5858.19 2027.07 5907.19 2021.07 5955.2 2014.07 6003.2 2009.07 6052.2 2008.07 6100.2 1981.07 6149.2 1954.06 6197.2 1935.06 6246.21 1927.06 6294.21 1926.06 6343.21 1931.06 6391.21 1937.06 6440.21 1942.06 6488.21 1944.06 6537.21 1946.06 6585.22 1947.06 6634.22 1947.06 6682.22 1946.06 6731.22 1944.06 6779.22 1942.06 6828.22 1939.06 6876.23 1926.06 6925.23 1921.06 6973.23 1963.06 7021.23 2027.07 7070.23 2100.07 7118.23 2204.07 7167.24 5665 7216 5665" stroke="#2F5597" stroke-width="10.3125" stroke-linecap="round" stroke-linejoin="round" stroke-miterlimit="10" fill="none"/></g><g clip-path="url(#clip8)"><path d="M1010 5665 1059.03 5665 1107.04 2407.08 1156.04 2332.08 1204.04 2277.07 1253.04 2234.07 1301.04 2231.07 1350.04 2228.07 1398.05 2226.07 1447.05 2225.07 1495.05 2219.07 1544.05 2218.07 1592.05 2219.07 1641.05 2220.07 1689.06 2222.07 1738.06 2224.07 1786.06 2226.07 1835.06 2229.07 1883.06 2233.07 1932.06 2224.07 1980.06 2127.07 2028.07 1953.06 2077.07 1801.06 2125.07 1695.06 2174.07 1626.05 2222.07 1621.05 2271.07 1618.05 2319.08 1615.05 2368.08 1613.05 2416.08 1612.05 2465.08 1611.05 2513.08 1611 2562.08 2798.09 2610.09 2625.09 2659.09 2615.09 2707.09 2640.09 2756.09 2638.09 2804.09 2647.09 2853.09 2671.09 2901.1 2692.09 2950.1 2760.09 2998.1 2685.09 3046.1 2671.09 3095.1 2667.09 3143.1 2667.09 3192.1 2678.09 3240.11 2696.09 3289.11 2715.09 3337.11 2756.09 3386.11 2687.09 3434.11 2669.09 3483.11 2649.09 3531.12 2638.09 3580.12 2626.09 3628.12 2626.09 3677.12 2630.09 3725.12 2745.09 3774.12 2677.09 3822.13 2681.09 3871.13 2728.09 3919.13 2730.09 3967.13 2734.09 4016.13 2731.09 4064.13 2735.09 4113.13 2737.09 4161.14 2645.09 4210.14 2643.09 4258.14 2642.09 4307.14 2648.09 4355.14 2651.09 4404.14 2651.09 4452.15 2654.09 4501.15 2749.09 4549.15 2671.09 4598.15 2671.09 4646.15 2677.09 4695.15 2678.09 4743.16 2676.09 4792.16 2675.09 4840.16 2682.09 4889.16 2749.09 4937.16 2695.09 4985.16 2694.09 5034.17 2698.09 5082.17 2700.09 5131.17 2699.09 5179.17 2696.09 5228.17 2707.09 5276.17 2756.09 5325.17 2701.09 5373.18 2706.09 5422.18 2710.09 5470.18 2712.09 5519.18 2712.09 5567.18 2718.09 5616.18 2723.09 5664.19 2762.09 5713.19 2681.09 5761.19 2659.09 5810.19 2637.09 5858.19 2609.09 5907.19 2591.08 5955.2 2586.08 6003.2 2591.08 6052.2 2804.09 6100.2 2838.09 6149.2 2824.09 6197.2 2815.09 6246.21 2801.09 6294.21 2791.09 6343.21 2783.09 6391.21 2778.09 6440.21 2779.09 6488.21 2777.09 6537.21 2778.09 6585.22 2780.09 6634.22 2782.09 6682.22 2785.09 6731.22 3105.1 6779.22 3122.1 6828.22 3324.11 6876.23 3420.11 6925.23 5665 6973.23 5665 7021.23 5665 7070.23 5665 7118.23 5665 7167.24 5665 7216 5665" stroke="#ED7D31" stroke-width="10.3125" stroke-linecap="round" stroke-linejoin="round" stroke-miterlimit="10" stroke-dasharray="20.625 20.625" fill="none"/></g><g clip-path="url(#clip9)"><path d="M1010 5665 1059.03 2438.08 1107.04 2255.07 1156.04 2145.07 1204.04 2069.07 1253.04 2018.07 1301.04 2017.07 1350.04 2020.07 1398.05 2022.07 1447.05 2024.07 1495.05 2026.07 1544.05 2028.07 1592.05 2031.07 1641.05 2033.07 1689.06 2035.07 1738.06 2038.07 1786.06 2040.07 1835.06 2038.07 1883.06 2028.07 1932.06 2007.07 1980.06 1982.07 2028.07 1971 2077.07 1990.07 2125.07 2045.07 2174.07 2137.07 2222.07 2144.07 2271.07 2151.07 2319.08 2158.07 2368.08 2167.07 2416.08 2187.07 2465.08 2217.07 2513.08 2247.07 2562.08 2246.07 2610.09 2249.07 2659.09 2242.07 2707.09 2237.07 2756.09 2242.07 2804.09 2248.07 2853.09 2254.07 2901.1 2253.07 2950.1 2241.07 2998.1 2241.07 3046.1 2242.07 3095.1 2245.07 3143.1 2250.07 3192.1 2256.07 3240.11 2259.07 3289.11 2257.07 3337.11 2247.07 3386.11 2245.07 3434.11 2240.07 3483.11 2239.07 3531.12 2238.07 3580.12 2243.07 3628.12 2251.07 3677.12 2261.07 3725.12 2262.07 3774.12 2267.07 3822.13 2277.07 3871.13 2280.07 3919.13 2282.07 3967.13 2283.07 4016.13 2281.07 4064.13 2271.07 4113.13 2255.07 4161.14 2261.07 4210.14 2262.07 4258.14 2266.07 4307.14 2269.07 4355.14 2271.07 4404.14 2277.07 4452.15 2280.07 4501.15 2267.07 4549.15 2272.07 4598.15 2273.07 4646.15 2275.07 4695.15 2276.07 4743.16 2277.07 4792.16 2280.07 4840.16 2281.07 4889.16 2274.07 4937.16 2276.07 4985.16 2277.07 5034.17 2278.07 5082.17 2279.07 5131.17 2281.07 5179.17 2284.07 5228.17 2284.07 5276.17 2277.07 5325.17 2280.07 5373.18 2282.07 5422.18 2284.07 5470.18 2285.07 5519.18 2287.08 5567.18 2290.08 5616.18 2287.08 5664.19 2275.07 5713.19 2270.07 5761.19 2263.07 5810.19 2255.07 5858.19 2254.07 5907.19 2261.07 5955.2 2283.07 6003.2 2317.08 6052.2 2340.08 6100.2 2326.08 6149.2 2311.08 6197.2 2291.08 6246.21 2266.07 6294.21 2242.07 6343.21 2223.07 6391.21 2208.07 6440.21 2199.07 6488.21 2193.07 6537.21 2191.07 6585.22 2190.07 6634.22 2190.07 6682.22 2191.07 6731.22 2193.07 6779.22 2195.07 6828.22 2198.07 6876.23 2190.07 6925.23 2193.07 6973.23 2228.07 7021.23 2206.07 7070.23 2156.07 7118.23 2212.07 7167.24 5665 7216 5665" stroke="#595959" stroke-width="10.3125" stroke-linecap="round" stroke-linejoin="round" stroke-miterlimit="10" stroke-dasharray="20.625 20.625" fill="none"/></g><g clip-path="url(#clip10)"><path d="M1010 5665 1059.03 2801.09 1107.04 2684.09 1156.04 2615.09 1204.04 2566.08 1253.04 2527.08 1301.04 2526.08 1350.04 2527.08 1398.05 2527.08 1447.05 2527.08 1495.05 2527.08 1544.05 2527.08 1592.05 2527.08 1641.05 2526.08 1689.06 2527.08 1738.06 2525.08 1786.06 2509.08 1835.06 2450.08 1883.06 2344.08 1932.06 2230.07 1980.06 2143.07 2028.07 2100 2077.07 2117.07 2125.07 2204.07 2174.07 2443.08 2222.07 2368.08 2271.07 2305.08 2319.08 2265.07 2368.08 2242.07 2416.08 2259.07 2465.08 2270.07 2513.08 2284.07 2562.08 2299.08 2610.09 2331.08 2659.09 2373.08 2707.09 2335.08 2756.09 2332.08 2804.09 2341.08 2853.09 2364.08 2901.1 2392.08 2950.1 2413.08 2998.1 2409.08 3046.1 2395.08 3095.1 2382.08 3143.1 2379.08 3192.1 2386.08 3240.11 2403.08 3289.11 2422.08 3337.11 2425.08 3386.11 2409.08 3434.11 2384.08 3483.11 2360.08 3531.12 2343.08 3580.12 2336.08 3628.12 2344.08 3677.12 2369.08 3725.12 2399.08 3774.12 2431.08 3822.13 2453.08 3871.13 2462.08 3919.13 2467.08 3967.13 2469.08 4016.13 2466.08 4064.13 2448.08 4113.13 2419.08 4161.14 2386.08 4210.14 2358.08 4258.14 2339.08 4307.14 2333.08 4355.14 2338.08 4404.14 2354.08 4452.15 2379.08 4501.15 2400.08 4549.15 2401.08 4598.15 2391.08 4646.15 2380.08 4695.15 2375.08 4743.16 2379.08 4792.16 2391.08 4840.16 2409.08 4889.16 2422.08 4937.16 2424.08 4985.16 2419.08 5034.17 2413.08 5082.17 2412.08 5131.17 2420.08 5179.17 2432.08 5228.17 2446.08 5276.17 2454.08 5325.17 2456.08 5373.18 2452.08 5422.18 2447.08 5470.18 2445.08 5519.18 2447.08 5567.18 2453.08 5616.18 2454.08 5664.19 2435.08 5713.19 2397.08 5761.19 2354.08 5810.19 2315.08 5858.19 2289.08 5907.19 2277.07 5955.2 2286.07 6003.2 2320.08 6052.2 2378.08 6100.2 2279.07 6149.2 2216.07 6197.2 2187.07 6246.21 2192.07 6294.21 2223.07 6343.21 2278.07 6391.21 2351.08 6440.21 2443.08 6488.21 2545.08 6537.21 2675.09 6585.22 2840.09 6634.22 3072.1 6682.22 3388.11 6731.22 3848.13 6779.22 4474.15 6828.22 5665 6876.23 5665 6925.23 3585.12 6973.23 2737.09 7021.23 2335.08 7070.23 2188.07 7118.23 2226.07 7167.24 5665 7216 5665" stroke="#996633" stroke-width="10.3125" stroke-linecap="round" stroke-linejoin="round" stroke-miterlimit="10" fill="none"/></g><g clip-path="url(#clip11)"><path d="M1010 5665 1059.03 2999.1 1107.04 2602.09 1156.04 2389.08 1204.04 2263.07 1253.04 2190.07 1301.04 2183 1350.04 2183.07 1398.05 2183.07 1447.05 2183.07 1495.05 2183.07 1544.05 2183.07 1592.05 2184.07 1641.05 2184.07 1689.06 2184.07 1738.06 2184.07 1786.06 2184.07 1835.06 2184.07 1883.06 2185.07 1932.06 2189.07 1980.06 2195.07 2028.07 2208.07 2077.07 2230.07 2125.07 2265.07 2174.07 2313.08 2222.07 2323.08 2271.07 2327.08 2319.08 2312.08 2368.08 2282.07 2416.08 2254.07 2465.08 2254.07 2513.08 2238.07 2562.08 2212.07 2610.09 2227.07 2659.09 2282.07 2707.09 2330.08 2756.09 2322.08 2804.09 2316.08 2853.09 2322.08 2901.1 2355.08 2950.1 2432.08 2998.1 2576.08 3046.1 2857.09 3095.1 4045.13 3143.1 5665 3192.1 5665 3240.11 5665 3289.11 5665 3337.11 5665 3386.11 5665 3434.11 5665 3483.11 5665 3531.12 5665 3580.12 5665 3628.12 5665 3677.12 5665 3725.12 5665 3774.12 5665 3822.13 5665 3871.13 5665 3919.13 5665 3967.13 5665 4016.13 5665 4064.13 5665 4113.13 5665 4161.14 5665 4210.14 5665 4258.14 5665 4307.14 5665 4355.14 5665 4404.14 5665 4452.15 5665 4501.15 5665 4549.15 5665 4598.15 5665 4646.15 5665 4695.15 5665 4743.16 5665 4792.16 5665 4840.16 5665 4889.16 5665 4937.16 5665 4985.16 5665 5034.17 5665 5082.17 5665 5131.17 5665 5179.17 5665 5228.17 5665 5276.17 5665 5325.17 5665 5373.18 5665 5422.18 5665 5470.18 5665 5519.18 5665 5567.18 5665 5616.18 5665 5664.19 5665 5713.19 5665 5761.19 5665 5810.19 5665 5858.19 5665 5907.19 5665 5955.2 5665 6003.2 5665 6052.2 5665 6100.2 5665 6149.2 5665 6197.2 5665 6246.21 5665 6294.21 5665 6343.21 5665 6391.21 5665 6440.21 5665 6488.21 5665 6537.21 5665 6585.22 5665 6634.22 5665 6682.22 5665 6731.22 5665 6779.22 5665 6828.22 5665 6876.23 5665 6925.23 5665 6973.23 5665 7021.23 5665 7070.23 5665 7118.23 5665 7167.24 5665 7216 5665" stroke="#A6A6A6" stroke-width="10.3125" stroke-linecap="round" stroke-linejoin="round" stroke-miterlimit="10" fill="none"/></g><g clip-path="url(#clip12)"><path d="M1010 5665 1059.03 5665 1107.04 5665 1156.04 5665 1204.04 5665 1253.04 5665 1301.04 5665 1350.04 2692.09 1398.05 2464.08 1447.05 2370.08 1495.05 2346.08 1544.05 2347.08 1592.05 2347.08 1641.05 2348.08 1689.06 2347.08 1738.06 2348.08 1786.06 2349.08 1835.06 2350.08 1883.06 2352.08 1932.06 2355.08 1980.06 2362.08 2028.07 2374.08 2077.07 2396.08 2125.07 2428.08 2174.07 2472.08 2222.07 2482.08 2271.07 2492.08 2319.08 2498.08 2368.08 2501.08 2416.08 2499.08 2465.08 2497.08 2513.08 2498.08 2562.08 2499.08 2610.09 2498.08 2659.09 2493.08 2707.09 2486.08 2756.09 2478.08 2804.09 2472.08 2853.09 2470.08 2901.1 2468.08 2950.1 2467.08 2998.1 2466.08 3046.1 2466.08 3095.1 2467.08 3143.1 2468.08 3192.1 2468.08 3240.11 2467.08 3289.11 2466.08 3337.11 2466.08 3386.11 2467.08 3434.11 2469.08 3483.11 2471.08 3531.12 2471.08 3580.12 2472.08 3628.12 2472.08 3677.12 2470.08 3725.12 2468.08 3774.12 2467.08 3822.13 2467.08 3871.13 2467.08 3919.13 2467.08 3967.13 2467.08 4016.13 2467.08 4064.13 2468.08 4113.13 2470.08 4161.14 2472.08 4210.14 2473.08 4258.14 2474.08 4307.14 2474.08 4355.14 2473.08 4404.14 2473.08 4452.15 2472.08 4501.15 2470.08 4549.15 2470.08 4598.15 2471.08 4646.15 2471.08 4695.15 2471.08 4743.16 2470.08 4792.16 2470.08 4840.16 2469.08 4889.16 2468.08 4937.16 2468.08 4985.16 2468.08 5034.17 2468.08 5082.17 2469.08 5131.17 2468.08 5179.17 2467.08 5228.17 2466.08 5276.17 2466.08 5325.17 2467.08 5373.18 2467.08 5422.18 2467.08 5470.18 2467.08 5519.18 2467.08 5567.18 2467.08 5616.18 2467.08 5664.19 2467.08 5713.19 2469.08 5761.19 2471.08 5810.19 2474.08 5858.19 2476.08 5907.19 2477.08 5955.2 2475.08 6003.2 2470.08 6052.2 2463.08 6100.2 2438.08 6149.2 2414.08 6197.2 2392.08 6246.21 2373.08 6294.21 2358.08 6343.21 2348.08 6391.21 2343.08 6440.21 2339.08 6488.21 2336.08 6537.21 2335 6585.22 2359.08 6634.22 2453.08 6682.22 2681.09 6731.22 5665 6779.22 5665 6828.22 5665 6876.23 5665 6925.23 5665 6973.23 5665 7021.23 5665 7070.23 5665 7118.23 5665 7167.24 5665 7216 5665" stroke="#B4C7E7" stroke-width="10.3125" stroke-linecap="round" stroke-linejoin="round" stroke-miterlimit="10" fill="none"/></g><g clip-path="url(#clip13)"><path d="M1010 5665 1059.03 5665 1107.04 5665 1156.04 5665 1204.04 5665 1253.04 5665 1301.04 5665 1350.04 2919.1 1398.05 2647.09 1447.05 2547.08 1495.05 2530.08 1544.05 2529.08 1592.05 2529.08 1641.05 2530.08 1689.06 2530.08 1738.06 2530.08 1786.06 2531.08 1835.06 2532.08 1883.06 2534.08 1932.06 2537.08 1980.06 2544.08 2028.07 2557.08 2077.07 2578.08 2125.07 2611.09 2174.07 2654.09 2222.07 2664.09 2271.07 2674.09 2319.08 2680.09 2368.08 2682.09 2416.08 2682.09 2465.08 2681.09 2513.08 2679.09 2562.08 2680.09 2610.09 2680.09 2659.09 2675.09 2707.09 2669.09 2756.09 2661.09 2804.09 2655.09 2853.09 2653.09 2901.1 2651.09 2950.1 2650.09 2998.1 2650.09 3046.1 2649.09 3095.1 2649.09 3143.1 2650.09 3192.1 2650.09 3240.11 2650.09 3289.11 2650.09 3337.11 2650.09 3386.11 2652.09 3434.11 2652.09 3483.11 2653.09 3531.12 2655.09 3580.12 2656.09 3628.12 2655.09 3677.12 2654.09 3725.12 2651.09 3774.12 2650.09 3822.13 2649.09 3871.13 2649.09 3919.13 2649.09 3967.13 2649.09 4016.13 2650.09 4064.13 2652.09 4113.13 2653.09 4161.14 2655.09 4210.14 2657.09 4258.14 2657.09 4307.14 2656.09 4355.14 2656.09 4404.14 2655.09 4452.15 2654.09 4501.15 2653.09 4549.15 2653.09 4598.15 2654.09 4646.15 2654.09 4695.15 2654.09 4743.16 2653.09 4792.16 2653.09 4840.16 2652.09 4889.16 2651.09 4937.16 2651.09 4985.16 2651.09 5034.17 2652.09 5082.17 2652.09 5131.17 2651.09 5179.17 2650.09 5228.17 2649.09 5276.17 2648.09 5325.17 2649.09 5373.18 2650.09 5422.18 2650.09 5470.18 2650.09 5519.18 2650.09 5567.18 2651.09 5616.18 2651.09 5664.19 2650.09 5713.19 2653.09 5761.19 2654.09 5810.19 2655.09 5858.19 2657.09 5907.19 2657.09 5955.2 2656.09 6003.2 2654.09 6052.2 2647.09 6100.2 2621.09 6149.2 2596.09 6197.2 2574.08 6246.21 2556.08 6294.21 2542.08 6343.21 2532.08 6391.21 2526.08 6440.21 2522.08 6488.21 2519.08 6537.21 2518 6585.22 2536.08 6634.22 2636.09 6682.22 2907.1 6731.22 5665 6779.22 5665 6828.22 5665 6876.23 5665 6925.23 5665 6973.23 5665 7021.23 5665 7070.23 5665 7118.23 5665 7167.24 5665 7216 5665" stroke="#BF9000" stroke-width="10.3125" stroke-linecap="round" stroke-linejoin="round" stroke-miterlimit="10" fill="none"/></g><g clip-path="url(#clip14)"><path d="M1010 5665 1059.03 5665 1107.04 4364.14 1156.04 4139.14 1204.04 3973.13 1253.04 3938.13 1301.04 3917.13 1350.04 3870.13 1398.05 3842.13 1447.05 3813.12 1495.05 3784.12 1544.05 3778.12 1592.05 3745.12 1641.05 3712.12 1689.06 3686.12 1738.06 3662.12 1786.06 3648.12 1835.06 3638.12 1883.06 3621.12 1932.06 3488.11 1980.06 3181.1 2028.07 2938.1 2077.07 2784.09 2125.07 2693.09 2174.07 2647.09 2222.07 2639.09 2271.07 2632.09 2319.08 2626.09 2368.08 2621.09 2416.08 2617.09 2465.08 2613.09 2513.08 2610.09 2562.08 2607.09 2610.09 2601.09 2659.09 2594.09 2707.09 2587.08 2756.09 2581.08 2804.09 2575.08 2853.09 2571.08 2901.1 2568.08 2950.1 2566.08 2998.1 2560.08 3046.1 2555.08 3095.1 2549.08 3143.1 2543.08 3192.1 2539.08 3240.11 2534.08 3289.11 2531.08 3337.11 2513.08 3386.11 2506.08 3434.11 2495.08 3483.11 2453.08 3531.12 2441.08 3580.12 2474.08 3628.12 2485.08 3677.12 2468.08 3725.12 2456.08 3774.12 2431 3822.13 2439.08 3871.13 2438.08 3919.13 2486.08 3967.13 2520.08 4016.13 2506.08 4064.13 2493.08 4113.13 2459.08 4161.14 2470.08 4210.14 2479.08 4258.14 2550.08 4307.14 2622.09 4355.14 2619.09 4404.14 2618.09 4452.15 2571.08 4501.15 2580.08 4549.15 2631.09 4598.15 2712.09 4646.15 2811.09 4695.15 2839.09 4743.16 2812.09 4792.16 2791.09 4840.16 2831.09 4889.16 2944.1 4937.16 3013.1 4985.16 3103.1 5034.17 3120.1 5082.17 3118.1 5131.17 3143.1 5179.17 3203.1 5228.17 3401.11 5276.17 3462.11 5325.17 3443.11 5373.18 3465.11 5422.18 3486.11 5470.18 3625.12 5519.18 3855.13 5567.18 3732.12 5616.18 4096.13 5664.19 4085.13 5713.19 5665 5761.19 5665 5810.19 5665 5858.19 5665 5907.19 5665 5955.2 5665 6003.2 5665 6052.2 5665 6100.2 5665 6149.2 5665 6197.2 5665 6246.21 5665 6294.21 5665 6343.21 5665 6391.21 5665 6440.21 5665 6488.21 5665 6537.21 5665 6585.22 5665 6634.22 5665 6682.22 5665 6731.22 5665 6779.22 5665 6828.22 5665 6876.23 5665 6925.23 5665 6973.23 5665 7021.23 5665 7070.23 5665 7118.23 5665 7167.24 5665 7216 5665" stroke="#7030A0" stroke-width="10.3125" stroke-linecap="round" stroke-linejoin="round" stroke-miterlimit="10" fill="none"/></g><g clip-path="url(#clip15)"><path d="M1010 5665 1059.03 5665 1107.04 5665 1156.04 5665 1204.04 5665 1253.04 5665 1301.04 5665 1350.04 5665 1398.05 5665 1447.05 5665 1495.05 5665 1544.05 5665 1592.05 5665 1641.05 5665 1689.06 5665 1738.06 5665 1786.06 5665 1835.06 5665 1883.06 5665 1932.06 5665 1980.06 5665 2028.07 5665 2077.07 5665 2125.07 5665 2174.07 5665 2222.07 5665 2271.07 5665 2319.08 5665 2368.08 4034.13 2416.08 2944.1 2465.08 2944.1 2513.08 2937.1 2562.08 2638 2610.09 2714.09 2659.09 2724.09 2707.09 2712.09 2756.09 2745.09 2804.09 2757.09 2853.09 2735.09 2901.1 2740.09 2950.1 2778.09 2998.1 2787.09 3046.1 2718.09 3095.1 2762.09 3143.1 2786.09 3192.1 2807.09 3240.11 2729.09 3289.11 2784.09 3337.11 2812.09 3386.11 2772.09 3434.11 2812.09 3483.11 2829.09 3531.12 2834.09 3580.12 2735.09 3628.12 2784.09 3677.12 2803.09 3725.12 2735.09 3774.12 2680.09 3822.13 2650.09 3871.13 2669.09 3919.13 2665.09 3967.13 2645.09 4016.13 2645.09 4064.13 2655.09 4113.13 2659.09 4161.14 2663.09 4210.14 2672.09 4258.14 2694.09 4307.14 2705.09 4355.14 2719.09 4404.14 2728.09 4452.15 2722.09 4501.15 2773.09 4549.15 2841.09 4598.15 2815.09 4646.15 2787.09 4695.15 2710.09 4743.16 2712.09 4792.16 2683.09 4840.16 2690.09 4889.16 2782.09 4937.16 2791.09 4985.16 2802.09 5034.17 2850.09 5082.17 2924.1 5131.17 2940.1 5179.17 2935.1 5228.17 2944.1 5276.17 2940.1 5325.17 2884.09 5373.18 2893.09 5422.18 2942.1 5470.18 2980.1 5519.18 3011.1 5567.18 3082.1 5616.18 3169.1 5664.19 3285.11 5713.19 3457.11 5761.19 4100.13 5810.19 4066.13 5858.19 4169.14 5907.19 4045.13 5955.2 4102.13 6003.2 4303.14 6052.2 4279.14 6100.2 4405.14 6149.2 4458.15 6197.2 4458.15 6246.21 4493.15 6294.21 4632.15 6343.21 4682.15 6391.21 4752.16 6440.21 4632.15 6488.21 4752.16 6537.21 4682.15 6585.22 5665 6634.22 5665 6682.22 5665 6731.22 5665 6779.22 5665 6828.22 5665 6876.23 5665 6925.23 5665 6973.23 5665 7021.23 5665 7070.23 5665 7118.23 5665 7167.24 5665 7216 5665" stroke="#70AD47" stroke-width="10.3125" stroke-linecap="round" stroke-linejoin="round" stroke-miterlimit="10" fill="none"/></g><g clip-path="url(#clip16)"><path d="M1010 5665 1059.03 5665 1107.04 5665 1156.04 5665 1204.04 5665 1253.04 5665 1301.04 5665 1350.04 5665 1398.05 5665 1447.05 5665 1495.05 5665 1544.05 5665 1592.05 5665 1641.05 5665 1689.06 5665 1738.06 5665 1786.06 5665 1835.06 5665 1883.06 5665 1932.06 5665 1980.06 5665 2028.07 5665 2077.07 5665 2125.07 5665 2174.07 5665 2222.07 5665 2271.07 5665 2319.08 5665 2368.08 5665 2416.08 5665 2465.08 5665 2513.08 5665 2562.08 3018.1 2610.09 3002.1 2659.09 2995.1 2707.09 3000.1 2756.09 3022.1 2804.09 3052.1 2853.09 3086.1 2901.1 3100.1 2950.1 3068.1 2998.1 3056.1 3046.1 3050.1 3095.1 3053.1 3143.1 3064.1 3192.1 3087.1 3240.11 3102.1 3289.11 3095.1 3337.11 3056.1 3386.11 3033.1 3434.11 3013.1 3483.11 2998.1 3531.12 2997.1 3580.12 3014.1 3628.12 3044.1 3677.12 3092.1 3725.12 3137.1 3774.12 3138.1 3822.13 3139.1 3871.13 3137.1 3919.13 3133.1 3967.13 3126.1 4016.13 3108.1 4064.13 3069.1 4113.13 3014.1 4161.14 3005.1 4210.14 3007.1 4258.14 3012.1 4307.14 3019.1 4355.14 3032.1 4404.14 3059.1 4452.15 3072.1 4501.15 3052.1 4549.15 3047.1 4598.15 3047.1 4646.15 3051.1 4695.15 3054.1 4743.16 3064.1 4792.16 3082.1 4840.16 3096.1 4889.16 3086.1 4937.16 3086.1 4985.16 3088.1 5034.17 3087.1 5082.17 3089.1 5131.17 3102.1 5179.17 3111.1 5228.17 3121.1 5276.17 3109.1 5325.17 3105.1 5373.18 3111.1 5422.18 3110.1 5470.18 3112.1 5519.18 3111.1 5567.18 3107.1 5616.18 3081.1 5664.19 3032.1 5713.19 2990.1 5761.19 2952.1 5810.19 2923.1 5858.19 2900.1 5907.19 2879.09 5955.2 2847.09 6003.2 2798.09 6052.2 2738 6100.2 2748.09 6149.2 2780.09 6197.2 2829.09 6246.21 2900.1 6294.21 2982.1 6343.21 3072.1 6391.21 3143.1 6440.21 3209.11 6488.21 3289.11 6537.21 3292.11 6585.22 3260.11 6634.22 3196.1 6682.22 3120.1 6731.22 3045.1 6779.22 2999.1 6828.22 2947.1 6876.23 5665 6925.23 5665 6973.23 5665 7021.23 5665 7070.23 5665 7118.23 5665 7167.24 5665 7216 5665" stroke="#FFC000" stroke-width="10.3125" stroke-linecap="round" stroke-linejoin="round" stroke-miterlimit="10" fill="none"/></g><g clip-path="url(#clip17)"><path d="M1010 5665 1059.03 5665 1107.04 5665 1156.04 5665 1204.04 5665 1253.04 5665 1301.04 4016.13 1350.04 3493.11 1398.05 3090.1 1447.05 2995.1 1495.05 2937.1 1544.05 2893.09 1592.05 2858.09 1641.05 2828.09 1689.06 2803.09 1738.06 2785 1786.06 2802.09 1835.06 2827.09 1883.06 2858.09 1932.06 2895.09 1980.06 2946.1 2028.07 3016.1 2077.07 3127.1 2125.07 3331.11 2174.07 3413.11 2222.07 3433.11 2271.07 3439.11 2319.08 3451.11 2368.08 3454.11 2416.08 3451.11 2465.08 3455.11 2513.08 3454.11 2562.08 3462.11 2610.09 3472.11 2659.09 3468.11 2707.09 3464.11 2756.09 3450.11 2804.09 3451.11 2853.09 3448.11 2901.1 3446.11 2950.1 3444.11 2998.1 3447.11 3046.1 3446.11 3095.1 3448.11 3143.1 3448.11 3192.1 3450.11 3240.11 3445.11 3289.11 3444.11 3337.11 3449.11 3386.11 3450.11 3434.11 3451.11 3483.11 3452.11 3531.12 3450.11 3580.12 3454.11 3628.12 3451.11 3677.12 3451.11 3725.12 3446.11 3774.12 3443.11 3822.13 3439.11 3871.13 3445.11 3919.13 3444.11 3967.13 3442.11 4016.13 3444.11 4064.13 3450.11 4113.13 3450.11 4161.14 3458.11 4210.14 3453.11 4258.14 3456.11 4307.14 3455.11 4355.14 3456.11 4404.14 3455.11 4452.15 3458.11 4501.15 3453.11 4549.15 3455.11 4598.15 3456.11 4646.15 3457.11 4695.15 3456.11 4743.16 3450.11 4792.16 3451.11 4840.16 3457.11 4889.16 3451.11 4937.16 3456.11 4985.16 3451.11 5034.17 3453.11 5082.17 3450.11 5131.17 3450.11 5179.17 3446.11 5228.17 3457.11 5276.17 3448.11 5325.17 3452.11 5373.18 3452.11 5422.18 3447.11 5470.18 3451.11 5519.18 3455.11 5567.18 3452.11 5616.18 3455.11 5664.19 3449.11 5713.19 3448.11 5761.19 3457.11 5810.19 3456.11 5858.19 3466.11 5907.19 3470.11 5955.2 3472.11 6003.2 3458.11 6052.2 3456.11 6100.2 3441.11 6149.2 3416.11 6197.2 3386.11 6246.21 3365.11 6294.21 3341.11 6343.21 3329.11 6391.21 3328.11 6440.21 3321.11 6488.21 3319.11 6537.21 3318.11 6585.22 3321.11 6634.22 3313.11 6682.22 3314.11 6731.22 3315.11 6779.22 3324.11 6828.22 3828.13 6876.23 5665 6925.23 5665 6973.23 5665 7021.23 5665 7070.23 5665 7118.23 5665 7167.24 5665 7216 5665" stroke="#595959" stroke-width="10.3125" stroke-linecap="round" stroke-linejoin="round" stroke-miterlimit="10" fill="none"/></g><g clip-path="url(#clip18)"><path d="M1010 5665 1059.03 5665 1107.04 5665 1156.04 5665 1204.04 5665 1253.04 5665 1301.04 5665 1350.04 5665 1398.05 5665 1447.05 5665 1495.05 5665 1544.05 5665 1592.05 5665 1641.05 5665 1689.06 5665 1738.06 5665 1786.06 5665 1835.06 5665 1883.06 5665 1932.06 5665 1980.06 5665 2028.07 5665 2077.07 5665 2125.07 5665 2174.07 5665 2222.07 5665 2271.07 5665 2319.08 5665 2368.08 5665 2416.08 5665 2465.08 5665 2513.08 5665 2562.08 5665 2610.09 3574.12 2659.09 3472.11 2707.09 3411.11 2756.09 3368.11 2804.09 3344 2853.09 3347.11 2901.1 3351.11 2950.1 3369.11 2998.1 3385.11 3046.1 3389.11 3095.1 3388.11 3143.1 3384.11 3192.1 3382.11 3240.11 3389.11 3289.11 3402.11 3337.11 3415.11 3386.11 3424.11 3434.11 3421.11 3483.11 3408.11 3531.12 3395.11 3580.12 3369.11 3628.12 3355.11 3677.12 3346.11 3725.12 3353.11 3774.12 3377.11 3822.13 3402.11 3871.13 3429.11 3919.13 3463.11 3967.13 3490.11 4016.13 3510.12 4064.13 3523.12 4113.13 3523.12 4161.14 3466.11 4210.14 3424.11 4258.14 3398.11 4307.14 3387.11 4355.14 3380.11 4404.14 3377.11 4452.15 3375.11 4501.15 3388.11 4549.15 3396.11 4598.15 3400.11 4646.15 3406.11 4695.15 3411.11 4743.16 3412.11 4792.16 3416.11 4840.16 3421.11 4889.16 3438.11 4937.16 3444.11 4985.16 3450.11 5034.17 3453.11 5082.17 3460.11 5131.17 3478.11 5179.17 3484.11 5228.17 3494.11 5276.17 3508.11 5325.17 3511.12 5373.18 3513.12 5422.18 3522.12 5470.18 3530.12 5519.18 3524.12 5567.18 3536.12 5616.18 3541.12 5664.19 3552.12 5713.19 3545.12 5761.19 3537.12 5810.19 3522.12 5858.19 3493.11 5907.19 3459.11 5955.2 3436.11 6003.2 3414.11 6052.2 3412.11 6100.2 3467.11 6149.2 3527.12 6197.2 3600.12 6246.21 3716.12 6294.21 3906.13 6343.21 4108.13 6391.21 4364.14 6440.21 4317.14 6488.21 4383.14 6537.21 4383.14 6585.22 4458.15 6634.22 4752.16 6682.22 5665 6731.22 5665 6779.22 5665 6828.22 5665 6876.23 5665 6925.23 5665 6973.23 5665 7021.23 5665 7070.23 5665 7118.23 5665 7167.24 5665 7216 5665" stroke="#F4B183" stroke-width="10.3125" stroke-linecap="round" stroke-linejoin="round" stroke-miterlimit="10" fill="none"/></g><g clip-path="url(#clip19)"><path d="M1010 5665 1059.03 5665 1107.04 5665 1156.04 5665 1204.04 5665 1253.04 5665 1301.04 5665 1350.04 5665 1398.05 5665 1447.05 5665 1495.05 5665 1544.05 5665 1592.05 5665 1641.05 5665 1689.06 5665 1738.06 5665 1786.06 5665 1835.06 5665 1883.06 5665 1932.06 5665 1980.06 5665 2028.07 5665 2077.07 5665 2125.07 5665 2174.07 5665 2222.07 5665 2271.07 5665 2319.08 5665 2368.08 5665 2416.08 5665 2465.08 5665 2513.08 5665 2562.08 5665 2610.09 5665 2659.09 3704.12 2707.09 5665 2756.09 5665 2804.09 5665 2853.09 5665 2901.1 5665 2950.1 5665 2998.1 5665 3046.1 5665 3095.1 5665 3143.1 5665 3192.1 5665 3240.11 5665 3289.11 5665 3337.11 5665 3386.11 5665 3434.11 5665 3483.11 5665 3531.12 5665 3580.12 3371 3628.12 3997.13 3677.12 4355.14 3725.12 4046.13 3774.12 3587.12 3822.13 4116.14 3871.13 3790.12 3919.13 3381.11 3967.13 3781.12 4016.13 5665 4064.13 4355.14 4113.13 3834.13 4161.14 3776.12 4210.14 4132.14 4258.14 3531.12 4307.14 3745.12 4355.14 5665 4404.14 5665 4452.15 4046.13 4501.15 4046.13 4549.15 4166.14 4598.15 3857.13 4646.15 3888.13 4695.15 5665 4743.16 5665 4792.16 5665 4840.16 5665 4889.16 5665 4937.16 5665 4985.16 4116.14 5034.17 5665 5082.17 5665 5131.17 5665 5179.17 5665 5228.17 5665 5276.17 5665 5325.17 5665 5373.18 5665 5422.18 5665 5470.18 5665 5519.18 5665 5567.18 5665 5616.18 5665 5664.19 5665 5713.19 5665 5761.19 5665 5810.19 5665 5858.19 5665 5907.19 5665 5955.2 5665 6003.2 5665 6052.2 5665 6100.2 5665 6149.2 5665 6197.2 5665 6246.21 5665 6294.21 5665 6343.21 5665 6391.21 5665 6440.21 5665 6488.21 5665 6537.21 5665 6585.22 5665 6634.22 5665 6682.22 5665 6731.22 5665 6779.22 5665 6828.22 5665 6876.23 5665 6925.23 5665 6973.23 5665 7021.23 5665 7070.23 5665 7118.23 5665 7167.24 5665 7216 5665" stroke="#D52B6C" stroke-width="10.3125" stroke-linecap="round" stroke-linejoin="round" stroke-miterlimit="10" fill="none"/></g><g clip-path="url(#clip20)"><text fill="#595959" font-family="Calibri,Calibri_MSFontService,sans-serif" font-weight="400" font-size="41" transform="matrix(1 0 0 1 927.094 4883)">1</text></g><g clip-path="url(#clip21)"><text fill="#595959" font-family="Calibri,Calibri_MSFontService,sans-serif" font-weight="400" font-size="41" transform="matrix(1 0 0 1 906.194 4486)">10</text></g><g clip-path="url(#clip22)"><text fill="#595959" font-family="Calibri,Calibri_MSFontService,sans-serif" font-weight="400" font-size="41" transform="matrix(1 0 0 1 885.294 4089)">100</text></g><g clip-path="url(#clip23)"><text fill="#595959" font-family="Calibri,Calibri_MSFontService,sans-serif" font-weight="400" font-size="41" transform="matrix(1 0 0 1 854.104 3692)">1,000</text></g><g clip-path="url(#clip24)"><text fill="#595959" font-family="Calibri,Calibri_MSFontService,sans-serif" font-weight="400" font-size="41" transform="matrix(1 0 0 1 833.204 3296)">10,000</text></g><g clip-path="url(#clip25)"><text fill="#595959" font-family="Calibri,Calibri_MSFontService,sans-serif" font-weight="400" font-size="41" transform="matrix(1 0 0 1 812.305 2899)">100,000</text></g><g clip-path="url(#clip26)"><text fill="#595959" font-family="Calibri,Calibri_MSFontService,sans-serif" font-weight="400" font-size="41" transform="matrix(1 0 0 1 781.115 2502)">1,000,000</text></g><g clip-path="url(#clip27)"><text fill="#595959" font-family="Calibri,Calibri_MSFontService,sans-serif" font-weight="400" font-size="41" transform="matrix(1 0 0 1 760.215 2105)">10,000,000</text></g><g clip-path="url(#clip28)"><text fill="#595959" font-family="Calibri,Calibri_MSFontService,sans-serif" font-weight="400" font-size="41" transform="matrix(1 0 0 1 739.315 1708)">100,000,000</text></g><g clip-path="url(#clip29)"><text fill="#595959" font-family="Calibri,Calibri_MSFontService,sans-serif" font-weight="400" font-size="41" transform="matrix(1 0 0 1 708.125 1311)">1,000,000,000</text></g><g clip-path="url(#clip30)"><text fill="#595959" font-family="Calibri,Calibri_MSFontService,sans-serif" font-weight="400" font-size="41" transform="matrix(6.12323e-17 -1 1 6.12323e-17 1024.33 4919)">1</text></g><g clip-path="url(#clip31)"><text fill="#595959" font-family="Calibri,Calibri_MSFontService,sans-serif" font-weight="400" font-size="41" transform="matrix(6.12323e-17 -1 1 6.12323e-17 1121.28 4919)">3</text></g><g clip-path="url(#clip32)"><text fill="#595959" font-family="Calibri,Calibri_MSFontService,sans-serif" font-weight="400" font-size="41" transform="matrix(6.12323e-17 -1 1 6.12323e-17 1218.24 4919)">5</text></g><g clip-path="url(#clip33)"><text fill="#595959" font-family="Calibri,Calibri_MSFontService,sans-serif" font-weight="400" font-size="41" transform="matrix(6.12323e-17 -1 1 6.12323e-17 1315.19 4919)">7</text></g><g clip-path="url(#clip34)"><text fill="#595959" font-family="Calibri,Calibri_MSFontService,sans-serif" font-weight="400" font-size="41" transform="matrix(6.12323e-17 -1 1 6.12323e-17 1412.15 4919)">9</text></g><g clip-path="url(#clip35)"><text fill="#595959" font-family="Calibri,Calibri_MSFontService,sans-serif" font-weight="400" font-size="41" transform="matrix(6.12323e-17 -1 1 6.12323e-17 1509.1 4939)">11</text></g><g clip-path="url(#clip36)"><text fill="#595959" font-family="Calibri,Calibri_MSFontService,sans-serif" font-weight="400" font-size="41" transform="matrix(6.12323e-17 -1 1 6.12323e-17 1606.06 4939)">13</text></g><g clip-path="url(#clip37)"><text fill="#595959" font-family="Calibri,Calibri_MSFontService,sans-serif" font-weight="400" font-size="41" transform="matrix(6.12323e-17 -1 1 6.12323e-17 1703.01 4939)">15</text></g><g clip-path="url(#clip38)"><text fill="#595959" font-family="Calibri,Calibri_MSFontService,sans-serif" font-weight="400" font-size="41" transform="matrix(6.12323e-17 -1 1 6.12323e-17 1799.97 4939)">17</text></g><g clip-path="url(#clip39)"><text fill="#595959" font-family="Calibri,Calibri_MSFontService,sans-serif" font-weight="400" font-size="41" transform="matrix(6.12323e-17 -1 1 6.12323e-17 1896.92 4939)">19</text></g><g clip-path="url(#clip40)"><text fill="#595959" font-family="Calibri,Calibri_MSFontService,sans-serif" font-weight="400" font-size="41" transform="matrix(6.12323e-17 -1 1 6.12323e-17 1993.88 4939)">21</text></g><g clip-path="url(#clip41)"><text fill="#595959" font-family="Calibri,Calibri_MSFontService,sans-serif" font-weight="400" font-size="41" transform="matrix(6.12323e-17 -1 1 6.12323e-17 2090.83 4939)">23</text></g><g clip-path="url(#clip42)"><text fill="#595959" font-family="Calibri,Calibri_MSFontService,sans-serif" font-weight="400" font-size="41" transform="matrix(6.12323e-17 -1 1 6.12323e-17 2187.79 4939)">25</text></g><g clip-path="url(#clip43)"><text fill="#595959" font-family="Calibri,Calibri_MSFontService,sans-serif" font-weight="400" font-size="41" transform="matrix(6.12323e-17 -1 1 6.12323e-17 2284.74 4939)">27</text></g><g clip-path="url(#clip44)"><text fill="#595959" font-family="Calibri,Calibri_MSFontService,sans-serif" font-weight="400" font-size="41" transform="matrix(6.12323e-17 -1 1 6.12323e-17 2381.7 4939)">29</text></g><g clip-path="url(#clip45)"><text fill="#595959" font-family="Calibri,Calibri_MSFontService,sans-serif" font-weight="400" font-size="41" transform="matrix(6.12323e-17 -1 1 6.12323e-17 2478.65 4939)">31</text></g><g clip-path="url(#clip46)"><text fill="#595959" font-family="Calibri,Calibri_MSFontService,sans-serif" font-weight="400" font-size="41" transform="matrix(6.12323e-17 -1 1 6.12323e-17 2575.61 4939)">33</text></g><g clip-path="url(#clip47)"><text fill="#595959" font-family="Calibri,Calibri_MSFontService,sans-serif" font-weight="400" font-size="41" transform="matrix(6.12323e-17 -1 1 6.12323e-17 2672.56 4939)">35</text></g><g clip-path="url(#clip48)"><text fill="#595959" font-family="Calibri,Calibri_MSFontService,sans-serif" font-weight="400" font-size="41" transform="matrix(6.12323e-17 -1 1 6.12323e-17 2769.52 4939)">37</text></g><g clip-path="url(#clip49)"><text fill="#595959" font-family="Calibri,Calibri_MSFontService,sans-serif" font-weight="400" font-size="41" transform="matrix(6.12323e-17 -1 1 6.12323e-17 2866.47 4939)">39</text></g><g clip-path="url(#clip50)"><text fill="#595959" font-family="Calibri,Calibri_MSFontService,sans-serif" font-weight="400" font-size="41" transform="matrix(6.12323e-17 -1 1 6.12323e-17 2963.43 4939)">41</text></g><g clip-path="url(#clip51)"><text fill="#595959" font-family="Calibri,Calibri_MSFontService,sans-serif" font-weight="400" font-size="41" transform="matrix(6.12323e-17 -1 1 6.12323e-17 3060.38 4939)">43</text></g><g clip-path="url(#clip52)"><text fill="#595959" font-family="Calibri,Calibri_MSFontService,sans-serif" font-weight="400" font-size="41" transform="matrix(6.12323e-17 -1 1 6.12323e-17 3157.34 4939)">45</text></g><g clip-path="url(#clip53)"><text fill="#595959" font-family="Calibri,Calibri_MSFontService,sans-serif" font-weight="400" font-size="41" transform="matrix(6.12323e-17 -1 1 6.12323e-17 3254.29 4939)">47</text></g><g clip-path="url(#clip54)"><text fill="#595959" font-family="Calibri,Calibri_MSFontService,sans-serif" font-weight="400" font-size="41" transform="matrix(6.12323e-17 -1 1 6.12323e-17 3351.25 4939)">49</text></g><g clip-path="url(#clip55)"><text fill="#595959" font-family="Calibri,Calibri_MSFontService,sans-serif" font-weight="400" font-size="41" transform="matrix(6.12323e-17 -1 1 6.12323e-17 3448.2 4939)">51</text></g><g clip-path="url(#clip56)"><text fill="#595959" font-family="Calibri,Calibri_MSFontService,sans-serif" font-weight="400" font-size="41" transform="matrix(6.12323e-17 -1 1 6.12323e-17 3545.16 4939)">53</text></g><g clip-path="url(#clip57)"><text fill="#595959" font-family="Calibri,Calibri_MSFontService,sans-serif" font-weight="400" font-size="41" transform="matrix(6.12323e-17 -1 1 6.12323e-17 3642.11 4939)">55</text></g><g clip-path="url(#clip58)"><text fill="#595959" font-family="Calibri,Calibri_MSFontService,sans-serif" font-weight="400" font-size="41" transform="matrix(6.12323e-17 -1 1 6.12323e-17 3739.07 4939)">57</text></g><g clip-path="url(#clip59)"><text fill="#595959" font-family="Calibri,Calibri_MSFontService,sans-serif" font-weight="400" font-size="41" transform="matrix(6.12323e-17 -1 1 6.12323e-17 3836.02 4939)">59</text></g><g clip-path="url(#clip60)"><text fill="#595959" font-family="Calibri,Calibri_MSFontService,sans-serif" font-weight="400" font-size="41" transform="matrix(6.12323e-17 -1 1 6.12323e-17 3932.98 4939)">61</text></g><g clip-path="url(#clip61)"><text fill="#595959" font-family="Calibri,Calibri_MSFontService,sans-serif" font-weight="400" font-size="41" transform="matrix(6.12323e-17 -1 1 6.12323e-17 4029.93 4939)">63</text></g><g clip-path="url(#clip62)"><text fill="#595959" font-family="Calibri,Calibri_MSFontService,sans-serif" font-weight="400" font-size="41" transform="matrix(6.12323e-17 -1 1 6.12323e-17 4126.89 4939)">65</text></g><g clip-path="url(#clip63)"><text fill="#595959" font-family="Calibri,Calibri_MSFontService,sans-serif" font-weight="400" font-size="41" transform="matrix(6.12323e-17 -1 1 6.12323e-17 4223.84 4939)">67</text></g><g clip-path="url(#clip64)"><text fill="#595959" font-family="Calibri,Calibri_MSFontService,sans-serif" font-weight="400" font-size="41" transform="matrix(6.12323e-17 -1 1 6.12323e-17 4320.8 4939)">69</text></g><g clip-path="url(#clip65)"><text fill="#595959" font-family="Calibri,Calibri_MSFontService,sans-serif" font-weight="400" font-size="41" transform="matrix(6.12323e-17 -1 1 6.12323e-17 4417.75 4939)">71</text></g><g clip-path="url(#clip66)"><text fill="#595959" font-family="Calibri,Calibri_MSFontService,sans-serif" font-weight="400" font-size="41" transform="matrix(6.12323e-17 -1 1 6.12323e-17 4514.71 4939)">73</text></g><g clip-path="url(#clip67)"><text fill="#595959" font-family="Calibri,Calibri_MSFontService,sans-serif" font-weight="400" font-size="41" transform="matrix(6.12323e-17 -1 1 6.12323e-17 4611.66 4939)">75</text></g><g clip-path="url(#clip68)"><text fill="#595959" font-family="Calibri,Calibri_MSFontService,sans-serif" font-weight="400" font-size="41" transform="matrix(6.12323e-17 -1 1 6.12323e-17 4708.62 4939)">77</text></g><g clip-path="url(#clip69)"><text fill="#595959" font-family="Calibri,Calibri_MSFontService,sans-serif" font-weight="400" font-size="41" transform="matrix(6.12323e-17 -1 1 6.12323e-17 4805.57 4939)">79</text></g><g clip-path="url(#clip70)"><text fill="#595959" font-family="Calibri,Calibri_MSFontService,sans-serif" font-weight="400" font-size="41" transform="matrix(6.12323e-17 -1 1 6.12323e-17 4902.53 4939)">81</text></g><g clip-path="url(#clip71)"><text fill="#595959" font-family="Calibri,Calibri_MSFontService,sans-serif" font-weight="400" font-size="41" transform="matrix(6.12323e-17 -1 1 6.12323e-17 4999.48 4939)">83</text></g><g clip-path="url(#clip72)"><text fill="#595959" font-family="Calibri,Calibri_MSFontService,sans-serif" font-weight="400" font-size="41" transform="matrix(6.12323e-17 -1 1 6.12323e-17 5096.44 4939)">85</text></g><g clip-path="url(#clip73)"><text fill="#595959" font-family="Calibri,Calibri_MSFontService,sans-serif" font-weight="400" font-size="41" transform="matrix(6.12323e-17 -1 1 6.12323e-17 5193.39 4939)">87</text></g><g clip-path="url(#clip74)"><text fill="#595959" font-family="Calibri,Calibri_MSFontService,sans-serif" font-weight="400" font-size="41" transform="matrix(6.12323e-17 -1 1 6.12323e-17 5290.35 4939)">89</text></g><g clip-path="url(#clip75)"><text fill="#595959" font-family="Calibri,Calibri_MSFontService,sans-serif" font-weight="400" font-size="41" transform="matrix(6.12323e-17 -1 1 6.12323e-17 5387.3 4939)">91</text></g><g clip-path="url(#clip76)"><text fill="#595959" font-family="Calibri,Calibri_MSFontService,sans-serif" font-weight="400" font-size="41" transform="matrix(6.12323e-17 -1 1 6.12323e-17 5484.26 4939)">93</text></g><g clip-path="url(#clip77)"><text fill="#595959" font-family="Calibri,Calibri_MSFontService,sans-serif" font-weight="400" font-size="41" transform="matrix(6.12323e-17 -1 1 6.12323e-17 5581.21 4939)">95</text></g><g clip-path="url(#clip78)"><text fill="#595959" font-family="Calibri,Calibri_MSFontService,sans-serif" font-weight="400" font-size="41" transform="matrix(6.12323e-17 -1 1 6.12323e-17 5678.17 4939)">97</text></g><g clip-path="url(#clip79)"><text fill="#595959" font-family="Calibri,Calibri_MSFontService,sans-serif" font-weight="400" font-size="41" transform="matrix(6.12323e-17 -1 1 6.12323e-17 5775.12 4939)">99</text></g><g clip-path="url(#clip80)"><text fill="#595959" font-family="Calibri,Calibri_MSFontService,sans-serif" font-weight="400" font-size="41" transform="matrix(6.12323e-17 -1 1 6.12323e-17 5872.08 4960)">101</text></g><g clip-path="url(#clip81)"><text fill="#595959" font-family="Calibri,Calibri_MSFontService,sans-serif" font-weight="400" font-size="41" transform="matrix(6.12323e-17 -1 1 6.12323e-17 5969.03 4960)">103</text></g><g clip-path="url(#clip82)"><text fill="#595959" font-family="Calibri,Calibri_MSFontService,sans-serif" font-weight="400" font-size="41" transform="matrix(6.12323e-17 -1 1 6.12323e-17 6065.99 4960)">105</text></g><g clip-path="url(#clip83)"><text fill="#595959" font-family="Calibri,Calibri_MSFontService,sans-serif" font-weight="400" font-size="41" transform="matrix(6.12323e-17 -1 1 6.12323e-17 6162.94 4960)">107</text></g><g clip-path="url(#clip84)"><text fill="#595959" font-family="Calibri,Calibri_MSFontService,sans-serif" font-weight="400" font-size="41" transform="matrix(6.12323e-17 -1 1 6.12323e-17 6259.9 4960)">109</text></g><g clip-path="url(#clip85)"><text fill="#595959" font-family="Calibri,Calibri_MSFontService,sans-serif" font-weight="400" font-size="41" transform="matrix(6.12323e-17 -1 1 6.12323e-17 6356.85 4960)">111</text></g><g clip-path="url(#clip86)"><text fill="#595959" font-family="Calibri,Calibri_MSFontService,sans-serif" font-weight="400" font-size="41" transform="matrix(6.12323e-17 -1 1 6.12323e-17 6453.81 4960)">113</text></g><g clip-path="url(#clip87)"><text fill="#595959" font-family="Calibri,Calibri_MSFontService,sans-serif" font-weight="400" font-size="41" transform="matrix(6.12323e-17 -1 1 6.12323e-17 6550.76 4960)">115</text></g><g clip-path="url(#clip88)"><text fill="#595959" font-family="Calibri,Calibri_MSFontService,sans-serif" font-weight="400" font-size="41" transform="matrix(6.12323e-17 -1 1 6.12323e-17 6647.72 4960)">117</text></g><g clip-path="url(#clip89)"><text fill="#595959" font-family="Calibri,Calibri_MSFontService,sans-serif" font-weight="400" font-size="41" transform="matrix(6.12323e-17 -1 1 6.12323e-17 6744.67 4960)">119</text></g><g clip-path="url(#clip90)"><text fill="#595959" font-family="Calibri,Calibri_MSFontService,sans-serif" font-weight="400" font-size="41" transform="matrix(6.12323e-17 -1 1 6.12323e-17 6841.63 4960)">121</text></g><g clip-path="url(#clip91)"><text fill="#595959" font-family="Calibri,Calibri_MSFontService,sans-serif" font-weight="400" font-size="41" transform="matrix(6.12323e-17 -1 1 6.12323e-17 6938.58 4960)">123</text></g><g clip-path="url(#clip92)"><text fill="#595959" font-family="Calibri,Calibri_MSFontService,sans-serif" font-weight="400" font-size="41" transform="matrix(6.12323e-17 -1 1 6.12323e-17 7035.54 4960)">125</text></g><g clip-path="url(#clip93)"><text fill="#595959" font-family="Calibri,Calibri_MSFontService,sans-serif" font-weight="400" font-size="41" transform="matrix(6.12323e-17 -1 1 6.12323e-17 7132.49 4960)">127</text></g><g clip-path="url(#clip94)"><text fill="#595959" font-family="Calibri,Calibri_MSFontService,sans-serif" font-weight="400" font-size="41" transform="matrix(6.12323e-17 -1 1 6.12323e-17 7229.45 4960)">129</text></g><g clip-path="url(#clip95)"><text fill="#595959" font-family="Arial,Arial_MSFontService,sans-serif" font-weight="400" font-size="46" transform="matrix(6.12323e-17 -1 1 6.12323e-17 684.658 3204)">Block count</text></g><g clip-path="url(#clip96)"><text fill="#595959" font-family="Arial,Arial_MSFontService,sans-serif" font-weight="400" font-size="46" transform="matrix(1 0 0 1 4036.63 5017)">Altitude</text></g><g clip-path="url(#clip97)"><text fill="#595959" font-family="Arial,Arial_MSFontService,sans-serif" font-weight="400" font-size="64" transform="matrix(1 0 0 1 3106.41 1229)">Resource distribution by altitude (Minecraft 1.16.5, Nether)</text></g><g clip-path="url(#clip98)"><path d="M1224 5123 1340 5123" stroke="#C16D91" stroke-width="10.3125" stroke-linecap="round" stroke-linejoin="round" stroke-miterlimit="10" fill="none" fill-rule="evenodd"/></g><g clip-path="url(#clip99)"><text fill="#595959" font-family="Calibri,Calibri_MSFontService,sans-serif" font-weight="400" font-size="41" transform="matrix(1 0 0 1 1352.24 5134)">minecraft:netherrack</text></g><g clip-path="url(#clip100)"><path d="M2004 5123 2120 5123" stroke="#2F5597" stroke-width="10.3125" stroke-linecap="round" stroke-linejoin="round" stroke-miterlimit="10" fill="none" fill-rule="evenodd"/></g><g clip-path="url(#clip101)"><text fill="#595959" font-family="Calibri,Calibri_MSFontService,sans-serif" font-weight="400" font-size="41" transform="matrix(1 0 0 1 2132.57 5134)">minecraft:basalt</text></g><g clip-path="url(#clip102)"><path d="M2785 5123 2900 5123" stroke="#ED7D31" stroke-width="10.3125" stroke-linecap="round" stroke-linejoin="round" stroke-miterlimit="10" stroke-dasharray="20.625 20.625" fill="none" fill-rule="evenodd"/></g><g clip-path="url(#clip103)"><text fill="#595959" font-family="Calibri,Calibri_MSFontService,sans-serif" font-weight="400" font-size="41" transform="matrix(1 0 0 1 2912.91 5134)">minecraft:lava</text></g><g clip-path="url(#clip104)"><path d="M3565 5123 3681 5123" stroke="#595959" stroke-width="10.3125" stroke-linecap="round" stroke-linejoin="round" stroke-miterlimit="10" stroke-dasharray="20.625 20.625" fill="none" fill-rule="evenodd"/></g><g clip-path="url(#clip105)"><text fill="#595959" font-family="Calibri,Calibri_MSFontService,sans-serif" font-weight="400" font-size="41" transform="matrix(1 0 0 1 3693.25 5134)">minecraft:blackstone</text></g><g clip-path="url(#clip106)"><path d="M4345 5123 4461 5123" stroke="#996633" stroke-width="10.3125" stroke-linecap="round" stroke-linejoin="round" stroke-miterlimit="10" fill="none" fill-rule="evenodd"/></g><g clip-path="url(#clip107)"><text fill="#595959" font-family="Calibri,Calibri_MSFontService,sans-serif" font-weight="400" font-size="41" transform="matrix(1 0 0 1 4473.59 5134)">minecraft:soul_sand</text></g><g clip-path="url(#clip108)"><path d="M5126 5123 5241 5123" stroke="#A6A6A6" stroke-width="10.3125" stroke-linecap="round" stroke-linejoin="round" stroke-miterlimit="10" fill="none" fill-rule="evenodd"/></g><g clip-path="url(#clip109)"><text fill="#595959" font-family="Calibri,Calibri_MSFontService,sans-serif" font-weight="400" font-size="41" transform="matrix(1 0 0 1 5253.93 5134)">minecraft:gravel</text></g><g clip-path="url(#clip110)"><path d="M5906 5123 6022 5123" stroke="#B4C7E7" stroke-width="10.3125" stroke-linecap="round" stroke-linejoin="round" stroke-miterlimit="10" fill="none" fill-rule="evenodd"/></g><g clip-path="url(#clip111)"><text fill="#595959" font-family="Calibri,Calibri_MSFontService,sans-serif" font-weight="400" font-size="41" transform="matrix(1 0 0 1 6034.26 5134)">minecraft:nether_quartz_ore</text></g><g clip-path="url(#clip112)"><path d="M1224 5200 1340 5200" stroke="#BF9000" stroke-width="10.3125" stroke-linecap="round" stroke-linejoin="round" stroke-miterlimit="10" fill="none" fill-rule="evenodd"/></g><g clip-path="url(#clip113)"><text fill="#595959" font-family="Calibri,Calibri_MSFontService,sans-serif" font-weight="400" font-size="41" transform="matrix(1 0 0 1 1352.24 5212)">minecraft:nether_gold_ore</text></g><g clip-path="url(#clip114)"><path d="M2004 5200 2120 5200" stroke="#7030A0" stroke-width="10.3125" stroke-linecap="round" stroke-linejoin="round" stroke-miterlimit="10" fill="none" fill-rule="evenodd"/></g><g clip-path="url(#clip115)"><text fill="#595959" font-family="Calibri,Calibri_MSFontService,sans-serif" font-weight="400" font-size="41" transform="matrix(1 0 0 1 2132.57 5212)">minecraft:nether_bricks</text></g><g clip-path="url(#clip116)"><path d="M2785 5200 2900 5200" stroke="#70AD47" stroke-width="10.3125" stroke-linecap="round" stroke-linejoin="round" stroke-miterlimit="10" fill="none" fill-rule="evenodd"/></g><g clip-path="url(#clip117)"><text fill="#595959" font-family="Calibri,Calibri_MSFontService,sans-serif" font-weight="400" font-size="41" transform="matrix(1 0 0 1 2912.91 5212)">minecraft:polished_blackstone_bricks</text></g><g clip-path="url(#clip118)"><path d="M3565 5200 3681 5200" stroke="#FFC000" stroke-width="10.3125" stroke-linecap="round" stroke-linejoin="round" stroke-miterlimit="10" fill="none" fill-rule="evenodd"/></g><g clip-path="url(#clip119)"><text fill="#595959" font-family="Calibri,Calibri_MSFontService,sans-serif" font-weight="400" font-size="41" transform="matrix(1 0 0 1 3693.25 5212)">minecraft:glowstone</text></g><g clip-path="url(#clip120)"><path d="M4345 5200 4461 5200" stroke="#595959" stroke-width="10.3125" stroke-linecap="round" stroke-linejoin="round" stroke-miterlimit="10" fill="none" fill-rule="evenodd"/></g><g clip-path="url(#clip121)"><text fill="#595959" font-family="Calibri,Calibri_MSFontService,sans-serif" font-weight="400" font-size="41" transform="matrix(1 0 0 1 4473.59 5212)">minecraft:ancient_debris</text></g><g clip-path="url(#clip122)"><path d="M5126 5200 5241 5200" stroke="#F4B183" stroke-width="10.3125" stroke-linecap="round" stroke-linejoin="round" stroke-miterlimit="10" fill="none" fill-rule="evenodd"/></g><g clip-path="url(#clip123)"><text fill="#595959" font-family="Calibri,Calibri_MSFontService,sans-serif" font-weight="400" font-size="41" transform="matrix(1 0 0 1 5253.93 5212)">minecraft:bone_block</text></g><g clip-path="url(#clip124)"><path d="M5906 5200 6022 5200" stroke="#D52B6C" stroke-width="10.3125" stroke-linecap="round" stroke-linejoin="round" stroke-miterlimit="10" fill="none" fill-rule="evenodd"/></g><g clip-path="url(#clip125)"><text fill="#595959" font-family="Calibri,Calibri_MSFontService,sans-serif" font-weight="400" font-size="41" transform="matrix(1 0 0 1 6034.26 5212)">minecraft:nether_wart</text></g><rect x="584.5" y="1134.5" width="6706" height="4125" stroke="#D9D9D9" stroke-width="3.4375" stroke-linejoin="round" stroke-miterlimit="10" fill="none"/></g></svg>