<svg width="1920" height="1200" xmlns="http://www.w3.org/2000/svg" xmlns:xlink="http://www.w3.org/1999/xlink" overflow="hidden"><defs><clipPath id="clip0"><rect x="0" y="0" width="1920" height="1200"/></clipPath><clipPath id="clip1"><rect x="0" y="0" width="1920" height="1200"/></clipPath><clipPath id="clip2"><rect x="0" y="0" width="1920" height="1200"/></clipPath><clipPath id="clip3"><rect x="0" y="0" width="1920" height="1200"/></clipPath><clipPath id="clip4"><rect x="0" y="0" width="1920" height="1200"/></clipPath><clipPath id="clip5"><rect x="0" y="0" width="1920" height="1200"/></clipPath><clipPath id="clip6"><rect x="106" y="48" width="1800" height="1067"/></clipPath><clipPath id="clip7"><rect x="106" y="48" width="1800" height="1067"/></clipPath><clipPath id="clip8"><rect x="106" y="48" width="1800" height="1067"/></clipPath><clipPath id="clip9"><rect x="106" y="48" width="1800" height="1067"/></clipPath><clipPath id="clip10"><rect x="106" y="48" width="1800" height="1067"/></clipPath><clipPath id="clip11"><rect x="106" y="48" width="1800" height="1067"/></clipPath><clipPath id="clip12"><rect x="106" y="48" width="1800" height="1067"/></clipPath><clipPath id="clip13"><rect x="106" y="48" width="1800" height="1067"/></clipPath><clipPath id="clip14"><rect x="106" y="48" width="1800" height="1067"/></clipPath><clipPath id="clip15"><rect x="106" y="48" width="1800" height="1067"/></clipPath><clipPath id="clip16"><rect x="106" y="48" width="1800" height="1067"/></clipPath><clipPath id="clip17"><rect x="106" y="48" width="1800" height="1067"/></clipPath><clipPath id="clip18"><rect x="106" y="48" width="1800" height="1067"/></clipPath><clipPath id="clip19"><rect x="106" y="48" width="1800" height="1067"/></clipPath><clipPath id="clip20"><rect x="0" y="0" width="1920" height="1200"/></clipPath><clipPath id="clip21"><rect x="0" y="0" width="1920" height="1200"/></clipPath><clipPath id="clip22"><rect x="0" y="0" width="1920" height="1200"/></clipPath><clipPath id="clip23"><rect x="0" y="0" width="1920" height="1200"/></clipPath><clipPath id="clip24"><rect x="0" y="0" width="1920" height="1200"/></clipPath><clipPath id="clip25"><rect x="0" y="0" width="1920" height="1200"/></clipPath><clipPath id="clip26"><rect x="0" y="0" width="1920" height="1200"/></clipPath><clipPath id="clip27"><rect x="0" y="0" width="1920" height="1200"/></clipPath><clipPath id="clip28"><rect x="0" y="0" width="1920" height="1200"/></clipPath><clipPath id="clip29"><rect x="0" y="0" width="1920" height="1200"/></clipPath><clipPath id="clip30"><rect x="0" y="0" width="1920" height="1200"/></clipPath><clipPath id="clip31"><rect x="0" y="0" width="1920" height="1200"/></clipPath><clipPath id="clip32"><rect x="0" y="0" width="1920" height="1200"/></clipPath><clipPath id="clip33"><rect x="0" y="0" width="1920" height="1200"/></clipPath><clipPath id="clip34"><rect x="0" y="0" width="1920" height="1200"/></clipPath><clipPath id="clip35"><rect x="0" y="0" width="1920" height="1200"/></clipPath><clipPath id="clip36"><rect x="0" y="0" width="1920" height="1200"/></clipPath><clipPath id="clip37"><rect x="0" y="0" width="1920" height="1200"/></clipPath><clipPath id="clip38"><rect x="0" y="0" width="1920" height="1200"/></clipPath><clipPath id="clip39"><rect x="0" y="0" width="1920" height="1200"/></clipPath><clipPath id="clip40"><rect x="0" y="0" width="1920" height="1200"/></clipPath><clipPath id="clip41"><rect x="0" y="0" width="1920" height="1200"/></clipPath><clipPath id="clip42"><rect x="0" y="0" width="1920" height="1200"/></clipPath><clipPath id="clip43"><rect x="0" y="0" width="1920" height="1200"/></clipPath><clipPath id="clip44"><rect x="0" y="0" width="1920" height="1200"/></clipPath><clipPath id="clip45"><rect x="0" y="0" width="1920" height="1200"/></clipPath><clipPath id="clip46"><rect x="0" y="0" width="1920" height="1200"/></clipPath><clipPath id="clip47"><rect x="0" y="0" width="1920" height="1200"/></clipPath><clipPath id="clip48"><rect x="0" y="0" width="1920" height="1200"/></clipPath><clipPath id="clip49"><rect x="0" y="0" width="1920" height="1200"/></clipPath><clipPath id="clip50"><rect x="0" y="0" width="1920" height="1200"/></clipPath><clipPath id="clip51"><rect x="0" y="0" width="1920" height="1200"/></clipPath><clipPath id="clip52"><rect x="0" y="0" width="1920" height="1200"/></clipPath><clipPath id="clip53"><rect x="0" y="0" width="1920" height="1200"/></clipPath><clipPath id="clip54"><rect x="0" y="0" width="1920" height="1200"/></clipPath><clipPath id="clip55"><rect x="0" y="0" width="1920" height="1200"/></clipPath><clipPath id="clip56"><rect x="0" y="0" width="1920" height="1200"/></clipPath><clipPath id="clip57"><rect x="0" y="0" width="1920" height="1200"/></clipPath><clipPath id="clip58"><rect x="0" y="0" width="1920" height="1200"/></clipPath><clipPath id="clip59"><rect x="0" y="0" width="1920" height="1200"/></clipPath><clipPath id="clip60"><rect x="0" y="0" width="1920" height="1200"/></clipPath><clipPath id="clip61"><rect x="0" y="0" width="1920" height="1200"/></clipPath><clipPath id="clip62"><rect x="0" y="0" width="1920" height="1200"/></clipPath><clipPath id="clip63"><rect x="0" y="0" width="1920" height="1200"/></clipPath><clipPath id="clip64"><rect x="0" y="0" width="1920" height="1200"/></clipPath><clipPath id="clip65"><rect x="0" y="0" width="1920" height="1200"/></clipPath><clipPath id="clip66"><rect x="0" y="0" width="1920" height="1200"/></clipPath><clipPath id="clip67"><rect x="0" y="0" width="1920" height="1200"/></clipPath><clipPath id="clip68"><rect x="0" y="0" width="1920" height="1200"/></clipPath><clipPath id="clip69"><rect x="0" y="0" width="1920" height="1200"/></clipPath><clipPath id="clip70"><rect x="0" y="0" width="1920" height="1200"/></clipPath><clipPath id="clip71"><rect x="0" y="0" width="1920" height="1200"/></clipPath><clipPath id="clip72"><rect x="0" y="0" width="1920" height="1200"/></clipPath><clipPath id="clip73"><rect x="0" y="0" width="1920" height="1200"/></clipPath><clipPath id="clip74"><rect x="0" y="0" width="1920" height="1200"/></clipPath><clipPath id="clip75"><rect x="0" y="0" width="1920" height="1200"/></clipPath><clipPath id="clip76"><rect x="0" y="0" width="1920" height="1200"/></clipPath><clipPath id="clip77"><rect x="0" y="0" width="1920" height="1200"/></clipPath><clipPath id="clip78"><rect x="0" y="0" width="1920" height="1200"/></clipPath><clipPath id="clip79"><rect x="0" y="0" width="1920" height="1200"/></clipPath><clipPath id="clip80"><rect x="0" y="0" width="1920" height="1200"/></clipPath><clipPath id="clip81"><rect x="0" y="0" width="1920" height="1200"/></clipPath><clipPath id="clip82"><rect x="0" y="0" width="1920" height="1200"/></clipPath><clipPath id="clip83"><rect x="0" y="0" width="1920" height="1200"/></clipPath><clipPath id="clip84"><rect x="0" y="0" width="1920" height="1200"/></clipPath><clipPath id="clip85"><rect x="0" y="0" width="1920" height="1200"/></clipPath><clipPath id="clip86"><rect x="0" y="0" width="1920" height="1200"/></clipPath><clipPath id="clip87"><rect x="0" y="0" width="1920" height="1200"/></clipPath><clipPath id="clip88"><rect x="0" y="0" width="1920" height="1200"/></clipPath><clipPath id="clip89"><rect x="0" y="0" width="1920" height="1200"/></clipPath><clipPath id="clip90"><rect x="0" y="0" width="1920" height="1200"/></clipPath><clipPath id="clip91"><rect x="0" y="0" width="1920" height="1200"/></clipPath><clipPath id="clip92"><rect x="0" y="0" width="1920" height="1200"/></clipPath><clipPath id="clip93"><rect x="0" y="0" width="1920" height="1200"/></clipPath><clipPath id="clip94"><rect x="0" y="0" width="1920" height="1200"/></clipPath><clipPath id="clip95"><rect x="0" y="0" width="1920" height="1200"/></clipPath><clipPath id="clip96"><rect x="0" y="0" width="1920" height="1200"/></clipPath><clipPath id="clip97"><rect x="0" y="0" width="1920" height="1200"/></clipPath><clipPath id="clip98"><rect x="0" y="0" width="1920" height="1200"/></clipPath><clipPath id="clip99"><rect x="0" y="0" width="1920" height="1200"/></clipPath><clipPath id="clip100"><rect x="0" y="0" width="1920" height="1200"/></clipPath><clipPath id="clip101"><rect x="0" y="0" width="1920" height="1200"/></clipPath><clipPath id="clip102"><rect x="0" y="0" width="1920" height="1200"/></clipPath><clipPath id="clip103"><rect x="0" y="0" width="1920" height="1200"/></clipPath><clipPath id="clip104"><rect x="0" y="0" width="1920" height="1200"/></clipPath><clipPath id="clip105"><rect x="0" y="0" width="1920" height="1200"/></clipPath><clipPath id="clip106"><rect x="0" y="0" width="1920" height="1200"/></clipPath><clipPath id="clip107"><rect x="0" y="0" width="1920" height="1200"/></clipPath><clipPath id="clip108"><rect x="0" y="0" width="1920" height="1200"/></clipPath><clipPath id="clip109"><rect x="0" y="0" width="1920" height="1200"/></clipPath><clipPath id="clip110"><rect x="0" y="0" width="1920" height="1200"/></clipPath><clipPath id="clip111"><rect x="0" y="0" width="1920" height="1200"/></clipPath><clipPath id="clip112"><rect x="0" y="0" width="1920" height="1200"/></clipPath><clipPath id="clip113"><rect x="0" y="0" width="1920" height="1200"/></clipPath><clipPath id="clip114"><rect x="0" y="0" width="1920" height="1200"/></clipPath><clipPath id="clip115"><rect x="0" y="0" width="1920" height="1200"/></clipPath><clipPath id="clip116"><rect x="0" y="0" width="1920" height="1200"/></clipPath><clipPath id="clip117"><rect x="0" y="0" width="1920" height="1200"/></clipPath><clipPath id="clip118"><rect x="0" y="0" width="1920" height="1200"/></clipPath><clipPath id="clip119"><rect x="0" y="0" width="1920" height="1200"/></clipPath><clipPath id="clip120"><rect x="0" y="0" width="1920" height="1200"/></clipPath><clipPath id="clip121"><rect x="0" y="0" width="1920" height="1200"/></clipPath><clipPath id="clip122"><rect x="0" y="0" width="1920" height="1200"/></clipPath><clipPath id="clip123"><rect x="0" y="0" width="1920" height="1200"/></clipPath><clipPath id="clip124"><rect x="0" y="0" width="1920" height="1200"/></clipPath><clipPath id="clip125"><rect x="0" y="0" width="1920" height="1200"/></clipPath><clipPath id="clip126"><rect x="0" y="0" width="1920" height="1200"/></clipPath><clipPath id="clip127"><rect x="0" y="0" width="1920" height="1200"/></clipPath><clipPath id="clip128"><rect x="0" y="0" width="1920" height="1200"/></clipPath><clipPath id="clip129"><rect x="0" y="0" width="1920" height="1200"/></clipPath><clipPath id="clip130"><rect x="0" y="0" width="1920" height="1200"/></clipPath><clipPath id="clip131"><rect x="0" y="0" width="1920" height="1200"/></clipPath><clipPath id="clip132"><rect x="0" y="0" width="1920" height="1200"/></clipPath><clipPath id="clip133"><rect x="0" y="0" width="1920" height="1200"/></clipPath><clipPath id="clip134"><rect x="0" y="0" width="1920" height="1200"/></clipPath><clipPath id="clip135"><rect x="0" y="0" width="1920" height="1200"/></clipPath><clipPath id="clip136"><rect x="0" y="0" width="1920" height="1200"/></clipPath><clipPath id="clip137"><rect x="0" y="0" width="1920" height="1200"/></clipPath><clipPath id="clip138"><rect x="0" y="0" width="1920" height="1200"/></clipPath><clipPath id="clip139"><rect x="0" y="0" width="1920" height="1200"/></clipPath><clipPath id="clip140"><rect x="0" y="0" width="1920" height="1200"/></clipPath><clipPath id="clip141"><rect x="0" y="0" width="1920" height="1200"/></clipPath><clipPath id="clip142"><rect x="0" y="0" width="1920" height="1200"/></clipPath><clipPath id="clip143"><rect x="0" y="0" width="1920" height="1200"/></clipPath><clipPath id="clip144"><rect x="0" y="0" width="1920" height="1200"/></clipPath><clipPath id="clip145"><rect x="0" y="0" width="1920" height="1200"/></clipPath><clipPath id="clip146"><rect x="0" y="0" width="1920" height="1200"/></clipPath><clipPath id="clip147"><rect x="0" y="0" width="1920" height="1200"/></clipPath><clipPath id="clip148"><rect x="0" y="0" width="1920" height="1200"/></clipPath><clipPath id="clip149"><rect x="0" y="0" width="1920" height="1200"/></clipPath><clipPath id="clip150"><rect x="0" y="0" width="1920" height="1200"/></clipPath><clipPath id="clip151"><rect x="0" y="0" width="1920" height="1200"/></clipPath><clipPath id="clip152"><rect x="0" y="0" width="1920" height="1200"/></clipPath><clipPath id="clip153"><rect x="0" y="0" width="1920" height="1200"/></clipPath><clipPath id="clip154"><rect x="0" y="0" width="1920" height="1200"/></clipPath><clipPath id="clip155"><rect x="0" y="0" width="1920" height="1200"/></clipPath><clipPath id="clip156"><rect x="0" y="0" width="1920" height="1200"/></clipPath><clipPath id="clip157"><rect x="0" y="0" width="1920" height="1200"/></clipPath><clipPath id="clip158"><rect x="0" y="0" width="1920" height="1200"/></clipPath><clipPath id="clip159"><rect x="0" y="0" width="1920" height="1200"/></clipPath><clipPath id="clip160"><rect x="0" y="0" width="1920" height="1200"/></clipPath><clipPath id="clip161"><rect x="0" y="0" width="1920" height="1200"/></clipPath><clipPath id="clip162"><rect x="0" y="0" width="1920" height="1200"/></clipPath><clipPath id="clip163"><rect x="0" y="0" width="1920" height="1200"/></clipPath><clipPath id="clip164"><rect x="0" y="0" width="1920" height="1200"/></clipPath><clipPath id="clip165"><rect x="0" y="0" width="1920" height="1200"/></clipPath><clipPath id="clip166"><rect x="0" y="0" width="1920" height="1200"/></clipPath><clipPath id="clip167"><rect x="0" y="0" width="1920" height="1200"/></clipPath><clipPath id="clip168"><rect x="0" y="0" width="1920" height="1200"/></clipPath><clipPath id="clip169"><rect x="0" y="0" width="1920" height="1200"/></clipPath><clipPath id="clip170"><rect x="0" y="0" width="1920" height="1200"/></clipPath><clipPath id="clip171"><rect x="0" y="0" width="1920" height="1200"/></clipPath><clipPath id="clip172"><rect x="0" y="0" width="1920" height="1200"/></clipPath><clipPath id="clip173"><rect x="0" y="0" width="1920" height="1200"/></clipPath><clipPath id="clip174"><rect x="0" y="0" width="1920" height="1200"/></clipPath><clipPath id="clip175"><rect x="0" y="0" width="1920" height="1200"/></clipPath><clipPath id="clip176"><rect x="0" y="0" width="1920" height="1200"/></clipPath><clipPath id="clip177"><rect x="0" y="0" width="1920" height="1200"/></clipPath><clipPath id="clip178"><rect x="0" y="0" width="1920" height="1200"/></clipPath><clipPath id="clip179"><rect x="0" y="0" width="1920" height="1200"/></clipPath><clipPath id="clip180"><rect x="0" y="0" width="1920" height="1200"/></clipPath><clipPath id="clip181"><rect x="0" y="0" width="1920" height="1200"/></clipPath><clipPath id="clip182"><rect x="0" y="0" width="1920" height="1200"/></clipPath><clipPath id="clip183"><rect x="0" y="0" width="1920" height="1200"/></clipPath><clipPath id="clip184"><rect x="0" y="0" width="1920" height="1200"/></clipPath><clipPath id="clip185"><rect x="0" y="0" width="1920" height="1200"/></clipPath><clipPath id="clip186"><rect x="0" y="0" width="1920" height="1200"/></clipPath></defs><g clip-path="url(#clip0)"><rect x="0" y="0" width="1920" height="1200" fill="#FFFFFF"/><g clip-path="url(#clip1)"><path d="M106.5 1068.5 1905.5 1068.5M106.5 1041.5 1905.5 1041.5M106.5 1022.5 1905.5 1022.5M106.5 1007.5 1905.5 1007.5M106.5 995.5 1905.5 995.5M106.5 985.5 1905.5 985.5M106.5 976.5 1905.5 976.5M106.5 968.5 1905.5 968.5M106.5 915.5 1905.5 915.5M106.5 889.5 1905.5 889.5M106.5 870.5 1905.5 870.5M106.5 855.5 1905.5 855.5M106.5 843.5 1905.5 843.5M106.5 833.5 1905.5 833.5M106.5 824.5 1905.5 824.5M106.5 816.5 1905.5 816.5M106.5 763.5 1905.5 763.5M106.5 736.5 1905.5 736.5M106.5 717.5 1905.5 717.5M106.5 703.5 1905.5 703.5M106.5 691.5 1905.5 691.5M106.5 680.5 1905.5 680.5M106.5 672.5 1905.5 672.5M106.5 664.5 1905.5 664.5M106.5 611.5 1905.5 611.5M106.5 584.5 1905.5 584.5M106.5 565.5 1905.5 565.5M106.5 550.5 1905.5 550.5M106.5 538.5 1905.5 538.5M106.5 528.5 1905.5 528.5M106.5 519.5 1905.5 519.5M106.5 511.5 1905.5 511.5M106.5 459.5 1905.5 459.5M106.5 432.5 1905.5 432.5M106.5 413.5 1905.5 413.5M106.5 398.5 1905.5 398.5M106.5 386.5 1905.5 386.5M106.5 376.5 1905.5 376.5M106.5 367.5 1905.5 367.5M106.5 359.5 1905.5 359.5M106.5 306.5 1905.5 306.5M106.5 280.5 1905.5 280.5M106.5 261.5 1905.5 261.5M106.5 246.5 1905.5 246.5M106.5 234.5 1905.5 234.5M106.5 224.5 1905.5 224.5M106.5 215.5 1905.5 215.5M106.5 207.5 1905.5 207.5M106.5 154.5 1905.5 154.5M106.5 127.5 1905.5 127.5M106.5 108.5 1905.5 108.5M106.5 93.5001 1905.5 93.5001M106.5 81.5001 1905.5 81.5001M106.5 71.5001 1905.5 71.5001M106.5 62.5001 1905.5 62.5001M106.5 55.5001 1905.5 55.5001" stroke="#F2F2F2" stroke-linejoin="round" stroke-miterlimit="10" fill="none"/></g><g clip-path="url(#clip2)"><path d="M106.5 961.5 1905.5 961.5M106.5 809.5 1905.5 809.5M106.5 657.5 1905.5 657.5M106.5 504.5 1905.5 504.5M106.5 352.5 1905.5 352.5M106.5 200.5 1905.5 200.5M106.5 48.5001 1905.5 48.5001" stroke="#D9D9D9" stroke-linejoin="round" stroke-miterlimit="10" fill="none"/></g><g clip-path="url(#clip3)"><path d="M120.5 48.5001 120.5 1114.5M134.5 48.5001 134.5 1114.5M148.5 48.5001 148.5 1114.5M163.5 48.5001 163.5 1114.5M177.5 48.5001 177.5 1114.5M191.5 48.5001 191.5 1114.5M205.5 48.5001 205.5 1114.5M219.5 48.5001 219.5 1114.5M233.5 48.5001 233.5 1114.5M248.5 48.5001 248.5 1114.5M262.5 48.5001 262.5 1114.5M276.5 48.5001 276.5 1114.5M290.5 48.5001 290.5 1114.5M304.5 48.5001 304.5 1114.5M318.5 48.5001 318.5 1114.5M333.5 48.5001 333.5 1114.5M347.5 48.5001 347.5 1114.5M361.5 48.5001 361.5 1114.5M375.5 48.5001 375.5 1114.5M389.5 48.5001 389.5 1114.5M403.5 48.5001 403.5 1114.5M418.5 48.5001 418.5 1114.5M432.5 48.5001 432.5 1114.5M446.5 48.5001 446.5 1114.5M460.5 48.5001 460.5 1114.5M474.5 48.5001 474.5 1114.5M488.5 48.5001 488.5 1114.5M502.5 48.5001 502.5 1114.5M517.5 48.5001 517.5 1114.5M531.5 48.5001 531.5 1114.5M545.5 48.5001 545.5 1114.5M559.5 48.5001 559.5 1114.5M573.5 48.5001 573.5 1114.5M587.5 48.5001 587.5 1114.5M602.5 48.5001 602.5 1114.5M616.5 48.5001 616.5 1114.5M630.5 48.5001 630.5 1114.5M644.5 48.5001 644.5 1114.5M658.5 48.5001 658.5 1114.5M672.5 48.5001 672.5 1114.5M687.5 48.5001 687.5 1114.5M701.5 48.5001 701.5 1114.5M715.5 48.5001 715.5 1114.5M729.5 48.5001 729.5 1114.5M743.5 48.5001 743.5 1114.5M757.5 48.5001 757.5 1114.5M772.5 48.5001 772.5 1114.5M786.5 48.5001 786.5 1114.5M800.5 48.5001 800.5 1114.5M814.5 48.5001 814.5 1114.5M828.5 48.5001 828.5 1114.5M842.5 48.5001 842.5 1114.5M857.5 48.5001 857.5 1114.5M871.5 48.5001 871.5 1114.5M885.5 48.5001 885.5 1114.5M899.5 48.5001 899.5 1114.5M913.5 48.5001 913.5 1114.5M927.5 48.5001 927.5 1114.5M942.5 48.5001 942.5 1114.5M956.5 48.5001 956.5 1114.5M970.5 48.5001 970.5 1114.5M984.5 48.5001 984.5 1114.5M998.5 48.5001 998.5 1114.5M1012.5 48.5001 1012.5 1114.5M1027.5 48.5001 1027.5 1114.5M1041.5 48.5001 1041.5 1114.5M1055.5 48.5001 1055.5 1114.5M1069.5 48.5001 1069.5 1114.5M1083.5 48.5001 1083.5 1114.5M1097.5 48.5001 1097.5 1114.5M1112.5 48.5001 1112.5 1114.5M1126.5 48.5001 1126.5 1114.5M1140.5 48.5001 1140.5 1114.5M1154.5 48.5001 1154.5 1114.5M1168.5 48.5001 1168.5 1114.5M1182.5 48.5001 1182.5 1114.5M1197.5 48.5001 1197.5 1114.5M1211.5 48.5001 1211.5 1114.5M1225.5 48.5001 1225.5 1114.5M1239.5 48.5001 1239.5 1114.5M1253.5 48.5001 1253.5 1114.5M1267.5 48.5001 1267.5 1114.5M1282.5 48.5001 1282.5 1114.5M1296.5 48.5001 1296.5 1114.5M1310.5 48.5001 1310.5 1114.5M1324.5 48.5001 1324.5 1114.5M1338.5 48.5001 1338.5 1114.5M1352.5 48.5001 1352.5 1114.5M1367.5 48.5001 1367.5 1114.5M1381.5 48.5001 1381.5 1114.5M1395.5 48.5001 1395.5 1114.5M1409.5 48.5001 1409.5 1114.5M1423.5 48.5001 1423.5 1114.5M1437.5 48.5001 1437.5 1114.5M1452.5 48.5001 1452.5 1114.5M1466.5 48.5001 1466.5 1114.5M1480.5 48.5001 1480.5 1114.5M1494.5 48.5001 1494.5 1114.5M1508.5 48.5001 1508.5 1114.5M1522.5 48.5001 1522.5 1114.5M1537.5 48.5001 1537.5 1114.5M1551.5 48.5001 1551.5 1114.5M1565.5 48.5001 1565.5 1114.5M1579.5 48.5001 1579.5 1114.5M1593.5 48.5001 1593.5 1114.5M1607.5 48.5001 1607.5 1114.5M1622.5 48.5001 1622.5 1114.5M1636.5 48.5001 1636.5 1114.5M1650.5 48.5001 1650.5 1114.5M1664.5 48.5001 1664.5 1114.5M1678.5 48.5001 1678.5 1114.5M1692.5 48.5001 1692.5 1114.5M1707.5 48.5001 1707.5 1114.5M1721.5 48.5001 1721.5 1114.5M1735.5 48.5001 1735.5 1114.5M1749.5 48.5001 1749.5 1114.5M1763.5 48.5001 1763.5 1114.5M1777.5 48.5001 1777.5 1114.5M1792.5 48.5001 1792.5 1114.5M1806.5 48.5001 1806.5 1114.5M1820.5 48.5001 1820.5 1114.5M1834.5 48.5001 1834.5 1114.5M1848.5 48.5001 1848.5 1114.5M1862.5 48.5001 1862.5 1114.5M1877.5 48.5001 1877.5 1114.5M1891.5 48.5001 1891.5 1114.5M1905.5 48.5001 1905.5 1114.5" stroke="#D9D9D9" stroke-linejoin="round" stroke-miterlimit="10" fill="none"/></g><g clip-path="url(#clip4)"><path d="M0 0 0.000104987 1066" stroke="#BFBFBF" stroke-linejoin="round" stroke-miterlimit="10" fill="none" fill-rule="evenodd" transform="matrix(1 0 0 -1 106.5 1114.5)"/></g><g clip-path="url(#clip5)"><path d="M106.5 1114.5 1905.5 1114.5" stroke="#BFBFBF" stroke-linejoin="round" stroke-miterlimit="10" fill="none" fill-rule="evenodd"/></g><g clip-path="url(#clip6)"><path d="M106 1723 121 173 135 132 149 108 163 90 177 76 191 76 206 76 220 76 234 76 248 76 262 76 276 76 291 76 305 76 319 76 333 76 347 76 361 75 376 75 390 75 404 75 418 75 432 75 446 75 460 75 475 75 489 75 503 75 517 75 531 74 545 74 560 74 574 74 588 74 602 74 616 74 630 74 645 74 659 74 673 74 687 74 701 74 715 74 730 74 744 74 758 74 772 74 786 74 800 74 815 74 829 75 843 76 857 78 871 80 885 82 900 84 914 88 928 92 942 99 956 106 970 112 985 118 999 124 1013 130 1027 138 1041 148 1055 159 1070 172 1084 184 1098 193 1112 201 1126 209 1140 217 1155 226 1169 234 1183 242 1197 249 1211 256 1225 263 1240 270 1254 276 1268 282 1282 288 1296 294 1310 300 1325 307 1339 313 1353 320 1367 327 1381 334 1395 342 1410 349 1424 358 1438 368 1452 377 1466 387 1480 397 1495 409 1509 420 1523 432 1537 444 1551 459 1565 480 1580 503 1594 528 1608 552 1622 576 1636 603 1650 628 1665 645 1679 665 1693 682 1707 695 1721 703 1735 719 1750 771 1764 1114 1778 1723 1792 1723 1806 1723 1820 1723 1835 1723 1849 1723 1863 1723 1877 1723 1891 1723 1905 1723" stroke="#BFBFBF" stroke-width="2" stroke-linecap="round" stroke-linejoin="round" stroke-miterlimit="10" fill="none"/></g><g clip-path="url(#clip7)"><path d="M106 1723 121 465 135 368 149 311 163 279 177 261 191 261 206 262 220 263 234 263 248 262 262 263 276 262 291 262 305 262 319 261 333 261 347 261 361 262 376 262 390 262 404 262 418 261 432 261 446 261 460 261 475 261 489 260 503 260 517 260 531 260 545 260 560 261 574 261 588 261 602 261 616 261 630 261 645 261 659 260 673 261 687 261 701 261 715 260 730 260 744 260 758 260 772 260 786 260 800 257 815 252 829 241 843 227 857 214 871 205 885 200 900 202 914 198 928 198 942 201 956 207 970 207 985 210 999 233 1013 218 1027 203 1041 200 1055 199 1070 201 1084 209 1098 228 1112 257 1126 264 1140 273 1155 282 1169 292 1183 302 1197 312 1211 321 1225 330 1240 340 1254 349 1268 357 1282 366 1296 373 1310 379 1325 382 1339 386 1353 389 1367 393 1381 399 1395 405 1410 411 1424 415 1438 417 1452 418 1466 429 1480 439 1495 445 1509 453 1523 462 1537 470 1551 474 1565 470 1580 480 1594 496 1608 516 1622 540 1636 566 1650 600 1665 639 1679 668 1693 688 1707 712 1721 747 1735 736 1750 713 1764 703 1778 731 1792 782 1806 1114 1820 1723 1835 1723 1849 1723 1863 1723 1877 1723 1891 1723 1905 1723" stroke="#996633" stroke-width="2" stroke-linecap="round" stroke-linejoin="round" stroke-miterlimit="10" fill="none"/></g><g clip-path="url(#clip8)"><path d="M106 1723 121 512 135 412 149 357 163 326 177 309 191 309 206 310 220 310 234 311 248 310 262 310 276 311 291 311 305 310 319 309 333 309 347 309 361 309 376 309 390 309 404 309 418 309 432 309 446 310 460 310 475 310 489 310 503 310 517 310 531 310 545 310 560 309 574 308 588 308 602 308 616 309 630 309 645 308 659 307 673 308 687 309 701 309 715 309 730 309 744 309 758 308 772 309 786 309 800 309 815 309 829 310 843 311 857 313 871 314 885 315 900 316 914 314 928 311 942 307 956 304 970 308 985 315 999 344 1013 357 1027 374 1041 384 1055 395 1070 409 1084 420 1098 427 1112 436 1126 443 1140 454 1155 464 1169 470 1183 476 1197 483 1211 491 1225 498 1240 503 1254 509 1268 515 1282 520 1296 527 1310 534 1325 538 1339 542 1353 548 1367 560 1381 568 1395 578 1410 587 1424 597 1438 600 1452 609 1466 622 1480 642 1495 664 1509 677 1523 668 1537 669 1551 682 1565 705 1580 733 1594 761 1608 776 1622 793 1636 810 1650 818 1665 836 1679 843 1693 852 1707 843 1721 881 1735 985 1750 1723 1764 1723 1778 1723 1792 1723 1806 1723 1820 1723 1835 1723 1849 1723 1863 1723 1877 1723 1891 1723 1905 1723" stroke="#A18F8B" stroke-width="2" stroke-linecap="round" stroke-linejoin="round" stroke-miterlimit="10" fill="none"/></g><g clip-path="url(#clip9)"><path d="M106 1677 121 686 135 584 149 567 163 577 177 589 191 581 206 574 220 583 234 577 248 571 262 448 276 497 291 500 305 507 319 501 333 506 347 506 361 514 376 511 390 508 404 507 418 508 432 508 446 510 460 518 475 521 489 515 503 524 517 514 531 522 545 525 560 527 574 528 588 526 602 526 616 525 630 532 645 527 659 532 673 533 687 538 701 539 715 533 730 533 744 542 758 536 772 542 786 534 800 545 815 543 829 547 843 539 857 470 871 383 885 311 900 255 914 238 928 220 942 202 956 185 970 168 985 152 999 143 1013 541 1027 532 1041 524 1055 522 1070 514 1084 518 1098 521 1112 584 1126 595 1140 599 1155 636 1169 636 1183 646 1197 670 1211 658 1225 668 1240 695 1254 723 1268 695 1282 703 1296 710 1310 701 1325 695 1339 810 1353 748 1367 795 1381 796 1395 812 1410 901 1424 841 1438 799 1452 796 1466 770 1480 804 1495 796 1509 825 1523 996 1537 891 1551 839 1565 1068 1580 1068 1594 950 1608 846 1622 1677 1636 944 1650 853 1665 815 1679 1677 1693 1677 1707 1677 1721 1677 1735 1677 1750 1677 1764 1677 1778 1677 1792 1677 1806 1677 1820 1677 1835 1677 1849 1677 1863 1677 1877 1677 1891 1677 1905 1677" stroke="#009999" stroke-width="2" stroke-linecap="round" stroke-linejoin="round" stroke-miterlimit="10" fill="none"/></g><g clip-path="url(#clip10)"><path d="M106 1723 121 1723 135 1723 149 1723 163 1723 177 1723 191 1723 206 1723 220 1723 234 1723 248 1723 262 1723 276 1723 291 1723 305 1723 319 1723 333 1723 347 1723 361 1723 376 1723 390 1723 404 1723 418 1723 432 1723 446 1723 460 1723 475 1723 489 1723 503 1723 517 1723 531 1723 545 1723 560 1723 574 1723 588 1723 602 1723 616 1723 630 1723 645 1723 659 1723 673 1723 687 1723 701 1723 715 1723 730 1723 744 1723 758 855 772 755 786 669 800 584 815 507 829 449 843 412 857 391 871 380 885 376 900 354 914 300 928 255 942 222 956 199 970 196 985 202 999 220 1013 260 1027 290 1041 344 1055 335 1070 329 1084 328 1098 336 1112 354 1126 388 1140 393 1155 398 1169 402 1183 409 1197 418 1211 428 1225 437 1240 446 1254 455 1268 466 1282 477 1296 485 1310 493 1325 501 1339 510 1353 522 1367 538 1381 552 1395 560 1410 564 1424 564 1438 571 1452 583 1466 595 1480 624 1495 650 1509 678 1523 716 1537 773 1551 885 1565 1068 1580 1068 1594 1723 1608 1723 1622 1723 1636 1723 1650 1723 1665 1723 1679 1723 1693 1723 1707 1723 1721 1723 1735 1723 1750 1723 1764 1723 1778 1723 1792 1723 1806 1723 1820 1723 1835 1723 1849 1723 1863 1723 1877 1723 1891 1723 1905 1723" stroke="#E0D08C" stroke-width="2" stroke-linecap="round" stroke-linejoin="round" stroke-miterlimit="10" fill="none"/></g><g clip-path="url(#clip11)"><path d="M106 1723 121 608 135 482 149 422 163 394 177 379 191 379 206 378 220 378 234 379 248 381 262 381 276 381 291 380 305 379 319 379 333 379 347 380 361 380 376 379 390 379 404 380 418 380 432 379 446 379 460 379 475 379 489 379 503 378 517 379 531 379 545 378 560 378 574 377 588 378 602 379 616 378 630 378 645 378 659 378 673 378 687 378 701 378 715 378 730 379 744 378 758 378 772 378 786 378 800 378 815 378 829 379 843 381 857 383 871 384 885 386 900 389 914 392 928 396 942 403 956 410 970 415 985 421 999 428 1013 433 1027 440 1041 451 1055 462 1070 477 1084 490 1098 498 1112 505 1126 512 1140 522 1155 531 1169 534 1183 538 1197 549 1211 559 1225 566 1240 572 1254 578 1268 583 1282 593 1296 597 1310 597 1325 603 1339 614 1353 623 1367 631 1381 642 1395 649 1410 654 1424 660 1438 669 1452 677 1466 692 1480 696 1495 704 1509 720 1523 730 1537 748 1551 778 1565 792 1580 804 1594 828 1608 872 1622 907 1636 923 1650 985 1665 1068 1679 1723 1693 996 1707 1022 1721 935 1735 935 1750 1008 1764 1723 1778 1723 1792 1723 1806 1723 1820 1723 1835 1723 1849 1723 1863 1723 1877 1723 1891 1723 1905 1723" stroke="#3B3838" stroke-width="2" stroke-linecap="round" stroke-linejoin="round" stroke-miterlimit="10" fill="none"/></g><g clip-path="url(#clip12)"><path d="M106 1677 121 658 135 336 149 306 163 284 177 267 191 265 206 263 220 262 234 261 248 263 262 531 276 536 291 536 305 544 319 532 333 546 347 554 361 544 376 556 390 544 404 548 418 558 432 550 446 553 460 558 475 568 489 560 503 572 517 565 531 570 545 580 560 570 574 584 588 581 602 585 616 592 630 599 645 590 659 588 673 600 687 603 701 592 715 594 730 589 744 612 758 596 772 606 786 615 800 598 815 609 829 611 843 621 857 615 871 618 885 653 900 635 914 646 928 661 942 659 956 676 970 661 985 664 999 751 1013 797 1027 793 1041 754 1055 823 1070 808 1084 743 1098 834 1112 806 1126 822 1140 819 1155 927 1169 904 1183 950 1197 977 1211 1022 1225 1022 1240 1008 1254 956 1268 927 1282 843 1296 1041 1310 1041 1325 1008 1339 1068 1353 1068 1367 1041 1381 1114 1395 1114 1410 1068 1424 1677 1438 1677 1452 1677 1466 1677 1480 1677 1495 1677 1509 1677 1523 1677 1537 1677 1551 1677 1565 1677 1580 1677 1594 1677 1608 1677 1622 1677 1636 1677 1650 1677 1665 1677 1679 1677 1693 1677 1707 1677 1721 1677 1735 1677 1750 1677 1764 1677 1778 1677 1792 1677 1806 1677 1820 1677 1835 1677 1849 1677 1863 1677 1877 1677 1891 1677 1905 1677" stroke="#ED7D31" stroke-width="2" stroke-linecap="round" stroke-linejoin="round" stroke-miterlimit="10" fill="none"/></g><g clip-path="url(#clip13)"><path d="M106 1723 121 678 135 532 149 470 163 444 177 430 191 430 206 430 220 430 234 430 248 430 262 430 276 429 291 429 305 430 319 430 333 429 347 429 361 430 376 430 390 429 404 429 418 430 432 430 446 430 460 430 475 429 489 429 503 430 517 430 531 429 545 429 560 428 574 428 588 427 602 428 616 429 630 429 645 429 659 429 673 429 687 428 701 427 715 428 730 428 744 429 758 428 772 429 786 428 800 428 815 429 829 430 843 431 857 432 871 434 885 436 900 439 914 443 928 448 942 454 956 461 970 467 985 473 999 479 1013 484 1027 501 1041 549 1055 663 1070 1723 1084 1723 1098 1723 1112 1723 1126 1723 1140 1723 1155 1723 1169 1723 1183 1723 1197 1723 1211 1723 1225 1723 1240 1723 1254 1723 1268 1723 1282 1723 1296 1723 1310 1723 1325 1723 1339 1723 1353 1723 1367 1723 1381 1723 1395 1723 1410 1723 1424 1723 1438 1723 1452 1723 1466 1723 1480 1723 1495 1723 1509 1723 1523 1723 1537 1723 1551 1723 1565 1723 1580 1723 1594 1723 1608 1723 1622 1723 1636 1723 1650 1723 1665 1723 1679 1723 1693 1723 1707 1723 1721 1723 1735 1723 1750 1723 1764 1723 1778 1723 1792 1723 1806 1723 1820 1723 1835 1723 1849 1723 1863 1723 1877 1723 1891 1723 1905 1723" stroke="#D8B394" stroke-width="2" stroke-linecap="round" stroke-linejoin="round" stroke-miterlimit="10" fill="none"/></g><g clip-path="url(#clip14)"><path d="M106 1723 121 660 135 515 149 450 163 425 177 411 191 411 206 411 220 411 234 411 248 411 262 411 276 411 291 410 305 410 319 411 333 411 347 418 361 456 376 560 390 1723 404 1723 418 1723 432 1723 446 1723 460 1723 475 1723 489 1723 503 1723 517 1723 531 1723 545 1723 560 1723 574 1723 588 1723 602 1723 616 1723 630 1723 645 1723 659 1723 673 1723 687 1723 701 1723 715 1723 730 1723 744 1723 758 1723 772 1723 786 1723 800 1723 815 1723 829 1723 843 1723 857 1723 871 1723 885 1723 900 1723 914 1723 928 1723 942 1723 956 1723 970 1723 985 1723 999 1723 1013 1723 1027 1723 1041 1723 1055 1723 1070 1723 1084 1723 1098 1723 1112 1723 1126 1723 1140 1723 1155 1723 1169 1723 1183 1723 1197 1723 1211 1723 1225 1723 1240 1723 1254 1723 1268 1723 1282 1723 1296 1723 1310 1723 1325 1723 1339 1723 1353 1723 1367 1723 1381 1723 1395 1723 1410 1723 1424 1723 1438 1723 1452 1723 1466 1723 1480 1723 1495 1723 1509 1723 1523 1723 1537 1723 1551 1723 1565 1723 1580 1723 1594 1723 1608 1723 1622 1723 1636 1723 1650 1723 1665 1723 1679 1723 1693 1723 1707 1723 1721 1723 1735 1723 1750 1723 1764 1723 1778 1723 1792 1723 1806 1723 1820 1723 1835 1723 1849 1723 1863 1723 1877 1723 1891 1723 1905 1723" stroke="#636363" stroke-width="2" stroke-linecap="round" stroke-linejoin="round" stroke-miterlimit="10" fill="none"/></g><g clip-path="url(#clip15)"><path d="M106 1723 121 786 135 641 149 575 163 550 177 538 191 539 206 537 220 534 234 537 248 537 262 536 276 536 291 537 305 537 319 537 333 537 347 537 361 538 376 537 390 536 404 536 418 537 432 534 446 534 460 536 475 536 489 536 503 535 517 535 531 535 545 531 560 535 574 546 588 583 602 681 616 1723 630 1723 645 1723 659 1723 673 1723 687 1723 701 1723 715 1723 730 1723 744 1723 758 1723 772 1723 786 1723 800 1723 815 1723 829 1723 843 1723 857 1723 871 1723 885 1723 900 1723 914 1723 928 1723 942 1723 956 1723 970 1723 985 1723 999 1723 1013 1723 1027 1723 1041 1723 1055 1723 1070 1723 1084 1723 1098 1723 1112 1723 1126 1723 1140 1723 1155 1723 1169 1723 1183 1723 1197 1723 1211 1723 1225 1723 1240 1723 1254 1723 1268 1723 1282 1723 1296 1723 1310 1723 1325 1723 1339 1723 1353 1723 1367 1723 1381 1723 1395 1723 1410 1723 1424 1723 1438 1723 1452 1723 1466 1723 1480 1723 1495 1723 1509 1723 1523 1723 1537 1723 1551 1723 1565 1723 1580 1723 1594 1723 1608 1723 1622 1723 1636 1723 1650 1723 1665 1723 1679 1723 1693 1723 1707 1723 1721 1723 1735 1723 1750 1723 1764 1723 1778 1723 1792 1723 1806 1723 1820 1723 1835 1723 1849 1723 1863 1723 1877 1723 1891 1723 1905 1723" stroke="#FFC000" stroke-width="2" stroke-linecap="round" stroke-linejoin="round" stroke-miterlimit="10" fill="none"/></g><g clip-path="url(#clip16)"><path d="M106 1723 121 785 135 648 149 588 163 562 177 548 191 548 206 548 220 549 234 548 248 549 262 547 276 546 291 549 305 551 319 548 333 548 347 558 361 600 376 698 390 1723 404 1723 418 1723 432 1723 446 1723 460 1723 475 1723 489 1723 503 1723 517 1723 531 1723 545 1723 560 1723 574 1723 588 1723 602 1723 616 1723 630 1723 645 1723 659 1723 673 1723 687 1723 701 1723 715 1723 730 1723 744 1723 758 1723 772 1723 786 1723 800 1723 815 1723 829 1723 843 1723 857 1723 871 1723 885 1723 900 1723 914 1723 928 1723 942 1723 956 1723 970 1723 985 1723 999 1723 1013 1723 1027 1723 1041 1723 1055 1723 1070 1723 1084 1723 1098 1723 1112 1723 1126 1723 1140 1723 1155 1723 1169 1723 1183 1723 1197 1723 1211 1723 1225 1723 1240 1723 1254 1723 1268 1723 1282 1723 1296 1723 1310 1723 1325 1723 1339 1723 1353 1723 1367 1723 1381 1723 1395 1723 1410 1723 1424 1723 1438 1723 1452 1723 1466 1723 1480 1723 1495 1723 1509 1723 1523 1723 1537 1723 1551 1723 1565 1723 1580 1723 1594 1723 1608 1723 1622 1723 1636 1723 1650 1723 1665 1723 1679 1723 1693 1723 1707 1723 1721 1723 1735 1723 1750 1723 1764 1723 1778 1723 1792 1723 1806 1723 1820 1723 1835 1723 1849 1723 1863 1723 1877 1723 1891 1723 1905 1723" stroke="#255E91" stroke-width="2" stroke-linecap="round" stroke-linejoin="round" stroke-miterlimit="10" fill="none"/></g><g clip-path="url(#clip17)"><path d="M106 1723 121 1723 135 1723 149 854 163 1723 177 1723 191 1723 206 1723 220 1723 234 1723 248 717 262 687 276 701 291 711 305 688 319 694 333 693 347 686 361 680 376 692 390 766 404 678 418 717 432 707 446 696 460 688 475 718 489 702 503 743 517 679 531 711 545 685 560 720 574 682 588 674 602 734 616 688 630 712 645 694 659 718 673 716 687 713 701 754 715 708 730 722 744 720 758 726 772 726 786 704 800 695 815 712 829 703 843 734 857 708 871 708 885 691 900 707 914 753 928 746 942 769 956 783 970 812 985 854 999 821 1013 832 1027 846 1041 875 1055 837 1070 838 1084 812 1098 1723 1112 874 1126 1723 1140 846 1155 1723 1169 857 1183 1723 1197 879 1211 1723 1225 1723 1240 1723 1254 1723 1268 1723 1282 1723 1296 1723 1310 1723 1325 1723 1339 1723 1353 847 1367 1723 1381 1723 1395 1723 1410 1723 1424 1723 1438 1723 1452 1723 1466 1723 1480 1723 1495 1723 1509 1723 1523 1723 1537 1723 1551 1723 1565 1723 1580 1723 1594 1723 1608 1723 1622 1723 1636 1723 1650 1723 1665 1723 1679 1723 1693 1723 1707 1723 1721 1723 1735 1723 1750 1723 1764 1723 1778 1723 1792 1723 1806 1723 1820 1723 1835 1723 1849 1723 1863 1723 1877 1723 1891 1723 1905 1723" stroke="#548235" stroke-width="2" stroke-linecap="round" stroke-linejoin="round" stroke-miterlimit="10" fill="none"/></g><g clip-path="url(#clip18)"><path d="M106 1723 121 1723 135 1723 149 919 163 852 177 910 191 794 206 823 220 822 234 844 248 528 262 919 276 810 291 818 305 962 319 865 333 944 347 1008 361 881 376 977 390 919 404 858 418 904 432 916 446 1723 460 919 475 1008 489 962 503 894 517 899 531 870 545 913 560 950 574 894 588 931 602 1723 616 1723 630 1723 645 956 659 913 673 1723 687 1723 701 883 715 1723 730 940 744 883 758 950 772 985 786 935 800 1723 815 1114 829 1723 843 1723 857 1723 871 1723 885 1008 900 1008 914 1723 928 1723 942 1723 956 1723 970 1723 985 1723 999 1723 1013 1723 1027 1723 1041 1723 1055 1723 1070 1723 1084 1723 1098 1723 1112 1723 1126 1723 1140 1723 1155 1723 1169 1723 1183 1723 1197 1723 1211 1723 1225 1723 1240 1723 1254 1723 1268 1723 1282 1723 1296 1723 1310 1723 1325 1723 1339 1723 1353 1723 1367 1723 1381 1723 1395 1723 1410 1723 1424 1723 1438 1723 1452 1723 1466 1723 1480 1723 1495 1723 1509 1723 1523 1723 1537 1723 1551 1723 1565 1723 1580 1723 1594 1723 1608 1723 1622 1723 1636 1723 1650 1723 1665 1723 1679 1723 1693 1723 1707 1723 1721 1723 1735 1723 1750 1723 1764 1723 1778 1723 1792 1723 1806 1723 1820 1723 1835 1723 1849 1723 1863 1723 1877 1723 1891 1723 1905 1723" stroke="#7030A0" stroke-width="2" stroke-linecap="round" stroke-linejoin="round" stroke-miterlimit="10" fill="none"/></g><g clip-path="url(#clip19)"><path d="M106 1723 121 1723 135 1723 149 1723 163 1723 177 1723 191 1723 206 1723 220 1723 234 1723 248 1723 262 1723 276 1723 291 1723 305 1723 319 1723 333 1723 347 1723 361 1723 376 1723 390 1723 404 1723 418 1723 432 1723 446 1723 460 1723 475 1723 489 1723 503 1723 517 1723 531 1723 545 1723 560 1723 574 1723 588 1723 602 1723 616 1723 630 1723 645 1723 659 1723 673 1723 687 1723 701 1723 715 1723 730 1723 744 1723 758 1723 772 1723 786 1723 800 1723 815 1723 829 1723 843 1723 857 1723 871 1723 885 927 900 899 914 832 928 744 942 695 956 655 970 661 985 647 999 650 1013 706 1027 748 1041 944 1055 1723 1070 1723 1084 1723 1098 1723 1112 1723 1126 1723 1140 1723 1155 1723 1169 1723 1183 1723 1197 1723 1211 1723 1225 1723 1240 1723 1254 1723 1268 1723 1282 1723 1296 1723 1310 1723 1325 1723 1339 1723 1353 1723 1367 1723 1381 1723 1395 1723 1410 1723 1424 1723 1438 1723 1452 1723 1466 1723 1480 1723 1495 1723 1509 1723 1523 1723 1537 1723 1551 1723 1565 1723 1580 1723 1594 1723 1608 1723 1622 1723 1636 1723 1650 1723 1665 1723 1679 1723 1693 1723 1707 1723 1721 1723 1735 1723 1750 1723 1764 1723 1778 1723 1792 1723 1806 1723 1820 1723 1835 1723 1849 1723 1863 1723 1877 1723 1891 1723 1905 1723" stroke="#A3C2C9" stroke-width="2" stroke-linecap="round" stroke-linejoin="round" stroke-miterlimit="10" fill="none"/></g><g clip-path="url(#clip20)"><text fill="#595959" font-family="Arial,Arial_MSFontService,sans-serif" font-weight="400" font-size="12" transform="translate(89.3804 1118)">1</text></g><g clip-path="url(#clip21)"><text fill="#595959" font-family="Arial,Arial_MSFontService,sans-serif" font-weight="400" font-size="12" transform="translate(82.707 966)">10</text></g><g clip-path="url(#clip22)"><text fill="#595959" font-family="Arial,Arial_MSFontService,sans-serif" font-weight="400" font-size="12" transform="translate(76.0336 813)">100</text></g><g clip-path="url(#clip23)"><text fill="#595959" font-family="Arial,Arial_MSFontService,sans-serif" font-weight="400" font-size="12" transform="translate(66.0269 661)">1,000</text></g><g clip-path="url(#clip24)"><text fill="#595959" font-family="Arial,Arial_MSFontService,sans-serif" font-weight="400" font-size="12" transform="translate(59.3535 509)">10,000</text></g><g clip-path="url(#clip25)"><text fill="#595959" font-family="Arial,Arial_MSFontService,sans-serif" font-weight="400" font-size="12" transform="translate(52.6801 357)">100,000</text></g><g clip-path="url(#clip26)"><text fill="#595959" font-family="Arial,Arial_MSFontService,sans-serif" font-weight="400" font-size="12" transform="translate(42.6734 204)">1,000,000</text></g><g clip-path="url(#clip27)"><text fill="#595959" font-family="Arial,Arial_MSFontService,sans-serif" font-weight="400" font-size="12" transform="translate(36 52)">10,000,000</text></g><g clip-path="url(#clip28)"><text fill="#595959" font-family="Arial,Arial_MSFontService,sans-serif" font-weight="400" font-size="12" transform="matrix(6.12323e-17 -1 1 6.12323e-17 110.674 1128)">0</text></g><g clip-path="url(#clip29)"><text fill="#595959" font-family="Arial,Arial_MSFontService,sans-serif" font-weight="400" font-size="12" transform="matrix(6.12323e-17 -1 1 6.12323e-17 124.839 1128)">1</text></g><g clip-path="url(#clip30)"><text fill="#595959" font-family="Arial,Arial_MSFontService,sans-serif" font-weight="400" font-size="12" transform="matrix(6.12323e-17 -1 1 6.12323e-17 139.004 1128)">2</text></g><g clip-path="url(#clip31)"><text fill="#595959" font-family="Arial,Arial_MSFontService,sans-serif" font-weight="400" font-size="12" transform="matrix(6.12323e-17 -1 1 6.12323e-17 153.169 1128)">3</text></g><g clip-path="url(#clip32)"><text fill="#595959" font-family="Arial,Arial_MSFontService,sans-serif" font-weight="400" font-size="12" transform="matrix(6.12323e-17 -1 1 6.12323e-17 167.334 1128)">4</text></g><g clip-path="url(#clip33)"><text fill="#595959" font-family="Arial,Arial_MSFontService,sans-serif" font-weight="400" font-size="12" transform="matrix(6.12323e-17 -1 1 6.12323e-17 181.499 1128)">5</text></g><g clip-path="url(#clip34)"><text fill="#595959" font-family="Arial,Arial_MSFontService,sans-serif" font-weight="400" font-size="12" transform="matrix(6.12323e-17 -1 1 6.12323e-17 195.664 1128)">6</text></g><g clip-path="url(#clip35)"><text fill="#595959" font-family="Arial,Arial_MSFontService,sans-serif" font-weight="400" font-size="12" transform="matrix(6.12323e-17 -1 1 6.12323e-17 209.829 1128)">7</text></g><g clip-path="url(#clip36)"><text fill="#595959" font-family="Arial,Arial_MSFontService,sans-serif" font-weight="400" font-size="12" transform="matrix(6.12323e-17 -1 1 6.12323e-17 223.994 1128)">8</text></g><g clip-path="url(#clip37)"><text fill="#595959" font-family="Arial,Arial_MSFontService,sans-serif" font-weight="400" font-size="12" transform="matrix(6.12323e-17 -1 1 6.12323e-17 238.159 1128)">9</text></g><g clip-path="url(#clip38)"><text fill="#595959" font-family="Arial,Arial_MSFontService,sans-serif" font-weight="400" font-size="12" transform="matrix(6.12323e-17 -1 1 6.12323e-17 252.324 1135)">10</text></g><g clip-path="url(#clip39)"><text fill="#595959" font-family="Arial,Arial_MSFontService,sans-serif" font-weight="400" font-size="12" transform="matrix(6.12323e-17 -1 1 6.12323e-17 266.489 1135)">11</text></g><g clip-path="url(#clip40)"><text fill="#595959" font-family="Arial,Arial_MSFontService,sans-serif" font-weight="400" font-size="12" transform="matrix(6.12323e-17 -1 1 6.12323e-17 280.654 1135)">12</text></g><g clip-path="url(#clip41)"><text fill="#595959" font-family="Arial,Arial_MSFontService,sans-serif" font-weight="400" font-size="12" transform="matrix(6.12323e-17 -1 1 6.12323e-17 294.819 1135)">13</text></g><g clip-path="url(#clip42)"><text fill="#595959" font-family="Arial,Arial_MSFontService,sans-serif" font-weight="400" font-size="12" transform="matrix(6.12323e-17 -1 1 6.12323e-17 308.984 1135)">14</text></g><g clip-path="url(#clip43)"><text fill="#595959" font-family="Arial,Arial_MSFontService,sans-serif" font-weight="400" font-size="12" transform="matrix(6.12323e-17 -1 1 6.12323e-17 323.149 1135)">15</text></g><g clip-path="url(#clip44)"><text fill="#595959" font-family="Arial,Arial_MSFontService,sans-serif" font-weight="400" font-size="12" transform="matrix(6.12323e-17 -1 1 6.12323e-17 337.314 1135)">16</text></g><g clip-path="url(#clip45)"><text fill="#595959" font-family="Arial,Arial_MSFontService,sans-serif" font-weight="400" font-size="12" transform="matrix(6.12323e-17 -1 1 6.12323e-17 351.479 1135)">17</text></g><g clip-path="url(#clip46)"><text fill="#595959" font-family="Arial,Arial_MSFontService,sans-serif" font-weight="400" font-size="12" transform="matrix(6.12323e-17 -1 1 6.12323e-17 365.644 1135)">18</text></g><g clip-path="url(#clip47)"><text fill="#595959" font-family="Arial,Arial_MSFontService,sans-serif" font-weight="400" font-size="12" transform="matrix(6.12323e-17 -1 1 6.12323e-17 379.809 1135)">19</text></g><g clip-path="url(#clip48)"><text fill="#595959" font-family="Arial,Arial_MSFontService,sans-serif" font-weight="400" font-size="12" transform="matrix(6.12323e-17 -1 1 6.12323e-17 393.974 1135)">20</text></g><g clip-path="url(#clip49)"><text fill="#595959" font-family="Arial,Arial_MSFontService,sans-serif" font-weight="400" font-size="12" transform="matrix(6.12323e-17 -1 1 6.12323e-17 408.14 1135)">21</text></g><g clip-path="url(#clip50)"><text fill="#595959" font-family="Arial,Arial_MSFontService,sans-serif" font-weight="400" font-size="12" transform="matrix(6.12323e-17 -1 1 6.12323e-17 422.305 1135)">22</text></g><g clip-path="url(#clip51)"><text fill="#595959" font-family="Arial,Arial_MSFontService,sans-serif" font-weight="400" font-size="12" transform="matrix(6.12323e-17 -1 1 6.12323e-17 436.47 1135)">23</text></g><g clip-path="url(#clip52)"><text fill="#595959" font-family="Arial,Arial_MSFontService,sans-serif" font-weight="400" font-size="12" transform="matrix(6.12323e-17 -1 1 6.12323e-17 450.635 1135)">24</text></g><g clip-path="url(#clip53)"><text fill="#595959" font-family="Arial,Arial_MSFontService,sans-serif" font-weight="400" font-size="12" transform="matrix(6.12323e-17 -1 1 6.12323e-17 464.8 1135)">25</text></g><g clip-path="url(#clip54)"><text fill="#595959" font-family="Arial,Arial_MSFontService,sans-serif" font-weight="400" font-size="12" transform="matrix(6.12323e-17 -1 1 6.12323e-17 478.965 1135)">26</text></g><g clip-path="url(#clip55)"><text fill="#595959" font-family="Arial,Arial_MSFontService,sans-serif" font-weight="400" font-size="12" transform="matrix(6.12323e-17 -1 1 6.12323e-17 493.13 1135)">27</text></g><g clip-path="url(#clip56)"><text fill="#595959" font-family="Arial,Arial_MSFontService,sans-serif" font-weight="400" font-size="12" transform="matrix(6.12323e-17 -1 1 6.12323e-17 507.295 1135)">28</text></g><g clip-path="url(#clip57)"><text fill="#595959" font-family="Arial,Arial_MSFontService,sans-serif" font-weight="400" font-size="12" transform="matrix(6.12323e-17 -1 1 6.12323e-17 521.46 1135)">29</text></g><g clip-path="url(#clip58)"><text fill="#595959" font-family="Arial,Arial_MSFontService,sans-serif" font-weight="400" font-size="12" transform="matrix(6.12323e-17 -1 1 6.12323e-17 535.625 1135)">30</text></g><g clip-path="url(#clip59)"><text fill="#595959" font-family="Arial,Arial_MSFontService,sans-serif" font-weight="400" font-size="12" transform="matrix(6.12323e-17 -1 1 6.12323e-17 549.79 1135)">31</text></g><g clip-path="url(#clip60)"><text fill="#595959" font-family="Arial,Arial_MSFontService,sans-serif" font-weight="400" font-size="12" transform="matrix(6.12323e-17 -1 1 6.12323e-17 563.955 1135)">32</text></g><g clip-path="url(#clip61)"><text fill="#595959" font-family="Arial,Arial_MSFontService,sans-serif" font-weight="400" font-size="12" transform="matrix(6.12323e-17 -1 1 6.12323e-17 578.12 1135)">33</text></g><g clip-path="url(#clip62)"><text fill="#595959" font-family="Arial,Arial_MSFontService,sans-serif" font-weight="400" font-size="12" transform="matrix(6.12323e-17 -1 1 6.12323e-17 592.285 1135)">34</text></g><g clip-path="url(#clip63)"><text fill="#595959" font-family="Arial,Arial_MSFontService,sans-serif" font-weight="400" font-size="12" transform="matrix(6.12323e-17 -1 1 6.12323e-17 606.45 1135)">35</text></g><g clip-path="url(#clip64)"><text fill="#595959" font-family="Arial,Arial_MSFontService,sans-serif" font-weight="400" font-size="12" transform="matrix(6.12323e-17 -1 1 6.12323e-17 620.615 1135)">36</text></g><g clip-path="url(#clip65)"><text fill="#595959" font-family="Arial,Arial_MSFontService,sans-serif" font-weight="400" font-size="12" transform="matrix(6.12323e-17 -1 1 6.12323e-17 634.78 1135)">37</text></g><g clip-path="url(#clip66)"><text fill="#595959" font-family="Arial,Arial_MSFontService,sans-serif" font-weight="400" font-size="12" transform="matrix(6.12323e-17 -1 1 6.12323e-17 648.945 1135)">38</text></g><g clip-path="url(#clip67)"><text fill="#595959" font-family="Arial,Arial_MSFontService,sans-serif" font-weight="400" font-size="12" transform="matrix(6.12323e-17 -1 1 6.12323e-17 663.11 1135)">39</text></g><g clip-path="url(#clip68)"><text fill="#595959" font-family="Arial,Arial_MSFontService,sans-serif" font-weight="400" font-size="12" transform="matrix(6.12323e-17 -1 1 6.12323e-17 677.275 1135)">40</text></g><g clip-path="url(#clip69)"><text fill="#595959" font-family="Arial,Arial_MSFontService,sans-serif" font-weight="400" font-size="12" transform="matrix(6.12323e-17 -1 1 6.12323e-17 691.44 1135)">41</text></g><g clip-path="url(#clip70)"><text fill="#595959" font-family="Arial,Arial_MSFontService,sans-serif" font-weight="400" font-size="12" transform="matrix(6.12323e-17 -1 1 6.12323e-17 705.605 1135)">42</text></g><g clip-path="url(#clip71)"><text fill="#595959" font-family="Arial,Arial_MSFontService,sans-serif" font-weight="400" font-size="12" transform="matrix(6.12323e-17 -1 1 6.12323e-17 719.77 1135)">43</text></g><g clip-path="url(#clip72)"><text fill="#595959" font-family="Arial,Arial_MSFontService,sans-serif" font-weight="400" font-size="12" transform="matrix(6.12323e-17 -1 1 6.12323e-17 733.935 1135)">44</text></g><g clip-path="url(#clip73)"><text fill="#595959" font-family="Arial,Arial_MSFontService,sans-serif" font-weight="400" font-size="12" transform="matrix(6.12323e-17 -1 1 6.12323e-17 748.1 1135)">45</text></g><g clip-path="url(#clip74)"><text fill="#595959" font-family="Arial,Arial_MSFontService,sans-serif" font-weight="400" font-size="12" transform="matrix(6.12323e-17 -1 1 6.12323e-17 762.266 1135)">46</text></g><g clip-path="url(#clip75)"><text fill="#595959" font-family="Arial,Arial_MSFontService,sans-serif" font-weight="400" font-size="12" transform="matrix(6.12323e-17 -1 1 6.12323e-17 776.431 1135)">47</text></g><g clip-path="url(#clip76)"><text fill="#595959" font-family="Arial,Arial_MSFontService,sans-serif" font-weight="400" font-size="12" transform="matrix(6.12323e-17 -1 1 6.12323e-17 790.595 1135)">48</text></g><g clip-path="url(#clip77)"><text fill="#595959" font-family="Arial,Arial_MSFontService,sans-serif" font-weight="400" font-size="12" transform="matrix(6.12323e-17 -1 1 6.12323e-17 804.76 1135)">49</text></g><g clip-path="url(#clip78)"><text fill="#595959" font-family="Arial,Arial_MSFontService,sans-serif" font-weight="400" font-size="12" transform="matrix(6.12323e-17 -1 1 6.12323e-17 818.926 1135)">50</text></g><g clip-path="url(#clip79)"><text fill="#595959" font-family="Arial,Arial_MSFontService,sans-serif" font-weight="400" font-size="12" transform="matrix(6.12323e-17 -1 1 6.12323e-17 833.091 1135)">51</text></g><g clip-path="url(#clip80)"><text fill="#595959" font-family="Arial,Arial_MSFontService,sans-serif" font-weight="400" font-size="12" transform="matrix(6.12323e-17 -1 1 6.12323e-17 847.256 1135)">52</text></g><g clip-path="url(#clip81)"><text fill="#595959" font-family="Arial,Arial_MSFontService,sans-serif" font-weight="400" font-size="12" transform="matrix(6.12323e-17 -1 1 6.12323e-17 861.421 1135)">53</text></g><g clip-path="url(#clip82)"><text fill="#595959" font-family="Arial,Arial_MSFontService,sans-serif" font-weight="400" font-size="12" transform="matrix(6.12323e-17 -1 1 6.12323e-17 875.586 1135)">54</text></g><g clip-path="url(#clip83)"><text fill="#595959" font-family="Arial,Arial_MSFontService,sans-serif" font-weight="400" font-size="12" transform="matrix(6.12323e-17 -1 1 6.12323e-17 889.751 1135)">55</text></g><g clip-path="url(#clip84)"><text fill="#595959" font-family="Arial,Arial_MSFontService,sans-serif" font-weight="400" font-size="12" transform="matrix(6.12323e-17 -1 1 6.12323e-17 903.916 1135)">56</text></g><g clip-path="url(#clip85)"><text fill="#595959" font-family="Arial,Arial_MSFontService,sans-serif" font-weight="400" font-size="12" transform="matrix(6.12323e-17 -1 1 6.12323e-17 918.081 1135)">57</text></g><g clip-path="url(#clip86)"><text fill="#595959" font-family="Arial,Arial_MSFontService,sans-serif" font-weight="400" font-size="12" transform="matrix(6.12323e-17 -1 1 6.12323e-17 932.246 1135)">58</text></g><g clip-path="url(#clip87)"><text fill="#595959" font-family="Arial,Arial_MSFontService,sans-serif" font-weight="400" font-size="12" transform="matrix(6.12323e-17 -1 1 6.12323e-17 946.411 1135)">59</text></g><g clip-path="url(#clip88)"><text fill="#595959" font-family="Arial,Arial_MSFontService,sans-serif" font-weight="400" font-size="12" transform="matrix(6.12323e-17 -1 1 6.12323e-17 960.576 1135)">60</text></g><g clip-path="url(#clip89)"><text fill="#595959" font-family="Arial,Arial_MSFontService,sans-serif" font-weight="400" font-size="12" transform="matrix(6.12323e-17 -1 1 6.12323e-17 974.741 1135)">61</text></g><g clip-path="url(#clip90)"><text fill="#595959" font-family="Arial,Arial_MSFontService,sans-serif" font-weight="400" font-size="12" transform="matrix(6.12323e-17 -1 1 6.12323e-17 988.906 1135)">62</text></g><g clip-path="url(#clip91)"><text fill="#595959" font-family="Arial,Arial_MSFontService,sans-serif" font-weight="400" font-size="12" transform="matrix(6.12323e-17 -1 1 6.12323e-17 1003.07 1135)">63</text></g><g clip-path="url(#clip92)"><text fill="#595959" font-family="Arial,Arial_MSFontService,sans-serif" font-weight="400" font-size="12" transform="matrix(6.12323e-17 -1 1 6.12323e-17 1017.24 1135)">64</text></g><g clip-path="url(#clip93)"><text fill="#595959" font-family="Arial,Arial_MSFontService,sans-serif" font-weight="400" font-size="12" transform="matrix(6.12323e-17 -1 1 6.12323e-17 1031.4 1135)">65</text></g><g clip-path="url(#clip94)"><text fill="#595959" font-family="Arial,Arial_MSFontService,sans-serif" font-weight="400" font-size="12" transform="matrix(6.12323e-17 -1 1 6.12323e-17 1045.57 1135)">66</text></g><g clip-path="url(#clip95)"><text fill="#595959" font-family="Arial,Arial_MSFontService,sans-serif" font-weight="400" font-size="12" transform="matrix(6.12323e-17 -1 1 6.12323e-17 1059.73 1135)">67</text></g><g clip-path="url(#clip96)"><text fill="#595959" font-family="Arial,Arial_MSFontService,sans-serif" font-weight="400" font-size="12" transform="matrix(6.12323e-17 -1 1 6.12323e-17 1073.9 1135)">68</text></g><g clip-path="url(#clip97)"><text fill="#595959" font-family="Arial,Arial_MSFontService,sans-serif" font-weight="400" font-size="12" transform="matrix(6.12323e-17 -1 1 6.12323e-17 1088.06 1135)">69</text></g><g clip-path="url(#clip98)"><text fill="#595959" font-family="Arial,Arial_MSFontService,sans-serif" font-weight="400" font-size="12" transform="matrix(6.12323e-17 -1 1 6.12323e-17 1102.23 1135)">70</text></g><g clip-path="url(#clip99)"><text fill="#595959" font-family="Arial,Arial_MSFontService,sans-serif" font-weight="400" font-size="12" transform="matrix(6.12323e-17 -1 1 6.12323e-17 1116.39 1135)">71</text></g><g clip-path="url(#clip100)"><text fill="#595959" font-family="Arial,Arial_MSFontService,sans-serif" font-weight="400" font-size="12" transform="matrix(6.12323e-17 -1 1 6.12323e-17 1130.56 1135)">72</text></g><g clip-path="url(#clip101)"><text fill="#595959" font-family="Arial,Arial_MSFontService,sans-serif" font-weight="400" font-size="12" transform="matrix(6.12323e-17 -1 1 6.12323e-17 1144.72 1135)">73</text></g><g clip-path="url(#clip102)"><text fill="#595959" font-family="Arial,Arial_MSFontService,sans-serif" font-weight="400" font-size="12" transform="matrix(6.12323e-17 -1 1 6.12323e-17 1158.89 1135)">74</text></g><g clip-path="url(#clip103)"><text fill="#595959" font-family="Arial,Arial_MSFontService,sans-serif" font-weight="400" font-size="12" transform="matrix(6.12323e-17 -1 1 6.12323e-17 1173.05 1135)">75</text></g><g clip-path="url(#clip104)"><text fill="#595959" font-family="Arial,Arial_MSFontService,sans-serif" font-weight="400" font-size="12" transform="matrix(6.12323e-17 -1 1 6.12323e-17 1187.22 1135)">76</text></g><g clip-path="url(#clip105)"><text fill="#595959" font-family="Arial,Arial_MSFontService,sans-serif" font-weight="400" font-size="12" transform="matrix(6.12323e-17 -1 1 6.12323e-17 1201.38 1135)">77</text></g><g clip-path="url(#clip106)"><text fill="#595959" font-family="Arial,Arial_MSFontService,sans-serif" font-weight="400" font-size="12" transform="matrix(6.12323e-17 -1 1 6.12323e-17 1215.55 1135)">78</text></g><g clip-path="url(#clip107)"><text fill="#595959" font-family="Arial,Arial_MSFontService,sans-serif" font-weight="400" font-size="12" transform="matrix(6.12323e-17 -1 1 6.12323e-17 1229.71 1135)">79</text></g><g clip-path="url(#clip108)"><text fill="#595959" font-family="Arial,Arial_MSFontService,sans-serif" font-weight="400" font-size="12" transform="matrix(6.12323e-17 -1 1 6.12323e-17 1243.88 1135)">80</text></g><g clip-path="url(#clip109)"><text fill="#595959" font-family="Arial,Arial_MSFontService,sans-serif" font-weight="400" font-size="12" transform="matrix(6.12323e-17 -1 1 6.12323e-17 1258.04 1135)">81</text></g><g clip-path="url(#clip110)"><text fill="#595959" font-family="Arial,Arial_MSFontService,sans-serif" font-weight="400" font-size="12" transform="matrix(6.12323e-17 -1 1 6.12323e-17 1272.21 1135)">82</text></g><g clip-path="url(#clip111)"><text fill="#595959" font-family="Arial,Arial_MSFontService,sans-serif" font-weight="400" font-size="12" transform="matrix(6.12323e-17 -1 1 6.12323e-17 1286.37 1135)">83</text></g><g clip-path="url(#clip112)"><text fill="#595959" font-family="Arial,Arial_MSFontService,sans-serif" font-weight="400" font-size="12" transform="matrix(6.12323e-17 -1 1 6.12323e-17 1300.54 1135)">84</text></g><g clip-path="url(#clip113)"><text fill="#595959" font-family="Arial,Arial_MSFontService,sans-serif" font-weight="400" font-size="12" transform="matrix(6.12323e-17 -1 1 6.12323e-17 1314.7 1135)">85</text></g><g clip-path="url(#clip114)"><text fill="#595959" font-family="Arial,Arial_MSFontService,sans-serif" font-weight="400" font-size="12" transform="matrix(6.12323e-17 -1 1 6.12323e-17 1328.87 1135)">86</text></g><g clip-path="url(#clip115)"><text fill="#595959" font-family="Arial,Arial_MSFontService,sans-serif" font-weight="400" font-size="12" transform="matrix(6.12323e-17 -1 1 6.12323e-17 1343.03 1135)">87</text></g><g clip-path="url(#clip116)"><text fill="#595959" font-family="Arial,Arial_MSFontService,sans-serif" font-weight="400" font-size="12" transform="matrix(6.12323e-17 -1 1 6.12323e-17 1357.2 1135)">88</text></g><g clip-path="url(#clip117)"><text fill="#595959" font-family="Arial,Arial_MSFontService,sans-serif" font-weight="400" font-size="12" transform="matrix(6.12323e-17 -1 1 6.12323e-17 1371.36 1135)">89</text></g><g clip-path="url(#clip118)"><text fill="#595959" font-family="Arial,Arial_MSFontService,sans-serif" font-weight="400" font-size="12" transform="matrix(6.12323e-17 -1 1 6.12323e-17 1385.53 1135)">90</text></g><g clip-path="url(#clip119)"><text fill="#595959" font-family="Arial,Arial_MSFontService,sans-serif" font-weight="400" font-size="12" transform="matrix(6.12323e-17 -1 1 6.12323e-17 1399.69 1135)">91</text></g><g clip-path="url(#clip120)"><text fill="#595959" font-family="Arial,Arial_MSFontService,sans-serif" font-weight="400" font-size="12" transform="matrix(6.12323e-17 -1 1 6.12323e-17 1413.86 1135)">92</text></g><g clip-path="url(#clip121)"><text fill="#595959" font-family="Arial,Arial_MSFontService,sans-serif" font-weight="400" font-size="12" transform="matrix(6.12323e-17 -1 1 6.12323e-17 1428.02 1135)">93</text></g><g clip-path="url(#clip122)"><text fill="#595959" font-family="Arial,Arial_MSFontService,sans-serif" font-weight="400" font-size="12" transform="matrix(6.12323e-17 -1 1 6.12323e-17 1442.19 1135)">94</text></g><g clip-path="url(#clip123)"><text fill="#595959" font-family="Arial,Arial_MSFontService,sans-serif" font-weight="400" font-size="12" transform="matrix(6.12323e-17 -1 1 6.12323e-17 1456.35 1135)">95</text></g><g clip-path="url(#clip124)"><text fill="#595959" font-family="Arial,Arial_MSFontService,sans-serif" font-weight="400" font-size="12" transform="matrix(6.12323e-17 -1 1 6.12323e-17 1470.52 1135)">96</text></g><g clip-path="url(#clip125)"><text fill="#595959" font-family="Arial,Arial_MSFontService,sans-serif" font-weight="400" font-size="12" transform="matrix(6.12323e-17 -1 1 6.12323e-17 1484.68 1135)">97</text></g><g clip-path="url(#clip126)"><text fill="#595959" font-family="Arial,Arial_MSFontService,sans-serif" font-weight="400" font-size="12" transform="matrix(6.12323e-17 -1 1 6.12323e-17 1498.85 1135)">98</text></g><g clip-path="url(#clip127)"><text fill="#595959" font-family="Arial,Arial_MSFontService,sans-serif" font-weight="400" font-size="12" transform="matrix(6.12323e-17 -1 1 6.12323e-17 1513.01 1135)">99</text></g><g clip-path="url(#clip128)"><text fill="#595959" font-family="Arial,Arial_MSFontService,sans-serif" font-weight="400" font-size="12" transform="matrix(6.12323e-17 -1 1 6.12323e-17 1527.18 1141)">100</text></g><g clip-path="url(#clip129)"><text fill="#595959" font-family="Arial,Arial_MSFontService,sans-serif" font-weight="400" font-size="12" transform="matrix(6.12323e-17 -1 1 6.12323e-17 1541.34 1141)">101</text></g><g clip-path="url(#clip130)"><text fill="#595959" font-family="Arial,Arial_MSFontService,sans-serif" font-weight="400" font-size="12" transform="matrix(6.12323e-17 -1 1 6.12323e-17 1555.51 1141)">102</text></g><g clip-path="url(#clip131)"><text fill="#595959" font-family="Arial,Arial_MSFontService,sans-serif" font-weight="400" font-size="12" transform="matrix(6.12323e-17 -1 1 6.12323e-17 1569.67 1141)">103</text></g><g clip-path="url(#clip132)"><text fill="#595959" font-family="Arial,Arial_MSFontService,sans-serif" font-weight="400" font-size="12" transform="matrix(6.12323e-17 -1 1 6.12323e-17 1583.84 1141)">104</text></g><g clip-path="url(#clip133)"><text fill="#595959" font-family="Arial,Arial_MSFontService,sans-serif" font-weight="400" font-size="12" transform="matrix(6.12323e-17 -1 1 6.12323e-17 1598 1141)">105</text></g><g clip-path="url(#clip134)"><text fill="#595959" font-family="Arial,Arial_MSFontService,sans-serif" font-weight="400" font-size="12" transform="matrix(6.12323e-17 -1 1 6.12323e-17 1612.17 1141)">106</text></g><g clip-path="url(#clip135)"><text fill="#595959" font-family="Arial,Arial_MSFontService,sans-serif" font-weight="400" font-size="12" transform="matrix(6.12323e-17 -1 1 6.12323e-17 1626.33 1141)">107</text></g><g clip-path="url(#clip136)"><text fill="#595959" font-family="Arial,Arial_MSFontService,sans-serif" font-weight="400" font-size="12" transform="matrix(6.12323e-17 -1 1 6.12323e-17 1640.5 1141)">108</text></g><g clip-path="url(#clip137)"><text fill="#595959" font-family="Arial,Arial_MSFontService,sans-serif" font-weight="400" font-size="12" transform="matrix(6.12323e-17 -1 1 6.12323e-17 1654.66 1141)">109</text></g><g clip-path="url(#clip138)"><text fill="#595959" font-family="Arial,Arial_MSFontService,sans-serif" font-weight="400" font-size="12" transform="matrix(6.12323e-17 -1 1 6.12323e-17 1668.83 1141)">110</text></g><g clip-path="url(#clip139)"><text fill="#595959" font-family="Arial,Arial_MSFontService,sans-serif" font-weight="400" font-size="12" transform="matrix(6.12323e-17 -1 1 6.12323e-17 1682.99 1141)">111</text></g><g clip-path="url(#clip140)"><text fill="#595959" font-family="Arial,Arial_MSFontService,sans-serif" font-weight="400" font-size="12" transform="matrix(6.12323e-17 -1 1 6.12323e-17 1697.16 1141)">112</text></g><g clip-path="url(#clip141)"><text fill="#595959" font-family="Arial,Arial_MSFontService,sans-serif" font-weight="400" font-size="12" transform="matrix(6.12323e-17 -1 1 6.12323e-17 1711.32 1141)">113</text></g><g clip-path="url(#clip142)"><text fill="#595959" font-family="Arial,Arial_MSFontService,sans-serif" font-weight="400" font-size="12" transform="matrix(6.12323e-17 -1 1 6.12323e-17 1725.49 1141)">114</text></g><g clip-path="url(#clip143)"><text fill="#595959" font-family="Arial,Arial_MSFontService,sans-serif" font-weight="400" font-size="12" transform="matrix(6.12323e-17 -1 1 6.12323e-17 1739.65 1141)">115</text></g><g clip-path="url(#clip144)"><text fill="#595959" font-family="Arial,Arial_MSFontService,sans-serif" font-weight="400" font-size="12" transform="matrix(6.12323e-17 -1 1 6.12323e-17 1753.82 1141)">116</text></g><g clip-path="url(#clip145)"><text fill="#595959" font-family="Arial,Arial_MSFontService,sans-serif" font-weight="400" font-size="12" transform="matrix(6.12323e-17 -1 1 6.12323e-17 1767.98 1141)">117</text></g><g clip-path="url(#clip146)"><text fill="#595959" font-family="Arial,Arial_MSFontService,sans-serif" font-weight="400" font-size="12" transform="matrix(6.12323e-17 -1 1 6.12323e-17 1782.15 1141)">118</text></g><g clip-path="url(#clip147)"><text fill="#595959" font-family="Arial,Arial_MSFontService,sans-serif" font-weight="400" font-size="12" transform="matrix(6.12323e-17 -1 1 6.12323e-17 1796.31 1141)">119</text></g><g clip-path="url(#clip148)"><text fill="#595959" font-family="Arial,Arial_MSFontService,sans-serif" font-weight="400" font-size="12" transform="matrix(6.12323e-17 -1 1 6.12323e-17 1810.48 1141)">120</text></g><g clip-path="url(#clip149)"><text fill="#595959" font-family="Arial,Arial_MSFontService,sans-serif" font-weight="400" font-size="12" transform="matrix(6.12323e-17 -1 1 6.12323e-17 1824.64 1141)">121</text></g><g clip-path="url(#clip150)"><text fill="#595959" font-family="Arial,Arial_MSFontService,sans-serif" font-weight="400" font-size="12" transform="matrix(6.12323e-17 -1 1 6.12323e-17 1838.81 1141)">122</text></g><g clip-path="url(#clip151)"><text fill="#595959" font-family="Arial,Arial_MSFontService,sans-serif" font-weight="400" font-size="12" transform="matrix(6.12323e-17 -1 1 6.12323e-17 1852.97 1141)">123</text></g><g clip-path="url(#clip152)"><text fill="#595959" font-family="Arial,Arial_MSFontService,sans-serif" font-weight="400" font-size="12" transform="matrix(6.12323e-17 -1 1 6.12323e-17 1867.14 1141)">124</text></g><g clip-path="url(#clip153)"><text fill="#595959" font-family="Arial,Arial_MSFontService,sans-serif" font-weight="400" font-size="12" transform="matrix(6.12323e-17 -1 1 6.12323e-17 1881.3 1141)">125</text></g><g clip-path="url(#clip154)"><text fill="#595959" font-family="Arial,Arial_MSFontService,sans-serif" font-weight="400" font-size="12" transform="matrix(6.12323e-17 -1 1 6.12323e-17 1895.47 1141)">126</text></g><g clip-path="url(#clip155)"><text fill="#595959" font-family="Arial,Arial_MSFontService,sans-serif" font-weight="400" font-size="12" transform="matrix(6.12323e-17 -1 1 6.12323e-17 1909.63 1141)">127</text></g><g clip-path="url(#clip156)"><text fill="#595959" font-family="Arial,Arial_MSFontService,sans-serif" font-weight="400" font-size="13" transform="matrix(6.12323e-17 -1 1 6.12323e-17 29.6667 616)">Block count</text></g><g clip-path="url(#clip157)"><text fill="#595959" font-family="Arial,Arial_MSFontService,sans-serif" font-weight="400" font-size="13" transform="translate(983.62 1152)">Altitude</text></g><g clip-path="url(#clip158)"><text fill="#595959" font-family="Arial,Arial_MSFontService,sans-serif" font-weight="400" font-size="19" transform="translate(685.077 28)">Resource distribution by altitude (Minecraft Alpha 1.2.6, overworld)</text></g><g clip-path="url(#clip159)"><path d="M346 1181 372 1181" stroke="#BFBFBF" stroke-width="2" stroke-linecap="round" stroke-linejoin="round" stroke-miterlimit="10" fill="none" fill-rule="evenodd"/></g><g clip-path="url(#clip160)"><text fill="#595959" font-family="Arial,Arial_MSFontService,sans-serif" font-weight="400" font-size="12" transform="translate(374.35 1185)">stone</text></g><g clip-path="url(#clip161)"><path d="M421 1181 447 1181" stroke="#996633" stroke-width="2" stroke-linecap="round" stroke-linejoin="round" stroke-miterlimit="10" fill="none" fill-rule="evenodd"/></g><g clip-path="url(#clip162)"><text fill="#595959" font-family="Arial,Arial_MSFontService,sans-serif" font-weight="400" font-size="12" transform="translate(449.753 1185)">dirt</text></g><g clip-path="url(#clip163)"><path d="M484 1181 510 1181" stroke="#A18F8B" stroke-width="2" stroke-linecap="round" stroke-linejoin="round" stroke-miterlimit="10" fill="none" fill-rule="evenodd"/></g><g clip-path="url(#clip164)"><text fill="#595959" font-family="Arial,Arial_MSFontService,sans-serif" font-weight="400" font-size="12" transform="translate(512.468 1185)">gravel</text></g><g clip-path="url(#clip165)"><path d="M563 1181 588 1181" stroke="#009999" stroke-width="2" stroke-linecap="round" stroke-linejoin="round" stroke-miterlimit="10" fill="none" fill-rule="evenodd"/></g><g clip-path="url(#clip166)"><text fill="#595959" font-family="Arial,Arial_MSFontService,sans-serif" font-weight="400" font-size="12" transform="translate(591.197 1185)">water</text></g><g clip-path="url(#clip167)"><path d="M638 1181 664 1181" stroke="#E0D08C" stroke-width="2" stroke-linecap="round" stroke-linejoin="round" stroke-miterlimit="10" fill="none" fill-rule="evenodd"/></g><g clip-path="url(#clip168)"><text fill="#595959" font-family="Arial,Arial_MSFontService,sans-serif" font-weight="400" font-size="12" transform="translate(666.586 1185)">sand</text></g><g clip-path="url(#clip169)"><path d="M710 1181 736 1181" stroke="#3B3838" stroke-width="2" stroke-linecap="round" stroke-linejoin="round" stroke-miterlimit="10" fill="none" fill-rule="evenodd"/></g><g clip-path="url(#clip170)"><text fill="#595959" font-family="Arial,Arial_MSFontService,sans-serif" font-weight="400" font-size="12" transform="translate(738.655 1185)">coal_ore</text></g><g clip-path="url(#clip171)"><path d="M802 1181 828 1181" stroke="#ED7D31" stroke-width="2" stroke-linecap="round" stroke-linejoin="round" stroke-miterlimit="10" fill="none" fill-rule="evenodd"/></g><g clip-path="url(#clip172)"><text fill="#595959" font-family="Arial,Arial_MSFontService,sans-serif" font-weight="400" font-size="12" transform="translate(830.73 1185)">lava</text></g><g clip-path="url(#clip173)"><path d="M870 1181 896 1181" stroke="#D8B394" stroke-width="2" stroke-linecap="round" stroke-linejoin="round" stroke-miterlimit="10" fill="none" fill-rule="evenodd"/></g><g clip-path="url(#clip174)"><text fill="#595959" font-family="Arial,Arial_MSFontService,sans-serif" font-weight="400" font-size="12" transform="translate(898.793 1185)">iron_ore</text></g><g clip-path="url(#clip175)"><path d="M961 1181 986 1181" stroke="#636363" stroke-width="2" stroke-linecap="round" stroke-linejoin="round" stroke-miterlimit="10" fill="none" fill-rule="evenodd"/></g><g clip-path="url(#clip176)"><text fill="#595959" font-family="Arial,Arial_MSFontService,sans-serif" font-weight="400" font-size="12" transform="translate(988.862 1185)">redstone_ore</text></g><g clip-path="url(#clip177)"><path d="M1077 1181 1103 1181" stroke="#FFC000" stroke-width="2" stroke-linecap="round" stroke-linejoin="round" stroke-miterlimit="10" fill="none" fill-rule="evenodd"/></g><g clip-path="url(#clip178)"><text fill="#595959" font-family="Arial,Arial_MSFontService,sans-serif" font-weight="400" font-size="12" transform="translate(1105.62 1185)">gold_ore</text></g><g clip-path="url(#clip179)"><path d="M1170 1181 1196 1181" stroke="#255E91" stroke-width="2" stroke-linecap="round" stroke-linejoin="round" stroke-miterlimit="10" fill="none" fill-rule="evenodd"/></g><g clip-path="url(#clip180)"><text fill="#595959" font-family="Arial,Arial_MSFontService,sans-serif" font-weight="400" font-size="12" transform="translate(1198.37 1185)">diamond_ore</text></g><g clip-path="url(#clip181)"><path d="M1286 1181 1312 1181" stroke="#548235" stroke-width="2" stroke-linecap="round" stroke-linejoin="round" stroke-miterlimit="10" fill="none" fill-rule="evenodd"/></g><g clip-path="url(#clip182)"><text fill="#595959" font-family="Arial,Arial_MSFontService,sans-serif" font-weight="400" font-size="12" transform="translate(1314.46 1185)">mossy_cobblestone</text></g><g clip-path="url(#clip183)"><path d="M1438 1181 1464 1181" stroke="#7030A0" stroke-width="2" stroke-linecap="round" stroke-linejoin="round" stroke-miterlimit="10" fill="none" fill-rule="evenodd"/></g><g clip-path="url(#clip184)"><text fill="#595959" font-family="Arial,Arial_MSFontService,sans-serif" font-weight="400" font-size="12" transform="translate(1466.56 1185)">obsidian</text></g><g clip-path="url(#clip185)"><path d="M1529 1181 1555 1181" stroke="#A3C2C9" stroke-width="2" stroke-linecap="round" stroke-linejoin="round" stroke-miterlimit="10" fill="none" fill-rule="evenodd"/></g><g clip-path="url(#clip186)"><text fill="#595959" font-family="Arial,Arial_MSFontService,sans-serif" font-weight="400" font-size="12" transform="translate(1557.31 1185)">clay</text></g></g></svg>