<svg width="1920" height="1200" xmlns="http://www.w3.org/2000/svg" xmlns:xlink="http://www.w3.org/1999/xlink" overflow="hidden"><defs><clipPath id="clip0"><rect x="0" y="0" width="1920" height="1200"/></clipPath><clipPath id="clip1"><rect x="-7" y="0" width="1934" height="1200"/></clipPath><clipPath id="clip2"><rect x="-7" y="0" width="1934" height="1200"/></clipPath><clipPath id="clip3"><rect x="-7" y="0" width="1934" height="1200"/></clipPath><clipPath id="clip4"><rect x="-7" y="0" width="1934" height="1200"/></clipPath><clipPath id="clip5"><rect x="-7" y="0" width="1934" height="1200"/></clipPath><clipPath id="clip6"><rect x="-7" y="0" width="1934" height="1200"/></clipPath><clipPath id="clip7"><rect x="115" y="48" width="1798" height="1067"/></clipPath><clipPath id="clip8"><rect x="115" y="48" width="1798" height="1067"/></clipPath><clipPath id="clip9"><rect x="115" y="48" width="1798" height="1067"/></clipPath><clipPath id="clip10"><rect x="115" y="48" width="1798" height="1067"/></clipPath><clipPath id="clip11"><rect x="115" y="48" width="1798" height="1067"/></clipPath><clipPath id="clip12"><rect x="115" y="48" width="1798" height="1067"/></clipPath><clipPath id="clip13"><rect x="115" y="48" width="1798" height="1067"/></clipPath><clipPath id="clip14"><rect x="-7" y="0" width="1934" height="1200"/></clipPath><clipPath id="clip15"><rect x="-7" y="0" width="1934" height="1200"/></clipPath><clipPath id="clip16"><rect x="-7" y="0" width="1934" height="1200"/></clipPath><clipPath id="clip17"><rect x="-7" y="0" width="1934" height="1200"/></clipPath><clipPath id="clip18"><rect x="-7" y="0" width="1934" height="1200"/></clipPath><clipPath id="clip19"><rect x="-7" y="0" width="1934" height="1200"/></clipPath><clipPath id="clip20"><rect x="-7" y="0" width="1934" height="1200"/></clipPath><clipPath id="clip21"><rect x="-7" y="0" width="1934" height="1200"/></clipPath><clipPath id="clip22"><rect x="-7" y="0" width="1934" height="1200"/></clipPath><clipPath id="clip23"><rect x="-7" y="0" width="1934" height="1200"/></clipPath><clipPath id="clip24"><rect x="-7" y="0" width="1934" height="1200"/></clipPath><clipPath id="clip25"><rect x="-7" y="0" width="1934" height="1200"/></clipPath><clipPath id="clip26"><rect x="-7" y="0" width="1934" height="1200"/></clipPath><clipPath id="clip27"><rect x="-7" y="0" width="1934" height="1200"/></clipPath><clipPath id="clip28"><rect x="-7" y="0" width="1934" height="1200"/></clipPath><clipPath id="clip29"><rect x="-7" y="0" width="1934" height="1200"/></clipPath><clipPath id="clip30"><rect x="-7" y="0" width="1934" height="1200"/></clipPath><clipPath id="clip31"><rect x="-7" y="0" width="1934" height="1200"/></clipPath><clipPath id="clip32"><rect x="-7" y="0" width="1934" height="1200"/></clipPath><clipPath id="clip33"><rect x="-7" y="0" width="1934" height="1200"/></clipPath><clipPath id="clip34"><rect x="-7" y="0" width="1934" height="1200"/></clipPath><clipPath id="clip35"><rect x="-7" y="0" width="1934" height="1200"/></clipPath><clipPath id="clip36"><rect x="-7" y="0" width="1934" height="1200"/></clipPath><clipPath id="clip37"><rect x="-7" y="0" width="1934" height="1200"/></clipPath><clipPath id="clip38"><rect x="-7" y="0" width="1934" height="1200"/></clipPath><clipPath id="clip39"><rect x="-7" y="0" width="1934" height="1200"/></clipPath><clipPath id="clip40"><rect x="-7" y="0" width="1934" height="1200"/></clipPath><clipPath id="clip41"><rect x="-7" y="0" width="1934" height="1200"/></clipPath><clipPath id="clip42"><rect x="-7" y="0" width="1934" height="1200"/></clipPath><clipPath id="clip43"><rect x="-7" y="0" width="1934" height="1200"/></clipPath><clipPath id="clip44"><rect x="-7" y="0" width="1934" height="1200"/></clipPath><clipPath id="clip45"><rect x="-7" y="0" width="1934" height="1200"/></clipPath><clipPath id="clip46"><rect x="-7" y="0" width="1934" height="1200"/></clipPath><clipPath id="clip47"><rect x="-7" y="0" width="1934" height="1200"/></clipPath><clipPath id="clip48"><rect x="-7" y="0" width="1934" height="1200"/></clipPath><clipPath id="clip49"><rect x="-7" y="0" width="1934" height="1200"/></clipPath><clipPath id="clip50"><rect x="-7" y="0" width="1934" height="1200"/></clipPath><clipPath id="clip51"><rect x="-7" y="0" width="1934" height="1200"/></clipPath><clipPath id="clip52"><rect x="-7" y="0" width="1934" height="1200"/></clipPath><clipPath id="clip53"><rect x="-7" y="0" width="1934" height="1200"/></clipPath><clipPath id="clip54"><rect x="-7" y="0" width="1934" height="1200"/></clipPath><clipPath id="clip55"><rect x="-7" y="0" width="1934" height="1200"/></clipPath><clipPath id="clip56"><rect x="-7" y="0" width="1934" height="1200"/></clipPath><clipPath id="clip57"><rect x="-7" y="0" width="1934" height="1200"/></clipPath><clipPath id="clip58"><rect x="-7" y="0" width="1934" height="1200"/></clipPath><clipPath id="clip59"><rect x="-7" y="0" width="1934" height="1200"/></clipPath><clipPath id="clip60"><rect x="-7" y="0" width="1934" height="1200"/></clipPath><clipPath id="clip61"><rect x="-7" y="0" width="1934" height="1200"/></clipPath><clipPath id="clip62"><rect x="-7" y="0" width="1934" height="1200"/></clipPath><clipPath id="clip63"><rect x="-7" y="0" width="1934" height="1200"/></clipPath><clipPath id="clip64"><rect x="-7" y="0" width="1934" height="1200"/></clipPath><clipPath id="clip65"><rect x="-7" y="0" width="1934" height="1200"/></clipPath><clipPath id="clip66"><rect x="-7" y="0" width="1934" height="1200"/></clipPath><clipPath id="clip67"><rect x="-7" y="0" width="1934" height="1200"/></clipPath><clipPath id="clip68"><rect x="-7" y="0" width="1934" height="1200"/></clipPath><clipPath id="clip69"><rect x="-7" y="0" width="1934" height="1200"/></clipPath><clipPath id="clip70"><rect x="-7" y="0" width="1934" height="1200"/></clipPath><clipPath id="clip71"><rect x="-7" y="0" width="1934" height="1200"/></clipPath><clipPath id="clip72"><rect x="-7" y="0" width="1934" height="1200"/></clipPath><clipPath id="clip73"><rect x="-7" y="0" width="1934" height="1200"/></clipPath><clipPath id="clip74"><rect x="-7" y="0" width="1934" height="1200"/></clipPath><clipPath id="clip75"><rect x="-7" y="0" width="1934" height="1200"/></clipPath><clipPath id="clip76"><rect x="-7" y="0" width="1934" height="1200"/></clipPath><clipPath id="clip77"><rect x="-7" y="0" width="1934" height="1200"/></clipPath><clipPath id="clip78"><rect x="-7" y="0" width="1934" height="1200"/></clipPath><clipPath id="clip79"><rect x="-7" y="0" width="1934" height="1200"/></clipPath><clipPath id="clip80"><rect x="-7" y="0" width="1934" height="1200"/></clipPath><clipPath id="clip81"><rect x="-7" y="0" width="1934" height="1200"/></clipPath><clipPath id="clip82"><rect x="-7" y="0" width="1934" height="1200"/></clipPath><clipPath id="clip83"><rect x="-7" y="0" width="1934" height="1200"/></clipPath><clipPath id="clip84"><rect x="-7" y="0" width="1934" height="1200"/></clipPath><clipPath id="clip85"><rect x="-7" y="0" width="1934" height="1200"/></clipPath><clipPath id="clip86"><rect x="-7" y="0" width="1934" height="1200"/></clipPath><clipPath id="clip87"><rect x="-7" y="0" width="1934" height="1200"/></clipPath><clipPath id="clip88"><rect x="-7" y="0" width="1934" height="1200"/></clipPath><clipPath id="clip89"><rect x="-7" y="0" width="1934" height="1200"/></clipPath><clipPath id="clip90"><rect x="-7" y="0" width="1934" height="1200"/></clipPath><clipPath id="clip91"><rect x="-7" y="0" width="1934" height="1200"/></clipPath><clipPath id="clip92"><rect x="-7" y="0" width="1934" height="1200"/></clipPath><clipPath id="clip93"><rect x="-7" y="0" width="1934" height="1200"/></clipPath><clipPath id="clip94"><rect x="-7" y="0" width="1934" height="1200"/></clipPath><clipPath id="clip95"><rect x="-7" y="0" width="1934" height="1200"/></clipPath><clipPath id="clip96"><rect x="-7" y="0" width="1934" height="1200"/></clipPath><clipPath id="clip97"><rect x="-7" y="0" width="1934" height="1200"/></clipPath><clipPath id="clip98"><rect x="-7" y="0" width="1934" height="1200"/></clipPath><clipPath id="clip99"><rect x="-7" y="0" width="1934" height="1200"/></clipPath><clipPath id="clip100"><rect x="-7" y="0" width="1934" height="1200"/></clipPath><clipPath id="clip101"><rect x="-7" y="0" width="1934" height="1200"/></clipPath><clipPath id="clip102"><rect x="-7" y="0" width="1934" height="1200"/></clipPath><clipPath id="clip103"><rect x="-7" y="0" width="1934" height="1200"/></clipPath><clipPath id="clip104"><rect x="-7" y="0" width="1934" height="1200"/></clipPath><clipPath id="clip105"><rect x="-7" y="0" width="1934" height="1200"/></clipPath><clipPath id="clip106"><rect x="-7" y="0" width="1934" height="1200"/></clipPath><clipPath id="clip107"><rect x="-7" y="0" width="1934" height="1200"/></clipPath><clipPath id="clip108"><rect x="-7" y="0" width="1934" height="1200"/></clipPath><clipPath id="clip109"><rect x="-7" y="0" width="1934" height="1200"/></clipPath><clipPath id="clip110"><rect x="-7" y="0" width="1934" height="1200"/></clipPath><clipPath id="clip111"><rect x="-7" y="0" width="1934" height="1200"/></clipPath><clipPath id="clip112"><rect x="-7" y="0" width="1934" height="1200"/></clipPath><clipPath id="clip113"><rect x="-7" y="0" width="1934" height="1200"/></clipPath><clipPath id="clip114"><rect x="-7" y="0" width="1934" height="1200"/></clipPath><clipPath id="clip115"><rect x="-7" y="0" width="1934" height="1200"/></clipPath><clipPath id="clip116"><rect x="-7" y="0" width="1934" height="1200"/></clipPath><clipPath id="clip117"><rect x="-7" y="0" width="1934" height="1200"/></clipPath><clipPath id="clip118"><rect x="-7" y="0" width="1934" height="1200"/></clipPath><clipPath id="clip119"><rect x="-7" y="0" width="1934" height="1200"/></clipPath><clipPath id="clip120"><rect x="-7" y="0" width="1934" height="1200"/></clipPath><clipPath id="clip121"><rect x="-7" y="0" width="1934" height="1200"/></clipPath><clipPath id="clip122"><rect x="-7" y="0" width="1934" height="1200"/></clipPath><clipPath id="clip123"><rect x="-7" y="0" width="1934" height="1200"/></clipPath><clipPath id="clip124"><rect x="-7" y="0" width="1934" height="1200"/></clipPath><clipPath id="clip125"><rect x="-7" y="0" width="1934" height="1200"/></clipPath><clipPath id="clip126"><rect x="-7" y="0" width="1934" height="1200"/></clipPath><clipPath id="clip127"><rect x="-7" y="0" width="1934" height="1200"/></clipPath><clipPath id="clip128"><rect x="-7" y="0" width="1934" height="1200"/></clipPath><clipPath id="clip129"><rect x="-7" y="0" width="1934" height="1200"/></clipPath><clipPath id="clip130"><rect x="-7" y="0" width="1934" height="1200"/></clipPath><clipPath id="clip131"><rect x="-7" y="0" width="1934" height="1200"/></clipPath><clipPath id="clip132"><rect x="-7" y="0" width="1934" height="1200"/></clipPath><clipPath id="clip133"><rect x="-7" y="0" width="1934" height="1200"/></clipPath><clipPath id="clip134"><rect x="-7" y="0" width="1934" height="1200"/></clipPath><clipPath id="clip135"><rect x="-7" y="0" width="1934" height="1200"/></clipPath><clipPath id="clip136"><rect x="-7" y="0" width="1934" height="1200"/></clipPath><clipPath id="clip137"><rect x="-7" y="0" width="1934" height="1200"/></clipPath><clipPath id="clip138"><rect x="-7" y="0" width="1934" height="1200"/></clipPath><clipPath id="clip139"><rect x="-7" y="0" width="1934" height="1200"/></clipPath><clipPath id="clip140"><rect x="-7" y="0" width="1934" height="1200"/></clipPath><clipPath id="clip141"><rect x="-7" y="0" width="1934" height="1200"/></clipPath><clipPath id="clip142"><rect x="-7" y="0" width="1934" height="1200"/></clipPath><clipPath id="clip143"><rect x="-7" y="0" width="1934" height="1200"/></clipPath><clipPath id="clip144"><rect x="-7" y="0" width="1934" height="1200"/></clipPath><clipPath id="clip145"><rect x="-7" y="0" width="1934" height="1200"/></clipPath><clipPath id="clip146"><rect x="-7" y="0" width="1934" height="1200"/></clipPath><clipPath id="clip147"><rect x="-7" y="0" width="1934" height="1200"/></clipPath><clipPath id="clip148"><rect x="-7" y="0" width="1934" height="1200"/></clipPath><clipPath id="clip149"><rect x="-7" y="0" width="1934" height="1200"/></clipPath><clipPath id="clip150"><rect x="-7" y="0" width="1934" height="1200"/></clipPath><clipPath id="clip151"><rect x="-7" y="0" width="1934" height="1200"/></clipPath><clipPath id="clip152"><rect x="-7" y="0" width="1934" height="1200"/></clipPath><clipPath id="clip153"><rect x="-7" y="0" width="1934" height="1200"/></clipPath><clipPath id="clip154"><rect x="-7" y="0" width="1934" height="1200"/></clipPath><clipPath id="clip155"><rect x="-7" y="0" width="1934" height="1200"/></clipPath><clipPath id="clip156"><rect x="-7" y="0" width="1934" height="1200"/></clipPath><clipPath id="clip157"><rect x="-7" y="0" width="1934" height="1200"/></clipPath><clipPath id="clip158"><rect x="-7" y="0" width="1934" height="1200"/></clipPath><clipPath id="clip159"><rect x="-7" y="0" width="1934" height="1200"/></clipPath><clipPath id="clip160"><rect x="-7" y="0" width="1934" height="1200"/></clipPath><clipPath id="clip161"><rect x="-7" y="0" width="1934" height="1200"/></clipPath><clipPath id="clip162"><rect x="-7" y="0" width="1934" height="1200"/></clipPath><clipPath id="clip163"><rect x="-7" y="0" width="1934" height="1200"/></clipPath><clipPath id="clip164"><rect x="-7" y="0" width="1934" height="1200"/></clipPath><clipPath id="clip165"><rect x="-7" y="0" width="1934" height="1200"/></clipPath><clipPath id="clip166"><rect x="-7" y="0" width="1934" height="1200"/></clipPath><clipPath id="clip167"><rect x="-7" y="0" width="1934" height="1200"/></clipPath><clipPath id="clip168"><rect x="-7" y="0" width="1934" height="1200"/></clipPath></defs><g clip-path="url(#clip0)"><rect x="0" y="0" width="1920" height="1200" fill="#FFFFFF"/><g clip-path="url(#clip1)"><path d="M115.5 1078.5 1912.5 1078.5M115.5 1057.5 1912.5 1057.5M115.5 1042.5 1912.5 1042.5M115.5 1031.5 1912.5 1031.5M115.5 1021.5 1912.5 1021.5M115.5 1014.5 1912.5 1014.5M115.5 1007.5 1912.5 1007.5M115.5 1001.5 1912.5 1001.5M115.5 959.5 1912.5 959.5M115.5 939.5 1912.5 939.5M115.5 924.5 1912.5 924.5M115.5 912.5 1912.5 912.5M115.5 903.5 1912.5 903.5M115.5 895.5 1912.5 895.5M115.5 888.5 1912.5 888.5M115.5 882.5 1912.5 882.5M115.5 841.5 1912.5 841.5M115.5 820.5 1912.5 820.5M115.5 805.5 1912.5 805.5M115.5 794.5 1912.5 794.5M115.5 785.5 1912.5 785.5M115.5 777.5 1912.5 777.5M115.5 770.5 1912.5 770.5M115.5 764.5 1912.5 764.5M115.5 723.5 1912.5 723.5M115.5 702.5 1912.5 702.5M115.5 687.5 1912.5 687.5M115.5 675.5 1912.5 675.5M115.5 666.5 1912.5 666.5M115.5 658.5 1912.5 658.5M115.5 651.5 1912.5 651.5M115.5 645.5 1912.5 645.5M115.5 604.5 1912.5 604.5M115.5 583.5 1912.5 583.5M115.5 569.5 1912.5 569.5M115.5 557.5 1912.5 557.5M115.5 548.5 1912.5 548.5M115.5 540.5 1912.5 540.5M115.5 533.5 1912.5 533.5M115.5 527.5 1912.5 527.5M115.5 486.5 1912.5 486.5M115.5 465.5 1912.5 465.5M115.5 450.5 1912.5 450.5M115.5 439.5 1912.5 439.5M115.5 429.5 1912.5 429.5M115.5 421.5 1912.5 421.5M115.5 414.5 1912.5 414.5M115.5 408.5 1912.5 408.5M115.5 367.5 1912.5 367.5M115.5 346.5 1912.5 346.5M115.5 332.5 1912.5 332.5M115.5 320.5 1912.5 320.5M115.5 311.5 1912.5 311.5M115.5 303.5 1912.5 303.5M115.5 296.5 1912.5 296.5M115.5 290.5 1912.5 290.5M115.5 249.5 1912.5 249.5M115.5 228.5 1912.5 228.5M115.5 213.5 1912.5 213.5M115.5 202.5 1912.5 202.5M115.5 192.5 1912.5 192.5M115.5 184.5 1912.5 184.5M115.5 178.5 1912.5 178.5M115.5 171.5 1912.5 171.5M115.5 130.5 1912.5 130.5M115.5 110.5 1912.5 110.5M115.5 95.5001 1912.5 95.5001M115.5 83.5001 1912.5 83.5001M115.5 74.5001 1912.5 74.5001M115.5 66.5001 1912.5 66.5001M115.5 59.5001 1912.5 59.5001M115.5 53.5001 1912.5 53.5001" stroke="#F2F2F2" stroke-linejoin="round" stroke-miterlimit="10" fill="none"/></g><g clip-path="url(#clip2)"><path d="M115.5 995.5 1912.5 995.5M115.5 877.5 1912.5 877.5M115.5 758.5 1912.5 758.5M115.5 640.5 1912.5 640.5M115.5 521.5 1912.5 521.5M115.5 403.5 1912.5 403.5M115.5 285.5 1912.5 285.5M115.5 166.5 1912.5 166.5M115.5 48.5001 1912.5 48.5001" stroke="#D9D9D9" stroke-linejoin="round" stroke-miterlimit="10" fill="none"/></g><g clip-path="url(#clip3)"><path d="M119.5 48.5001 119.5 1114.5M123.5 48.5001 123.5 1114.5M126.5 48.5001 126.5 1114.5M130.5 48.5001 130.5 1114.5M133.5 48.5001 133.5 1114.5M137.5 48.5001 137.5 1114.5M141.5 48.5001 141.5 1114.5M144.5 48.5001 144.5 1114.5M148.5 48.5001 148.5 1114.5M151.5 48.5001 151.5 1114.5M155.5 48.5001 155.5 1114.5M159.5 48.5001 159.5 1114.5M162.5 48.5001 162.5 1114.5M166.5 48.5001 166.5 1114.5M169.5 48.5001 169.5 1114.5M173.5 48.5001 173.5 1114.5M177.5 48.5001 177.5 1114.5M180.5 48.5001 180.5 1114.5M184.5 48.5001 184.5 1114.5M187.5 48.5001 187.5 1114.5M191.5 48.5001 191.5 1114.5M195.5 48.5001 195.5 1114.5M198.5 48.5001 198.5 1114.5M202.5 48.5001 202.5 1114.5M205.5 48.5001 205.5 1114.5M209.5 48.5001 209.5 1114.5M213.5 48.5001 213.5 1114.5M216.5 48.5001 216.5 1114.5M220.5 48.5001 220.5 1114.5M223.5 48.5001 223.5 1114.5M227.5 48.5001 227.5 1114.5M230.5 48.5001 230.5 1114.5M234.5 48.5001 234.5 1114.5M238.5 48.5001 238.5 1114.5M241.5 48.5001 241.5 1114.5M245.5 48.5001 245.5 1114.5M248.5 48.5001 248.5 1114.5M252.5 48.5001 252.5 1114.5M256.5 48.5001 256.5 1114.5M259.5 48.5001 259.5 1114.5M263.5 48.5001 263.5 1114.5M266.5 48.5001 266.5 1114.5M270.5 48.5001 270.5 1114.5M274.5 48.5001 274.5 1114.5M277.5 48.5001 277.5 1114.5M281.5 48.5001 281.5 1114.5M284.5 48.5001 284.5 1114.5M288.5 48.5001 288.5 1114.5M292.5 48.5001 292.5 1114.5M295.5 48.5001 295.5 1114.5M299.5 48.5001 299.5 1114.5M302.5 48.5001 302.5 1114.5M306.5 48.5001 306.5 1114.5M310.5 48.5001 310.5 1114.5M313.5 48.5001 313.5 1114.5M317.5 48.5001 317.5 1114.5M320.5 48.5001 320.5 1114.5M324.5 48.5001 324.5 1114.5M327.5 48.5001 327.5 1114.5M331.5 48.5001 331.5 1114.5M335.5 48.5001 335.5 1114.5M338.5 48.5001 338.5 1114.5M342.5 48.5001 342.5 1114.5M345.5 48.5001 345.5 1114.5M349.5 48.5001 349.5 1114.5M353.5 48.5001 353.5 1114.5M356.5 48.5001 356.5 1114.5M360.5 48.5001 360.5 1114.5M363.5 48.5001 363.5 1114.5M367.5 48.5001 367.5 1114.5M371.5 48.5001 371.5 1114.5M374.5 48.5001 374.5 1114.5M378.5 48.5001 378.5 1114.5M381.5 48.5001 381.5 1114.5M385.5 48.5001 385.5 1114.5M389.5 48.5001 389.5 1114.5M392.5 48.5001 392.5 1114.5M396.5 48.5001 396.5 1114.5M399.5 48.5001 399.5 1114.5M403.5 48.5001 403.5 1114.5M407.5 48.5001 407.5 1114.5M410.5 48.5001 410.5 1114.5M414.5 48.5001 414.5 1114.5M417.5 48.5001 417.5 1114.5M421.5 48.5001 421.5 1114.5M424.5 48.5001 424.5 1114.5M428.5 48.5001 428.5 1114.5M432.5 48.5001 432.5 1114.5M435.5 48.5001 435.5 1114.5M439.5 48.5001 439.5 1114.5M442.5 48.5001 442.5 1114.5M446.5 48.5001 446.5 1114.5M450.5 48.5001 450.5 1114.5M453.5 48.5001 453.5 1114.5M457.5 48.5001 457.5 1114.5M460.5 48.5001 460.5 1114.5M464.5 48.5001 464.5 1114.5M468.5 48.5001 468.5 1114.5M471.5 48.5001 471.5 1114.5M475.5 48.5001 475.5 1114.5M478.5 48.5001 478.5 1114.5M482.5 48.5001 482.5 1114.5M486.5 48.5001 486.5 1114.5M489.5 48.5001 489.5 1114.5M493.5 48.5001 493.5 1114.5M496.5 48.5001 496.5 1114.5M500.5 48.5001 500.5 1114.5M504.5 48.5001 504.5 1114.5M507.5 48.5001 507.5 1114.5M511.5 48.5001 511.5 1114.5M514.5 48.5001 514.5 1114.5M518.5 48.5001 518.5 1114.5M521.5 48.5001 521.5 1114.5M525.5 48.5001 525.5 1114.5M529.5 48.5001 529.5 1114.5M532.5 48.5001 532.5 1114.5M536.5 48.5001 536.5 1114.5M539.5 48.5001 539.5 1114.5M543.5 48.5001 543.5 1114.5M547.5 48.5001 547.5 1114.5M550.5 48.5001 550.5 1114.5M554.5 48.5001 554.5 1114.5M557.5 48.5001 557.5 1114.5M561.5 48.5001 561.5 1114.5M565.5 48.5001 565.5 1114.5M568.5 48.5001 568.5 1114.5M572.5 48.5001 572.5 1114.5M575.5 48.5001 575.5 1114.5M579.5 48.5001 579.5 1114.5M583.5 48.5001 583.5 1114.5M586.5 48.5001 586.5 1114.5M590.5 48.5001 590.5 1114.5M593.5 48.5001 593.5 1114.5M597.5 48.5001 597.5 1114.5M601.5 48.5001 601.5 1114.5M604.5 48.5001 604.5 1114.5M608.5 48.5001 608.5 1114.5M611.5 48.5001 611.5 1114.5M615.5 48.5001 615.5 1114.5M618.5 48.5001 618.5 1114.5M622.5 48.5001 622.5 1114.5M626.5 48.5001 626.5 1114.5M629.5 48.5001 629.5 1114.5M633.5 48.5001 633.5 1114.5M636.5 48.5001 636.5 1114.5M640.5 48.5001 640.5 1114.5M644.5 48.5001 644.5 1114.5M647.5 48.5001 647.5 1114.5M651.5 48.5001 651.5 1114.5M654.5 48.5001 654.5 1114.5M658.5 48.5001 658.5 1114.5M662.5 48.5001 662.5 1114.5M665.5 48.5001 665.5 1114.5M669.5 48.5001 669.5 1114.5M672.5 48.5001 672.5 1114.5M676.5 48.5001 676.5 1114.5M680.5 48.5001 680.5 1114.5M683.5 48.5001 683.5 1114.5M687.5 48.5001 687.5 1114.5M690.5 48.5001 690.5 1114.5M694.5 48.5001 694.5 1114.5M698.5 48.5001 698.5 1114.5M701.5 48.5001 701.5 1114.5M705.5 48.5001 705.5 1114.5M708.5 48.5001 708.5 1114.5M712.5 48.5001 712.5 1114.5M715.5 48.5001 715.5 1114.5M719.5 48.5001 719.5 1114.5M723.5 48.5001 723.5 1114.5M726.5 48.5001 726.5 1114.5M730.5 48.5001 730.5 1114.5M733.5 48.5001 733.5 1114.5M737.5 48.5001 737.5 1114.5M741.5 48.5001 741.5 1114.5M744.5 48.5001 744.5 1114.5M748.5 48.5001 748.5 1114.5M751.5 48.5001 751.5 1114.5M755.5 48.5001 755.5 1114.5M759.5 48.5001 759.5 1114.5M762.5 48.5001 762.5 1114.5M766.5 48.5001 766.5 1114.5M769.5 48.5001 769.5 1114.5M773.5 48.5001 773.5 1114.5M777.5 48.5001 777.5 1114.5M780.5 48.5001 780.5 1114.5M784.5 48.5001 784.5 1114.5M787.5 48.5001 787.5 1114.5M791.5 48.5001 791.5 1114.5M795.5 48.5001 795.5 1114.5M798.5 48.5001 798.5 1114.5M802.5 48.5001 802.5 1114.5M805.5 48.5001 805.5 1114.5M809.5 48.5001 809.5 1114.5M812.5 48.5001 812.5 1114.5M816.5 48.5001 816.5 1114.5M820.5 48.5001 820.5 1114.5M823.5 48.5001 823.5 1114.5M827.5 48.5001 827.5 1114.5M830.5 48.5001 830.5 1114.5M838.5 48.5001 838.5 1114.5M841.5 48.5001 841.5 1114.5M845.5 48.5001 845.5 1114.5M848.5 48.5001 848.5 1114.5M852.5 48.5001 852.5 1114.5M856.5 48.5001 856.5 1114.5M859.5 48.5001 859.5 1114.5M863.5 48.5001 863.5 1114.5M866.5 48.5001 866.5 1114.5M870.5 48.5001 870.5 1114.5M874.5 48.5001 874.5 1114.5M877.5 48.5001 877.5 1114.5M881.5 48.5001 881.5 1114.5M884.5 48.5001 884.5 1114.5M888.5 48.5001 888.5 1114.5M892.5 48.5001 892.5 1114.5M895.5 48.5001 895.5 1114.5M899.5 48.5001 899.5 1114.5M902.5 48.5001 902.5 1114.5M906.5 48.5001 906.5 1114.5M910.5 48.5001 910.5 1114.5M913.5 48.5001 913.5 1114.5M917.5 48.5001 917.5 1114.5M920.5 48.5001 920.5 1114.5M924.5 48.5001 924.5 1114.5M927.5 48.5001 927.5 1114.5M931.5 48.5001 931.5 1114.5M935.5 48.5001 935.5 1114.5M938.5 48.5001 938.5 1114.5M942.5 48.5001 942.5 1114.5M945.5 48.5001 945.5 1114.5M949.5 48.5001 949.5 1114.5M953.5 48.5001 953.5 1114.5M956.5 48.5001 956.5 1114.5M960.5 48.5001 960.5 1114.5M963.5 48.5001 963.5 1114.5M967.5 48.5001 967.5 1114.5M971.5 48.5001 971.5 1114.5M974.5 48.5001 974.5 1114.5M978.5 48.5001 978.5 1114.5M981.5 48.5001 981.5 1114.5M985.5 48.5001 985.5 1114.5M989.5 48.5001 989.5 1114.5M992.5 48.5001 992.5 1114.5M996.5 48.5001 996.5 1114.5M999.5 48.5001 999.5 1114.5M1003.5 48.5001 1003.5 1114.5M1007.5 48.5001 1007.5 1114.5M1010.5 48.5001 1010.5 1114.5M1014.5 48.5001 1014.5 1114.5M1017.5 48.5001 1017.5 1114.5M1021.5 48.5001 1021.5 1114.5M1024.5 48.5001 1024.5 1114.5M1028.5 48.5001 1028.5 1114.5M1032.5 48.5001 1032.5 1114.5M1035.5 48.5001 1035.5 1114.5M1039.5 48.5001 1039.5 1114.5M1042.5 48.5001 1042.5 1114.5M1046.5 48.5001 1046.5 1114.5M1050.5 48.5001 1050.5 1114.5M1053.5 48.5001 1053.5 1114.5M1057.5 48.5001 1057.5 1114.5M1060.5 48.5001 1060.5 1114.5M1064.5 48.5001 1064.5 1114.5M1068.5 48.5001 1068.5 1114.5M1071.5 48.5001 1071.5 1114.5M1075.5 48.5001 1075.5 1114.5M1078.5 48.5001 1078.5 1114.5M1082.5 48.5001 1082.5 1114.5M1086.5 48.5001 1086.5 1114.5M1089.5 48.5001 1089.5 1114.5M1093.5 48.5001 1093.5 1114.5M1096.5 48.5001 1096.5 1114.5M1100.5 48.5001 1100.5 1114.5M1104.5 48.5001 1104.5 1114.5M1107.5 48.5001 1107.5 1114.5M1111.5 48.5001 1111.5 1114.5M1114.5 48.5001 1114.5 1114.5M1118.5 48.5001 1118.5 1114.5M1121.5 48.5001 1121.5 1114.5M1125.5 48.5001 1125.5 1114.5M1129.5 48.5001 1129.5 1114.5M1132.5 48.5001 1132.5 1114.5M1136.5 48.5001 1136.5 1114.5M1139.5 48.5001 1139.5 1114.5M1143.5 48.5001 1143.5 1114.5M1147.5 48.5001 1147.5 1114.5M1150.5 48.5001 1150.5 1114.5M1154.5 48.5001 1154.5 1114.5M1157.5 48.5001 1157.5 1114.5M1161.5 48.5001 1161.5 1114.5M1165.5 48.5001 1165.5 1114.5M1168.5 48.5001 1168.5 1114.5M1172.5 48.5001 1172.5 1114.5M1175.5 48.5001 1175.5 1114.5M1179.5 48.5001 1179.5 1114.5M1183.5 48.5001 1183.5 1114.5M1186.5 48.5001 1186.5 1114.5M1190.5 48.5001 1190.5 1114.5M1193.5 48.5001 1193.5 1114.5M1197.5 48.5001 1197.5 1114.5M1201.5 48.5001 1201.5 1114.5M1204.5 48.5001 1204.5 1114.5M1208.5 48.5001 1208.5 1114.5M1211.5 48.5001 1211.5 1114.5M1215.5 48.5001 1215.5 1114.5M1218.5 48.5001 1218.5 1114.5M1222.5 48.5001 1222.5 1114.5M1226.5 48.5001 1226.5 1114.5M1229.5 48.5001 1229.5 1114.5M1233.5 48.5001 1233.5 1114.5M1236.5 48.5001 1236.5 1114.5M1240.5 48.5001 1240.5 1114.5M1244.5 48.5001 1244.5 1114.5M1247.5 48.5001 1247.5 1114.5M1251.5 48.5001 1251.5 1114.5M1254.5 48.5001 1254.5 1114.5M1258.5 48.5001 1258.5 1114.5M1262.5 48.5001 1262.5 1114.5M1265.5 48.5001 1265.5 1114.5M1269.5 48.5001 1269.5 1114.5M1272.5 48.5001 1272.5 1114.5M1276.5 48.5001 1276.5 1114.5M1280.5 48.5001 1280.5 1114.5M1283.5 48.5001 1283.5 1114.5M1287.5 48.5001 1287.5 1114.5M1290.5 48.5001 1290.5 1114.5M1294.5 48.5001 1294.5 1114.5M1298.5 48.5001 1298.5 1114.5M1301.5 48.5001 1301.5 1114.5M1305.5 48.5001 1305.5 1114.5M1308.5 48.5001 1308.5 1114.5M1312.5 48.5001 1312.5 1114.5M1315.5 48.5001 1315.5 1114.5M1319.5 48.5001 1319.5 1114.5M1323.5 48.5001 1323.5 1114.5M1326.5 48.5001 1326.5 1114.5M1330.5 48.5001 1330.5 1114.5M1333.5 48.5001 1333.5 1114.5M1337.5 48.5001 1337.5 1114.5M1341.5 48.5001 1341.5 1114.5M1344.5 48.5001 1344.5 1114.5M1348.5 48.5001 1348.5 1114.5M1351.5 48.5001 1351.5 1114.5M1355.5 48.5001 1355.5 1114.5M1359.5 48.5001 1359.5 1114.5M1362.5 48.5001 1362.5 1114.5M1366.5 48.5001 1366.5 1114.5M1369.5 48.5001 1369.5 1114.5M1373.5 48.5001 1373.5 1114.5M1377.5 48.5001 1377.5 1114.5M1380.5 48.5001 1380.5 1114.5M1384.5 48.5001 1384.5 1114.5M1387.5 48.5001 1387.5 1114.5M1391.5 48.5001 1391.5 1114.5M1395.5 48.5001 1395.5 1114.5M1398.5 48.5001 1398.5 1114.5M1402.5 48.5001 1402.5 1114.5M1405.5 48.5001 1405.5 1114.5M1409.5 48.5001 1409.5 1114.5M1412.5 48.5001 1412.5 1114.5M1416.5 48.5001 1416.5 1114.5M1420.5 48.5001 1420.5 1114.5M1423.5 48.5001 1423.5 1114.5M1427.5 48.5001 1427.5 1114.5M1430.5 48.5001 1430.5 1114.5M1434.5 48.5001 1434.5 1114.5M1438.5 48.5001 1438.5 1114.5M1441.5 48.5001 1441.5 1114.5M1445.5 48.5001 1445.5 1114.5M1448.5 48.5001 1448.5 1114.5M1452.5 48.5001 1452.5 1114.5M1456.5 48.5001 1456.5 1114.5M1459.5 48.5001 1459.5 1114.5M1463.5 48.5001 1463.5 1114.5M1466.5 48.5001 1466.5 1114.5M1470.5 48.5001 1470.5 1114.5M1474.5 48.5001 1474.5 1114.5M1477.5 48.5001 1477.5 1114.5M1481.5 48.5001 1481.5 1114.5M1484.5 48.5001 1484.5 1114.5M1488.5 48.5001 1488.5 1114.5M1492.5 48.5001 1492.5 1114.5M1495.5 48.5001 1495.5 1114.5M1499.5 48.5001 1499.5 1114.5M1502.5 48.5001 1502.5 1114.5M1506.5 48.5001 1506.5 1114.5M1509.5 48.5001 1509.5 1114.5M1513.5 48.5001 1513.5 1114.5M1517.5 48.5001 1517.5 1114.5M1520.5 48.5001 1520.5 1114.5M1524.5 48.5001 1524.5 1114.5M1527.5 48.5001 1527.5 1114.5M1531.5 48.5001 1531.5 1114.5M1535.5 48.5001 1535.5 1114.5M1538.5 48.5001 1538.5 1114.5M1542.5 48.5001 1542.5 1114.5M1545.5 48.5001 1545.5 1114.5M1549.5 48.5001 1549.5 1114.5M1556.5 48.5001 1556.5 1114.5M1560.5 48.5001 1560.5 1114.5M1563.5 48.5001 1563.5 1114.5M1567.5 48.5001 1567.5 1114.5M1571.5 48.5001 1571.5 1114.5M1574.5 48.5001 1574.5 1114.5M1578.5 48.5001 1578.5 1114.5M1581.5 48.5001 1581.5 1114.5M1585.5 48.5001 1585.5 1114.5M1589.5 48.5001 1589.5 1114.5M1592.5 48.5001 1592.5 1114.5M1596.5 48.5001 1596.5 1114.5M1599.5 48.5001 1599.5 1114.5M1603.5 48.5001 1603.5 1114.5M1607.5 48.5001 1607.5 1114.5M1610.5 48.5001 1610.5 1114.5M1614.5 48.5001 1614.5 1114.5M1617.5 48.5001 1617.5 1114.5M1621.5 48.5001 1621.5 1114.5M1624.5 48.5001 1624.5 1114.5M1628.5 48.5001 1628.5 1114.5M1632.5 48.5001 1632.5 1114.5M1635.5 48.5001 1635.5 1114.5M1639.5 48.5001 1639.5 1114.5M1642.5 48.5001 1642.5 1114.5M1646.5 48.5001 1646.5 1114.5M1650.5 48.5001 1650.5 1114.5M1653.5 48.5001 1653.5 1114.5M1657.5 48.5001 1657.5 1114.5M1660.5 48.5001 1660.5 1114.5M1664.5 48.5001 1664.5 1114.5M1668.5 48.5001 1668.5 1114.5M1671.5 48.5001 1671.5 1114.5M1675.5 48.5001 1675.5 1114.5M1678.5 48.5001 1678.5 1114.5M1682.5 48.5001 1682.5 1114.5M1686.5 48.5001 1686.5 1114.5M1689.5 48.5001 1689.5 1114.5M1693.5 48.5001 1693.5 1114.5M1696.5 48.5001 1696.5 1114.5M1700.5 48.5001 1700.5 1114.5M1704.5 48.5001 1704.5 1114.5M1707.5 48.5001 1707.5 1114.5M1711.5 48.5001 1711.5 1114.5M1714.5 48.5001 1714.5 1114.5M1718.5 48.5001 1718.5 1114.5M1721.5 48.5001 1721.5 1114.5M1725.5 48.5001 1725.5 1114.5M1729.5 48.5001 1729.5 1114.5M1732.5 48.5001 1732.5 1114.5M1736.5 48.5001 1736.5 1114.5M1739.5 48.5001 1739.5 1114.5M1743.5 48.5001 1743.5 1114.5M1747.5 48.5001 1747.5 1114.5M1750.5 48.5001 1750.5 1114.5M1754.5 48.5001 1754.5 1114.5M1757.5 48.5001 1757.5 1114.5M1761.5 48.5001 1761.5 1114.5M1765.5 48.5001 1765.5 1114.5M1768.5 48.5001 1768.5 1114.5M1772.5 48.5001 1772.5 1114.5M1775.5 48.5001 1775.5 1114.5M1779.5 48.5001 1779.5 1114.5M1783.5 48.5001 1783.5 1114.5M1786.5 48.5001 1786.5 1114.5M1790.5 48.5001 1790.5 1114.5M1793.5 48.5001 1793.5 1114.5M1797.5 48.5001 1797.5 1114.5M1801.5 48.5001 1801.5 1114.5M1804.5 48.5001 1804.5 1114.5M1808.5 48.5001 1808.5 1114.5M1811.5 48.5001 1811.5 1114.5M1815.5 48.5001 1815.5 1114.5M1818.5 48.5001 1818.5 1114.5M1822.5 48.5001 1822.5 1114.5M1826.5 48.5001 1826.5 1114.5M1829.5 48.5001 1829.5 1114.5M1833.5 48.5001 1833.5 1114.5M1836.5 48.5001 1836.5 1114.5M1840.5 48.5001 1840.5 1114.5M1844.5 48.5001 1844.5 1114.5M1847.5 48.5001 1847.5 1114.5M1851.5 48.5001 1851.5 1114.5M1854.5 48.5001 1854.5 1114.5M1858.5 48.5001 1858.5 1114.5M1862.5 48.5001 1862.5 1114.5M1865.5 48.5001 1865.5 1114.5M1869.5 48.5001 1869.5 1114.5M1872.5 48.5001 1872.5 1114.5M1876.5 48.5001 1876.5 1114.5M1880.5 48.5001 1880.5 1114.5M1883.5 48.5001 1883.5 1114.5M1887.5 48.5001 1887.5 1114.5M1890.5 48.5001 1890.5 1114.5M1894.5 48.5001 1894.5 1114.5M1898.5 48.5001 1898.5 1114.5M1901.5 48.5001 1901.5 1114.5M1905.5 48.5001 1905.5 1114.5M1908.5 48.5001 1908.5 1114.5M1912.5 48.5001 1912.5 1114.5" stroke="#F2F2F2" stroke-linejoin="round" stroke-miterlimit="10" fill="none"/></g><g clip-path="url(#clip4)"><path d="M130.5 48.5001 130.5 1114.5M144.5 48.5001 144.5 1114.5M158.5 48.5001 158.5 1114.5M172.5 48.5001 172.5 1114.5M186.5 48.5001 186.5 1114.5M200.5 48.5001 200.5 1114.5M214.5 48.5001 214.5 1114.5M228.5 48.5001 228.5 1114.5M242.5 48.5001 242.5 1114.5M256.5 48.5001 256.5 1114.5M270.5 48.5001 270.5 1114.5M285.5 48.5001 285.5 1114.5M299.5 48.5001 299.5 1114.5M313.5 48.5001 313.5 1114.5M327.5 48.5001 327.5 1114.5M341.5 48.5001 341.5 1114.5M355.5 48.5001 355.5 1114.5M369.5 48.5001 369.5 1114.5M383.5 48.5001 383.5 1114.5M397.5 48.5001 397.5 1114.5M411.5 48.5001 411.5 1114.5M425.5 48.5001 425.5 1114.5M440.5 48.5001 440.5 1114.5M454.5 48.5001 454.5 1114.5M468.5 48.5001 468.5 1114.5M482.5 48.5001 482.5 1114.5M496.5 48.5001 496.5 1114.5M510.5 48.5001 510.5 1114.5M524.5 48.5001 524.5 1114.5M538.5 48.5001 538.5 1114.5M552.5 48.5001 552.5 1114.5M566.5 48.5001 566.5 1114.5M580.5 48.5001 580.5 1114.5M595.5 48.5001 595.5 1114.5M609.5 48.5001 609.5 1114.5M623.5 48.5001 623.5 1114.5M637.5 48.5001 637.5 1114.5M651.5 48.5001 651.5 1114.5M665.5 48.5001 665.5 1114.5M679.5 48.5001 679.5 1114.5M693.5 48.5001 693.5 1114.5M707.5 48.5001 707.5 1114.5M721.5 48.5001 721.5 1114.5M735.5 48.5001 735.5 1114.5M750.5 48.5001 750.5 1114.5M764.5 48.5001 764.5 1114.5M778.5 48.5001 778.5 1114.5M792.5 48.5001 792.5 1114.5M806.5 48.5001 806.5 1114.5M820.5 48.5001 820.5 1114.5M834.5 48.5001 834.5 1114.5M848.5 48.5001 848.5 1114.5M862.5 48.5001 862.5 1114.5M876.5 48.5001 876.5 1114.5M890.5 48.5001 890.5 1114.5M905.5 48.5001 905.5 1114.5M919.5 48.5001 919.5 1114.5M933.5 48.5001 933.5 1114.5M947.5 48.5001 947.5 1114.5M961.5 48.5001 961.5 1114.5M975.5 48.5001 975.5 1114.5M989.5 48.5001 989.5 1114.5M1003.5 48.5001 1003.5 1114.5M1017.5 48.5001 1017.5 1114.5M1031.5 48.5001 1031.5 1114.5M1045.5 48.5001 1045.5 1114.5M1059.5 48.5001 1059.5 1114.5M1074.5 48.5001 1074.5 1114.5M1088.5 48.5001 1088.5 1114.5M1102.5 48.5001 1102.5 1114.5M1116.5 48.5001 1116.5 1114.5M1130.5 48.5001 1130.5 1114.5M1144.5 48.5001 1144.5 1114.5M1158.5 48.5001 1158.5 1114.5M1172.5 48.5001 1172.5 1114.5M1186.5 48.5001 1186.5 1114.5M1200.5 48.5001 1200.5 1114.5M1214.5 48.5001 1214.5 1114.5M1229.5 48.5001 1229.5 1114.5M1243.5 48.5001 1243.5 1114.5M1257.5 48.5001 1257.5 1114.5M1271.5 48.5001 1271.5 1114.5M1285.5 48.5001 1285.5 1114.5M1299.5 48.5001 1299.5 1114.5M1313.5 48.5001 1313.5 1114.5M1327.5 48.5001 1327.5 1114.5M1341.5 48.5001 1341.5 1114.5M1355.5 48.5001 1355.5 1114.5M1369.5 48.5001 1369.5 1114.5M1384.5 48.5001 1384.5 1114.5M1398.5 48.5001 1398.5 1114.5M1412.5 48.5001 1412.5 1114.5M1426.5 48.5001 1426.5 1114.5M1440.5 48.5001 1440.5 1114.5M1454.5 48.5001 1454.5 1114.5M1468.5 48.5001 1468.5 1114.5M1482.5 48.5001 1482.5 1114.5M1496.5 48.5001 1496.5 1114.5M1510.5 48.5001 1510.5 1114.5M1524.5 48.5001 1524.5 1114.5M1539.5 48.5001 1539.5 1114.5M1553.5 48.5001 1553.5 1114.5M1567.5 48.5001 1567.5 1114.5M1581.5 48.5001 1581.5 1114.5M1595.5 48.5001 1595.5 1114.5M1609.5 48.5001 1609.5 1114.5M1623.5 48.5001 1623.5 1114.5M1637.5 48.5001 1637.5 1114.5M1651.5 48.5001 1651.5 1114.5M1665.5 48.5001 1665.5 1114.5M1679.5 48.5001 1679.5 1114.5M1694.5 48.5001 1694.5 1114.5M1708.5 48.5001 1708.5 1114.5M1722.5 48.5001 1722.5 1114.5M1736.5 48.5001 1736.5 1114.5M1750.5 48.5001 1750.5 1114.5M1764.5 48.5001 1764.5 1114.5M1778.5 48.5001 1778.5 1114.5M1792.5 48.5001 1792.5 1114.5M1806.5 48.5001 1806.5 1114.5M1820.5 48.5001 1820.5 1114.5M1834.5 48.5001 1834.5 1114.5M1848.5 48.5001 1848.5 1114.5M1863.5 48.5001 1863.5 1114.5M1877.5 48.5001 1877.5 1114.5M1891.5 48.5001 1891.5 1114.5M1905.5 48.5001 1905.5 1114.5" stroke="#D9D9D9" stroke-linejoin="round" stroke-miterlimit="10" fill="none"/></g><g clip-path="url(#clip5)"><path d="M0 0 0.000104987 1066" stroke="#BFBFBF" stroke-linejoin="round" stroke-miterlimit="10" fill="none" fill-rule="evenodd" transform="matrix(1 0 0 -1 115.5 1114.5)"/></g><g clip-path="url(#clip6)"><path d="M115.5 1114.5 1912.5 1114.5" stroke="#BFBFBF" stroke-linejoin="round" stroke-miterlimit="10" fill="none" fill-rule="evenodd"/></g><g clip-path="url(#clip7)"><path d="M116 1588 123 1588 130 1588 137 1588 144 1588 151 1588 158 1588 165 1588 172 1588 179 774 186 446 193 331 201 272 208 238 215 216 222 201 229 223 236 209 243 198 250 191 257 184 264 179 271 175 278 172 285 169 292 166 299 164 306 162 313 160 320 159 327 157 334 156 341 187 348 187 356 187 363 187 370 187 377 187 384 187 391 187 398 187 405 187 412 187 419 187 426 187 433 187 440 187 447 187 454 145 461 145 468 145 475 145 482 145 489 144 496 144 503 144 510 144 518 155 525 168 532 183 539 202 546 226 553 256 560 294 567 320 574 364 581 391 588 401 595 407 602 419 609 448 616 1588 623 1588 630 1588 637 1588 644 1588 651 1588 658 1588 665 1588 673 1588 680 1588 687 1588 694 1588 701 1588 708 1588 715 1588 722 1588 729 1588 736 1588 743 1588 750 1588 757 1588 764 1588 771 1588 778 1588 785 1588 792 1588 799 1588 806 1588 813 1588 820 1588 828 1588 835 1588 842 1588 849 1588 856 1588 863 1588 870 1588 877 1588 884 1588 891 1588 898 1588 905 1588 912 1588 919 1588 926 1588 933 1588 940 1588 947 1588 954 1588 961 1588 968 1588 975 1588 982 1588 990 1588 997 1588 1004 1588 1011 1588 1018 1588 1025 1588 1032 1588 1039 1588 1046 1588 1053 1588 1060 1588 1067 1588 1074 1588 1081 1588 1088 1588 1095 1588 1102 1588 1109 1588 1116 1588 1123 1588 1130 1588 1137 1588 1145 1588 1152 1588 1159 1588 1166 1588 1173 1588 1180 1588 1187 1588 1194 1588 1201 1588 1208 1588 1215 1588 1222 1588 1229 1588 1236 1588 1243 1588 1250 1588 1257 1588 1264 1588 1271 1588 1278 1588 1285 1588 1292 1588 1300 1588 1307 1588 1314 1588 1321 1588 1328 1588 1335 1588 1342 1588 1349 1588 1356 1588 1363 1588 1370 1588 1377 1588 1384 1588 1391 1588 1398 1588 1405 1588 1412 1588 1419 1588 1426 1588 1433 1588 1440 1588 1447 1588 1454 1588 1462 1588" stroke="#BDBB6D" stroke-width="2" stroke-linecap="round" stroke-linejoin="round" stroke-miterlimit="10" fill="none"/></g><g clip-path="url(#clip8)"><path d="M116 1588 123 1588 130 1588 137 1588 144 1588 151 1588 158 1588 165 1588 172 1588 179 1588 186 1588 193 1588 201 1588 208 1588 215 1588 222 1588 229 1588 236 1058 243 1078 250 1078 257 1058 264 893 271 855 278 830 285 815 292 804 299 800 306 799 313 798 320 794 327 796 334 793 341 791 348 779 356 774 363 767 370 759 377 740 384 720 391 701 398 686 405 680 412 673 419 669 426 667 433 664 440 662 447 660 454 658 461 657 468 655 475 655 482 656 489 657 496 658 503 659 510 659 518 584 525 538 532 501 539 472 546 450 553 433 560 422 567 413 574 408 581 405 588 404 595 404 602 406 609 410 616 415 623 422 630 431 637 443 644 457 651 475 658 496 665 521 673 550 680 584 687 623 694 669 701 722 708 783 715 857 722 955 729 1031 736 1588 743 1588 750 1588 757 1588 764 1588 771 1588 778 1588 785 1588 792 1588 799 1588 806 1588 813 1588 820 1588 828 1588 835 1588 842 1588 849 1588 856 1588 863 1588 870 1588 877 1588 884 1588 891 1588 898 1588 905 1588 912 1588 919 1588 926 1588 933 1588 940 1588 947 1588 954 1588 961 1588 968 1588 975 1588 982 1588 990 1588 997 1588 1004 1588 1011 1588 1018 1588 1025 1588 1032 1588 1039 1588 1046 1588 1053 1588 1060 1588 1067 1588 1074 1588 1081 1588 1088 1588 1095 1588 1102 1588 1109 1588 1116 1588 1123 1588 1130 1588 1137 1588 1145 1588 1152 1588 1159 1588 1166 1588 1173 1588 1180 1588 1187 1588 1194 1588 1201 1588 1208 1588 1215 1588 1222 1588 1229 1588 1236 1588 1243 1588 1250 1588 1257 1588 1264 1588 1271 1588 1278 1588 1285 1588 1292 1588 1300 1588 1307 1588 1314 1588 1321 1588 1328 1588 1335 1588 1342 1588 1349 1588 1356 1588 1363 1588 1370 1588 1377 1588 1384 1588 1391 1588 1398 1588 1405 1588 1412 1588 1419 1588 1426 1588 1433 1588 1440 1588 1447 1588 1454 1588 1462 1588" stroke="#8638B6" stroke-width="2" stroke-linecap="round" stroke-linejoin="round" stroke-miterlimit="10" fill="none"/></g><g clip-path="url(#clip9)"><path d="M116 1588 123 1588 130 1588 137 1588 144 1588 151 1588 158 1588 165 1588 172 1588 179 1588 186 1588 193 1588 201 1588 208 1588 215 1588 222 1588 229 1588 236 1588 243 1588 250 1588 257 1588 264 1588 271 1588 278 1588 285 1588 292 1588 299 1588 306 1588 313 1588 320 1588 327 1588 334 1588 341 1588 348 1588 356 1588 363 1588 370 1588 377 1588 384 1588 391 1588 398 1588 405 1588 412 1588 419 1588 426 1588 433 1588 440 1588 447 1588 454 1588 461 1588 468 1588 475 1588 482 1588 489 1588 496 1588 503 1588 510 1588 518 1588 525 1588 532 1588 539 642 546 652 553 687 560 708 567 621 574 635 581 671 588 694 595 601 602 615 609 653 616 678 623 585 630 600 637 637 644 661 651 651 658 671 665 699 673 698 680 644 687 643 694 669 701 677 708 616 715 620 722 648 729 663 736 618 743 618 750 648 757 666 764 616 771 618 778 660 785 671 792 613 799 614 806 657 813 661 820 611 828 622 835 656 842 647 849 606 856 610 863 641 870 652 877 603 884 613 891 638 898 643 905 605 912 609 919 638 926 649 933 599 940 607 947 636 954 650 961 613 968 616 975 648 982 657 990 615 997 622 1004 652 1011 663 1018 623 1025 617 1032 664 1039 664 1046 626 1053 618 1060 666 1067 669 1074 626 1081 627 1088 669 1095 674 1102 633 1109 637 1116 671 1123 695 1130 646 1137 651 1145 703 1152 709 1159 671 1166 652 1173 719 1180 727 1187 674 1194 668 1201 720 1208 731 1215 683 1222 682 1229 728 1236 757 1243 692 1250 683 1257 721 1264 783 1271 691 1278 708 1285 753 1292 804 1300 712 1307 742 1314 788 1321 812 1328 752 1335 758 1342 806 1349 926 1356 792 1363 813 1370 1014 1377 1058 1384 898 1391 1588 1398 1588 1405 1588 1412 858 1419 1588 1426 1078 1433 1078 1440 1588 1447 1588 1454 1588 1462 1588" stroke="#CB85E1" stroke-width="2" stroke-linecap="round" stroke-linejoin="round" stroke-miterlimit="10" fill="none"/></g><g clip-path="url(#clip10)"><path d="M116 802 123 802 130 802 137 802 144 802 151 802 158 802 165 802 172 802 179 802 186 802 193 802 201 802 208 802 215 802 222 802 229 802 236 802 243 802 250 802 257 802 264 802 271 802 278 802 285 802 292 802 299 802 306 802 313 802 320 802 327 802 334 802 341 802 348 802 356 802 363 802 370 802 377 802 384 802 391 802 398 802 405 802 412 802 419 802 426 802 433 802 440 802 447 802 454 802 461 802 468 802 475 802 482 802 489 802 496 802 503 802 510 802 518 802 525 802 532 802 539 802 546 802 553 802 560 802 567 802 574 802 581 802 588 802 595 802 602 802 609 802 616 802 623 802 630 802 637 802 644 802 651 804 658 801 665 801 673 804 680 807 687 787 694 797 701 810 708 803 715 793 722 798 729 811 736 813 743 821 750 813 757 823 764 819 771 804 778 829 785 841 792 841 799 849 806 836 813 849 820 883 828 837 835 851 842 1588 849 947 856 864 863 890 870 947 877 890 884 890 891 890 898 890 905 947 912 851 919 947 926 890 933 911 940 875 947 890 954 875 961 911 968 875 975 875 982 911 990 875 997 864 1004 875 1011 911 1018 947 1025 890 1032 854 1039 911 1046 911 1053 930 1060 864 1067 947 1074 1588 1081 833 1088 911 1095 897 1102 947 1109 911 1116 890 1123 1588 1130 947 1137 947 1145 1588 1152 947 1159 947 1166 911 1173 947 1180 1588 1187 1588 1194 1588 1201 911 1208 1588 1215 1588 1222 890 1229 1588 1236 1588 1243 1588 1250 1588 1257 1588 1264 947 1271 1588 1278 911 1285 911 1292 1588 1300 1588 1307 1588 1314 1588 1321 1588 1328 1588 1335 1588 1342 1588 1349 1588 1356 1588 1363 1588 1370 1588 1377 1588 1384 1588 1391 1588 1398 1588 1405 1588 1412 1588 1419 1588 1426 1588 1433 1588 1440 1588 1447 1588 1454 1588 1462 1588" stroke="#3B3838" stroke-width="2" stroke-linecap="round" stroke-linejoin="round" stroke-miterlimit="10" fill="none"/></g><g clip-path="url(#clip11)"><path d="M116 1588 123 1588 130 1588 137 1588 144 1588 151 1588 158 1588 165 1588 172 1588 179 1588 186 1588 193 1588 201 1588 208 1588 215 1588 222 1588 229 1588 236 1588 243 1588 250 1588 257 1588 264 1588 271 1588 278 1588 285 1588 292 1588 299 1588 306 1588 313 1588 320 1588 327 1588 334 1588 341 1588 348 1588 356 1588 363 1588 370 1588 377 1588 384 1588 391 1588 398 1588 405 1114 412 1031 419 1114 426 991 433 1014 440 996 447 1022 454 1014 461 1022 468 1588 475 1022 482 1022 489 1588 496 1031 503 1114 510 1588 518 1588 525 1078 532 924 539 891 546 877 553 848 560 825 567 816 574 808 581 798 588 790 595 806 602 793 609 814 616 827 623 850 630 864 637 909 644 949 651 978 658 1014 665 1114 673 1114 680 1588 687 1588 694 1114 701 1588 708 1588 715 1114 722 1588 729 1588 736 1114 743 1588 750 1588 757 1114 764 1588 771 1588 778 1114 785 1588 792 1588 799 1114 806 1588 813 1588 820 1114 828 1588 835 1588 842 1114 849 1588 856 1588 863 1588 870 1588 877 1588 884 1588 891 1588 898 1588 905 1588 912 1588 919 1588 926 1588 933 1588 940 1588 947 1588 954 1588 961 1588 968 1588 975 1588 982 1588 990 1588 997 1588 1004 1588 1011 1588 1018 1588 1025 1588 1032 1588 1039 1588 1046 1588 1053 1588 1060 1588 1067 1588 1074 1588 1081 1588 1088 1588 1095 1588 1102 1588 1109 1588 1116 1588 1123 1588 1130 1588 1137 1588 1145 1588 1152 1588 1159 1588 1166 1588 1173 1588 1180 1588 1187 1588 1194 1588 1201 1588 1208 1588 1215 1588 1222 1588 1229 1588 1236 1588 1243 1588 1250 1588 1257 1588 1264 1588 1271 1588 1278 1588 1285 1588 1292 1588 1300 1588 1307 1588 1314 1588 1321 1588 1328 1588 1335 1588 1342 1588 1349 1588 1356 1588 1363 1588 1370 1588 1377 1588 1384 1588 1391 1588 1398 1588 1405 1588 1412 1588 1419 1588 1426 1588 1433 1588 1440 1588 1447 1588 1454 1588 1462 1588" stroke="#B7B7B7" stroke-width="2" stroke-linecap="round" stroke-linejoin="round" stroke-miterlimit="10" fill="none"/></g><g clip-path="url(#clip12)"><path d="M116 1588 123 1588 130 1588 137 1588 144 1588 151 1588 158 1588 165 1588 172 1588 179 1588 186 1588 193 1588 201 1588 208 1588 215 1588 222 1588 229 1588 236 1588 243 1588 250 1588 257 1588 264 1588 271 1588 278 1588 285 1588 292 1588 299 1588 306 1588 313 1588 320 1588 327 1588 334 1588 341 1588 348 1588 356 1588 363 1588 370 1588 377 1588 384 1588 391 1588 398 1588 405 1588 412 1588 419 1114 426 1588 433 1114 440 1114 447 1114 454 1588 461 1588 468 1114 475 1588 482 1588 489 1114 496 1588 503 1588 510 1588 518 1588 525 1588 532 1588 539 1078 546 1001 553 978 560 963 567 936 574 928 581 934 588 927 595 902 602 939 609 943 616 953 623 965 630 1031 637 1058 644 1078 651 1114 658 1588 665 1588 673 1588 680 1588 687 1588 694 1588 701 1588 708 1588 715 1588 722 1588 729 1588 736 1588 743 1588 750 1588 757 1588 764 1588 771 1588 778 1588 785 1588 792 1588 799 1588 806 1588 813 1588 820 1588 828 1588 835 1588 842 1588 849 1588 856 1588 863 1588 870 1588 877 1588 884 1588 891 1588 898 1588 905 1588 912 1588 919 1588 926 1588 933 1588 940 1588 947 1588 954 1588 961 1588 968 1588 975 1588 982 1588 990 1588 997 1588 1004 1588 1011 1588 1018 1588 1025 1588 1032 1588 1039 1588 1046 1588 1053 1588 1060 1588 1067 1588 1074 1588 1081 1588 1088 1588 1095 1588 1102 1588 1109 1588 1116 1588 1123 1588 1130 1588 1137 1588 1145 1588 1152 1588 1159 1588 1166 1588 1173 1588 1180 1588 1187 1588 1194 1588 1201 1588 1208 1588 1215 1588 1222 1588 1229 1588 1236 1588 1243 1588 1250 1588 1257 1588 1264 1588 1271 1588 1278 1588 1285 1588 1292 1588 1300 1588 1307 1588 1314 1588 1321 1588 1328 1588 1335 1588 1342 1588 1349 1588 1356 1588 1363 1588 1370 1588 1377 1588 1384 1588 1391 1588 1398 1588 1405 1588 1412 1588 1419 1588 1426 1588 1433 1588 1440 1588 1447 1588 1454 1588 1462 1588" stroke="#0070C0" stroke-width="2" stroke-linecap="round" stroke-linejoin="round" stroke-miterlimit="10" fill="none"/></g><g clip-path="url(#clip13)"><path d="M116 1588 123 1588 130 1588 137 1588 144 1588 151 1588 158 1588 165 1588 172 1588 179 1588 186 1588 193 1588 201 1588 208 1588 215 1588 222 1588 229 1588 236 1588 243 1588 250 1588 257 1588 264 1588 271 1588 278 1588 285 1588 292 1588 299 1588 306 1588 313 1588 320 1588 327 1588 334 1588 341 1588 348 1588 356 1588 363 1588 370 1588 377 1588 384 1588 391 1588 398 1588 405 1588 412 1588 419 1588 426 1588 433 1588 440 1588 447 1588 454 1588 461 1588 468 1588 475 1588 482 1588 489 1588 496 1588 503 1588 510 1588 518 1588 525 1588 532 1588 539 1588 546 1588 553 1588 560 1588 567 1588 574 1588 581 1588 588 1588 595 1588 602 1588 609 1588 616 1588 623 1588 630 1588 637 1588 644 1588 651 1588 658 1588 665 1588 673 1588 680 1588 687 1588 694 1588 701 1114 708 1114 715 1114 722 1588 729 1014 736 1043 743 1588 750 1078 757 1014 764 1031 771 1114 778 1078 785 1588 792 1078 799 1114 806 1078 813 1014 820 1078 828 1588 835 1588 842 1114 849 1058 856 1114 863 1588 870 1031 877 1058 884 1588 891 1114 898 1022 905 1058 912 1114 919 1058 926 1058 933 1058 940 1058 947 1114 954 1014 961 1114 968 1058 975 1078 982 1043 990 1058 997 1043 1004 1078 1011 1058 1018 1058 1025 1114 1032 1043 1039 1031 1046 1043 1053 1078 1060 1114 1067 1058 1074 1022 1081 1078 1088 1078 1095 1078 1102 1043 1109 1114 1116 1588 1123 1001 1130 1078 1137 1114 1145 1114 1152 1078 1159 1058 1166 1588 1173 1114 1180 1114 1187 1588 1194 1114 1201 1114 1208 1078 1215 1114 1222 1588 1229 1588 1236 1588 1243 1078 1250 1588 1257 1588 1264 1058 1271 1588 1278 1588 1285 1588 1292 1588 1300 1588 1307 1114 1314 1588 1321 1078 1328 1078 1335 1588 1342 1588 1349 1588 1356 1588 1363 1588 1370 1588 1377 1588 1384 1588 1391 1588 1398 1588 1405 1588 1412 1588 1419 1588 1426 1588 1433 1588 1440 1588 1447 1588 1454 1588 1462 1588" stroke="#FF0000" stroke-width="2" stroke-linecap="round" stroke-linejoin="round" stroke-miterlimit="10" fill="none"/></g><g clip-path="url(#clip14)"><text fill="#595959" font-family="Arial,Arial_MSFontService,sans-serif" font-weight="400" font-size="12" transform="translate(99.0017 1118)">1</text></g><g clip-path="url(#clip15)"><text fill="#595959" font-family="Arial,Arial_MSFontService,sans-serif" font-weight="400" font-size="12" transform="translate(92.3283 1000)">10</text></g><g clip-path="url(#clip16)"><text fill="#595959" font-family="Arial,Arial_MSFontService,sans-serif" font-weight="400" font-size="12" transform="translate(85.6549 881)">100</text></g><g clip-path="url(#clip17)"><text fill="#595959" font-family="Arial,Arial_MSFontService,sans-serif" font-weight="400" font-size="12" transform="translate(75.6482 763)">1,000</text></g><g clip-path="url(#clip18)"><text fill="#595959" font-family="Arial,Arial_MSFontService,sans-serif" font-weight="400" font-size="12" transform="translate(68.9748 644)">10,000</text></g><g clip-path="url(#clip19)"><text fill="#595959" font-family="Arial,Arial_MSFontService,sans-serif" font-weight="400" font-size="12" transform="translate(62.3014 526)">100,000</text></g><g clip-path="url(#clip20)"><text fill="#595959" font-family="Arial,Arial_MSFontService,sans-serif" font-weight="400" font-size="12" transform="translate(52.2947 407)">1,000,000</text></g><g clip-path="url(#clip21)"><text fill="#595959" font-family="Arial,Arial_MSFontService,sans-serif" font-weight="400" font-size="12" transform="translate(45.6213 289)">10,000,000</text></g><g clip-path="url(#clip22)"><text fill="#595959" font-family="Arial,Arial_MSFontService,sans-serif" font-weight="400" font-size="12" transform="translate(38.9479 171)">100,000,000</text></g><g clip-path="url(#clip23)"><text fill="#595959" font-family="Arial,Arial_MSFontService,sans-serif" font-weight="400" font-size="12" transform="translate(28.9412 52)">1,000,000,000</text></g><g clip-path="url(#clip24)"><text fill="#595959" font-family="Arial,Arial_MSFontService,sans-serif" font-weight="400" font-size="12" transform="matrix(6.12323e-17 -1 1 6.12323e-17 120.295 1128)">0</text></g><g clip-path="url(#clip25)"><text fill="#595959" font-family="Arial,Arial_MSFontService,sans-serif" font-weight="400" font-size="12" transform="matrix(6.12323e-17 -1 1 6.12323e-17 134.384 1128)">2</text></g><g clip-path="url(#clip26)"><text fill="#595959" font-family="Arial,Arial_MSFontService,sans-serif" font-weight="400" font-size="12" transform="matrix(6.12323e-17 -1 1 6.12323e-17 148.474 1128)">4</text></g><g clip-path="url(#clip27)"><text fill="#595959" font-family="Arial,Arial_MSFontService,sans-serif" font-weight="400" font-size="12" transform="matrix(6.12323e-17 -1 1 6.12323e-17 162.563 1128)">6</text></g><g clip-path="url(#clip28)"><text fill="#595959" font-family="Arial,Arial_MSFontService,sans-serif" font-weight="400" font-size="12" transform="matrix(6.12323e-17 -1 1 6.12323e-17 176.653 1128)">8</text></g><g clip-path="url(#clip29)"><text fill="#595959" font-family="Arial,Arial_MSFontService,sans-serif" font-weight="400" font-size="12" transform="matrix(6.12323e-17 -1 1 6.12323e-17 190.742 1135)">10</text></g><g clip-path="url(#clip30)"><text fill="#595959" font-family="Arial,Arial_MSFontService,sans-serif" font-weight="400" font-size="12" transform="matrix(6.12323e-17 -1 1 6.12323e-17 204.831 1135)">12</text></g><g clip-path="url(#clip31)"><text fill="#595959" font-family="Arial,Arial_MSFontService,sans-serif" font-weight="400" font-size="12" transform="matrix(6.12323e-17 -1 1 6.12323e-17 218.921 1135)">14</text></g><g clip-path="url(#clip32)"><text fill="#595959" font-family="Arial,Arial_MSFontService,sans-serif" font-weight="400" font-size="12" transform="matrix(6.12323e-17 -1 1 6.12323e-17 233.01 1135)">16</text></g><g clip-path="url(#clip33)"><text fill="#595959" font-family="Arial,Arial_MSFontService,sans-serif" font-weight="400" font-size="12" transform="matrix(6.12323e-17 -1 1 6.12323e-17 247.1 1135)">18</text></g><g clip-path="url(#clip34)"><text fill="#595959" font-family="Arial,Arial_MSFontService,sans-serif" font-weight="400" font-size="12" transform="matrix(6.12323e-17 -1 1 6.12323e-17 261.189 1135)">20</text></g><g clip-path="url(#clip35)"><text fill="#595959" font-family="Arial,Arial_MSFontService,sans-serif" font-weight="400" font-size="12" transform="matrix(6.12323e-17 -1 1 6.12323e-17 275.278 1135)">22</text></g><g clip-path="url(#clip36)"><text fill="#595959" font-family="Arial,Arial_MSFontService,sans-serif" font-weight="400" font-size="12" transform="matrix(6.12323e-17 -1 1 6.12323e-17 289.368 1135)">24</text></g><g clip-path="url(#clip37)"><text fill="#595959" font-family="Arial,Arial_MSFontService,sans-serif" font-weight="400" font-size="12" transform="matrix(6.12323e-17 -1 1 6.12323e-17 303.457 1135)">26</text></g><g clip-path="url(#clip38)"><text fill="#595959" font-family="Arial,Arial_MSFontService,sans-serif" font-weight="400" font-size="12" transform="matrix(6.12323e-17 -1 1 6.12323e-17 317.547 1135)">28</text></g><g clip-path="url(#clip39)"><text fill="#595959" font-family="Arial,Arial_MSFontService,sans-serif" font-weight="400" font-size="12" transform="matrix(6.12323e-17 -1 1 6.12323e-17 331.636 1135)">30</text></g><g clip-path="url(#clip40)"><text fill="#595959" font-family="Arial,Arial_MSFontService,sans-serif" font-weight="400" font-size="12" transform="matrix(6.12323e-17 -1 1 6.12323e-17 345.725 1135)">32</text></g><g clip-path="url(#clip41)"><text fill="#595959" font-family="Arial,Arial_MSFontService,sans-serif" font-weight="400" font-size="12" transform="matrix(6.12323e-17 -1 1 6.12323e-17 359.815 1135)">34</text></g><g clip-path="url(#clip42)"><text fill="#595959" font-family="Arial,Arial_MSFontService,sans-serif" font-weight="400" font-size="12" transform="matrix(6.12323e-17 -1 1 6.12323e-17 373.904 1135)">36</text></g><g clip-path="url(#clip43)"><text fill="#595959" font-family="Arial,Arial_MSFontService,sans-serif" font-weight="400" font-size="12" transform="matrix(6.12323e-17 -1 1 6.12323e-17 387.993 1135)">38</text></g><g clip-path="url(#clip44)"><text fill="#595959" font-family="Arial,Arial_MSFontService,sans-serif" font-weight="400" font-size="12" transform="matrix(6.12323e-17 -1 1 6.12323e-17 402.083 1135)">40</text></g><g clip-path="url(#clip45)"><text fill="#595959" font-family="Arial,Arial_MSFontService,sans-serif" font-weight="400" font-size="12" transform="matrix(6.12323e-17 -1 1 6.12323e-17 416.172 1135)">42</text></g><g clip-path="url(#clip46)"><text fill="#595959" font-family="Arial,Arial_MSFontService,sans-serif" font-weight="400" font-size="12" transform="matrix(6.12323e-17 -1 1 6.12323e-17 430.262 1135)">44</text></g><g clip-path="url(#clip47)"><text fill="#595959" font-family="Arial,Arial_MSFontService,sans-serif" font-weight="400" font-size="12" transform="matrix(6.12323e-17 -1 1 6.12323e-17 444.351 1135)">46</text></g><g clip-path="url(#clip48)"><text fill="#595959" font-family="Arial,Arial_MSFontService,sans-serif" font-weight="400" font-size="12" transform="matrix(6.12323e-17 -1 1 6.12323e-17 458.44 1135)">48</text></g><g clip-path="url(#clip49)"><text fill="#595959" font-family="Arial,Arial_MSFontService,sans-serif" font-weight="400" font-size="12" transform="matrix(6.12323e-17 -1 1 6.12323e-17 472.53 1135)">50</text></g><g clip-path="url(#clip50)"><text fill="#595959" font-family="Arial,Arial_MSFontService,sans-serif" font-weight="400" font-size="12" transform="matrix(6.12323e-17 -1 1 6.12323e-17 486.619 1135)">52</text></g><g clip-path="url(#clip51)"><text fill="#595959" font-family="Arial,Arial_MSFontService,sans-serif" font-weight="400" font-size="12" transform="matrix(6.12323e-17 -1 1 6.12323e-17 500.709 1135)">54</text></g><g clip-path="url(#clip52)"><text fill="#595959" font-family="Arial,Arial_MSFontService,sans-serif" font-weight="400" font-size="12" transform="matrix(6.12323e-17 -1 1 6.12323e-17 514.798 1135)">56</text></g><g clip-path="url(#clip53)"><text fill="#595959" font-family="Arial,Arial_MSFontService,sans-serif" font-weight="400" font-size="12" transform="matrix(6.12323e-17 -1 1 6.12323e-17 528.887 1135)">58</text></g><g clip-path="url(#clip54)"><text fill="#595959" font-family="Arial,Arial_MSFontService,sans-serif" font-weight="400" font-size="12" transform="matrix(6.12323e-17 -1 1 6.12323e-17 542.977 1135)">60</text></g><g clip-path="url(#clip55)"><text fill="#595959" font-family="Arial,Arial_MSFontService,sans-serif" font-weight="400" font-size="12" transform="matrix(6.12323e-17 -1 1 6.12323e-17 557.066 1135)">62</text></g><g clip-path="url(#clip56)"><text fill="#595959" font-family="Arial,Arial_MSFontService,sans-serif" font-weight="400" font-size="12" transform="matrix(6.12323e-17 -1 1 6.12323e-17 571.156 1135)">64</text></g><g clip-path="url(#clip57)"><text fill="#595959" font-family="Arial,Arial_MSFontService,sans-serif" font-weight="400" font-size="12" transform="matrix(6.12323e-17 -1 1 6.12323e-17 585.245 1135)">66</text></g><g clip-path="url(#clip58)"><text fill="#595959" font-family="Arial,Arial_MSFontService,sans-serif" font-weight="400" font-size="12" transform="matrix(6.12323e-17 -1 1 6.12323e-17 599.334 1135)">68</text></g><g clip-path="url(#clip59)"><text fill="#595959" font-family="Arial,Arial_MSFontService,sans-serif" font-weight="400" font-size="12" transform="matrix(6.12323e-17 -1 1 6.12323e-17 613.424 1135)">70</text></g><g clip-path="url(#clip60)"><text fill="#595959" font-family="Arial,Arial_MSFontService,sans-serif" font-weight="400" font-size="12" transform="matrix(6.12323e-17 -1 1 6.12323e-17 627.513 1135)">72</text></g><g clip-path="url(#clip61)"><text fill="#595959" font-family="Arial,Arial_MSFontService,sans-serif" font-weight="400" font-size="12" transform="matrix(6.12323e-17 -1 1 6.12323e-17 641.602 1135)">74</text></g><g clip-path="url(#clip62)"><text fill="#595959" font-family="Arial,Arial_MSFontService,sans-serif" font-weight="400" font-size="12" transform="matrix(6.12323e-17 -1 1 6.12323e-17 655.692 1135)">76</text></g><g clip-path="url(#clip63)"><text fill="#595959" font-family="Arial,Arial_MSFontService,sans-serif" font-weight="400" font-size="12" transform="matrix(6.12323e-17 -1 1 6.12323e-17 669.781 1135)">78</text></g><g clip-path="url(#clip64)"><text fill="#595959" font-family="Arial,Arial_MSFontService,sans-serif" font-weight="400" font-size="12" transform="matrix(6.12323e-17 -1 1 6.12323e-17 683.871 1135)">80</text></g><g clip-path="url(#clip65)"><text fill="#595959" font-family="Arial,Arial_MSFontService,sans-serif" font-weight="400" font-size="12" transform="matrix(6.12323e-17 -1 1 6.12323e-17 697.96 1135)">82</text></g><g clip-path="url(#clip66)"><text fill="#595959" font-family="Arial,Arial_MSFontService,sans-serif" font-weight="400" font-size="12" transform="matrix(6.12323e-17 -1 1 6.12323e-17 712.049 1135)">84</text></g><g clip-path="url(#clip67)"><text fill="#595959" font-family="Arial,Arial_MSFontService,sans-serif" font-weight="400" font-size="12" transform="matrix(6.12323e-17 -1 1 6.12323e-17 726.139 1135)">86</text></g><g clip-path="url(#clip68)"><text fill="#595959" font-family="Arial,Arial_MSFontService,sans-serif" font-weight="400" font-size="12" transform="matrix(6.12323e-17 -1 1 6.12323e-17 740.228 1135)">88</text></g><g clip-path="url(#clip69)"><text fill="#595959" font-family="Arial,Arial_MSFontService,sans-serif" font-weight="400" font-size="12" transform="matrix(6.12323e-17 -1 1 6.12323e-17 754.318 1135)">90</text></g><g clip-path="url(#clip70)"><text fill="#595959" font-family="Arial,Arial_MSFontService,sans-serif" font-weight="400" font-size="12" transform="matrix(6.12323e-17 -1 1 6.12323e-17 768.407 1135)">92</text></g><g clip-path="url(#clip71)"><text fill="#595959" font-family="Arial,Arial_MSFontService,sans-serif" font-weight="400" font-size="12" transform="matrix(6.12323e-17 -1 1 6.12323e-17 782.496 1135)">94</text></g><g clip-path="url(#clip72)"><text fill="#595959" font-family="Arial,Arial_MSFontService,sans-serif" font-weight="400" font-size="12" transform="matrix(6.12323e-17 -1 1 6.12323e-17 796.586 1135)">96</text></g><g clip-path="url(#clip73)"><text fill="#595959" font-family="Arial,Arial_MSFontService,sans-serif" font-weight="400" font-size="12" transform="matrix(6.12323e-17 -1 1 6.12323e-17 810.675 1135)">98</text></g><g clip-path="url(#clip74)"><text fill="#595959" font-family="Arial,Arial_MSFontService,sans-serif" font-weight="400" font-size="12" transform="matrix(6.12323e-17 -1 1 6.12323e-17 824.765 1141)">100</text></g><g clip-path="url(#clip75)"><text fill="#595959" font-family="Arial,Arial_MSFontService,sans-serif" font-weight="400" font-size="12" transform="matrix(6.12323e-17 -1 1 6.12323e-17 838.854 1141)">102</text></g><g clip-path="url(#clip76)"><text fill="#595959" font-family="Arial,Arial_MSFontService,sans-serif" font-weight="400" font-size="12" transform="matrix(6.12323e-17 -1 1 6.12323e-17 852.943 1141)">104</text></g><g clip-path="url(#clip77)"><text fill="#595959" font-family="Arial,Arial_MSFontService,sans-serif" font-weight="400" font-size="12" transform="matrix(6.12323e-17 -1 1 6.12323e-17 867.033 1141)">106</text></g><g clip-path="url(#clip78)"><text fill="#595959" font-family="Arial,Arial_MSFontService,sans-serif" font-weight="400" font-size="12" transform="matrix(6.12323e-17 -1 1 6.12323e-17 881.122 1141)">108</text></g><g clip-path="url(#clip79)"><text fill="#595959" font-family="Arial,Arial_MSFontService,sans-serif" font-weight="400" font-size="12" transform="matrix(6.12323e-17 -1 1 6.12323e-17 895.211 1141)">110</text></g><g clip-path="url(#clip80)"><text fill="#595959" font-family="Arial,Arial_MSFontService,sans-serif" font-weight="400" font-size="12" transform="matrix(6.12323e-17 -1 1 6.12323e-17 909.301 1141)">112</text></g><g clip-path="url(#clip81)"><text fill="#595959" font-family="Arial,Arial_MSFontService,sans-serif" font-weight="400" font-size="12" transform="matrix(6.12323e-17 -1 1 6.12323e-17 923.39 1141)">114</text></g><g clip-path="url(#clip82)"><text fill="#595959" font-family="Arial,Arial_MSFontService,sans-serif" font-weight="400" font-size="12" transform="matrix(6.12323e-17 -1 1 6.12323e-17 937.48 1141)">116</text></g><g clip-path="url(#clip83)"><text fill="#595959" font-family="Arial,Arial_MSFontService,sans-serif" font-weight="400" font-size="12" transform="matrix(6.12323e-17 -1 1 6.12323e-17 951.569 1141)">118</text></g><g clip-path="url(#clip84)"><text fill="#595959" font-family="Arial,Arial_MSFontService,sans-serif" font-weight="400" font-size="12" transform="matrix(6.12323e-17 -1 1 6.12323e-17 965.658 1141)">120</text></g><g clip-path="url(#clip85)"><text fill="#595959" font-family="Arial,Arial_MSFontService,sans-serif" font-weight="400" font-size="12" transform="matrix(6.12323e-17 -1 1 6.12323e-17 979.748 1141)">122</text></g><g clip-path="url(#clip86)"><text fill="#595959" font-family="Arial,Arial_MSFontService,sans-serif" font-weight="400" font-size="12" transform="matrix(6.12323e-17 -1 1 6.12323e-17 993.837 1141)">124</text></g><g clip-path="url(#clip87)"><text fill="#595959" font-family="Arial,Arial_MSFontService,sans-serif" font-weight="400" font-size="12" transform="matrix(6.12323e-17 -1 1 6.12323e-17 1007.93 1141)">126</text></g><g clip-path="url(#clip88)"><text fill="#595959" font-family="Arial,Arial_MSFontService,sans-serif" font-weight="400" font-size="12" transform="matrix(6.12323e-17 -1 1 6.12323e-17 1022.02 1141)">128</text></g><g clip-path="url(#clip89)"><text fill="#595959" font-family="Arial,Arial_MSFontService,sans-serif" font-weight="400" font-size="12" transform="matrix(6.12323e-17 -1 1 6.12323e-17 1036.11 1141)">130</text></g><g clip-path="url(#clip90)"><text fill="#595959" font-family="Arial,Arial_MSFontService,sans-serif" font-weight="400" font-size="12" transform="matrix(6.12323e-17 -1 1 6.12323e-17 1050.19 1141)">132</text></g><g clip-path="url(#clip91)"><text fill="#595959" font-family="Arial,Arial_MSFontService,sans-serif" font-weight="400" font-size="12" transform="matrix(6.12323e-17 -1 1 6.12323e-17 1064.28 1141)">134</text></g><g clip-path="url(#clip92)"><text fill="#595959" font-family="Arial,Arial_MSFontService,sans-serif" font-weight="400" font-size="12" transform="matrix(6.12323e-17 -1 1 6.12323e-17 1078.37 1141)">136</text></g><g clip-path="url(#clip93)"><text fill="#595959" font-family="Arial,Arial_MSFontService,sans-serif" font-weight="400" font-size="12" transform="matrix(6.12323e-17 -1 1 6.12323e-17 1092.46 1141)">138</text></g><g clip-path="url(#clip94)"><text fill="#595959" font-family="Arial,Arial_MSFontService,sans-serif" font-weight="400" font-size="12" transform="matrix(6.12323e-17 -1 1 6.12323e-17 1106.55 1141)">140</text></g><g clip-path="url(#clip95)"><text fill="#595959" font-family="Arial,Arial_MSFontService,sans-serif" font-weight="400" font-size="12" transform="matrix(6.12323e-17 -1 1 6.12323e-17 1120.64 1141)">142</text></g><g clip-path="url(#clip96)"><text fill="#595959" font-family="Arial,Arial_MSFontService,sans-serif" font-weight="400" font-size="12" transform="matrix(6.12323e-17 -1 1 6.12323e-17 1134.73 1141)">144</text></g><g clip-path="url(#clip97)"><text fill="#595959" font-family="Arial,Arial_MSFontService,sans-serif" font-weight="400" font-size="12" transform="matrix(6.12323e-17 -1 1 6.12323e-17 1148.82 1141)">146</text></g><g clip-path="url(#clip98)"><text fill="#595959" font-family="Arial,Arial_MSFontService,sans-serif" font-weight="400" font-size="12" transform="matrix(6.12323e-17 -1 1 6.12323e-17 1162.91 1141)">148</text></g><g clip-path="url(#clip99)"><text fill="#595959" font-family="Arial,Arial_MSFontService,sans-serif" font-weight="400" font-size="12" transform="matrix(6.12323e-17 -1 1 6.12323e-17 1177 1141)">150</text></g><g clip-path="url(#clip100)"><text fill="#595959" font-family="Arial,Arial_MSFontService,sans-serif" font-weight="400" font-size="12" transform="matrix(6.12323e-17 -1 1 6.12323e-17 1191.09 1141)">152</text></g><g clip-path="url(#clip101)"><text fill="#595959" font-family="Arial,Arial_MSFontService,sans-serif" font-weight="400" font-size="12" transform="matrix(6.12323e-17 -1 1 6.12323e-17 1205.18 1141)">154</text></g><g clip-path="url(#clip102)"><text fill="#595959" font-family="Arial,Arial_MSFontService,sans-serif" font-weight="400" font-size="12" transform="matrix(6.12323e-17 -1 1 6.12323e-17 1219.27 1141)">156</text></g><g clip-path="url(#clip103)"><text fill="#595959" font-family="Arial,Arial_MSFontService,sans-serif" font-weight="400" font-size="12" transform="matrix(6.12323e-17 -1 1 6.12323e-17 1233.36 1141)">158</text></g><g clip-path="url(#clip104)"><text fill="#595959" font-family="Arial,Arial_MSFontService,sans-serif" font-weight="400" font-size="12" transform="matrix(6.12323e-17 -1 1 6.12323e-17 1247.45 1141)">160</text></g><g clip-path="url(#clip105)"><text fill="#595959" font-family="Arial,Arial_MSFontService,sans-serif" font-weight="400" font-size="12" transform="matrix(6.12323e-17 -1 1 6.12323e-17 1261.54 1141)">162</text></g><g clip-path="url(#clip106)"><text fill="#595959" font-family="Arial,Arial_MSFontService,sans-serif" font-weight="400" font-size="12" transform="matrix(6.12323e-17 -1 1 6.12323e-17 1275.62 1141)">164</text></g><g clip-path="url(#clip107)"><text fill="#595959" font-family="Arial,Arial_MSFontService,sans-serif" font-weight="400" font-size="12" transform="matrix(6.12323e-17 -1 1 6.12323e-17 1289.71 1141)">166</text></g><g clip-path="url(#clip108)"><text fill="#595959" font-family="Arial,Arial_MSFontService,sans-serif" font-weight="400" font-size="12" transform="matrix(6.12323e-17 -1 1 6.12323e-17 1303.8 1141)">168</text></g><g clip-path="url(#clip109)"><text fill="#595959" font-family="Arial,Arial_MSFontService,sans-serif" font-weight="400" font-size="12" transform="matrix(6.12323e-17 -1 1 6.12323e-17 1317.89 1141)">170</text></g><g clip-path="url(#clip110)"><text fill="#595959" font-family="Arial,Arial_MSFontService,sans-serif" font-weight="400" font-size="12" transform="matrix(6.12323e-17 -1 1 6.12323e-17 1331.98 1141)">172</text></g><g clip-path="url(#clip111)"><text fill="#595959" font-family="Arial,Arial_MSFontService,sans-serif" font-weight="400" font-size="12" transform="matrix(6.12323e-17 -1 1 6.12323e-17 1346.07 1141)">174</text></g><g clip-path="url(#clip112)"><text fill="#595959" font-family="Arial,Arial_MSFontService,sans-serif" font-weight="400" font-size="12" transform="matrix(6.12323e-17 -1 1 6.12323e-17 1360.16 1141)">176</text></g><g clip-path="url(#clip113)"><text fill="#595959" font-family="Arial,Arial_MSFontService,sans-serif" font-weight="400" font-size="12" transform="matrix(6.12323e-17 -1 1 6.12323e-17 1374.25 1141)">178</text></g><g clip-path="url(#clip114)"><text fill="#595959" font-family="Arial,Arial_MSFontService,sans-serif" font-weight="400" font-size="12" transform="matrix(6.12323e-17 -1 1 6.12323e-17 1388.34 1141)">180</text></g><g clip-path="url(#clip115)"><text fill="#595959" font-family="Arial,Arial_MSFontService,sans-serif" font-weight="400" font-size="12" transform="matrix(6.12323e-17 -1 1 6.12323e-17 1402.43 1141)">182</text></g><g clip-path="url(#clip116)"><text fill="#595959" font-family="Arial,Arial_MSFontService,sans-serif" font-weight="400" font-size="12" transform="matrix(6.12323e-17 -1 1 6.12323e-17 1416.52 1141)">184</text></g><g clip-path="url(#clip117)"><text fill="#595959" font-family="Arial,Arial_MSFontService,sans-serif" font-weight="400" font-size="12" transform="matrix(6.12323e-17 -1 1 6.12323e-17 1430.61 1141)">186</text></g><g clip-path="url(#clip118)"><text fill="#595959" font-family="Arial,Arial_MSFontService,sans-serif" font-weight="400" font-size="12" transform="matrix(6.12323e-17 -1 1 6.12323e-17 1444.7 1141)">188</text></g><g clip-path="url(#clip119)"><text fill="#595959" font-family="Arial,Arial_MSFontService,sans-serif" font-weight="400" font-size="12" transform="matrix(6.12323e-17 -1 1 6.12323e-17 1458.79 1141)">190</text></g><g clip-path="url(#clip120)"><text fill="#595959" font-family="Arial,Arial_MSFontService,sans-serif" font-weight="400" font-size="12" transform="matrix(6.12323e-17 -1 1 6.12323e-17 1472.88 1141)">192</text></g><g clip-path="url(#clip121)"><text fill="#595959" font-family="Arial,Arial_MSFontService,sans-serif" font-weight="400" font-size="12" transform="matrix(6.12323e-17 -1 1 6.12323e-17 1486.97 1141)">194</text></g><g clip-path="url(#clip122)"><text fill="#595959" font-family="Arial,Arial_MSFontService,sans-serif" font-weight="400" font-size="12" transform="matrix(6.12323e-17 -1 1 6.12323e-17 1501.06 1141)">196</text></g><g clip-path="url(#clip123)"><text fill="#595959" font-family="Arial,Arial_MSFontService,sans-serif" font-weight="400" font-size="12" transform="matrix(6.12323e-17 -1 1 6.12323e-17 1515.14 1141)">198</text></g><g clip-path="url(#clip124)"><text fill="#595959" font-family="Arial,Arial_MSFontService,sans-serif" font-weight="400" font-size="12" transform="matrix(6.12323e-17 -1 1 6.12323e-17 1529.23 1141)">200</text></g><g clip-path="url(#clip125)"><text fill="#595959" font-family="Arial,Arial_MSFontService,sans-serif" font-weight="400" font-size="12" transform="matrix(6.12323e-17 -1 1 6.12323e-17 1543.32 1141)">202</text></g><g clip-path="url(#clip126)"><text fill="#595959" font-family="Arial,Arial_MSFontService,sans-serif" font-weight="400" font-size="12" transform="matrix(6.12323e-17 -1 1 6.12323e-17 1557.41 1141)">204</text></g><g clip-path="url(#clip127)"><text fill="#595959" font-family="Arial,Arial_MSFontService,sans-serif" font-weight="400" font-size="12" transform="matrix(6.12323e-17 -1 1 6.12323e-17 1571.5 1141)">206</text></g><g clip-path="url(#clip128)"><text fill="#595959" font-family="Arial,Arial_MSFontService,sans-serif" font-weight="400" font-size="12" transform="matrix(6.12323e-17 -1 1 6.12323e-17 1585.59 1141)">208</text></g><g clip-path="url(#clip129)"><text fill="#595959" font-family="Arial,Arial_MSFontService,sans-serif" font-weight="400" font-size="12" transform="matrix(6.12323e-17 -1 1 6.12323e-17 1599.68 1141)">210</text></g><g clip-path="url(#clip130)"><text fill="#595959" font-family="Arial,Arial_MSFontService,sans-serif" font-weight="400" font-size="12" transform="matrix(6.12323e-17 -1 1 6.12323e-17 1613.77 1141)">212</text></g><g clip-path="url(#clip131)"><text fill="#595959" font-family="Arial,Arial_MSFontService,sans-serif" font-weight="400" font-size="12" transform="matrix(6.12323e-17 -1 1 6.12323e-17 1627.86 1141)">214</text></g><g clip-path="url(#clip132)"><text fill="#595959" font-family="Arial,Arial_MSFontService,sans-serif" font-weight="400" font-size="12" transform="matrix(6.12323e-17 -1 1 6.12323e-17 1641.95 1141)">216</text></g><g clip-path="url(#clip133)"><text fill="#595959" font-family="Arial,Arial_MSFontService,sans-serif" font-weight="400" font-size="12" transform="matrix(6.12323e-17 -1 1 6.12323e-17 1656.04 1141)">218</text></g><g clip-path="url(#clip134)"><text fill="#595959" font-family="Arial,Arial_MSFontService,sans-serif" font-weight="400" font-size="12" transform="matrix(6.12323e-17 -1 1 6.12323e-17 1670.13 1141)">220</text></g><g clip-path="url(#clip135)"><text fill="#595959" font-family="Arial,Arial_MSFontService,sans-serif" font-weight="400" font-size="12" transform="matrix(6.12323e-17 -1 1 6.12323e-17 1684.22 1141)">222</text></g><g clip-path="url(#clip136)"><text fill="#595959" font-family="Arial,Arial_MSFontService,sans-serif" font-weight="400" font-size="12" transform="matrix(6.12323e-17 -1 1 6.12323e-17 1698.31 1141)">224</text></g><g clip-path="url(#clip137)"><text fill="#595959" font-family="Arial,Arial_MSFontService,sans-serif" font-weight="400" font-size="12" transform="matrix(6.12323e-17 -1 1 6.12323e-17 1712.4 1141)">226</text></g><g clip-path="url(#clip138)"><text fill="#595959" font-family="Arial,Arial_MSFontService,sans-serif" font-weight="400" font-size="12" transform="matrix(6.12323e-17 -1 1 6.12323e-17 1726.49 1141)">228</text></g><g clip-path="url(#clip139)"><text fill="#595959" font-family="Arial,Arial_MSFontService,sans-serif" font-weight="400" font-size="12" transform="matrix(6.12323e-17 -1 1 6.12323e-17 1740.57 1141)">230</text></g><g clip-path="url(#clip140)"><text fill="#595959" font-family="Arial,Arial_MSFontService,sans-serif" font-weight="400" font-size="12" transform="matrix(6.12323e-17 -1 1 6.12323e-17 1754.66 1141)">232</text></g><g clip-path="url(#clip141)"><text fill="#595959" font-family="Arial,Arial_MSFontService,sans-serif" font-weight="400" font-size="12" transform="matrix(6.12323e-17 -1 1 6.12323e-17 1768.75 1141)">234</text></g><g clip-path="url(#clip142)"><text fill="#595959" font-family="Arial,Arial_MSFontService,sans-serif" font-weight="400" font-size="12" transform="matrix(6.12323e-17 -1 1 6.12323e-17 1782.84 1141)">236</text></g><g clip-path="url(#clip143)"><text fill="#595959" font-family="Arial,Arial_MSFontService,sans-serif" font-weight="400" font-size="12" transform="matrix(6.12323e-17 -1 1 6.12323e-17 1796.93 1141)">238</text></g><g clip-path="url(#clip144)"><text fill="#595959" font-family="Arial,Arial_MSFontService,sans-serif" font-weight="400" font-size="12" transform="matrix(6.12323e-17 -1 1 6.12323e-17 1811.02 1141)">240</text></g><g clip-path="url(#clip145)"><text fill="#595959" font-family="Arial,Arial_MSFontService,sans-serif" font-weight="400" font-size="12" transform="matrix(6.12323e-17 -1 1 6.12323e-17 1825.11 1141)">242</text></g><g clip-path="url(#clip146)"><text fill="#595959" font-family="Arial,Arial_MSFontService,sans-serif" font-weight="400" font-size="12" transform="matrix(6.12323e-17 -1 1 6.12323e-17 1839.2 1141)">244</text></g><g clip-path="url(#clip147)"><text fill="#595959" font-family="Arial,Arial_MSFontService,sans-serif" font-weight="400" font-size="12" transform="matrix(6.12323e-17 -1 1 6.12323e-17 1853.29 1141)">246</text></g><g clip-path="url(#clip148)"><text fill="#595959" font-family="Arial,Arial_MSFontService,sans-serif" font-weight="400" font-size="12" transform="matrix(6.12323e-17 -1 1 6.12323e-17 1867.38 1141)">248</text></g><g clip-path="url(#clip149)"><text fill="#595959" font-family="Arial,Arial_MSFontService,sans-serif" font-weight="400" font-size="12" transform="matrix(6.12323e-17 -1 1 6.12323e-17 1881.47 1141)">250</text></g><g clip-path="url(#clip150)"><text fill="#595959" font-family="Arial,Arial_MSFontService,sans-serif" font-weight="400" font-size="12" transform="matrix(6.12323e-17 -1 1 6.12323e-17 1895.56 1141)">252</text></g><g clip-path="url(#clip151)"><text fill="#595959" font-family="Arial,Arial_MSFontService,sans-serif" font-weight="400" font-size="12" transform="matrix(6.12323e-17 -1 1 6.12323e-17 1909.65 1141)">254</text></g><g clip-path="url(#clip152)"><text fill="#595959" font-family="Arial,Arial_MSFontService,sans-serif" font-weight="400" font-size="13" transform="matrix(6.12323e-17 -1 1 6.12323e-17 22.6079 616)">Block count</text></g><g clip-path="url(#clip153)"><text fill="#595959" font-family="Arial,Arial_MSFontService,sans-serif" font-weight="400" font-size="13" transform="translate(991.96 1161)">Altitude</text></g><g clip-path="url(#clip154)"><text fill="#595959" font-family="Arial,Arial_MSFontService,sans-serif" font-weight="400" font-size="19" transform="translate(737.467 28)">Resource distribution by altitude (Minecraft 1.18, End)</text></g><g clip-path="url(#clip155)"><path d="M364 1181 390 1181" stroke="#BDBB6D" stroke-width="2" stroke-linecap="round" stroke-linejoin="round" stroke-miterlimit="10" fill="none" fill-rule="evenodd"/></g><g clip-path="url(#clip156)"><text fill="#595959" font-family="Arial,Arial_MSFontService,sans-serif" font-weight="400" font-size="12" transform="translate(392.381 1185)">minecraft:end_stone</text></g><g clip-path="url(#clip157)"><path d="M531 1181 556 1181" stroke="#8638B6" stroke-width="2" stroke-linecap="round" stroke-linejoin="round" stroke-miterlimit="10" fill="none" fill-rule="evenodd"/></g><g clip-path="url(#clip158)"><text fill="#595959" font-family="Arial,Arial_MSFontService,sans-serif" font-weight="400" font-size="12" transform="translate(559.194 1185)">minecraft:chorus_plant</text></g><g clip-path="url(#clip159)"><path d="M710 1181 736 1181" stroke="#CB85E1" stroke-width="2" stroke-linecap="round" stroke-linejoin="round" stroke-miterlimit="10" fill="none" fill-rule="evenodd"/></g><g clip-path="url(#clip160)"><text fill="#595959" font-family="Arial,Arial_MSFontService,sans-serif" font-weight="400" font-size="12" transform="translate(738.666 1185)">minecraft:purpur_block</text></g><g clip-path="url(#clip161)"><path d="M890 1181 916 1181" stroke="#3B3838" stroke-width="2" stroke-linecap="round" stroke-linejoin="round" stroke-miterlimit="10" fill="none" fill-rule="evenodd"/></g><g clip-path="url(#clip162)"><text fill="#595959" font-family="Arial,Arial_MSFontService,sans-serif" font-weight="400" font-size="12" transform="translate(918.799 1185)">minecraft:obsidian</text></g><g clip-path="url(#clip163)"><path d="M1046 1181 1072 1181" stroke="#B7B7B7" stroke-width="2" stroke-linecap="round" stroke-linejoin="round" stroke-miterlimit="10" fill="none" fill-rule="evenodd"/></g><g clip-path="url(#clip164)"><text fill="#595959" font-family="Arial,Arial_MSFontService,sans-serif" font-weight="400" font-size="12" transform="translate(1074.27 1185)">minecraft:bedrock</text></g><g clip-path="url(#clip165)"><path d="M1199 1181 1225 1181" stroke="#0070C0" stroke-width="2" stroke-linecap="round" stroke-linejoin="round" stroke-miterlimit="10" fill="none" fill-rule="evenodd"/></g><g clip-path="url(#clip166)"><text fill="#595959" font-family="Arial,Arial_MSFontService,sans-serif" font-weight="400" font-size="12" transform="translate(1227.72 1185)">minecraft:end_gateway</text></g><g clip-path="url(#clip167)"><path d="M1382 1181 1407 1181" stroke="#FF0000" stroke-width="2" stroke-linecap="round" stroke-linejoin="round" stroke-miterlimit="10" fill="none" fill-rule="evenodd"/></g><g clip-path="url(#clip168)"><text fill="#595959" font-family="Arial,Arial_MSFontService,sans-serif" font-weight="400" font-size="12" transform="translate(1409.87 1185)">minecraft:dragon_wall_head</text></g></g></svg>