<svg width="2309" height="1200" xmlns="http://www.w3.org/2000/svg" xmlns:xlink="http://www.w3.org/1999/xlink" overflow="hidden"><defs><clipPath id="clip0"><rect x="0" y="0" width="2309" height="1200"/></clipPath><clipPath id="clip1"><rect x="0" y="0" width="2308" height="1200"/></clipPath><clipPath id="clip2"><rect x="0" y="0" width="2308" height="1200"/></clipPath><clipPath id="clip3"><rect x="0" y="0" width="2308" height="1200"/></clipPath><clipPath id="clip4"><rect x="0" y="0" width="2308" height="1200"/></clipPath><clipPath id="clip5"><rect x="0" y="0" width="2308" height="1200"/></clipPath><clipPath id="clip6"><rect x="89" y="49" width="2206" height="1086"/></clipPath><clipPath id="clip7"><rect x="89" y="49" width="2206" height="1086"/></clipPath><clipPath id="clip8"><rect x="89" y="49" width="2206" height="1086"/></clipPath><clipPath id="clip9"><rect x="89" y="49" width="2206" height="1086"/></clipPath><clipPath id="clip10"><rect x="89" y="49" width="2206" height="1086"/></clipPath><clipPath id="clip11"><rect x="89" y="49" width="2206" height="1086"/></clipPath><clipPath id="clip12"><rect x="89" y="49" width="2206" height="1086"/></clipPath><clipPath id="clip13"><rect x="89" y="49" width="2206" height="1086"/></clipPath><clipPath id="clip14"><rect x="89" y="49" width="2206" height="1086"/></clipPath><clipPath id="clip15"><rect x="89" y="49" width="2206" height="1086"/></clipPath><clipPath id="clip16"><rect x="89" y="49" width="2206" height="1086"/></clipPath><clipPath id="clip17"><rect x="0" y="0" width="2308" height="1200"/></clipPath><clipPath id="clip18"><rect x="0" y="0" width="2308" height="1200"/></clipPath><clipPath id="clip19"><rect x="0" y="0" width="2308" height="1200"/></clipPath><clipPath id="clip20"><rect x="0" y="0" width="2308" height="1200"/></clipPath><clipPath id="clip21"><rect x="0" y="0" width="2308" height="1200"/></clipPath><clipPath id="clip22"><rect x="0" y="0" width="2308" height="1200"/></clipPath><clipPath id="clip23"><rect x="0" y="0" width="2308" height="1200"/></clipPath><clipPath id="clip24"><rect x="0" y="0" width="2308" height="1200"/></clipPath><clipPath id="clip25"><rect x="0" y="0" width="2308" height="1200"/></clipPath><clipPath id="clip26"><rect x="0" y="0" width="2308" height="1200"/></clipPath><clipPath id="clip27"><rect x="0" y="0" width="2308" height="1200"/></clipPath><clipPath id="clip28"><rect x="0" y="0" width="2308" height="1200"/></clipPath><clipPath id="clip29"><rect x="0" y="0" width="2308" height="1200"/></clipPath><clipPath id="clip30"><rect x="0" y="0" width="2308" height="1200"/></clipPath><clipPath id="clip31"><rect x="0" y="0" width="2308" height="1200"/></clipPath><clipPath id="clip32"><rect x="0" y="0" width="2308" height="1200"/></clipPath><clipPath id="clip33"><rect x="0" y="0" width="2308" height="1200"/></clipPath><clipPath id="clip34"><rect x="0" y="0" width="2308" height="1200"/></clipPath><clipPath id="clip35"><rect x="0" y="0" width="2308" height="1200"/></clipPath><clipPath id="clip36"><rect x="0" y="0" width="2308" height="1200"/></clipPath><clipPath id="clip37"><rect x="0" y="0" width="2308" height="1200"/></clipPath><clipPath id="clip38"><rect x="0" y="0" width="2308" height="1200"/></clipPath><clipPath id="clip39"><rect x="0" y="0" width="2308" height="1200"/></clipPath><clipPath id="clip40"><rect x="0" y="0" width="2308" height="1200"/></clipPath><clipPath id="clip41"><rect x="0" y="0" width="2308" height="1200"/></clipPath><clipPath id="clip42"><rect x="0" y="0" width="2308" height="1200"/></clipPath><clipPath id="clip43"><rect x="0" y="0" width="2308" height="1200"/></clipPath><clipPath id="clip44"><rect x="0" y="0" width="2308" height="1200"/></clipPath><clipPath id="clip45"><rect x="0" y="0" width="2308" height="1200"/></clipPath><clipPath id="clip46"><rect x="0" y="0" width="2308" height="1200"/></clipPath><clipPath id="clip47"><rect x="0" y="0" width="2308" height="1200"/></clipPath><clipPath id="clip48"><rect x="0" y="0" width="2308" height="1200"/></clipPath><clipPath id="clip49"><rect x="0" y="0" width="2308" height="1200"/></clipPath><clipPath id="clip50"><rect x="0" y="0" width="2308" height="1200"/></clipPath><clipPath id="clip51"><rect x="0" y="0" width="2308" height="1200"/></clipPath><clipPath id="clip52"><rect x="0" y="0" width="2308" height="1200"/></clipPath><clipPath id="clip53"><rect x="0" y="0" width="2308" height="1200"/></clipPath><clipPath id="clip54"><rect x="0" y="0" width="2308" height="1200"/></clipPath><clipPath id="clip55"><rect x="0" y="0" width="2308" height="1200"/></clipPath><clipPath id="clip56"><rect x="0" y="0" width="2308" height="1200"/></clipPath><clipPath id="clip57"><rect x="0" y="0" width="2308" height="1200"/></clipPath><clipPath id="clip58"><rect x="0" y="0" width="2308" height="1200"/></clipPath><clipPath id="clip59"><rect x="0" y="0" width="2308" height="1200"/></clipPath><clipPath id="clip60"><rect x="0" y="0" width="2308" height="1200"/></clipPath><clipPath id="clip61"><rect x="0" y="0" width="2308" height="1200"/></clipPath><clipPath id="clip62"><rect x="0" y="0" width="2308" height="1200"/></clipPath><clipPath id="clip63"><rect x="0" y="0" width="2308" height="1200"/></clipPath><clipPath id="clip64"><rect x="0" y="0" width="2308" height="1200"/></clipPath><clipPath id="clip65"><rect x="0" y="0" width="2308" height="1200"/></clipPath><clipPath id="clip66"><rect x="0" y="0" width="2308" height="1200"/></clipPath><clipPath id="clip67"><rect x="0" y="0" width="2308" height="1200"/></clipPath><clipPath id="clip68"><rect x="0" y="0" width="2308" height="1200"/></clipPath><clipPath id="clip69"><rect x="0" y="0" width="2308" height="1200"/></clipPath><clipPath id="clip70"><rect x="0" y="0" width="2308" height="1200"/></clipPath><clipPath id="clip71"><rect x="0" y="0" width="2308" height="1200"/></clipPath><clipPath id="clip72"><rect x="0" y="0" width="2308" height="1200"/></clipPath><clipPath id="clip73"><rect x="0" y="0" width="2308" height="1200"/></clipPath><clipPath id="clip74"><rect x="0" y="0" width="2308" height="1200"/></clipPath><clipPath id="clip75"><rect x="0" y="0" width="2308" height="1200"/></clipPath><clipPath id="clip76"><rect x="0" y="0" width="2308" height="1200"/></clipPath><clipPath id="clip77"><rect x="0" y="0" width="2308" height="1200"/></clipPath><clipPath id="clip78"><rect x="0" y="0" width="2308" height="1200"/></clipPath><clipPath id="clip79"><rect x="0" y="0" width="2308" height="1200"/></clipPath><clipPath id="clip80"><rect x="0" y="0" width="2308" height="1200"/></clipPath><clipPath id="clip81"><rect x="0" y="0" width="2308" height="1200"/></clipPath><clipPath id="clip82"><rect x="0" y="0" width="2308" height="1200"/></clipPath><clipPath id="clip83"><rect x="0" y="0" width="2308" height="1200"/></clipPath><clipPath id="clip84"><rect x="0" y="0" width="2308" height="1200"/></clipPath><clipPath id="clip85"><rect x="0" y="0" width="2308" height="1200"/></clipPath><clipPath id="clip86"><rect x="0" y="0" width="2308" height="1200"/></clipPath><clipPath id="clip87"><rect x="0" y="0" width="2308" height="1200"/></clipPath><clipPath id="clip88"><rect x="0" y="0" width="2308" height="1200"/></clipPath><clipPath id="clip89"><rect x="0" y="0" width="2308" height="1200"/></clipPath><clipPath id="clip90"><rect x="0" y="0" width="2308" height="1200"/></clipPath><clipPath id="clip91"><rect x="0" y="0" width="2308" height="1200"/></clipPath><clipPath id="clip92"><rect x="0" y="0" width="2308" height="1200"/></clipPath><clipPath id="clip93"><rect x="0" y="0" width="2308" height="1200"/></clipPath><clipPath id="clip94"><rect x="0" y="0" width="2308" height="1200"/></clipPath><clipPath id="clip95"><rect x="0" y="0" width="2308" height="1200"/></clipPath><clipPath id="clip96"><rect x="0" y="0" width="2308" height="1200"/></clipPath><clipPath id="clip97"><rect x="0" y="0" width="2308" height="1200"/></clipPath><clipPath id="clip98"><rect x="0" y="0" width="2308" height="1200"/></clipPath><clipPath id="clip99"><rect x="0" y="0" width="2308" height="1200"/></clipPath><clipPath id="clip100"><rect x="0" y="0" width="2308" height="1200"/></clipPath><clipPath id="clip101"><rect x="0" y="0" width="2308" height="1200"/></clipPath><clipPath id="clip102"><rect x="0" y="0" width="2308" height="1200"/></clipPath><clipPath id="clip103"><rect x="0" y="0" width="2308" height="1200"/></clipPath><clipPath id="clip104"><rect x="0" y="0" width="2308" height="1200"/></clipPath><clipPath id="clip105"><rect x="0" y="0" width="2308" height="1200"/></clipPath><clipPath id="clip106"><rect x="0" y="0" width="2308" height="1200"/></clipPath><clipPath id="clip107"><rect x="0" y="0" width="2308" height="1200"/></clipPath><clipPath id="clip108"><rect x="0" y="0" width="2308" height="1200"/></clipPath><clipPath id="clip109"><rect x="0" y="0" width="2308" height="1200"/></clipPath><clipPath id="clip110"><rect x="0" y="0" width="2308" height="1200"/></clipPath><clipPath id="clip111"><rect x="0" y="0" width="2308" height="1200"/></clipPath><clipPath id="clip112"><rect x="0" y="0" width="2308" height="1200"/></clipPath><clipPath id="clip113"><rect x="0" y="0" width="2308" height="1200"/></clipPath><clipPath id="clip114"><rect x="0" y="0" width="2308" height="1200"/></clipPath><clipPath id="clip115"><rect x="0" y="0" width="2308" height="1200"/></clipPath><clipPath id="clip116"><rect x="0" y="0" width="2308" height="1200"/></clipPath><clipPath id="clip117"><rect x="0" y="0" width="2308" height="1200"/></clipPath><clipPath id="clip118"><rect x="0" y="0" width="2308" height="1200"/></clipPath><clipPath id="clip119"><rect x="0" y="0" width="2308" height="1200"/></clipPath><clipPath id="clip120"><rect x="0" y="0" width="2308" height="1200"/></clipPath><clipPath id="clip121"><rect x="0" y="0" width="2308" height="1200"/></clipPath><clipPath id="clip122"><rect x="0" y="0" width="2308" height="1200"/></clipPath><clipPath id="clip123"><rect x="0" y="0" width="2308" height="1200"/></clipPath><clipPath id="clip124"><rect x="0" y="0" width="2308" height="1200"/></clipPath><clipPath id="clip125"><rect x="0" y="0" width="2308" height="1200"/></clipPath><clipPath id="clip126"><rect x="0" y="0" width="2308" height="1200"/></clipPath><clipPath id="clip127"><rect x="0" y="0" width="2308" height="1200"/></clipPath><clipPath id="clip128"><rect x="0" y="0" width="2308" height="1200"/></clipPath><clipPath id="clip129"><rect x="0" y="0" width="2308" height="1200"/></clipPath><clipPath id="clip130"><rect x="0" y="0" width="2308" height="1200"/></clipPath><clipPath id="clip131"><rect x="0" y="0" width="2308" height="1200"/></clipPath><clipPath id="clip132"><rect x="0" y="0" width="2308" height="1200"/></clipPath><clipPath id="clip133"><rect x="0" y="0" width="2308" height="1200"/></clipPath><clipPath id="clip134"><rect x="0" y="0" width="2308" height="1200"/></clipPath><clipPath id="clip135"><rect x="0" y="0" width="2308" height="1200"/></clipPath><clipPath id="clip136"><rect x="0" y="0" width="2308" height="1200"/></clipPath><clipPath id="clip137"><rect x="0" y="0" width="2308" height="1200"/></clipPath><clipPath id="clip138"><rect x="0" y="0" width="2308" height="1200"/></clipPath><clipPath id="clip139"><rect x="0" y="0" width="2308" height="1200"/></clipPath><clipPath id="clip140"><rect x="0" y="0" width="2308" height="1200"/></clipPath><clipPath id="clip141"><rect x="0" y="0" width="2308" height="1200"/></clipPath><clipPath id="clip142"><rect x="0" y="0" width="2308" height="1200"/></clipPath><clipPath id="clip143"><rect x="0" y="0" width="2308" height="1200"/></clipPath><clipPath id="clip144"><rect x="0" y="0" width="2308" height="1200"/></clipPath><clipPath id="clip145"><rect x="0" y="0" width="2308" height="1200"/></clipPath><clipPath id="clip146"><rect x="0" y="0" width="2308" height="1200"/></clipPath><clipPath id="clip147"><rect x="0" y="0" width="2308" height="1200"/></clipPath><clipPath id="clip148"><rect x="0" y="0" width="2308" height="1200"/></clipPath><clipPath id="clip149"><rect x="0" y="0" width="2308" height="1200"/></clipPath><clipPath id="clip150"><rect x="0" y="0" width="2308" height="1200"/></clipPath><clipPath id="clip151"><rect x="0" y="0" width="2308" height="1200"/></clipPath><clipPath id="clip152"><rect x="0" y="0" width="2308" height="1200"/></clipPath><clipPath id="clip153"><rect x="0" y="0" width="2308" height="1200"/></clipPath><clipPath id="clip154"><rect x="0" y="0" width="2308" height="1200"/></clipPath><clipPath id="clip155"><rect x="0" y="0" width="2308" height="1200"/></clipPath><clipPath id="clip156"><rect x="0" y="0" width="2308" height="1200"/></clipPath><clipPath id="clip157"><rect x="0" y="0" width="2308" height="1200"/></clipPath><clipPath id="clip158"><rect x="0" y="0" width="2308" height="1200"/></clipPath><clipPath id="clip159"><rect x="0" y="0" width="2308" height="1200"/></clipPath><clipPath id="clip160"><rect x="0" y="0" width="2308" height="1200"/></clipPath><clipPath id="clip161"><rect x="0" y="0" width="2308" height="1200"/></clipPath><clipPath id="clip162"><rect x="0" y="0" width="2308" height="1200"/></clipPath><clipPath id="clip163"><rect x="0" y="0" width="2308" height="1200"/></clipPath><clipPath id="clip164"><rect x="0" y="0" width="2308" height="1200"/></clipPath><clipPath id="clip165"><rect x="0" y="0" width="2308" height="1200"/></clipPath><clipPath id="clip166"><rect x="0" y="0" width="2308" height="1200"/></clipPath><clipPath id="clip167"><rect x="0" y="0" width="2308" height="1200"/></clipPath><clipPath id="clip168"><rect x="0" y="0" width="2308" height="1200"/></clipPath><clipPath id="clip169"><rect x="0" y="0" width="2308" height="1200"/></clipPath><clipPath id="clip170"><rect x="0" y="0" width="2308" height="1200"/></clipPath><clipPath id="clip171"><rect x="0" y="0" width="2308" height="1200"/></clipPath><clipPath id="clip172"><rect x="0" y="0" width="2308" height="1200"/></clipPath><clipPath id="clip173"><rect x="0" y="0" width="2308" height="1200"/></clipPath><clipPath id="clip174"><rect x="0" y="0" width="2308" height="1200"/></clipPath><clipPath id="clip175"><rect x="0" y="0" width="2308" height="1200"/></clipPath><clipPath id="clip176"><rect x="0" y="0" width="2308" height="1200"/></clipPath><clipPath id="clip177"><rect x="0" y="0" width="2308" height="1200"/></clipPath><clipPath id="clip178"><rect x="0" y="0" width="2308" height="1200"/></clipPath><clipPath id="clip179"><rect x="0" y="0" width="2308" height="1200"/></clipPath><clipPath id="clip180"><rect x="0" y="0" width="2308" height="1200"/></clipPath><clipPath id="clip181"><rect x="0" y="0" width="2308" height="1200"/></clipPath><clipPath id="clip182"><rect x="0" y="0" width="2308" height="1200"/></clipPath><clipPath id="clip183"><rect x="0" y="0" width="2308" height="1200"/></clipPath><clipPath id="clip184"><rect x="0" y="0" width="2308" height="1200"/></clipPath><clipPath id="clip185"><rect x="0" y="0" width="2308" height="1200"/></clipPath><clipPath id="clip186"><rect x="0" y="0" width="2308" height="1200"/></clipPath><clipPath id="clip187"><rect x="0" y="0" width="2308" height="1200"/></clipPath><clipPath id="clip188"><rect x="0" y="0" width="2308" height="1200"/></clipPath><clipPath id="clip189"><rect x="0" y="0" width="2308" height="1200"/></clipPath><clipPath id="clip190"><rect x="0" y="0" width="2308" height="1200"/></clipPath><clipPath id="clip191"><rect x="0" y="0" width="2308" height="1200"/></clipPath><clipPath id="clip192"><rect x="0" y="0" width="2308" height="1200"/></clipPath><clipPath id="clip193"><rect x="0" y="0" width="2308" height="1200"/></clipPath></defs><g clip-path="url(#clip0)"><rect x="0" y="0" width="2309" height="1199.91" fill="#FFFFFF"/><g clip-path="url(#clip1)"><path d="M89.5 1098.38 2294.5 1098.38M89.5 1077.39 2294.5 1077.39M89.5 1062.39 2294.5 1062.39M89.5 1050.39 2294.5 1050.39M89.5 1041.39 2294.5 1041.39M89.5 1033.39 2294.5 1033.39M89.5 1026.39 2294.5 1026.39M89.5 1019.39 2294.5 1019.39M89.5 978.397 2294.5 978.397M89.5 956.4 2294.5 956.4M89.5 941.401 2294.5 941.401M89.5 930.402 2294.5 930.402M89.5 920.403 2294.5 920.403M89.5 912.404 2294.5 912.404M89.5 905.405 2294.5 905.405M89.5 899.406 2294.5 899.406M89.5 857.41 2294.5 857.41M89.5 836.412 2294.5 836.412M89.5 821.414 2294.5 821.414M89.5 809.415 2294.5 809.415M89.5 799.416 2294.5 799.416M89.5 791.417 2294.5 791.417M89.5 784.418 2294.5 784.418M89.5 778.418 2294.5 778.418M89.5 736.423 2294.5 736.423M89.5 715.425 2294.5 715.425M89.5 700.426 2294.5 700.426M89.5 688.428 2294.5 688.428M89.5 679.429 2294.5 679.429M89.5 671.43 2294.5 671.43M89.5 664.43 2294.5 664.43M89.5 658.431 2294.5 658.431M89.5 616.435 2294.5 616.435M89.5 595.438 2294.5 595.438M89.5 579.439 2294.5 579.439M89.5 568.44 2294.5 568.44M89.5 558.441 2294.5 558.441M89.5 550.442 2294.5 550.442M89.5 543.443 2294.5 543.443M89.5 537.444 2294.5 537.444M89.5 495.448 2294.5 495.448M89.5 474.45 2294.5 474.45M89.5 459.452 2294.5 459.452M89.5 447.453 2294.5 447.453M89.5 438.454 2294.5 438.454M89.5 430.455 2294.5 430.455M89.5 423.456 2294.5 423.456M89.5 416.456 2294.5 416.456M89.5 375.461 2294.5 375.461M89.5 353.463 2294.5 353.463M89.5 338.464 2294.5 338.464M89.5 327.466 2294.5 327.466M89.5 317.467 2294.5 317.467M89.5 309.467 2294.5 309.467M89.5 302.468 2294.5 302.468M89.5 296.469 2294.5 296.469M89.5 254.473 2294.5 254.473M89.5 233.475 2294.5 233.475M89.5 218.477 2294.5 218.477M89.5 206.478 2294.5 206.478M89.5 196.479 2294.5 196.479M89.5 188.48 2294.5 188.48M89.5 181.481 2294.5 181.481M89.5 175.482 2294.5 175.482M89.5 133.486 2294.5 133.486M89.5 112.488 2294.5 112.488M89.5 97.4898 2294.5 97.4898M89.5 85.491 2294.5 85.491M89.5 76.492 2294.5 76.492M89.5 68.4928 2294.5 68.4928M89.5 61.4935 2294.5 61.4935M89.5 54.4943 2294.5 54.4943" stroke="#F2F2F2" stroke-width="1.00007" stroke-linejoin="round" stroke-miterlimit="10" fill="none"/></g><g clip-path="url(#clip2)"><path d="M89.5 1014.39 2294.5 1014.39M89.5 893.406 2294.5 893.406M89.5 773.419 2294.5 773.419M89.5 652.432 2294.5 652.432M89.5 531.444 2294.5 531.444M89.5 411.457 2294.5 411.457M89.5 290.469 2294.5 290.469M89.5 170.482 2294.5 170.482M89.5 49.4964 2294.5 49.4964" stroke="#D9D9D9" stroke-width="1.00007" stroke-linejoin="round" stroke-miterlimit="10" fill="none"/></g><g clip-path="url(#clip3)"><path d="M97.4968 49.4964 97.4968 1135.42M112.496 49.4964 112.496 1135.42M127.496 49.4964 127.496 1135.42M143.495 49.4964 143.495 1135.42M158.495 49.4964 158.495 1135.42M173.494 49.4964 173.494 1135.42M189.494 49.4964 189.494 1135.42M204.493 49.4964 204.493 1135.42M219.493 49.4964 219.493 1135.42M235.492 49.4964 235.492 1135.42M250.492 49.4964 250.492 1135.42M265.491 49.4964 265.491 1135.42M281.491 49.4964 281.491 1135.42M296.49 49.4964 296.49 1135.42M311.49 49.4964 311.49 1135.42M327.489 49.4964 327.489 1135.42M342.489 49.4964 342.489 1135.42M357.488 49.4964 357.488 1135.42M372.488 49.4964 372.488 1135.42M388.487 49.4964 388.487 1135.42M403.487 49.4964 403.487 1135.42M418.486 49.4964 418.486 1135.42M434.486 49.4964 434.486 1135.42M449.485 49.4964 449.485 1135.42M464.485 49.4964 464.485 1135.42M480.484 49.4964 480.484 1135.42M495.484 49.4964 495.484 1135.42M510.483 49.4964 510.483 1135.42M526.483 49.4964 526.483 1135.42M541.482 49.4964 541.482 1135.42M556.482 49.4964 556.482 1135.42M571.481 49.4964 571.481 1135.42M587.481 49.4964 587.481 1135.42M602.48 49.4964 602.48 1135.42M617.48 49.4964 617.48 1135.42M633.479 49.4964 633.479 1135.42M648.479 49.4964 648.479 1135.42M663.478 49.4964 663.478 1135.42M679.478 49.4964 679.478 1135.42M694.477 49.4964 694.477 1135.42M709.477 49.4964 709.477 1135.42M725.476 49.4964 725.476 1135.42M740.476 49.4964 740.476 1135.42M755.475 49.4964 755.475 1135.42M770.475 49.4964 770.475 1135.42M786.474 49.4964 786.474 1135.42M801.474 49.4964 801.474 1135.42M816.473 49.4964 816.473 1135.42M832.473 49.4964 832.473 1135.42M847.472 49.4964 847.472 1135.42M862.472 49.4964 862.472 1135.42M878.471 49.4964 878.471 1135.42M893.471 49.4964 893.471 1135.42M908.47 49.4964 908.47 1135.42M924.47 49.4964 924.47 1135.42M939.469 49.4964 939.469 1135.42M954.469 49.4964 954.469 1135.42M970.468 49.4964 970.468 1135.42M985.468 49.4964 985.468 1135.42M1000.47 49.4964 1000.47 1135.42M1015.47 49.4964 1015.47 1135.42M1031.47 49.4964 1031.47 1135.42M1046.47 49.4964 1046.47 1135.42M1061.47 49.4964 1061.47 1135.42M1077.46 49.4964 1077.46 1135.42M1092.46 49.4964 1092.46 1135.42M1107.46 49.4964 1107.46 1135.42M1123.46 49.4964 1123.46 1135.42M1138.46 49.4964 1138.46 1135.42M1153.46 49.4964 1153.46 1135.42M1169.46 49.4964 1169.46 1135.42M1184.46 49.4964 1184.46 1135.42M1199.46 49.4964 1199.46 1135.42M1214.46 49.4964 1214.46 1135.42M1230.46 49.4964 1230.46 1135.42M1245.46 49.4964 1245.46 1135.42M1260.46 49.4964 1260.46 1135.42M1276.46 49.4964 1276.46 1135.42M1291.46 49.4964 1291.46 1135.42M1306.46 49.4964 1306.46 1135.42M1322.46 49.4964 1322.46 1135.42M1337.46 49.4964 1337.46 1135.42M1352.46 49.4964 1352.46 1135.42M1368.46 49.4964 1368.46 1135.42M1383.45 49.4964 1383.45 1135.42M1398.45 49.4964 1398.45 1135.42M1413.45 49.4964 1413.45 1135.42M1429.45 49.4964 1429.45 1135.42M1444.45 49.4964 1444.45 1135.42M1459.45 49.4964 1459.45 1135.42M1475.45 49.4964 1475.45 1135.42M1490.45 49.4964 1490.45 1135.42M1505.45 49.4964 1505.45 1135.42M1521.45 49.4964 1521.45 1135.42M1536.45 49.4964 1536.45 1135.42M1551.45 49.4964 1551.45 1135.42M1567.45 49.4964 1567.45 1135.42M1582.45 49.4964 1582.45 1135.42M1597.45 49.4964 1597.45 1135.42M1613.45 49.4964 1613.45 1135.42M1628.45 49.4964 1628.45 1135.42M1643.45 49.4964 1643.45 1135.42M1658.45 49.4964 1658.45 1135.42M1674.45 49.4964 1674.45 1135.42M1689.44 49.4964 1689.44 1135.42M1704.44 49.4964 1704.44 1135.42M1720.44 49.4964 1720.44 1135.42M1735.44 49.4964 1735.44 1135.42M1750.44 49.4964 1750.44 1135.42M1766.44 49.4964 1766.44 1135.42M1781.44 49.4964 1781.44 1135.42M1796.44 49.4964 1796.44 1135.42M1812.44 49.4964 1812.44 1135.42M1827.44 49.4964 1827.44 1135.42M1842.44 49.4964 1842.44 1135.42M1857.44 49.4964 1857.44 1135.42M1873.44 49.4964 1873.44 1135.42M1888.44 49.4964 1888.44 1135.42M1903.44 49.4964 1903.44 1135.42M1919.44 49.4964 1919.44 1135.42M1934.44 49.4964 1934.44 1135.42M1949.44 49.4964 1949.44 1135.42M1965.44 49.4964 1965.44 1135.42M1980.44 49.4964 1980.44 1135.42M1995.43 49.4964 1995.43 1135.42M2011.43 49.4964 2011.43 1135.42M2026.43 49.4964 2026.43 1135.42M2041.43 49.4964 2041.43 1135.42M2056.43 49.4964 2056.43 1135.42M2072.43 49.4964 2072.43 1135.42M2087.43 49.4964 2087.43 1135.42M2102.43 49.4964 2102.43 1135.42M2118.43 49.4964 2118.43 1135.42M2133.43 49.4964 2133.43 1135.42M2148.43 49.4964 2148.43 1135.42M2164.43 49.4964 2164.43 1135.42M2179.43 49.4964 2179.43 1135.42M2194.43 49.4964 2194.43 1135.42M2210.43 49.4964 2210.43 1135.42M2225.43 49.4964 2225.43 1135.42M2240.43 49.4964 2240.43 1135.42M2256.43 49.4964 2256.43 1135.42M2271.43 49.4964 2271.43 1135.42M2286.43 49.4964 2286.43 1135.42" stroke="#F2F2F2" stroke-width="1.00007" stroke-linejoin="round" stroke-miterlimit="10" fill="none"/></g><g clip-path="url(#clip4)"><path d="M89.5 49.4964 89.5 1135.42M105.497 49.4964 105.497 1135.42M120.496 49.4964 120.496 1135.42M135.496 49.4964 135.496 1135.42M150.495 49.4964 150.495 1135.42M166.495 49.4964 166.495 1135.42M181.494 49.4964 181.494 1135.42M196.494 49.4964 196.494 1135.42M212.493 49.4964 212.493 1135.42M227.493 49.4964 227.493 1135.42M242.492 49.4964 242.492 1135.42M258.492 49.4964 258.492 1135.42M273.491 49.4964 273.491 1135.42M288.491 49.4964 288.491 1135.42M304.49 49.4964 304.49 1135.42M319.49 49.4964 319.49 1135.42M334.489 49.4964 334.489 1135.42M349.489 49.4964 349.489 1135.42M365.488 49.4964 365.488 1135.42M380.488 49.4964 380.488 1135.42M395.487 49.4964 395.487 1135.42M411.486 49.4964 411.486 1135.42M426.486 49.4964 426.486 1135.42M441.486 49.4964 441.486 1135.42M457.485 49.4964 457.485 1135.42M472.484 49.4964 472.484 1135.42M487.484 49.4964 487.484 1135.42M503.483 49.4964 503.483 1135.42M518.483 49.4964 518.483 1135.42M533.482 49.4964 533.482 1135.42M549.482 49.4964 549.482 1135.42M564.481 49.4964 564.481 1135.42M579.481 49.4964 579.481 1135.42M594.48 49.4964 594.48 1135.42M610.48 49.4964 610.48 1135.42M625.479 49.4964 625.479 1135.42M640.479 49.4964 640.479 1135.42M656.478 49.4964 656.478 1135.42M671.478 49.4964 671.478 1135.42M686.477 49.4964 686.477 1135.42M702.477 49.4964 702.477 1135.42M717.476 49.4964 717.476 1135.42M732.476 49.4964 732.476 1135.42M748.475 49.4964 748.475 1135.42M763.475 49.4964 763.475 1135.42M778.474 49.4964 778.474 1135.42M793.474 49.4964 793.474 1135.42M809.473 49.4964 809.473 1135.42M824.473 49.4964 824.473 1135.42M839.472 49.4964 839.472 1135.42M855.472 49.4964 855.472 1135.42M870.471 49.4964 870.471 1135.42M885.471 49.4964 885.471 1135.42M901.47 49.4964 901.47 1135.42M916.47 49.4964 916.47 1135.42M931.469 49.4964 931.469 1135.42M947.469 49.4964 947.469 1135.42M962.468 49.4964 962.468 1135.42M977.468 49.4964 977.468 1135.42M992.467 49.4964 992.467 1135.42M1008.47 49.4964 1008.47 1135.42M1023.47 49.4964 1023.47 1135.42M1038.47 49.4964 1038.47 1135.42M1054.47 49.4964 1054.47 1135.42M1069.46 49.4964 1069.46 1135.42M1084.46 49.4964 1084.46 1135.42M1100.46 49.4964 1100.46 1135.42M1115.46 49.4964 1115.46 1135.42M1130.46 49.4964 1130.46 1135.42M1146.46 49.4964 1146.46 1135.42M1161.46 49.4964 1161.46 1135.42M1176.46 49.4964 1176.46 1135.42M1191.46 49.4964 1191.46 1135.42M1207.46 49.4964 1207.46 1135.42M1222.46 49.4964 1222.46 1135.42M1237.46 49.4964 1237.46 1135.42M1253.46 49.4964 1253.46 1135.42M1268.46 49.4964 1268.46 1135.42M1283.46 49.4964 1283.46 1135.42M1299.46 49.4964 1299.46 1135.42M1314.46 49.4964 1314.46 1135.42M1329.46 49.4964 1329.46 1135.42M1345.46 49.4964 1345.46 1135.42M1360.46 49.4964 1360.46 1135.42M1375.45 49.4964 1375.45 1135.42M1391.45 49.4964 1391.45 1135.42M1406.45 49.4964 1406.45 1135.42M1421.45 49.4964 1421.45 1135.42M1436.45 49.4964 1436.45 1135.42M1452.45 49.4964 1452.45 1135.42M1467.45 49.4964 1467.45 1135.42M1482.45 49.4964 1482.45 1135.42M1498.45 49.4964 1498.45 1135.42M1513.45 49.4964 1513.45 1135.42M1528.45 49.4964 1528.45 1135.42M1544.45 49.4964 1544.45 1135.42M1559.45 49.4964 1559.45 1135.42M1574.45 49.4964 1574.45 1135.42M1590.45 49.4964 1590.45 1135.42M1605.45 49.4964 1605.45 1135.42M1620.45 49.4964 1620.45 1135.42M1635.45 49.4964 1635.45 1135.42M1651.45 49.4964 1651.45 1135.42M1666.45 49.4964 1666.45 1135.42M1681.44 49.4964 1681.44 1135.42M1697.44 49.4964 1697.44 1135.42M1712.44 49.4964 1712.44 1135.42M1727.44 49.4964 1727.44 1135.42M1743.44 49.4964 1743.44 1135.42M1758.44 49.4964 1758.44 1135.42M1773.44 49.4964 1773.44 1135.42M1789.44 49.4964 1789.44 1135.42M1804.44 49.4964 1804.44 1135.42M1819.44 49.4964 1819.44 1135.42M1834.44 49.4964 1834.44 1135.42M1850.44 49.4964 1850.44 1135.42M1865.44 49.4964 1865.44 1135.42M1880.44 49.4964 1880.44 1135.42M1896.44 49.4964 1896.44 1135.42M1911.44 49.4964 1911.44 1135.42M1926.44 49.4964 1926.44 1135.42M1942.44 49.4964 1942.44 1135.42M1957.44 49.4964 1957.44 1135.42M1972.44 49.4964 1972.44 1135.42M1988.43 49.4964 1988.43 1135.42M2003.43 49.4964 2003.43 1135.42M2018.43 49.4964 2018.43 1135.42M2034.43 49.4964 2034.43 1135.42M2049.43 49.4964 2049.43 1135.42M2064.43 49.4964 2064.43 1135.42M2079.43 49.4964 2079.43 1135.42M2095.43 49.4964 2095.43 1135.42M2110.43 49.4964 2110.43 1135.42M2125.43 49.4964 2125.43 1135.42M2141.43 49.4964 2141.43 1135.42M2156.43 49.4964 2156.43 1135.42M2171.43 49.4964 2171.43 1135.42M2187.43 49.4964 2187.43 1135.42M2202.43 49.4964 2202.43 1135.42M2217.43 49.4964 2217.43 1135.42M2233.43 49.4964 2233.43 1135.42M2248.43 49.4964 2248.43 1135.42M2263.43 49.4964 2263.43 1135.42M2278.43 49.4964 2278.43 1135.42M2294.5 49.4964 2294.5 1135.42" stroke="#D9D9D9" stroke-width="1.00007" stroke-linejoin="round" stroke-miterlimit="10" fill="none"/></g><g clip-path="url(#clip5)"><path d="M89.5 1135.42 2294.5 1135.42" stroke="#D9D9D9" stroke-width="1.00007" stroke-linejoin="round" stroke-miterlimit="10" fill="none" fill-rule="evenodd"/></g><g clip-path="url(#clip6)"><path d="M97.5 1617.38 112.496 239.475 127.496 205.478 143.495 178.481 158.495 158.483 173.494 145.485 189.494 145.485 204.493 146.485 219.493 146.485 235.492 146.485 250.492 146.485 265.491 147.485 281.491 147.485 296.49 147.485 311.49 147.485 327.489 147.485 342.489 148.484 357.488 148.484 372.488 150.484 388.487 151.484 403.487 153.484 418.486 157.483 434.486 163.483 449.485 173.482 464.485 187.48 480.484 189.48 495.484 192.48 510.483 194.48 526.483 194.48 541.482 194.48 556.482 194.48 571.481 194.48 587.481 194.48 602.48 194.48 617.48 192.48 633.479 191.48 648.479 189.48 663.478 188.48 679.478 187.48 694.477 187.48 709.477 186.48 725.476 186.48 740.476 186.48 755.475 186.48 770.475 186.48 786.474 186.48 801.474 186.48 816.473 186.48 832.473 186.48 847.472 186.48 862.472 186.48 878.471 186.48 893.471 186.48 908.47 186.48 924.47 186.48 939.469 186.48 954.469 186.48 970.468 186.48 985.468 187.48 1000.47 187.48 1015.47 188.48 1031.47 188.48 1046.47 188.48 1061.47 188.48 1077.46 187.48 1092.46 188.48 1107.46 188.48 1123.46 188.48 1138.46 188.48 1153.46 188.48 1169.46 187.48 1184.46 187.48 1199.46 187.48 1214.46 187.48 1230.46 187.48 1245.46 187.48 1260.46 187.48 1276.46 187.48 1291.46 186.48 1306.46 186.48 1322.46 186.48 1337.46 186.48 1352.46 186.48 1368.46 186.48 1383.45 186.48 1398.45 186.48 1413.45 185.481 1429.45 185.481 1444.45 186.48 1459.45 187.48 1475.45 187.48 1490.45 188.48 1505.45 188.48 1521.45 188.48 1536.45 187.48 1551.45 186.48 1567.45 187.48 1582.45 187.48 1597.45 186.48 1613.45 186.48 1628.45 186.48 1643.45 186.48 1658.45 185.481 1674.45 185.481 1689.44 184.481 1704.44 178.481 1720.44 173.482 1735.44 167.482 1750.44 161.483 1766.44 156.484 1781.44 152.484 1796.44 150.484 1812.44 146.485 1827.44 145.485 1842.44 144.485 1857.44 144.485 1873.44 143.485 1888.44 143.485 1903.44 142.485 1919.44 142.485 1934.44 142.485 1949.44 138.49 1965.44 138.485 1980.44 150.484 1995.43 165.483 2011.43 185.481 2026.43 221.477 2041.43 1617.38 2056.43 1617.38 2072.43 1617.38 2087.43 1617.38 2102.43 1617.38 2118.43 1617.38 2133.43 1617.38 2148.43 1617.38 2164.43 1617.38 2179.43 1617.38 2194.43 1617.38 2210.43 1617.38 2225.43 1617.38 2240.43 1617.38 2256.43 1617.38 2271.43 1617.38 2286.5 1617.38" stroke="#AD5B5B" stroke-width="3.00022" stroke-linecap="round" stroke-linejoin="round" stroke-miterlimit="10" fill="none"/></g><g clip-path="url(#clip7)"><path d="M97.5 1617.38 112.496 313.467 127.496 282.47 143.495 271.471 158.495 269.472 173.494 260.473 189.494 259.473 204.493 258.473 219.493 257.473 235.492 257.473 250.492 257.473 265.491 257.473 281.491 257.473 296.49 256.473 311.49 256.473 327.489 256.473 342.489 256.481 357.488 257.473 372.488 258.473 388.487 260.473 403.487 262.472 418.486 263.472 434.486 263.472 449.485 264.472 464.485 269.472 480.484 276.471 495.484 281.47 510.483 286.47 526.483 290.47 541.482 292.469 556.482 293.469 571.481 293.469 587.481 293.469 602.48 294.469 617.48 293.469 633.479 292.469 648.479 291.469 663.478 291.469 679.478 291.469 694.477 291.469 709.477 291.469 725.476 293.469 740.476 293.469 755.475 293.469 770.475 293.469 786.474 293.469 801.474 292.469 816.473 292.469 832.473 293.469 847.472 294.469 862.472 294.469 878.471 295.469 893.471 294.469 908.47 294.469 924.47 294.469 939.469 294.469 954.469 294.469 970.468 295.469 985.468 296.469 1000.47 296.469 1015.47 295.469 1031.47 294.469 1046.47 293.469 1061.47 292.469 1077.46 292.469 1092.46 293.469 1107.46 294.469 1123.46 293.469 1138.46 292.469 1153.46 292.469 1169.46 292.469 1184.46 293.469 1199.46 293.469 1214.46 295.469 1230.46 296.469 1245.46 295.469 1260.46 295.469 1276.46 295.469 1291.46 295.469 1306.46 296.469 1322.46 296.469 1337.46 298.469 1352.46 298.469 1368.46 298.469 1383.45 297.469 1398.45 297.469 1413.45 298.469 1429.45 298.469 1444.45 299.469 1459.45 300.468 1475.45 299.469 1490.45 298.469 1505.45 296.469 1521.45 295.469 1536.45 295.469 1551.45 296.469 1567.45 296.469 1582.45 299.469 1597.45 301.468 1613.45 302.468 1628.45 302.468 1643.45 302.468 1658.45 302.468 1674.45 303.468 1689.44 304.468 1704.44 295.469 1720.44 284.47 1735.44 275.471 1750.44 268.472 1766.44 265.472 1781.44 265.472 1796.44 267.472 1812.44 269.472 1827.44 271.471 1842.44 273.471 1857.44 274.471 1873.44 275.471 1888.44 275.471 1903.44 276.471 1919.44 275.471 1934.44 275.471 1949.44 272.471 1965.44 272.471 1980.44 285.47 1995.43 304.468 2011.43 333.465 2026.43 384.46 2041.43 1617.38 2056.43 1617.38 2072.43 1617.38 2087.43 1617.38 2102.43 1617.38 2118.43 1617.38 2133.43 1617.38 2148.43 1617.38 2164.43 1617.38 2179.43 1617.38 2194.43 1617.38 2210.43 1617.38 2225.43 1617.38 2240.43 1617.38 2256.43 1617.38 2271.43 1617.38 2286.5 1617.38" stroke="#00B0F0" stroke-width="3.00022" stroke-linecap="round" stroke-linejoin="round" stroke-miterlimit="10" fill="none"/></g><g clip-path="url(#clip8)"><path d="M97.5 1617.38 112.496 1617.38 127.496 342.464 143.495 318.467 158.495 300.468 173.494 286.47 189.494 284.47 204.493 282.47 219.493 280.471 235.492 278.471 250.492 276.471 265.491 274.471 281.491 273.471 296.49 272.471 311.49 271.471 327.489 270.472 342.489 269.472 357.488 268.472 372.488 267.472 388.487 265.472 403.487 256.473 418.486 236.475 434.486 209.478 449.485 186.48 464.485 169.482 480.484 168.482 495.484 167.482 510.483 167.482 526.483 167.482 541.482 166.483 556.482 166.483 571.481 166.488 587.481 577.439 602.48 503.447 617.48 502.447 633.479 521.445 648.479 521.445 663.478 522.445 679.478 526.445 694.477 529.444 709.477 563.441 725.476 529.444 740.476 527.445 755.475 527.445 770.475 526.445 786.474 526.445 801.474 529.444 816.473 534.444 832.473 569.44 847.472 539.443 862.472 538.443 878.471 534.444 893.471 532.444 908.47 532.444 924.47 534.444 939.469 537.444 954.469 563.441 970.468 513.446 985.468 510.446 1000.47 522.445 1015.47 518.446 1031.47 515.446 1046.47 513.446 1061.47 511.446 1077.46 541.443 1092.46 513.446 1107.46 510.446 1123.46 509.447 1138.46 510.446 1153.46 516.446 1169.46 523.445 1184.46 529.444 1199.46 563.441 1214.46 526.445 1230.46 525.445 1245.46 525.445 1260.46 528.444 1276.46 533.444 1291.46 539.443 1306.46 543.443 1322.46 565.441 1337.46 539.443 1352.46 538.443 1368.46 539.443 1383.45 540.443 1398.45 543.443 1413.45 546.443 1429.45 551.442 1444.45 554.442 1459.45 515.446 1475.45 511.446 1490.45 509.447 1505.45 508.447 1521.45 511.446 1536.45 517.446 1551.45 521.445 1567.45 567.44 1582.45 540.443 1597.45 535.444 1613.45 535.444 1628.45 537.444 1643.45 541.443 1658.45 547.443 1674.45 552.442 1689.44 579.439 1704.44 577.439 1720.44 573.44 1735.44 567.44 1750.44 562.441 1766.44 556.442 1781.44 550.442 1796.44 546.443 1812.44 549.442 1827.44 546.443 1842.44 546.443 1857.44 545.443 1873.44 545.443 1888.44 545.443 1903.44 661.431 1919.44 665.43 1934.44 747.422 1949.44 732.423 1965.44 1617.38 1980.44 1617.38 1995.43 1617.38 2011.43 1617.38 2026.43 1617.38 2041.43 1617.38 2056.43 1617.38 2072.43 1617.38 2087.43 1617.38 2102.43 1617.38 2118.43 1617.38 2133.43 1617.38 2148.43 1617.38 2164.43 1617.38 2179.43 1617.38 2194.43 1617.38 2210.43 1617.38 2225.43 1617.38 2240.43 1617.38 2256.43 1617.38 2271.43 1617.38 2286.5 1617.38" stroke="#ED7D31" stroke-width="3.00022" stroke-linecap="round" stroke-linejoin="round" stroke-miterlimit="10" fill="none"/></g><g clip-path="url(#clip9)"><path d="M97.5 1617.38 112.496 586.438 127.496 457.452 143.495 376.46 158.495 331.465 173.494 312.467 189.494 312.467 204.493 313.467 219.493 314.467 235.492 315.467 250.492 316.467 265.491 316.467 281.491 317.467 296.49 318.467 311.49 318.467 327.489 318.467 342.489 317.467 357.488 313.467 372.488 305.468 388.487 297.469 403.487 291.479 418.486 293.469 434.486 303.468 449.485 321.466 464.485 344.464 480.484 346.464 495.484 348.463 510.483 351.463 526.483 354.463 541.482 361.462 556.482 370.461 571.481 378.46 587.481 376.46 602.48 372.461 617.48 369.461 633.479 370.461 648.479 372.461 663.478 374.461 679.478 378.46 694.477 380.46 709.477 380.46 725.476 376.46 740.476 373.461 755.475 372.461 770.475 373.461 786.474 376.46 801.474 379.46 816.473 380.46 832.473 380.46 847.472 377.46 862.472 375.461 878.471 375.461 893.471 376.46 908.47 379.46 924.47 381.46 939.469 381.46 954.469 381.46 970.468 379.46 985.468 378.46 1000.47 376.46 1015.47 376.46 1031.47 378.46 1046.47 380.46 1061.47 382.46 1077.46 380.46 1092.46 374.461 1107.46 372.461 1123.46 373.461 1138.46 376.46 1153.46 380.46 1169.46 384.46 1184.46 386.459 1199.46 383.46 1214.46 379.46 1230.46 377.46 1245.46 378.46 1260.46 380.46 1276.46 383.46 1291.46 384.46 1306.46 385.46 1322.46 384.46 1337.46 382.46 1352.46 381.46 1368.46 382.46 1383.45 383.46 1398.45 385.46 1413.45 385.46 1429.45 382.46 1444.45 377.46 1459.45 372.461 1475.45 371.461 1490.45 371.461 1505.45 374.461 1521.45 378.46 1536.45 383.46 1551.45 387.459 1567.45 388.459 1582.45 383.46 1597.45 380.46 1613.45 380.46 1628.45 382.46 1643.45 385.46 1658.45 389.459 1674.45 393.459 1689.44 395.458 1704.44 394.459 1720.44 392.459 1735.44 391.459 1750.44 387.459 1766.44 381.46 1781.44 375.461 1796.44 369.461 1812.44 365.462 1827.44 361.462 1842.44 359.462 1857.44 359.462 1873.44 358.462 1888.44 358.462 1903.44 359.462 1919.44 359.462 1934.44 361.462 1949.44 358.462 1965.44 359.462 1980.44 372.461 1995.43 390.459 2011.43 417.456 2026.43 464.451 2041.43 1617.38 2056.43 1617.38 2072.43 1617.38 2087.43 1617.38 2102.43 1617.38 2118.43 1617.38 2133.43 1617.38 2148.43 1617.38 2164.43 1617.38 2179.43 1617.38 2194.43 1617.38 2210.43 1617.38 2225.43 1617.38 2240.43 1617.38 2256.43 1617.38 2271.43 1617.38 2286.5 1617.38" stroke="#3B3838" stroke-width="3.00022" stroke-linecap="round" stroke-linejoin="round" stroke-miterlimit="10" fill="none"/></g><g clip-path="url(#clip10)"><path d="M97.5 1617.38 112.496 347.464 127.496 317.477 143.495 321.466 158.495 370.461 173.494 441.454 189.494 459.452 204.493 459.452 219.493 459.452 235.492 459.452 250.492 459.452 265.491 459.452 281.491 460.452 296.49 460.452 311.49 459.452 327.489 453.452 342.489 430.455 357.488 395.458 372.488 361.462 388.487 335.465 403.487 322.466 418.486 322.466 434.486 338.464 449.485 370.461 464.485 421.456 480.484 407.457 495.484 391.459 510.483 376.46 526.483 366.462 541.482 360.462 556.482 362.462 571.481 364.462 587.481 365.462 602.48 372.461 617.48 379.46 633.479 375.461 648.479 374.461 663.478 376.46 679.478 381.46 694.477 385.46 709.477 388.459 725.476 387.459 740.476 385.46 755.475 383.46 770.475 381.46 786.474 383.46 801.474 387.459 816.473 391.459 832.473 394.459 847.472 396.458 862.472 396.458 878.471 394.459 893.471 392.459 908.47 393.459 924.47 395.458 939.469 397.458 954.469 397.458 970.468 394.459 985.468 389.459 1000.47 383.46 1015.47 379.46 1031.47 378.46 1046.47 378.46 1061.47 378.46 1077.46 376.46 1092.46 374.461 1107.46 371.461 1123.46 368.461 1138.46 368.461 1153.46 371.461 1169.46 376.46 1184.46 381.46 1199.46 385.46 1214.46 386.459 1230.46 385.46 1245.46 383.46 1260.46 382.46 1276.46 385.46 1291.46 390.459 1306.46 395.458 1322.46 399.458 1337.46 401.458 1352.46 401.458 1368.46 400.458 1383.45 400.458 1398.45 401.458 1413.45 401.458 1429.45 398.458 1444.45 392.459 1459.45 385.46 1475.45 377.46 1490.45 371.461 1505.45 368.461 1521.45 371.461 1536.45 376.46 1551.45 382.46 1567.45 388.459 1582.45 393.459 1597.45 395.458 1613.45 396.458 1628.45 397.458 1643.45 401.458 1658.45 409.457 1674.45 421.456 1689.44 435.454 1704.44 391.459 1720.44 363.462 1735.44 343.464 1750.44 332.465 1766.44 331.465 1781.44 337.465 1796.44 350.463 1812.44 369.461 1827.44 389.459 1842.44 414.456 1857.44 444.453 1873.44 482.449 1888.44 541.443 1903.44 626.434 1919.44 732.423 1934.44 888.407 1949.44 745.422 1965.44 1617.38 1980.44 1617.38 1995.43 1617.38 2011.43 1617.38 2026.43 1617.38 2041.43 1617.38 2056.43 1617.38 2072.43 1617.38 2087.43 1617.38 2102.43 1617.38 2118.43 1617.38 2133.43 1617.38 2148.43 1617.38 2164.43 1617.38 2179.43 1617.38 2194.43 1617.38 2210.43 1617.38 2225.43 1617.38 2240.43 1617.38 2256.43 1617.38 2271.43 1617.38 2286.5 1617.38" stroke="#7030A0" stroke-width="3.00022" stroke-linecap="round" stroke-linejoin="round" stroke-miterlimit="10" fill="none"/></g><g clip-path="url(#clip11)"><path d="M97.5 1617.38 112.496 1617.38 127.496 1617.38 143.495 1617.38 158.495 1617.38 173.494 1617.38 189.494 1617.38 204.493 516.446 219.493 447.453 235.492 418.456 250.492 411.457 265.491 411.457 281.491 412.457 296.49 412.457 311.49 412.457 327.489 412.457 342.489 412.457 357.488 413.457 372.488 414.456 388.487 415.456 403.487 417.456 418.486 420.456 434.486 426.455 449.485 436.454 464.485 451.453 480.484 454.452 495.484 457.452 510.483 458.452 526.483 459.452 541.482 459.452 556.482 459.452 571.481 459.452 587.481 459.452 602.48 459.452 617.48 457.452 633.479 455.452 648.479 452.452 663.478 450.453 679.478 450.453 694.477 449.453 709.477 449.453 725.476 449.453 740.476 449.453 755.475 449.453 770.475 449.453 786.474 449.453 801.474 449.453 816.473 448.453 832.473 448.453 847.472 448.453 862.472 448.453 878.471 448.453 893.471 448.453 908.47 448.453 924.47 448.453 939.469 448.453 954.469 448.453 970.468 449.453 985.468 449.453 1000.47 450.453 1015.47 450.453 1031.47 450.453 1046.47 450.453 1061.47 450.453 1077.46 449.453 1092.46 450.453 1107.46 450.453 1123.46 450.453 1138.46 450.453 1153.46 450.453 1169.46 449.453 1184.46 449.453 1199.46 448.453 1214.46 448.453 1230.46 448.453 1245.46 449.453 1260.46 449.453 1276.46 448.453 1291.46 448.453 1306.46 447.453 1322.46 447.453 1337.46 447.453 1352.46 447.453 1368.46 447.453 1383.45 447.453 1398.45 447.453 1413.45 447.453 1429.45 447.453 1444.45 447.453 1459.45 448.453 1475.45 448.453 1490.45 449.453 1505.45 449.453 1521.45 448.453 1536.45 448.453 1551.45 447.453 1567.45 447.453 1582.45 447.453 1597.45 446.453 1613.45 446.453 1628.45 446.453 1643.45 445.453 1658.45 445.453 1674.45 444.453 1689.44 444.453 1704.44 439.454 1720.44 433.454 1735.44 427.455 1750.44 421.456 1766.44 417.456 1781.44 413.457 1796.44 410.457 1812.44 408.457 1827.44 406.457 1842.44 405.471 1857.44 412.457 1873.44 440.454 1888.44 509.447 1903.44 1617.38 1919.44 1617.38 1934.44 1617.38 1949.44 1617.38 1965.44 1617.38 1980.44 1617.38 1995.43 1617.38 2011.43 1617.38 2026.43 1617.38 2041.43 1617.38 2056.43 1617.38 2072.43 1617.38 2087.43 1617.38 2102.43 1617.38 2118.43 1617.38 2133.43 1617.38 2148.43 1617.38 2164.43 1617.38 2179.43 1617.38 2194.43 1617.38 2210.43 1617.38 2225.43 1617.38 2240.43 1617.38 2256.43 1617.38 2271.43 1617.38 2286.5 1617.38" stroke="#BFBFBF" stroke-width="3.00022" stroke-linecap="round" stroke-linejoin="round" stroke-miterlimit="10" fill="none"/></g><g clip-path="url(#clip12)"><path d="M97.5 1617.38 112.496 1617.38 127.496 1617.38 143.495 1617.38 158.495 1617.38 173.494 1617.38 189.494 1617.38 204.493 585.439 219.493 502.447 235.492 472.45 250.492 467.451 265.491 467.451 281.491 467.451 296.49 467.451 311.49 467.451 327.489 468.451 342.489 468.451 357.488 468.451 372.488 469.451 388.487 471.451 403.487 473.45 418.486 476.45 434.486 482.449 449.485 492.448 464.485 507.447 480.484 509.447 495.484 512.446 510.483 514.446 526.483 515.446 541.482 515.446 556.482 515.446 571.481 515.446 587.481 515.446 602.48 514.446 617.48 512.446 633.479 510.446 648.479 508.447 663.478 506.447 679.478 506.447 694.477 505.447 709.477 505.447 725.476 505.447 740.476 505.447 755.475 504.447 770.475 504.447 786.474 504.447 801.474 504.447 816.473 504.447 832.473 504.447 847.472 504.447 862.472 504.447 878.471 504.447 893.471 504.447 908.47 504.447 924.47 503.447 939.469 504.447 954.469 504.447 970.468 504.447 985.468 505.447 1000.47 505.447 1015.47 505.447 1031.47 505.447 1046.47 505.447 1061.47 505.447 1077.46 505.447 1092.46 505.447 1107.46 506.447 1123.46 506.447 1138.46 506.447 1153.46 505.447 1169.46 505.447 1184.46 504.447 1199.46 503.447 1214.46 504.447 1230.46 504.447 1245.46 504.447 1260.46 504.447 1276.46 504.447 1291.46 503.447 1306.46 503.447 1322.46 503.447 1337.46 503.447 1352.46 502.447 1368.46 502.447 1383.45 503.447 1398.45 503.447 1413.45 503.447 1429.45 503.447 1444.45 503.447 1459.45 504.447 1475.45 504.447 1490.45 504.447 1505.45 505.447 1521.45 504.447 1536.45 503.447 1551.45 503.447 1567.45 502.447 1582.45 502.447 1597.45 502.447 1613.45 502.447 1628.45 502.447 1643.45 501.447 1658.45 500.447 1674.45 500.447 1689.44 499.448 1704.44 494.448 1720.44 488.449 1735.44 483.449 1750.44 477.45 1766.44 473.45 1781.44 469.451 1796.44 466.451 1812.44 464.451 1827.44 462.451 1842.44 461.467 1857.44 467.451 1873.44 497.448 1888.44 579.439 1903.44 1617.38 1919.44 1617.38 1934.44 1617.38 1949.44 1617.38 1965.44 1617.38 1980.44 1617.38 1995.43 1617.38 2011.43 1617.38 2026.43 1617.38 2041.43 1617.38 2056.43 1617.38 2072.43 1617.38 2087.43 1617.38 2102.43 1617.38 2118.43 1617.38 2133.43 1617.38 2148.43 1617.38 2164.43 1617.38 2179.43 1617.38 2194.43 1617.38 2210.43 1617.38 2225.43 1617.38 2240.43 1617.38 2256.43 1617.38 2271.43 1617.38 2286.5 1617.38" stroke="#BF9000" stroke-width="3.00022" stroke-linecap="round" stroke-linejoin="round" stroke-miterlimit="10" fill="none"/></g><g clip-path="url(#clip13)"><path d="M97.5 1617.38 112.496 1617.38 127.496 749.421 143.495 696.427 158.495 666.43 173.494 651.432 189.494 648.432 204.493 645.432 219.493 642.432 235.492 638.433 250.492 634.433 265.491 630.434 281.491 625.434 296.49 621.435 311.49 618.435 327.489 614.435 342.489 610.436 357.488 607.436 372.488 603.437 388.487 597.437 403.487 580.439 418.486 550.442 434.486 523.445 449.485 503.447 464.485 491.448 480.484 489.449 495.484 486.449 510.483 484.449 526.483 483.449 541.482 481.449 556.482 480.45 571.481 479.45 587.481 478.45 602.48 476.45 617.48 475.45 633.479 473.45 648.479 471.451 663.478 470.451 679.478 468.451 694.477 467.451 709.477 466.451 725.476 465.451 740.476 463.451 755.475 461.452 770.475 459.452 786.474 458.452 801.474 456.452 816.473 455.452 832.473 450.453 847.472 448.453 862.472 445.453 878.471 434.454 893.471 431.455 908.47 441.454 924.47 445.453 939.469 440.454 954.469 437.454 970.468 430.469 985.468 432.455 1000.47 431.455 1015.47 446.453 1031.47 456.452 1046.47 451.453 1061.47 447.453 1077.46 438.454 1092.46 440.454 1107.46 444.453 1123.46 466.451 1138.46 486.449 1153.46 486.449 1169.46 488.449 1184.46 474.45 1199.46 482.449 1214.46 497.448 1230.46 519.445 1245.46 547.443 1260.46 554.442 1276.46 551.442 1291.46 543.443 1306.46 552.442 1322.46 590.438 1337.46 613.436 1352.46 643.432 1368.46 644.432 1383.45 641.433 1398.45 651.432 1413.45 677.429 1429.45 746.422 1444.45 787.417 1459.45 770.419 1475.45 752.421 1490.45 757.42 1505.45 804.416 1521.45 912.404 1536.45 914.404 1551.45 923.403 1567.45 911.404 1582.45 1617.38 1597.45 1617.38 1613.45 1617.38 1628.45 1617.38 1643.45 1617.38 1658.45 1617.38 1674.45 1617.38 1689.44 1617.38 1704.44 1617.38 1720.44 1617.38 1735.44 1617.38 1750.44 1617.38 1766.44 1617.38 1781.44 1617.38 1796.44 1617.38 1812.44 1617.38 1827.44 1617.38 1842.44 1617.38 1857.44 1617.38 1873.44 1617.38 1888.44 1617.38 1903.44 1617.38 1919.44 1617.38 1934.44 1617.38 1949.44 1617.38 1965.44 1617.38 1980.44 1617.38 1995.43 1617.38 2011.43 1617.38 2026.43 1617.38 2041.43 1617.38 2056.43 1617.38 2072.43 1617.38 2087.43 1617.38 2102.43 1617.38 2118.43 1617.38 2133.43 1617.38 2148.43 1617.38 2164.43 1617.38 2179.43 1617.38 2194.43 1617.38 2210.43 1617.38 2225.43 1617.38 2240.43 1617.38 2256.43 1617.38 2271.43 1617.38 2286.5 1617.38" stroke="#A9D18E" stroke-width="3.00022" stroke-linecap="round" stroke-linejoin="round" stroke-miterlimit="10" fill="none"/></g><g clip-path="url(#clip14)"><path d="M97.5 1617.38 112.496 1617.38 127.496 1617.38 143.495 1617.38 158.495 1617.38 173.494 1617.38 189.494 1617.38 204.493 1617.38 219.493 1617.38 235.492 1617.38 250.492 1617.38 265.491 1617.38 281.491 1617.38 296.49 1617.38 311.49 1617.38 327.489 1617.38 342.489 1617.38 357.488 1617.38 372.488 1617.38 388.487 1617.38 403.487 1617.38 418.486 1617.38 434.486 1617.38 449.485 1617.38 464.485 1617.38 480.484 1617.38 495.484 1617.38 510.483 1617.38 526.483 901.405 541.482 578.439 556.482 578.439 571.481 577.439 587.481 493.464 602.48 514.446 617.48 517.446 633.479 516.446 648.479 524.445 663.478 528.445 679.478 523.445 694.477 525.445 709.477 535.444 725.476 537.444 740.476 518.446 755.475 529.444 770.475 537.444 786.474 543.443 801.474 520.445 816.473 535.444 832.473 544.443 847.472 534.444 862.472 543.443 878.471 548.442 893.471 549.442 908.47 520.445 924.47 533.444 939.469 539.443 954.469 522.445 970.468 506.447 985.468 500.447 1000.47 507.447 1015.47 506.447 1031.47 498.448 1046.47 499.448 1061.47 502.447 1077.46 504.447 1092.46 505.447 1107.46 507.447 1123.46 514.446 1138.46 518.446 1153.46 522.445 1169.46 524.445 1184.46 521.445 1199.46 536.444 1214.46 556.442 1230.46 549.442 1245.46 541.443 1260.46 518.446 1276.46 519.445 1291.46 508.447 1306.46 510.446 1322.46 543.443 1337.46 545.443 1352.46 549.442 1368.46 563.441 1383.45 583.439 1398.45 584.439 1413.45 581.439 1429.45 583.439 1444.45 582.439 1459.45 568.44 1475.45 571.44 1490.45 584.439 1505.45 594.438 1521.45 602.437 1536.45 621.435 1551.45 648.432 1567.45 683.428 1582.45 735.423 1597.45 986.396 1613.45 932.402 1628.45 936.402 1643.45 933.402 1658.45 975.398 1674.45 996.395 1689.44 1050.39 1704.44 1098.38 1720.44 1098.38 1735.44 1098.38 1750.44 1098.38 1766.44 1135.38 1781.44 1135.38 1796.44 1098.38 1812.44 1135.38 1827.44 1077.39 1842.44 1135.38 1857.44 1617.38 1873.44 1617.38 1888.44 1617.38 1903.44 1617.38 1919.44 1617.38 1934.44 1617.38 1949.44 1617.38 1965.44 1617.38 1980.44 1617.38 1995.43 1617.38 2011.43 1617.38 2026.43 1617.38 2041.43 1617.38 2056.43 1617.38 2072.43 1617.38 2087.43 1617.38 2102.43 1617.38 2118.43 1617.38 2133.43 1617.38 2148.43 1617.38 2164.43 1617.38 2179.43 1617.38 2194.43 1617.38 2210.43 1617.38 2225.43 1617.38 2240.43 1617.38 2256.43 1617.38 2271.43 1617.38 2286.5 1617.38" stroke="#0070C0" stroke-width="3.00022" stroke-linecap="round" stroke-linejoin="round" stroke-miterlimit="10" fill="none"/></g><g clip-path="url(#clip15)"><path d="M97.5 1617.38 112.496 1617.38 127.496 1617.38 143.495 1617.38 158.495 1617.38 173.494 1617.38 189.494 1617.38 204.493 1617.38 219.493 1617.38 235.492 1617.38 250.492 1617.38 265.491 1617.38 281.491 1617.38 296.49 1617.38 311.49 1617.38 327.489 1617.38 342.489 1617.38 357.488 1617.38 372.488 1617.38 388.487 1617.38 403.487 1617.38 418.486 1617.38 434.486 1617.38 449.485 1617.38 464.485 1617.38 480.484 1617.38 495.484 1617.38 510.483 1617.38 526.483 1617.38 541.482 1617.38 556.482 1617.38 571.481 1617.38 587.481 613.436 602.48 609.436 617.48 608.436 633.479 609.436 648.479 614.435 663.478 618.435 679.478 624.434 694.477 629.434 709.477 623.435 725.476 620.435 740.476 619.435 755.475 619.435 770.475 623.435 786.474 626.434 801.474 632.434 816.473 638.433 832.473 636.433 847.472 634.433 862.472 630.434 878.471 629.434 893.471 630.434 908.47 633.433 924.47 636.433 939.469 636.433 954.469 630.434 970.468 624.434 985.468 618.435 1000.47 613.436 1015.47 611.436 1031.47 612.436 1046.47 615.435 1061.47 617.435 1077.46 609.436 1092.46 606.436 1107.46 603.437 1123.46 604.437 1138.46 610.436 1153.46 619.435 1169.46 626.434 1184.46 629.434 1199.46 621.435 1214.46 618.435 1230.46 617.435 1245.46 619.435 1260.46 624.434 1276.46 632.434 1291.46 639.433 1306.46 641.433 1322.46 635.433 1337.46 632.434 1352.46 633.433 1368.46 636.433 1383.45 640.433 1398.45 640.433 1413.45 637.433 1429.45 627.434 1444.45 610.436 1459.45 605.436 1475.45 603.437 1490.45 604.437 1505.45 607.436 1521.45 616.435 1536.45 626.434 1551.45 634.433 1567.45 632.434 1582.45 629.434 1597.45 627.434 1613.45 626.434 1628.45 621.435 1643.45 607.436 1658.45 585.439 1674.45 560.441 1689.44 538.443 1704.44 534.461 1720.44 535.444 1735.44 544.443 1750.44 557.441 1766.44 578.439 1781.44 601.437 1796.44 621.435 1812.44 637.433 1827.44 673.429 1842.44 691.427 1857.44 683.428 1873.44 666.43 1888.44 642.433 1903.44 621.435 1919.44 606.436 1934.44 591.438 1949.44 1617.38 1965.44 1617.38 1980.44 1617.38 1995.43 1617.38 2011.43 1617.38 2026.43 1617.38 2041.43 1617.38 2056.43 1617.38 2072.43 1617.38 2087.43 1617.38 2102.43 1617.38 2118.43 1617.38 2133.43 1617.38 2148.43 1617.38 2164.43 1617.38 2179.43 1617.38 2194.43 1617.38 2210.43 1617.38 2225.43 1617.38 2240.43 1617.38 2256.43 1617.38 2271.43 1617.38 2286.5 1617.38" stroke="#FFC000" stroke-width="3.00022" stroke-linecap="round" stroke-linejoin="round" stroke-miterlimit="10" fill="none"/></g><g clip-path="url(#clip16)"><path d="M97.5 1617.38 112.496 1617.38 127.496 1617.38 143.495 1617.38 158.495 1617.38 173.494 1617.38 189.494 940.401 204.493 765.42 219.493 642.432 235.492 616.435 250.492 598.437 265.491 585.438 281.491 574.44 296.49 566.44 311.49 558.441 327.489 552.442 342.489 547.46 357.488 552.442 372.488 560.441 388.487 569.44 403.487 579.439 418.486 592.438 434.486 611.436 449.485 638.433 464.485 680.429 480.484 728.423 495.484 742.422 510.483 745.422 526.483 747.422 541.482 746.422 556.482 749.421 571.481 750.421 587.481 753.421 602.48 753.421 617.48 754.421 633.479 750.421 648.479 747.422 663.478 744.422 679.478 746.422 694.477 744.422 709.477 745.422 725.476 744.422 740.476 744.422 755.475 746.422 770.475 747.422 786.474 745.422 801.474 744.422 816.473 744.422 832.473 747.422 847.472 745.422 862.472 745.422 878.471 746.422 893.471 744.422 908.47 745.422 924.47 744.422 939.469 744.422 954.469 743.422 970.468 744.422 985.468 743.422 1000.47 744.422 1015.47 747.422 1031.47 748.421 1046.47 745.422 1061.47 747.422 1077.46 744.422 1092.46 746.422 1107.46 748.421 1123.46 747.422 1138.46 745.422 1153.46 748.421 1169.46 747.422 1184.46 746.422 1199.46 742.422 1214.46 745.422 1230.46 748.421 1245.46 746.422 1260.46 745.422 1276.46 744.422 1291.46 745.422 1306.46 747.422 1322.46 745.422 1337.46 745.422 1352.46 743.422 1368.46 744.422 1383.45 743.422 1398.45 742.422 1413.45 742.422 1429.45 743.422 1444.45 744.422 1459.45 744.422 1475.45 746.422 1490.45 748.421 1505.45 746.422 1521.45 747.422 1536.45 745.422 1551.45 744.422 1567.45 745.422 1582.45 743.422 1597.45 744.422 1613.45 745.422 1628.45 740.422 1643.45 744.422 1658.45 743.422 1674.45 742.422 1689.44 742.422 1704.44 739.422 1720.44 735.423 1735.44 727.424 1750.44 721.424 1766.44 714.425 1781.44 710.425 1796.44 707.426 1812.44 704.426 1827.44 703.426 1842.44 702.426 1857.44 702.426 1873.44 701.426 1888.44 699.427 1903.44 700.426 1919.44 704.426 1934.44 859.41 1949.44 1617.38 1965.44 1617.38 1980.44 1617.38 1995.43 1617.38 2011.43 1617.38 2026.43 1617.38 2041.43 1617.38 2056.43 1617.38 2072.43 1617.38 2087.43 1617.38 2102.43 1617.38 2118.43 1617.38 2133.43 1617.38 2148.43 1617.38 2164.43 1617.38 2179.43 1617.38 2194.43 1617.38 2210.43 1617.38 2225.43 1617.38 2240.43 1617.38 2256.43 1617.38 2271.43 1617.38 2286.5 1617.38" stroke="#B6A688" stroke-width="3.00022" stroke-linecap="round" stroke-linejoin="round" stroke-miterlimit="10" fill="none"/></g><g clip-path="url(#clip17)"><text fill="#595959" font-family="Calibri,Calibri_MSFontService,sans-serif" font-weight="400" font-size="12" transform="matrix(1 0 0 0.999928 72.5032 1138)">1</text></g><g clip-path="url(#clip18)"><text fill="#595959" font-family="Calibri,Calibri_MSFontService,sans-serif" font-weight="400" font-size="12" transform="matrix(1 0 0 0.999928 66.4227 1017)">10</text></g><g clip-path="url(#clip19)"><text fill="#595959" font-family="Calibri,Calibri_MSFontService,sans-serif" font-weight="400" font-size="12" transform="matrix(1 0 0 0.999928 60.3423 897)">100</text></g><g clip-path="url(#clip20)"><text fill="#595959" font-family="Calibri,Calibri_MSFontService,sans-serif" font-weight="400" font-size="12" transform="matrix(1 0 0 0.999928 51.2683 776)">1,000</text></g><g clip-path="url(#clip21)"><text fill="#595959" font-family="Calibri,Calibri_MSFontService,sans-serif" font-weight="400" font-size="12" transform="matrix(1 0 0 0.999928 45.1878 655)">10,000</text></g><g clip-path="url(#clip22)"><text fill="#595959" font-family="Calibri,Calibri_MSFontService,sans-serif" font-weight="400" font-size="12" transform="matrix(1 0 0 0.999928 39.1074 535)">100,000</text></g><g clip-path="url(#clip23)"><text fill="#595959" font-family="Calibri,Calibri_MSFontService,sans-serif" font-weight="400" font-size="12" transform="matrix(1 0 0 0.999928 30.0333 414)">1,000,000</text></g><g clip-path="url(#clip24)"><text fill="#595959" font-family="Calibri,Calibri_MSFontService,sans-serif" font-weight="400" font-size="12" transform="matrix(1 0 0 0.999928 23.9529 294)">10,000,000</text></g><g clip-path="url(#clip25)"><text fill="#595959" font-family="Calibri,Calibri_MSFontService,sans-serif" font-weight="400" font-size="12" transform="matrix(1 0 0 0.999928 17.8725 173)">100,000,000</text></g><g clip-path="url(#clip26)"><text fill="#595959" font-family="Calibri,Calibri_MSFontService,sans-serif" font-weight="400" font-size="12" transform="matrix(1 0 0 0.999928 8.79843 52)">1,000,000,000</text></g><g clip-path="url(#clip27)"><text fill="#595959" font-family="Calibri,Calibri_MSFontService,sans-serif" font-weight="400" font-size="12" transform="matrix(6.12323e-17 -0.999856 1.00007 6.12279e-17 101.048 1149)">1</text></g><g clip-path="url(#clip28)"><text fill="#595959" font-family="Calibri,Calibri_MSFontService,sans-serif" font-weight="400" font-size="12" transform="matrix(6.12323e-17 -0.999856 1.00007 6.12279e-17 116.357 1149)">2</text></g><g clip-path="url(#clip29)"><text fill="#595959" font-family="Calibri,Calibri_MSFontService,sans-serif" font-weight="400" font-size="12" transform="matrix(6.12323e-17 -0.999856 1.00007 6.12279e-17 131.666 1149)">3</text></g><g clip-path="url(#clip30)"><text fill="#595959" font-family="Calibri,Calibri_MSFontService,sans-serif" font-weight="400" font-size="12" transform="matrix(6.12323e-17 -0.999856 1.00007 6.12279e-17 146.975 1149)">4</text></g><g clip-path="url(#clip31)"><text fill="#595959" font-family="Calibri,Calibri_MSFontService,sans-serif" font-weight="400" font-size="12" transform="matrix(6.12323e-17 -0.999856 1.00007 6.12279e-17 162.284 1149)">5</text></g><g clip-path="url(#clip32)"><text fill="#595959" font-family="Calibri,Calibri_MSFontService,sans-serif" font-weight="400" font-size="12" transform="matrix(6.12323e-17 -0.999856 1.00007 6.12279e-17 177.593 1149)">6</text></g><g clip-path="url(#clip33)"><text fill="#595959" font-family="Calibri,Calibri_MSFontService,sans-serif" font-weight="400" font-size="12" transform="matrix(6.12323e-17 -0.999856 1.00007 6.12279e-17 192.902 1149)">7</text></g><g clip-path="url(#clip34)"><text fill="#595959" font-family="Calibri,Calibri_MSFontService,sans-serif" font-weight="400" font-size="12" transform="matrix(6.12323e-17 -0.999856 1.00007 6.12279e-17 208.21 1149)">8</text></g><g clip-path="url(#clip35)"><text fill="#595959" font-family="Calibri,Calibri_MSFontService,sans-serif" font-weight="400" font-size="12" transform="matrix(6.12323e-17 -0.999856 1.00007 6.12279e-17 223.519 1149)">9</text></g><g clip-path="url(#clip36)"><text fill="#595959" font-family="Calibri,Calibri_MSFontService,sans-serif" font-weight="400" font-size="12" transform="matrix(6.12323e-17 -0.999856 1.00007 6.12279e-17 238.828 1155)">10</text></g><g clip-path="url(#clip37)"><text fill="#595959" font-family="Calibri,Calibri_MSFontService,sans-serif" font-weight="400" font-size="12" transform="matrix(6.12323e-17 -0.999856 1.00007 6.12279e-17 254.137 1155)">11</text></g><g clip-path="url(#clip38)"><text fill="#595959" font-family="Calibri,Calibri_MSFontService,sans-serif" font-weight="400" font-size="12" transform="matrix(6.12323e-17 -0.999856 1.00007 6.12279e-17 269.446 1155)">12</text></g><g clip-path="url(#clip39)"><text fill="#595959" font-family="Calibri,Calibri_MSFontService,sans-serif" font-weight="400" font-size="12" transform="matrix(6.12323e-17 -0.999856 1.00007 6.12279e-17 284.755 1155)">13</text></g><g clip-path="url(#clip40)"><text fill="#595959" font-family="Calibri,Calibri_MSFontService,sans-serif" font-weight="400" font-size="12" transform="matrix(6.12323e-17 -0.999856 1.00007 6.12279e-17 300.064 1155)">14</text></g><g clip-path="url(#clip41)"><text fill="#595959" font-family="Calibri,Calibri_MSFontService,sans-serif" font-weight="400" font-size="12" transform="matrix(6.12323e-17 -0.999856 1.00007 6.12279e-17 315.373 1155)">15</text></g><g clip-path="url(#clip42)"><text fill="#595959" font-family="Calibri,Calibri_MSFontService,sans-serif" font-weight="400" font-size="12" transform="matrix(6.12323e-17 -0.999856 1.00007 6.12279e-17 330.682 1155)">16</text></g><g clip-path="url(#clip43)"><text fill="#595959" font-family="Calibri,Calibri_MSFontService,sans-serif" font-weight="400" font-size="12" transform="matrix(6.12323e-17 -0.999856 1.00007 6.12279e-17 345.991 1155)">17</text></g><g clip-path="url(#clip44)"><text fill="#595959" font-family="Calibri,Calibri_MSFontService,sans-serif" font-weight="400" font-size="12" transform="matrix(6.12323e-17 -0.999856 1.00007 6.12279e-17 361.3 1155)">18</text></g><g clip-path="url(#clip45)"><text fill="#595959" font-family="Calibri,Calibri_MSFontService,sans-serif" font-weight="400" font-size="12" transform="matrix(6.12323e-17 -0.999856 1.00007 6.12279e-17 376.609 1155)">19</text></g><g clip-path="url(#clip46)"><text fill="#595959" font-family="Calibri,Calibri_MSFontService,sans-serif" font-weight="400" font-size="12" transform="matrix(6.12323e-17 -0.999856 1.00007 6.12279e-17 391.918 1155)">20</text></g><g clip-path="url(#clip47)"><text fill="#595959" font-family="Calibri,Calibri_MSFontService,sans-serif" font-weight="400" font-size="12" transform="matrix(6.12323e-17 -0.999856 1.00007 6.12279e-17 407.227 1155)">21</text></g><g clip-path="url(#clip48)"><text fill="#595959" font-family="Calibri,Calibri_MSFontService,sans-serif" font-weight="400" font-size="12" transform="matrix(6.12323e-17 -0.999856 1.00007 6.12279e-17 422.535 1155)">22</text></g><g clip-path="url(#clip49)"><text fill="#595959" font-family="Calibri,Calibri_MSFontService,sans-serif" font-weight="400" font-size="12" transform="matrix(6.12323e-17 -0.999856 1.00007 6.12279e-17 437.844 1155)">23</text></g><g clip-path="url(#clip50)"><text fill="#595959" font-family="Calibri,Calibri_MSFontService,sans-serif" font-weight="400" font-size="12" transform="matrix(6.12323e-17 -0.999856 1.00007 6.12279e-17 453.153 1155)">24</text></g><g clip-path="url(#clip51)"><text fill="#595959" font-family="Calibri,Calibri_MSFontService,sans-serif" font-weight="400" font-size="12" transform="matrix(6.12323e-17 -0.999856 1.00007 6.12279e-17 468.462 1155)">25</text></g><g clip-path="url(#clip52)"><text fill="#595959" font-family="Calibri,Calibri_MSFontService,sans-serif" font-weight="400" font-size="12" transform="matrix(6.12323e-17 -0.999856 1.00007 6.12279e-17 483.771 1155)">26</text></g><g clip-path="url(#clip53)"><text fill="#595959" font-family="Calibri,Calibri_MSFontService,sans-serif" font-weight="400" font-size="12" transform="matrix(6.12323e-17 -0.999856 1.00007 6.12279e-17 499.08 1155)">27</text></g><g clip-path="url(#clip54)"><text fill="#595959" font-family="Calibri,Calibri_MSFontService,sans-serif" font-weight="400" font-size="12" transform="matrix(6.12323e-17 -0.999856 1.00007 6.12279e-17 514.389 1155)">28</text></g><g clip-path="url(#clip55)"><text fill="#595959" font-family="Calibri,Calibri_MSFontService,sans-serif" font-weight="400" font-size="12" transform="matrix(6.12323e-17 -0.999856 1.00007 6.12279e-17 529.698 1155)">29</text></g><g clip-path="url(#clip56)"><text fill="#595959" font-family="Calibri,Calibri_MSFontService,sans-serif" font-weight="400" font-size="12" transform="matrix(6.12323e-17 -0.999856 1.00007 6.12279e-17 545.007 1155)">30</text></g><g clip-path="url(#clip57)"><text fill="#595959" font-family="Calibri,Calibri_MSFontService,sans-serif" font-weight="400" font-size="12" transform="matrix(6.12323e-17 -0.999856 1.00007 6.12279e-17 560.316 1155)">31</text></g><g clip-path="url(#clip58)"><text fill="#595959" font-family="Calibri,Calibri_MSFontService,sans-serif" font-weight="400" font-size="12" transform="matrix(6.12323e-17 -0.999856 1.00007 6.12279e-17 575.625 1155)">32</text></g><g clip-path="url(#clip59)"><text fill="#595959" font-family="Calibri,Calibri_MSFontService,sans-serif" font-weight="400" font-size="12" transform="matrix(6.12323e-17 -0.999856 1.00007 6.12279e-17 590.934 1155)">33</text></g><g clip-path="url(#clip60)"><text fill="#595959" font-family="Calibri,Calibri_MSFontService,sans-serif" font-weight="400" font-size="12" transform="matrix(6.12323e-17 -0.999856 1.00007 6.12279e-17 606.242 1155)">34</text></g><g clip-path="url(#clip61)"><text fill="#595959" font-family="Calibri,Calibri_MSFontService,sans-serif" font-weight="400" font-size="12" transform="matrix(6.12323e-17 -0.999856 1.00007 6.12279e-17 621.551 1155)">35</text></g><g clip-path="url(#clip62)"><text fill="#595959" font-family="Calibri,Calibri_MSFontService,sans-serif" font-weight="400" font-size="12" transform="matrix(6.12323e-17 -0.999856 1.00007 6.12279e-17 636.86 1155)">36</text></g><g clip-path="url(#clip63)"><text fill="#595959" font-family="Calibri,Calibri_MSFontService,sans-serif" font-weight="400" font-size="12" transform="matrix(6.12323e-17 -0.999856 1.00007 6.12279e-17 652.169 1155)">37</text></g><g clip-path="url(#clip64)"><text fill="#595959" font-family="Calibri,Calibri_MSFontService,sans-serif" font-weight="400" font-size="12" transform="matrix(6.12323e-17 -0.999856 1.00007 6.12279e-17 667.478 1155)">38</text></g><g clip-path="url(#clip65)"><text fill="#595959" font-family="Calibri,Calibri_MSFontService,sans-serif" font-weight="400" font-size="12" transform="matrix(6.12323e-17 -0.999856 1.00007 6.12279e-17 682.787 1155)">39</text></g><g clip-path="url(#clip66)"><text fill="#595959" font-family="Calibri,Calibri_MSFontService,sans-serif" font-weight="400" font-size="12" transform="matrix(6.12323e-17 -0.999856 1.00007 6.12279e-17 698.096 1155)">40</text></g><g clip-path="url(#clip67)"><text fill="#595959" font-family="Calibri,Calibri_MSFontService,sans-serif" font-weight="400" font-size="12" transform="matrix(6.12323e-17 -0.999856 1.00007 6.12279e-17 713.405 1155)">41</text></g><g clip-path="url(#clip68)"><text fill="#595959" font-family="Calibri,Calibri_MSFontService,sans-serif" font-weight="400" font-size="12" transform="matrix(6.12323e-17 -0.999856 1.00007 6.12279e-17 728.714 1155)">42</text></g><g clip-path="url(#clip69)"><text fill="#595959" font-family="Calibri,Calibri_MSFontService,sans-serif" font-weight="400" font-size="12" transform="matrix(6.12323e-17 -0.999856 1.00007 6.12279e-17 744.023 1155)">43</text></g><g clip-path="url(#clip70)"><text fill="#595959" font-family="Calibri,Calibri_MSFontService,sans-serif" font-weight="400" font-size="12" transform="matrix(6.12323e-17 -0.999856 1.00007 6.12279e-17 759.332 1155)">44</text></g><g clip-path="url(#clip71)"><text fill="#595959" font-family="Calibri,Calibri_MSFontService,sans-serif" font-weight="400" font-size="12" transform="matrix(6.12323e-17 -0.999856 1.00007 6.12279e-17 774.641 1155)">45</text></g><g clip-path="url(#clip72)"><text fill="#595959" font-family="Calibri,Calibri_MSFontService,sans-serif" font-weight="400" font-size="12" transform="matrix(6.12323e-17 -0.999856 1.00007 6.12279e-17 789.95 1155)">46</text></g><g clip-path="url(#clip73)"><text fill="#595959" font-family="Calibri,Calibri_MSFontService,sans-serif" font-weight="400" font-size="12" transform="matrix(6.12323e-17 -0.999856 1.00007 6.12279e-17 805.258 1155)">47</text></g><g clip-path="url(#clip74)"><text fill="#595959" font-family="Calibri,Calibri_MSFontService,sans-serif" font-weight="400" font-size="12" transform="matrix(6.12323e-17 -0.999856 1.00007 6.12279e-17 820.567 1155)">48</text></g><g clip-path="url(#clip75)"><text fill="#595959" font-family="Calibri,Calibri_MSFontService,sans-serif" font-weight="400" font-size="12" transform="matrix(6.12323e-17 -0.999856 1.00007 6.12279e-17 835.876 1155)">49</text></g><g clip-path="url(#clip76)"><text fill="#595959" font-family="Calibri,Calibri_MSFontService,sans-serif" font-weight="400" font-size="12" transform="matrix(6.12323e-17 -0.999856 1.00007 6.12279e-17 851.185 1155)">50</text></g><g clip-path="url(#clip77)"><text fill="#595959" font-family="Calibri,Calibri_MSFontService,sans-serif" font-weight="400" font-size="12" transform="matrix(6.12323e-17 -0.999856 1.00007 6.12279e-17 866.494 1155)">51</text></g><g clip-path="url(#clip78)"><text fill="#595959" font-family="Calibri,Calibri_MSFontService,sans-serif" font-weight="400" font-size="12" transform="matrix(6.12323e-17 -0.999856 1.00007 6.12279e-17 881.803 1155)">52</text></g><g clip-path="url(#clip79)"><text fill="#595959" font-family="Calibri,Calibri_MSFontService,sans-serif" font-weight="400" font-size="12" transform="matrix(6.12323e-17 -0.999856 1.00007 6.12279e-17 897.112 1155)">53</text></g><g clip-path="url(#clip80)"><text fill="#595959" font-family="Calibri,Calibri_MSFontService,sans-serif" font-weight="400" font-size="12" transform="matrix(6.12323e-17 -0.999856 1.00007 6.12279e-17 912.421 1155)">54</text></g><g clip-path="url(#clip81)"><text fill="#595959" font-family="Calibri,Calibri_MSFontService,sans-serif" font-weight="400" font-size="12" transform="matrix(6.12323e-17 -0.999856 1.00007 6.12279e-17 927.73 1155)">55</text></g><g clip-path="url(#clip82)"><text fill="#595959" font-family="Calibri,Calibri_MSFontService,sans-serif" font-weight="400" font-size="12" transform="matrix(6.12323e-17 -0.999856 1.00007 6.12279e-17 943.039 1155)">56</text></g><g clip-path="url(#clip83)"><text fill="#595959" font-family="Calibri,Calibri_MSFontService,sans-serif" font-weight="400" font-size="12" transform="matrix(6.12323e-17 -0.999856 1.00007 6.12279e-17 958.348 1155)">57</text></g><g clip-path="url(#clip84)"><text fill="#595959" font-family="Calibri,Calibri_MSFontService,sans-serif" font-weight="400" font-size="12" transform="matrix(6.12323e-17 -0.999856 1.00007 6.12279e-17 973.657 1155)">58</text></g><g clip-path="url(#clip85)"><text fill="#595959" font-family="Calibri,Calibri_MSFontService,sans-serif" font-weight="400" font-size="12" transform="matrix(6.12323e-17 -0.999856 1.00007 6.12279e-17 988.966 1155)">59</text></g><g clip-path="url(#clip86)"><text fill="#595959" font-family="Calibri,Calibri_MSFontService,sans-serif" font-weight="400" font-size="12" transform="matrix(6.12323e-17 -0.999856 1.00007 6.12279e-17 1004.27 1155)">60</text></g><g clip-path="url(#clip87)"><text fill="#595959" font-family="Calibri,Calibri_MSFontService,sans-serif" font-weight="400" font-size="12" transform="matrix(6.12323e-17 -0.999856 1.00007 6.12279e-17 1019.58 1155)">61</text></g><g clip-path="url(#clip88)"><text fill="#595959" font-family="Calibri,Calibri_MSFontService,sans-serif" font-weight="400" font-size="12" transform="matrix(6.12323e-17 -0.999856 1.00007 6.12279e-17 1034.89 1155)">62</text></g><g clip-path="url(#clip89)"><text fill="#595959" font-family="Calibri,Calibri_MSFontService,sans-serif" font-weight="400" font-size="12" transform="matrix(6.12323e-17 -0.999856 1.00007 6.12279e-17 1050.2 1155)">63</text></g><g clip-path="url(#clip90)"><text fill="#595959" font-family="Calibri,Calibri_MSFontService,sans-serif" font-weight="400" font-size="12" transform="matrix(6.12323e-17 -0.999856 1.00007 6.12279e-17 1065.51 1155)">64</text></g><g clip-path="url(#clip91)"><text fill="#595959" font-family="Calibri,Calibri_MSFontService,sans-serif" font-weight="400" font-size="12" transform="matrix(6.12323e-17 -0.999856 1.00007 6.12279e-17 1080.82 1155)">65</text></g><g clip-path="url(#clip92)"><text fill="#595959" font-family="Calibri,Calibri_MSFontService,sans-serif" font-weight="400" font-size="12" transform="matrix(6.12323e-17 -0.999856 1.00007 6.12279e-17 1096.13 1155)">66</text></g><g clip-path="url(#clip93)"><text fill="#595959" font-family="Calibri,Calibri_MSFontService,sans-serif" font-weight="400" font-size="12" transform="matrix(6.12323e-17 -0.999856 1.00007 6.12279e-17 1111.44 1155)">67</text></g><g clip-path="url(#clip94)"><text fill="#595959" font-family="Calibri,Calibri_MSFontService,sans-serif" font-weight="400" font-size="12" transform="matrix(6.12323e-17 -0.999856 1.00007 6.12279e-17 1126.75 1155)">68</text></g><g clip-path="url(#clip95)"><text fill="#595959" font-family="Calibri,Calibri_MSFontService,sans-serif" font-weight="400" font-size="12" transform="matrix(6.12323e-17 -0.999856 1.00007 6.12279e-17 1142.05 1155)">69</text></g><g clip-path="url(#clip96)"><text fill="#595959" font-family="Calibri,Calibri_MSFontService,sans-serif" font-weight="400" font-size="12" transform="matrix(6.12323e-17 -0.999856 1.00007 6.12279e-17 1157.36 1155)">70</text></g><g clip-path="url(#clip97)"><text fill="#595959" font-family="Calibri,Calibri_MSFontService,sans-serif" font-weight="400" font-size="12" transform="matrix(6.12323e-17 -0.999856 1.00007 6.12279e-17 1172.67 1155)">71</text></g><g clip-path="url(#clip98)"><text fill="#595959" font-family="Calibri,Calibri_MSFontService,sans-serif" font-weight="400" font-size="12" transform="matrix(6.12323e-17 -0.999856 1.00007 6.12279e-17 1187.98 1155)">72</text></g><g clip-path="url(#clip99)"><text fill="#595959" font-family="Calibri,Calibri_MSFontService,sans-serif" font-weight="400" font-size="12" transform="matrix(6.12323e-17 -0.999856 1.00007 6.12279e-17 1203.29 1155)">73</text></g><g clip-path="url(#clip100)"><text fill="#595959" font-family="Calibri,Calibri_MSFontService,sans-serif" font-weight="400" font-size="12" transform="matrix(6.12323e-17 -0.999856 1.00007 6.12279e-17 1218.6 1155)">74</text></g><g clip-path="url(#clip101)"><text fill="#595959" font-family="Calibri,Calibri_MSFontService,sans-serif" font-weight="400" font-size="12" transform="matrix(6.12323e-17 -0.999856 1.00007 6.12279e-17 1233.91 1155)">75</text></g><g clip-path="url(#clip102)"><text fill="#595959" font-family="Calibri,Calibri_MSFontService,sans-serif" font-weight="400" font-size="12" transform="matrix(6.12323e-17 -0.999856 1.00007 6.12279e-17 1249.22 1155)">76</text></g><g clip-path="url(#clip103)"><text fill="#595959" font-family="Calibri,Calibri_MSFontService,sans-serif" font-weight="400" font-size="12" transform="matrix(6.12323e-17 -0.999856 1.00007 6.12279e-17 1264.53 1155)">77</text></g><g clip-path="url(#clip104)"><text fill="#595959" font-family="Calibri,Calibri_MSFontService,sans-serif" font-weight="400" font-size="12" transform="matrix(6.12323e-17 -0.999856 1.00007 6.12279e-17 1279.84 1155)">78</text></g><g clip-path="url(#clip105)"><text fill="#595959" font-family="Calibri,Calibri_MSFontService,sans-serif" font-weight="400" font-size="12" transform="matrix(6.12323e-17 -0.999856 1.00007 6.12279e-17 1295.14 1155)">79</text></g><g clip-path="url(#clip106)"><text fill="#595959" font-family="Calibri,Calibri_MSFontService,sans-serif" font-weight="400" font-size="12" transform="matrix(6.12323e-17 -0.999856 1.00007 6.12279e-17 1310.45 1155)">80</text></g><g clip-path="url(#clip107)"><text fill="#595959" font-family="Calibri,Calibri_MSFontService,sans-serif" font-weight="400" font-size="12" transform="matrix(6.12323e-17 -0.999856 1.00007 6.12279e-17 1325.76 1155)">81</text></g><g clip-path="url(#clip108)"><text fill="#595959" font-family="Calibri,Calibri_MSFontService,sans-serif" font-weight="400" font-size="12" transform="matrix(6.12323e-17 -0.999856 1.00007 6.12279e-17 1341.07 1155)">82</text></g><g clip-path="url(#clip109)"><text fill="#595959" font-family="Calibri,Calibri_MSFontService,sans-serif" font-weight="400" font-size="12" transform="matrix(6.12323e-17 -0.999856 1.00007 6.12279e-17 1356.38 1155)">83</text></g><g clip-path="url(#clip110)"><text fill="#595959" font-family="Calibri,Calibri_MSFontService,sans-serif" font-weight="400" font-size="12" transform="matrix(6.12323e-17 -0.999856 1.00007 6.12279e-17 1371.69 1155)">84</text></g><g clip-path="url(#clip111)"><text fill="#595959" font-family="Calibri,Calibri_MSFontService,sans-serif" font-weight="400" font-size="12" transform="matrix(6.12323e-17 -0.999856 1.00007 6.12279e-17 1387 1155)">85</text></g><g clip-path="url(#clip112)"><text fill="#595959" font-family="Calibri,Calibri_MSFontService,sans-serif" font-weight="400" font-size="12" transform="matrix(6.12323e-17 -0.999856 1.00007 6.12279e-17 1402.31 1155)">86</text></g><g clip-path="url(#clip113)"><text fill="#595959" font-family="Calibri,Calibri_MSFontService,sans-serif" font-weight="400" font-size="12" transform="matrix(6.12323e-17 -0.999856 1.00007 6.12279e-17 1417.62 1155)">87</text></g><g clip-path="url(#clip114)"><text fill="#595959" font-family="Calibri,Calibri_MSFontService,sans-serif" font-weight="400" font-size="12" transform="matrix(6.12323e-17 -0.999856 1.00007 6.12279e-17 1432.92 1155)">88</text></g><g clip-path="url(#clip115)"><text fill="#595959" font-family="Calibri,Calibri_MSFontService,sans-serif" font-weight="400" font-size="12" transform="matrix(6.12323e-17 -0.999856 1.00007 6.12279e-17 1448.23 1155)">89</text></g><g clip-path="url(#clip116)"><text fill="#595959" font-family="Calibri,Calibri_MSFontService,sans-serif" font-weight="400" font-size="12" transform="matrix(6.12323e-17 -0.999856 1.00007 6.12279e-17 1463.54 1155)">90</text></g><g clip-path="url(#clip117)"><text fill="#595959" font-family="Calibri,Calibri_MSFontService,sans-serif" font-weight="400" font-size="12" transform="matrix(6.12323e-17 -0.999856 1.00007 6.12279e-17 1478.85 1155)">91</text></g><g clip-path="url(#clip118)"><text fill="#595959" font-family="Calibri,Calibri_MSFontService,sans-serif" font-weight="400" font-size="12" transform="matrix(6.12323e-17 -0.999856 1.00007 6.12279e-17 1494.16 1155)">92</text></g><g clip-path="url(#clip119)"><text fill="#595959" font-family="Calibri,Calibri_MSFontService,sans-serif" font-weight="400" font-size="12" transform="matrix(6.12323e-17 -0.999856 1.00007 6.12279e-17 1509.47 1155)">93</text></g><g clip-path="url(#clip120)"><text fill="#595959" font-family="Calibri,Calibri_MSFontService,sans-serif" font-weight="400" font-size="12" transform="matrix(6.12323e-17 -0.999856 1.00007 6.12279e-17 1524.78 1155)">94</text></g><g clip-path="url(#clip121)"><text fill="#595959" font-family="Calibri,Calibri_MSFontService,sans-serif" font-weight="400" font-size="12" transform="matrix(6.12323e-17 -0.999856 1.00007 6.12279e-17 1540.09 1155)">95</text></g><g clip-path="url(#clip122)"><text fill="#595959" font-family="Calibri,Calibri_MSFontService,sans-serif" font-weight="400" font-size="12" transform="matrix(6.12323e-17 -0.999856 1.00007 6.12279e-17 1555.4 1155)">96</text></g><g clip-path="url(#clip123)"><text fill="#595959" font-family="Calibri,Calibri_MSFontService,sans-serif" font-weight="400" font-size="12" transform="matrix(6.12323e-17 -0.999856 1.00007 6.12279e-17 1570.7 1155)">97</text></g><g clip-path="url(#clip124)"><text fill="#595959" font-family="Calibri,Calibri_MSFontService,sans-serif" font-weight="400" font-size="12" transform="matrix(6.12323e-17 -0.999856 1.00007 6.12279e-17 1586.01 1155)">98</text></g><g clip-path="url(#clip125)"><text fill="#595959" font-family="Calibri,Calibri_MSFontService,sans-serif" font-weight="400" font-size="12" transform="matrix(6.12323e-17 -0.999856 1.00007 6.12279e-17 1601.32 1155)">99</text></g><g clip-path="url(#clip126)"><text fill="#595959" font-family="Calibri,Calibri_MSFontService,sans-serif" font-weight="400" font-size="12" transform="matrix(6.12323e-17 -0.999856 1.00007 6.12279e-17 1616.63 1161)">100</text></g><g clip-path="url(#clip127)"><text fill="#595959" font-family="Calibri,Calibri_MSFontService,sans-serif" font-weight="400" font-size="12" transform="matrix(6.12323e-17 -0.999856 1.00007 6.12279e-17 1631.94 1161)">101</text></g><g clip-path="url(#clip128)"><text fill="#595959" font-family="Calibri,Calibri_MSFontService,sans-serif" font-weight="400" font-size="12" transform="matrix(6.12323e-17 -0.999856 1.00007 6.12279e-17 1647.25 1161)">102</text></g><g clip-path="url(#clip129)"><text fill="#595959" font-family="Calibri,Calibri_MSFontService,sans-serif" font-weight="400" font-size="12" transform="matrix(6.12323e-17 -0.999856 1.00007 6.12279e-17 1662.56 1161)">103</text></g><g clip-path="url(#clip130)"><text fill="#595959" font-family="Calibri,Calibri_MSFontService,sans-serif" font-weight="400" font-size="12" transform="matrix(6.12323e-17 -0.999856 1.00007 6.12279e-17 1677.87 1161)">104</text></g><g clip-path="url(#clip131)"><text fill="#595959" font-family="Calibri,Calibri_MSFontService,sans-serif" font-weight="400" font-size="12" transform="matrix(6.12323e-17 -0.999856 1.00007 6.12279e-17 1693.18 1161)">105</text></g><g clip-path="url(#clip132)"><text fill="#595959" font-family="Calibri,Calibri_MSFontService,sans-serif" font-weight="400" font-size="12" transform="matrix(6.12323e-17 -0.999856 1.00007 6.12279e-17 1708.48 1161)">106</text></g><g clip-path="url(#clip133)"><text fill="#595959" font-family="Calibri,Calibri_MSFontService,sans-serif" font-weight="400" font-size="12" transform="matrix(6.12323e-17 -0.999856 1.00007 6.12279e-17 1723.79 1161)">107</text></g><g clip-path="url(#clip134)"><text fill="#595959" font-family="Calibri,Calibri_MSFontService,sans-serif" font-weight="400" font-size="12" transform="matrix(6.12323e-17 -0.999856 1.00007 6.12279e-17 1739.1 1161)">108</text></g><g clip-path="url(#clip135)"><text fill="#595959" font-family="Calibri,Calibri_MSFontService,sans-serif" font-weight="400" font-size="12" transform="matrix(6.12323e-17 -0.999856 1.00007 6.12279e-17 1754.41 1161)">109</text></g><g clip-path="url(#clip136)"><text fill="#595959" font-family="Calibri,Calibri_MSFontService,sans-serif" font-weight="400" font-size="12" transform="matrix(6.12323e-17 -0.999856 1.00007 6.12279e-17 1769.72 1161)">110</text></g><g clip-path="url(#clip137)"><text fill="#595959" font-family="Calibri,Calibri_MSFontService,sans-serif" font-weight="400" font-size="12" transform="matrix(6.12323e-17 -0.999856 1.00007 6.12279e-17 1785.03 1161)">111</text></g><g clip-path="url(#clip138)"><text fill="#595959" font-family="Calibri,Calibri_MSFontService,sans-serif" font-weight="400" font-size="12" transform="matrix(6.12323e-17 -0.999856 1.00007 6.12279e-17 1800.34 1161)">112</text></g><g clip-path="url(#clip139)"><text fill="#595959" font-family="Calibri,Calibri_MSFontService,sans-serif" font-weight="400" font-size="12" transform="matrix(6.12323e-17 -0.999856 1.00007 6.12279e-17 1815.65 1161)">113</text></g><g clip-path="url(#clip140)"><text fill="#595959" font-family="Calibri,Calibri_MSFontService,sans-serif" font-weight="400" font-size="12" transform="matrix(6.12323e-17 -0.999856 1.00007 6.12279e-17 1830.96 1161)">114</text></g><g clip-path="url(#clip141)"><text fill="#595959" font-family="Calibri,Calibri_MSFontService,sans-serif" font-weight="400" font-size="12" transform="matrix(6.12323e-17 -0.999856 1.00007 6.12279e-17 1846.27 1161)">115</text></g><g clip-path="url(#clip142)"><text fill="#595959" font-family="Calibri,Calibri_MSFontService,sans-serif" font-weight="400" font-size="12" transform="matrix(6.12323e-17 -0.999856 1.00007 6.12279e-17 1861.57 1161)">116</text></g><g clip-path="url(#clip143)"><text fill="#595959" font-family="Calibri,Calibri_MSFontService,sans-serif" font-weight="400" font-size="12" transform="matrix(6.12323e-17 -0.999856 1.00007 6.12279e-17 1876.88 1161)">117</text></g><g clip-path="url(#clip144)"><text fill="#595959" font-family="Calibri,Calibri_MSFontService,sans-serif" font-weight="400" font-size="12" transform="matrix(6.12323e-17 -0.999856 1.00007 6.12279e-17 1892.19 1161)">118</text></g><g clip-path="url(#clip145)"><text fill="#595959" font-family="Calibri,Calibri_MSFontService,sans-serif" font-weight="400" font-size="12" transform="matrix(6.12323e-17 -0.999856 1.00007 6.12279e-17 1907.5 1161)">119</text></g><g clip-path="url(#clip146)"><text fill="#595959" font-family="Calibri,Calibri_MSFontService,sans-serif" font-weight="400" font-size="12" transform="matrix(6.12323e-17 -0.999856 1.00007 6.12279e-17 1922.81 1161)">120</text></g><g clip-path="url(#clip147)"><text fill="#595959" font-family="Calibri,Calibri_MSFontService,sans-serif" font-weight="400" font-size="12" transform="matrix(6.12323e-17 -0.999856 1.00007 6.12279e-17 1938.12 1161)">121</text></g><g clip-path="url(#clip148)"><text fill="#595959" font-family="Calibri,Calibri_MSFontService,sans-serif" font-weight="400" font-size="12" transform="matrix(6.12323e-17 -0.999856 1.00007 6.12279e-17 1953.43 1161)">122</text></g><g clip-path="url(#clip149)"><text fill="#595959" font-family="Calibri,Calibri_MSFontService,sans-serif" font-weight="400" font-size="12" transform="matrix(6.12323e-17 -0.999856 1.00007 6.12279e-17 1968.74 1161)">123</text></g><g clip-path="url(#clip150)"><text fill="#595959" font-family="Calibri,Calibri_MSFontService,sans-serif" font-weight="400" font-size="12" transform="matrix(6.12323e-17 -0.999856 1.00007 6.12279e-17 1984.05 1161)">124</text></g><g clip-path="url(#clip151)"><text fill="#595959" font-family="Calibri,Calibri_MSFontService,sans-serif" font-weight="400" font-size="12" transform="matrix(6.12323e-17 -0.999856 1.00007 6.12279e-17 1999.35 1161)">125</text></g><g clip-path="url(#clip152)"><text fill="#595959" font-family="Calibri,Calibri_MSFontService,sans-serif" font-weight="400" font-size="12" transform="matrix(6.12323e-17 -0.999856 1.00007 6.12279e-17 2014.66 1161)">126</text></g><g clip-path="url(#clip153)"><text fill="#595959" font-family="Calibri,Calibri_MSFontService,sans-serif" font-weight="400" font-size="12" transform="matrix(6.12323e-17 -0.999856 1.00007 6.12279e-17 2029.97 1161)">127</text></g><g clip-path="url(#clip154)"><text fill="#595959" font-family="Calibri,Calibri_MSFontService,sans-serif" font-weight="400" font-size="12" transform="matrix(6.12323e-17 -0.999856 1.00007 6.12279e-17 2045.28 1161)">128</text></g><g clip-path="url(#clip155)"><text fill="#595959" font-family="Calibri,Calibri_MSFontService,sans-serif" font-weight="400" font-size="12" transform="matrix(6.12323e-17 -0.999856 1.00007 6.12279e-17 2060.59 1161)">129</text></g><g clip-path="url(#clip156)"><text fill="#595959" font-family="Calibri,Calibri_MSFontService,sans-serif" font-weight="400" font-size="12" transform="matrix(6.12323e-17 -0.999856 1.00007 6.12279e-17 2075.9 1161)">130</text></g><g clip-path="url(#clip157)"><text fill="#595959" font-family="Calibri,Calibri_MSFontService,sans-serif" font-weight="400" font-size="12" transform="matrix(6.12323e-17 -0.999856 1.00007 6.12279e-17 2091.21 1161)">131</text></g><g clip-path="url(#clip158)"><text fill="#595959" font-family="Calibri,Calibri_MSFontService,sans-serif" font-weight="400" font-size="12" transform="matrix(6.12323e-17 -0.999856 1.00007 6.12279e-17 2106.52 1161)">132</text></g><g clip-path="url(#clip159)"><text fill="#595959" font-family="Calibri,Calibri_MSFontService,sans-serif" font-weight="400" font-size="12" transform="matrix(6.12323e-17 -0.999856 1.00007 6.12279e-17 2121.83 1161)">133</text></g><g clip-path="url(#clip160)"><text fill="#595959" font-family="Calibri,Calibri_MSFontService,sans-serif" font-weight="400" font-size="12" transform="matrix(6.12323e-17 -0.999856 1.00007 6.12279e-17 2137.13 1161)">134</text></g><g clip-path="url(#clip161)"><text fill="#595959" font-family="Calibri,Calibri_MSFontService,sans-serif" font-weight="400" font-size="12" transform="matrix(6.12323e-17 -0.999856 1.00007 6.12279e-17 2152.44 1161)">135</text></g><g clip-path="url(#clip162)"><text fill="#595959" font-family="Calibri,Calibri_MSFontService,sans-serif" font-weight="400" font-size="12" transform="matrix(6.12323e-17 -0.999856 1.00007 6.12279e-17 2167.75 1161)">136</text></g><g clip-path="url(#clip163)"><text fill="#595959" font-family="Calibri,Calibri_MSFontService,sans-serif" font-weight="400" font-size="12" transform="matrix(6.12323e-17 -0.999856 1.00007 6.12279e-17 2183.06 1161)">137</text></g><g clip-path="url(#clip164)"><text fill="#595959" font-family="Calibri,Calibri_MSFontService,sans-serif" font-weight="400" font-size="12" transform="matrix(6.12323e-17 -0.999856 1.00007 6.12279e-17 2198.37 1161)">138</text></g><g clip-path="url(#clip165)"><text fill="#595959" font-family="Calibri,Calibri_MSFontService,sans-serif" font-weight="400" font-size="12" transform="matrix(6.12323e-17 -0.999856 1.00007 6.12279e-17 2213.68 1161)">139</text></g><g clip-path="url(#clip166)"><text fill="#595959" font-family="Calibri,Calibri_MSFontService,sans-serif" font-weight="400" font-size="12" transform="matrix(6.12323e-17 -0.999856 1.00007 6.12279e-17 2228.99 1161)">140</text></g><g clip-path="url(#clip167)"><text fill="#595959" font-family="Calibri,Calibri_MSFontService,sans-serif" font-weight="400" font-size="12" transform="matrix(6.12323e-17 -0.999856 1.00007 6.12279e-17 2244.3 1161)">141</text></g><g clip-path="url(#clip168)"><text fill="#595959" font-family="Calibri,Calibri_MSFontService,sans-serif" font-weight="400" font-size="12" transform="matrix(6.12323e-17 -0.999856 1.00007 6.12279e-17 2259.61 1161)">142</text></g><g clip-path="url(#clip169)"><text fill="#595959" font-family="Calibri,Calibri_MSFontService,sans-serif" font-weight="400" font-size="12" transform="matrix(6.12323e-17 -0.999856 1.00007 6.12279e-17 2274.92 1161)">143</text></g><g clip-path="url(#clip170)"><text fill="#595959" font-family="Calibri,Calibri_MSFontService,sans-serif" font-weight="400" font-size="12" transform="matrix(6.12323e-17 -0.999856 1.00007 6.12279e-17 2290.22 1161)">144</text></g><g clip-path="url(#clip171)"><text fill="#595959" font-family="Calibri,Calibri_MSFontService,sans-serif" font-weight="400" font-size="19" transform="matrix(1 0 0 0.999928 936.384 28)">Resource distribution by altitude (Minecraft 1.18, Nether)</text></g><g clip-path="url(#clip172)"><path d="M218.5 1180.41 244.5 1180.41" stroke="#AD5B5B" stroke-width="3.00022" stroke-linecap="round" stroke-linejoin="round" stroke-miterlimit="10" fill="none" fill-rule="evenodd"/></g><g clip-path="url(#clip173)"><text fill="#595959" font-family="Calibri,Calibri_MSFontService,sans-serif" font-weight="400" font-size="12" transform="matrix(1 0 0 0.999928 247.139 1184)">minecraft:netherrack</text></g><g clip-path="url(#clip174)"><path d="M381.5 1180.41 407.5 1180.41" stroke="#00B0F0" stroke-width="3.00022" stroke-linecap="round" stroke-linejoin="round" stroke-miterlimit="10" fill="none" fill-rule="evenodd"/></g><g clip-path="url(#clip175)"><text fill="#595959" font-family="Calibri,Calibri_MSFontService,sans-serif" font-weight="400" font-size="12" transform="matrix(1 0 0 0.999928 409.749 1184)">minecraft:basalt</text></g><g clip-path="url(#clip176)"><path d="M520.5 1180.41 545.5 1180.41" stroke="#ED7D31" stroke-width="3.00022" stroke-linecap="round" stroke-linejoin="round" stroke-miterlimit="10" fill="none" fill-rule="evenodd"/></g><g clip-path="url(#clip177)"><text fill="#595959" font-family="Calibri,Calibri_MSFontService,sans-serif" font-weight="400" font-size="12" transform="matrix(1 0 0 0.999928 548.397 1184)">minecraft:lava</text></g><g clip-path="url(#clip178)"><path d="M649.5 1180.41 674.5 1180.41" stroke="#3B3838" stroke-width="3.00022" stroke-linecap="round" stroke-linejoin="round" stroke-miterlimit="10" fill="none" fill-rule="evenodd"/></g><g clip-path="url(#clip179)"><text fill="#595959" font-family="Calibri,Calibri_MSFontService,sans-serif" font-weight="400" font-size="12" transform="matrix(1 0 0 0.999928 677.445 1184)">minecraft:blackstone</text></g><g clip-path="url(#clip180)"><path d="M811.5 1180.41 836.5 1180.41" stroke="#7030A0" stroke-width="3.00022" stroke-linecap="round" stroke-linejoin="round" stroke-miterlimit="10" fill="none" fill-rule="evenodd"/></g><g clip-path="url(#clip181)"><text fill="#595959" font-family="Calibri,Calibri_MSFontService,sans-serif" font-weight="400" font-size="12" transform="matrix(1 0 0 0.999928 839.482 1184)">minecraft:soul_sand</text></g><g clip-path="url(#clip182)"><path d="M969.5 1180.41 995.5 1180.41" stroke="#BFBFBF" stroke-width="3.00022" stroke-linecap="round" stroke-linejoin="round" stroke-miterlimit="10" fill="none" fill-rule="evenodd"/></g><g clip-path="url(#clip183)"><text fill="#595959" font-family="Calibri,Calibri_MSFontService,sans-serif" font-weight="400" font-size="12" transform="matrix(1 0 0 0.999928 997.971 1184)">minecraft:nether_quartz_ore</text></g><g clip-path="url(#clip184)"><path d="M1171.5 1180.41 1197.5 1180.41" stroke="#BF9000" stroke-width="3.00022" stroke-linecap="round" stroke-linejoin="round" stroke-miterlimit="10" fill="none" fill-rule="evenodd"/></g><g clip-path="url(#clip185)"><text fill="#595959" font-family="Calibri,Calibri_MSFontService,sans-serif" font-weight="400" font-size="12" transform="matrix(1 0 0 0.999928 1199.86 1184)">minecraft:nether_gold_ore</text></g><g clip-path="url(#clip186)"><path d="M1363.5 1180.41 1388.5 1180.41" stroke="#A9D18E" stroke-width="3.00022" stroke-linecap="round" stroke-linejoin="round" stroke-miterlimit="10" fill="none" fill-rule="evenodd"/></g><g clip-path="url(#clip187)"><text fill="#595959" font-family="Calibri,Calibri_MSFontService,sans-serif" font-weight="400" font-size="12" transform="matrix(1 0 0 0.999928 1391.48 1184)">minecraft:nether_bricks</text></g><g clip-path="url(#clip188)"><path d="M1539.5 1180.41 1565.5 1180.41" stroke="#0070C0" stroke-width="3.00022" stroke-linecap="round" stroke-linejoin="round" stroke-miterlimit="10" fill="none" fill-rule="evenodd"/></g><g clip-path="url(#clip189)"><text fill="#595959" font-family="Calibri,Calibri_MSFontService,sans-serif" font-weight="400" font-size="12" transform="matrix(1 0 0 0.999928 1568.07 1184)">minecraft:polished_blackstone_bricks</text></g><g clip-path="url(#clip190)"><path d="M1783.5 1180.41 1809.5 1180.41" stroke="#FFC000" stroke-width="3.00022" stroke-linecap="round" stroke-linejoin="round" stroke-miterlimit="10" fill="none" fill-rule="evenodd"/></g><g clip-path="url(#clip191)"><text fill="#595959" font-family="Calibri,Calibri_MSFontService,sans-serif" font-weight="400" font-size="12" transform="matrix(1 0 0 0.999928 1811.95 1184)">minecraft:glowstone</text></g><g clip-path="url(#clip192)"><path d="M1943.5 1180.41 1969.5 1180.41" stroke="#B6A688" stroke-width="3.00022" stroke-linecap="round" stroke-linejoin="round" stroke-miterlimit="10" fill="none" fill-rule="evenodd"/></g><g clip-path="url(#clip193)"><text fill="#595959" font-family="Calibri,Calibri_MSFontService,sans-serif" font-weight="400" font-size="12" transform="matrix(1 0 0 0.999928 1971.96 1184)">minecraft:ancient_debris</text></g></g></svg>