<svg width="6681" height="4128" xmlns="http://www.w3.org/2000/svg" xmlns:xlink="http://www.w3.org/1999/xlink" overflow="hidden"><defs><clipPath id="clip0"><rect x="198" y="549" width="6681" height="4128"/></clipPath><clipPath id="clip1"><rect x="199" y="550" width="6677" height="4125"/></clipPath><clipPath id="clip2"><rect x="199" y="550" width="6677" height="4125"/></clipPath><clipPath id="clip3"><rect x="199" y="550" width="6677" height="4125"/></clipPath><clipPath id="clip4"><rect x="199" y="550" width="6677" height="4125"/></clipPath><clipPath id="clip5"><rect x="199" y="550" width="6677" height="4125"/></clipPath><clipPath id="clip6"><rect x="570" y="715" width="6259" height="3645"/></clipPath><clipPath id="clip7"><rect x="570" y="715" width="6259" height="3645"/></clipPath><clipPath id="clip8"><rect x="570" y="715" width="6259" height="3645"/></clipPath><clipPath id="clip9"><rect x="570" y="715" width="6259" height="3645"/></clipPath><clipPath id="clip10"><rect x="570" y="715" width="6259" height="3645"/></clipPath><clipPath id="clip11"><rect x="570" y="715" width="6259" height="3645"/></clipPath><clipPath id="clip12"><rect x="199" y="550" width="6677" height="4125"/></clipPath><clipPath id="clip13"><rect x="199" y="550" width="6677" height="4125"/></clipPath><clipPath id="clip14"><rect x="199" y="550" width="6677" height="4125"/></clipPath><clipPath id="clip15"><rect x="199" y="550" width="6677" height="4125"/></clipPath><clipPath id="clip16"><rect x="199" y="550" width="6677" height="4125"/></clipPath><clipPath id="clip17"><rect x="199" y="550" width="6677" height="4125"/></clipPath><clipPath id="clip18"><rect x="199" y="550" width="6677" height="4125"/></clipPath><clipPath id="clip19"><rect x="199" y="550" width="6677" height="4125"/></clipPath><clipPath id="clip20"><rect x="199" y="550" width="6677" height="4125"/></clipPath><clipPath id="clip21"><rect x="199" y="550" width="6677" height="4125"/></clipPath><clipPath id="clip22"><rect x="199" y="550" width="6677" height="4125"/></clipPath><clipPath id="clip23"><rect x="199" y="550" width="6677" height="4125"/></clipPath><clipPath id="clip24"><rect x="199" y="550" width="6677" height="4125"/></clipPath><clipPath id="clip25"><rect x="199" y="550" width="6677" height="4125"/></clipPath><clipPath id="clip26"><rect x="199" y="550" width="6677" height="4125"/></clipPath><clipPath id="clip27"><rect x="199" y="550" width="6677" height="4125"/></clipPath><clipPath id="clip28"><rect x="199" y="550" width="6677" height="4125"/></clipPath><clipPath id="clip29"><rect x="199" y="550" width="6677" height="4125"/></clipPath><clipPath id="clip30"><rect x="199" y="550" width="6677" height="4125"/></clipPath><clipPath id="clip31"><rect x="199" y="550" width="6677" height="4125"/></clipPath><clipPath id="clip32"><rect x="199" y="550" width="6677" height="4125"/></clipPath><clipPath id="clip33"><rect x="199" y="550" width="6677" height="4125"/></clipPath><clipPath id="clip34"><rect x="199" y="550" width="6677" height="4125"/></clipPath><clipPath id="clip35"><rect x="199" y="550" width="6677" height="4125"/></clipPath><clipPath id="clip36"><rect x="199" y="550" width="6677" height="4125"/></clipPath><clipPath id="clip37"><rect x="199" y="550" width="6677" height="4125"/></clipPath><clipPath id="clip38"><rect x="199" y="550" width="6677" height="4125"/></clipPath><clipPath id="clip39"><rect x="199" y="550" width="6677" height="4125"/></clipPath><clipPath id="clip40"><rect x="199" y="550" width="6677" height="4125"/></clipPath><clipPath id="clip41"><rect x="199" y="550" width="6677" height="4125"/></clipPath><clipPath id="clip42"><rect x="199" y="550" width="6677" height="4125"/></clipPath><clipPath id="clip43"><rect x="199" y="550" width="6677" height="4125"/></clipPath><clipPath id="clip44"><rect x="199" y="550" width="6677" height="4125"/></clipPath><clipPath id="clip45"><rect x="199" y="550" width="6677" height="4125"/></clipPath><clipPath id="clip46"><rect x="199" y="550" width="6677" height="4125"/></clipPath><clipPath id="clip47"><rect x="199" y="550" width="6677" height="4125"/></clipPath><clipPath id="clip48"><rect x="199" y="550" width="6677" height="4125"/></clipPath><clipPath id="clip49"><rect x="199" y="550" width="6677" height="4125"/></clipPath><clipPath id="clip50"><rect x="199" y="550" width="6677" height="4125"/></clipPath><clipPath id="clip51"><rect x="199" y="550" width="6677" height="4125"/></clipPath><clipPath id="clip52"><rect x="199" y="550" width="6677" height="4125"/></clipPath><clipPath id="clip53"><rect x="199" y="550" width="6677" height="4125"/></clipPath><clipPath id="clip54"><rect x="199" y="550" width="6677" height="4125"/></clipPath><clipPath id="clip55"><rect x="199" y="550" width="6677" height="4125"/></clipPath><clipPath id="clip56"><rect x="199" y="550" width="6677" height="4125"/></clipPath><clipPath id="clip57"><rect x="199" y="550" width="6677" height="4125"/></clipPath><clipPath id="clip58"><rect x="199" y="550" width="6677" height="4125"/></clipPath><clipPath id="clip59"><rect x="199" y="550" width="6677" height="4125"/></clipPath><clipPath id="clip60"><rect x="199" y="550" width="6677" height="4125"/></clipPath><clipPath id="clip61"><rect x="199" y="550" width="6677" height="4125"/></clipPath><clipPath id="clip62"><rect x="199" y="550" width="6677" height="4125"/></clipPath><clipPath id="clip63"><rect x="199" y="550" width="6677" height="4125"/></clipPath><clipPath id="clip64"><rect x="199" y="550" width="6677" height="4125"/></clipPath><clipPath id="clip65"><rect x="199" y="550" width="6677" height="4125"/></clipPath><clipPath id="clip66"><rect x="199" y="550" width="6677" height="4125"/></clipPath><clipPath id="clip67"><rect x="199" y="550" width="6677" height="4125"/></clipPath><clipPath id="clip68"><rect x="199" y="550" width="6677" height="4125"/></clipPath><clipPath id="clip69"><rect x="199" y="550" width="6677" height="4125"/></clipPath><clipPath id="clip70"><rect x="199" y="550" width="6677" height="4125"/></clipPath><clipPath id="clip71"><rect x="199" y="550" width="6677" height="4125"/></clipPath><clipPath id="clip72"><rect x="199" y="550" width="6677" height="4125"/></clipPath><clipPath id="clip73"><rect x="199" y="550" width="6677" height="4125"/></clipPath><clipPath id="clip74"><rect x="199" y="550" width="6677" height="4125"/></clipPath><clipPath id="clip75"><rect x="199" y="550" width="6677" height="4125"/></clipPath><clipPath id="clip76"><rect x="199" y="550" width="6677" height="4125"/></clipPath><clipPath id="clip77"><rect x="199" y="550" width="6677" height="4125"/></clipPath><clipPath id="clip78"><rect x="199" y="550" width="6677" height="4125"/></clipPath><clipPath id="clip79"><rect x="199" y="550" width="6677" height="4125"/></clipPath><clipPath id="clip80"><rect x="199" y="550" width="6677" height="4125"/></clipPath><clipPath id="clip81"><rect x="199" y="550" width="6677" height="4125"/></clipPath><clipPath id="clip82"><rect x="199" y="550" width="6677" height="4125"/></clipPath><clipPath id="clip83"><rect x="199" y="550" width="6677" height="4125"/></clipPath><clipPath id="clip84"><rect x="199" y="550" width="6677" height="4125"/></clipPath><clipPath id="clip85"><rect x="199" y="550" width="6677" height="4125"/></clipPath><clipPath id="clip86"><rect x="199" y="550" width="6677" height="4125"/></clipPath><clipPath id="clip87"><rect x="199" y="550" width="6677" height="4125"/></clipPath><clipPath id="clip88"><rect x="199" y="550" width="6677" height="4125"/></clipPath><clipPath id="clip89"><rect x="199" y="550" width="6677" height="4125"/></clipPath><clipPath id="clip90"><rect x="199" y="550" width="6677" height="4125"/></clipPath><clipPath id="clip91"><rect x="199" y="550" width="6677" height="4125"/></clipPath><clipPath id="clip92"><rect x="199" y="550" width="6677" height="4125"/></clipPath><clipPath id="clip93"><rect x="199" y="550" width="6677" height="4125"/></clipPath><clipPath id="clip94"><rect x="199" y="550" width="6677" height="4125"/></clipPath><clipPath id="clip95"><rect x="199" y="550" width="6677" height="4125"/></clipPath><clipPath id="clip96"><rect x="199" y="550" width="6677" height="4125"/></clipPath><clipPath id="clip97"><rect x="199" y="550" width="6677" height="4125"/></clipPath><clipPath id="clip98"><rect x="199" y="550" width="6677" height="4125"/></clipPath><clipPath id="clip99"><rect x="199" y="550" width="6677" height="4125"/></clipPath><clipPath id="clip100"><rect x="199" y="550" width="6677" height="4125"/></clipPath><clipPath id="clip101"><rect x="199" y="550" width="6677" height="4125"/></clipPath><clipPath id="clip102"><rect x="199" y="550" width="6677" height="4125"/></clipPath><clipPath id="clip103"><rect x="199" y="550" width="6677" height="4125"/></clipPath><clipPath id="clip104"><rect x="199" y="550" width="6677" height="4125"/></clipPath><clipPath id="clip105"><rect x="199" y="550" width="6677" height="4125"/></clipPath><clipPath id="clip106"><rect x="199" y="550" width="6677" height="4125"/></clipPath><clipPath id="clip107"><rect x="199" y="550" width="6677" height="4125"/></clipPath><clipPath id="clip108"><rect x="199" y="550" width="6677" height="4125"/></clipPath><clipPath id="clip109"><rect x="199" y="550" width="6677" height="4125"/></clipPath><clipPath id="clip110"><rect x="199" y="550" width="6677" height="4125"/></clipPath><clipPath id="clip111"><rect x="199" y="550" width="6677" height="4125"/></clipPath><clipPath id="clip112"><rect x="199" y="550" width="6677" height="4125"/></clipPath><clipPath id="clip113"><rect x="199" y="550" width="6677" height="4125"/></clipPath><clipPath id="clip114"><rect x="199" y="550" width="6677" height="4125"/></clipPath><clipPath id="clip115"><rect x="199" y="550" width="6677" height="4125"/></clipPath><clipPath id="clip116"><rect x="199" y="550" width="6677" height="4125"/></clipPath><clipPath id="clip117"><rect x="199" y="550" width="6677" height="4125"/></clipPath><clipPath id="clip118"><rect x="199" y="550" width="6677" height="4125"/></clipPath><clipPath id="clip119"><rect x="199" y="550" width="6677" height="4125"/></clipPath><clipPath id="clip120"><rect x="199" y="550" width="6677" height="4125"/></clipPath><clipPath id="clip121"><rect x="199" y="550" width="6677" height="4125"/></clipPath></defs><g clip-path="url(#clip0)" transform="translate(-198 -549)"><rect x="199" y="550" width="6678" height="4125" fill="#FFFFFF"/><g clip-path="url(#clip1)"><path d="M570.5 4220.64 6826.5 4220.64M570.5 4140.64 6826.5 4140.64M570.5 4083.63 6826.5 4083.63M570.5 4039.63 6826.5 4039.63M570.5 4003.63 6826.5 4003.63M570.5 3972.63 6826.5 3972.63M570.5 3946.63 6826.5 3946.63M570.5 3922.63 6826.5 3922.63M570.5 3765.62 6826.5 3765.62M570.5 3684.62 6826.5 3684.62M570.5 3628.62 6826.5 3628.62M570.5 3583.62 6826.5 3583.62M570.5 3547.62 6826.5 3547.62M570.5 3517.62 6826.5 3517.62M570.5 3491.61 6826.5 3491.61M570.5 3467.61 6826.5 3467.61M570.5 3309.61 6826.5 3309.61M570.5 3229.61 6826.5 3229.61M570.5 3172.6 6826.5 3172.6M570.5 3128.6 6826.5 3128.6M570.5 3092.6 6826.5 3092.6M570.5 3062.6 6826.5 3062.6M570.5 3035.6 6826.5 3035.6M570.5 3012.6 6826.5 3012.6M570.5 2854.59 6826.5 2854.59M570.5 2774.59 6826.5 2774.59M570.5 2717.59 6826.5 2717.59M570.5 2673.59 6826.5 2673.59M570.5 2637.59 6826.5 2637.59M570.5 2606.59 6826.5 2606.59M570.5 2580.58 6826.5 2580.58M570.5 2557.58 6826.5 2557.58M570.5 2399.58 6826.5 2399.58M570.5 2319.58 6826.5 2319.58M570.5 2262.57 6826.5 2262.57M570.5 2218.57 6826.5 2218.57M570.5 2182.57 6826.5 2182.57M570.5 2151.57 6826.5 2151.57M570.5 2125.57 6826.5 2125.57M570.5 2101.57 6826.5 2101.57M570.5 1944.56 6826.5 1944.56M570.5 1863.56 6826.5 1863.56M570.5 1807.56 6826.5 1807.56M570.5 1762.56 6826.5 1762.56M570.5 1726.56 6826.5 1726.56M570.5 1696.56 6826.5 1696.56M570.5 1670.55 6826.5 1670.55M570.5 1646.55 6826.5 1646.55M570.5 1488.55 6826.5 1488.55M570.5 1408.55 6826.5 1408.55M570.5 1351.54 6826.5 1351.54M570.5 1307.54 6826.5 1307.54M570.5 1271.54 6826.5 1271.54M570.5 1241.54 6826.5 1241.54M570.5 1214.54 6826.5 1214.54M570.5 1191.54 6826.5 1191.54M570.5 1033.53 6826.5 1033.53M570.5 953.531 6826.5 953.531M570.5 896.53 6826.5 896.53M570.5 852.528 6826.5 852.528M570.5 816.527 6826.5 816.527M570.5 785.526 6826.5 785.526M570.5 759.525 6826.5 759.525M570.5 736.524 6826.5 736.524" stroke="#F2F2F2" stroke-width="3.4375" stroke-linejoin="round" stroke-miterlimit="10" fill="none"/></g><g clip-path="url(#clip2)"><path d="M570.5 3902.63 6826.5 3902.63M570.5 3446.61 6826.5 3446.61M570.5 2991.6 6826.5 2991.6M570.5 2536.58 6826.5 2536.58M570.5 2081.57 6826.5 2081.57M570.5 1625.55 6826.5 1625.55M570.5 1170.54 6826.5 1170.54M570.5 715.5 6826.5 715.5" stroke="#D9D9D9" stroke-width="3.4375" stroke-linejoin="round" stroke-miterlimit="10" fill="none"/></g><g clip-path="url(#clip3)"><path d="M582.519 715.5 582.519 4357.5M594.52 715.5 594.52 4357.5M606.52 715.5 606.52 4357.5M618.52 715.5 618.52 4357.5M631.521 715.5 631.521 4357.5M643.521 715.5 643.521 4357.5M655.522 715.5 655.522 4357.5M667.522 715.5 667.522 4357.5M680.523 715.5 680.523 4357.5M692.523 715.5 692.523 4357.5M704.523 715.5 704.523 4357.5M716.524 715.5 716.524 4357.5M728.524 715.5 728.524 4357.5M741.525 715.5 741.525 4357.5M753.525 715.5 753.525 4357.5M765.525 715.5 765.525 4357.5M777.526 715.5 777.526 4357.5M789.526 715.5 789.526 4357.5M802.526 715.5 802.526 4357.5M814.527 715.5 814.527 4357.5M826.527 715.5 826.527 4357.5M838.528 715.5 838.528 4357.5M851.528 715.5 851.528 4357.5M863.529 715.5 863.529 4357.5M875.529 715.5 875.529 4357.5M887.529 715.5 887.529 4357.5M899.53 715.5 899.53 4357.5M912.53 715.5 912.53 4357.5M924.531 715.5 924.531 4357.5M936.531 715.5 936.531 4357.5M948.531 715.5 948.531 4357.5M961.532 715.5 961.532 4357.5M973.532 715.5 973.532 4357.5M985.532 715.5 985.532 4357.5M997.533 715.5 997.533 4357.5M1009.53 715.5 1009.53 4357.5M1022.53 715.5 1022.53 4357.5M1034.53 715.5 1034.53 4357.5M1046.53 715.5 1046.53 4357.5M1058.53 715.5 1058.53 4357.5M1071.54 715.5 1071.54 4357.5M1083.54 715.5 1083.54 4357.5M1095.54 715.5 1095.54 4357.5M1107.54 715.5 1107.54 4357.5M1119.54 715.5 1119.54 4357.5M1132.54 715.5 1132.54 4357.5M1144.54 715.5 1144.54 4357.5M1156.54 715.5 1156.54 4357.5M1168.54 715.5 1168.54 4357.5M1181.54 715.5 1181.54 4357.5M1193.54 715.5 1193.54 4357.5M1205.54 715.5 1205.54 4357.5M1217.54 715.5 1217.54 4357.5M1229.54 715.5 1229.54 4357.5M1242.54 715.5 1242.54 4357.5M1254.54 715.5 1254.54 4357.5M1266.54 715.5 1266.54 4357.5M1278.54 715.5 1278.54 4357.5M1290.54 715.5 1290.54 4357.5M1303.54 715.5 1303.54 4357.5M1315.54 715.5 1315.54 4357.5M1327.54 715.5 1327.54 4357.5M1339.54 715.5 1339.54 4357.5M1352.54 715.5 1352.54 4357.5M1364.54 715.5 1364.54 4357.5M1376.55 715.5 1376.55 4357.5M1388.55 715.5 1388.55 4357.5M1400.55 715.5 1400.55 4357.5M1413.55 715.5 1413.55 4357.5M1425.55 715.5 1425.55 4357.5M1437.55 715.5 1437.55 4357.5M1449.55 715.5 1449.55 4357.5M1462.55 715.5 1462.55 4357.5M1474.55 715.5 1474.55 4357.5M1486.55 715.5 1486.55 4357.5M1498.55 715.5 1498.55 4357.5M1510.55 715.5 1510.55 4357.5M1523.55 715.5 1523.55 4357.5M1535.55 715.5 1535.55 4357.5M1547.55 715.5 1547.55 4357.5M1559.55 715.5 1559.55 4357.5M1572.55 715.5 1572.55 4357.5M1584.55 715.5 1584.55 4357.5M1596.55 715.5 1596.55 4357.5M1608.55 715.5 1608.55 4357.5M1620.55 715.5 1620.55 4357.5M1633.55 715.5 1633.55 4357.5M1645.55 715.5 1645.55 4357.5M1657.55 715.5 1657.55 4357.5M1669.55 715.5 1669.55 4357.5M1681.56 715.5 1681.56 4357.5M1694.56 715.5 1694.56 4357.5M1706.56 715.5 1706.56 4357.5M1718.56 715.5 1718.56 4357.5M1730.56 715.5 1730.56 4357.5M1743.56 715.5 1743.56 4357.5M1755.56 715.5 1755.56 4357.5M1767.56 715.5 1767.56 4357.5M1779.56 715.5 1779.56 4357.5M1791.56 715.5 1791.56 4357.5M1804.56 715.5 1804.56 4357.5M1816.56 715.5 1816.56 4357.5M1828.56 715.5 1828.56 4357.5M1840.56 715.5 1840.56 4357.5M1853.56 715.5 1853.56 4357.5M1865.56 715.5 1865.56 4357.5M1877.56 715.5 1877.56 4357.5M1889.56 715.5 1889.56 4357.5M1901.56 715.5 1901.56 4357.5M1914.56 715.5 1914.56 4357.5M1926.56 715.5 1926.56 4357.5M1938.56 715.5 1938.56 4357.5M1950.56 715.5 1950.56 4357.5M1963.56 715.5 1963.56 4357.5M1975.56 715.5 1975.56 4357.5M1987.57 715.5 1987.57 4357.5M1999.57 715.5 1999.57 4357.5M2011.57 715.5 2011.57 4357.5M2024.57 715.5 2024.57 4357.5M2036.57 715.5 2036.57 4357.5M2048.57 715.5 2048.57 4357.5M2060.57 715.5 2060.57 4357.5M2072.57 715.5 2072.57 4357.5M2085.57 715.5 2085.57 4357.5M2097.57 715.5 2097.57 4357.5M2109.57 715.5 2109.57 4357.5M2121.57 715.5 2121.57 4357.5M2134.57 715.5 2134.57 4357.5M2146.57 715.5 2146.57 4357.5M2158.57 715.5 2158.57 4357.5M2170.57 715.5 2170.57 4357.5M2182.57 715.5 2182.57 4357.5M2195.57 715.5 2195.57 4357.5M2207.57 715.5 2207.57 4357.5M2219.57 715.5 2219.57 4357.5M2231.57 715.5 2231.57 4357.5M2244.57 715.5 2244.57 4357.5M2256.57 715.5 2256.57 4357.5M2268.57 715.5 2268.57 4357.5M2280.57 715.5 2280.57 4357.5M2292.58 715.5 2292.58 4357.5M2305.58 715.5 2305.58 4357.5M2317.58 715.5 2317.58 4357.5M2329.58 715.5 2329.58 4357.5M2341.58 715.5 2341.58 4357.5M2354.58 715.5 2354.58 4357.5M2366.58 715.5 2366.58 4357.5M2378.58 715.5 2378.58 4357.5M2390.58 715.5 2390.58 4357.5M2402.58 715.5 2402.58 4357.5M2415.58 715.5 2415.58 4357.5M2427.58 715.5 2427.58 4357.5M2439.58 715.5 2439.58 4357.5M2451.58 715.5 2451.58 4357.5M2463.58 715.5 2463.58 4357.5M2476.58 715.5 2476.58 4357.5M2488.58 715.5 2488.58 4357.5M2500.58 715.5 2500.58 4357.5M2512.58 715.5 2512.58 4357.5M2525.58 715.5 2525.58 4357.5M2537.58 715.5 2537.58 4357.5M2549.58 715.5 2549.58 4357.5M2561.58 715.5 2561.58 4357.5M2573.58 715.5 2573.58 4357.5M2586.58 715.5 2586.58 4357.5M2598.59 715.5 2598.59 4357.5M2610.59 715.5 2610.59 4357.5M2622.59 715.5 2622.59 4357.5M2635.59 715.5 2635.59 4357.5M2647.59 715.5 2647.59 4357.5M2659.59 715.5 2659.59 4357.5M2671.59 715.5 2671.59 4357.5M2683.59 715.5 2683.59 4357.5M2696.59 715.5 2696.59 4357.5M2708.59 715.5 2708.59 4357.5M2720.59 715.5 2720.59 4357.5M2732.59 715.5 2732.59 4357.5M2745.59 715.5 2745.59 4357.5M2757.59 715.5 2757.59 4357.5M2769.59 715.5 2769.59 4357.5M2781.59 715.5 2781.59 4357.5M2793.59 715.5 2793.59 4357.5M2806.59 715.5 2806.59 4357.5M2818.59 715.5 2818.59 4357.5M2830.59 715.5 2830.59 4357.5M2842.59 715.5 2842.59 4357.5M2854.59 715.5 2854.59 4357.5M2867.59 715.5 2867.59 4357.5M2879.59 715.5 2879.59 4357.5M2891.6 715.5 2891.6 4357.5M2903.6 715.5 2903.6 4357.5M2916.6 715.5 2916.6 4357.5M2928.6 715.5 2928.6 4357.5M2940.6 715.5 2940.6 4357.5M2952.6 715.5 2952.6 4357.5M2964.6 715.5 2964.6 4357.5M2977.6 715.5 2977.6 4357.5M2989.6 715.5 2989.6 4357.5M3001.6 715.5 3001.6 4357.5M3013.6 715.5 3013.6 4357.5M3026.6 715.5 3026.6 4357.5M3038.6 715.5 3038.6 4357.5M3050.6 715.5 3050.6 4357.5M3062.6 715.5 3062.6 4357.5M3074.6 715.5 3074.6 4357.5M3087.6 715.5 3087.6 4357.5M3099.6 715.5 3099.6 4357.5M3111.6 715.5 3111.6 4357.5M3123.6 715.5 3123.6 4357.5M3136.6 715.5 3136.6 4357.5M3148.6 715.5 3148.6 4357.5M3160.6 715.5 3160.6 4357.5M3172.6 715.5 3172.6 4357.5M3184.6 715.5 3184.6 4357.5M3197.6 715.5 3197.6 4357.5M3209.61 715.5 3209.61 4357.5M3221.61 715.5 3221.61 4357.5M3233.61 715.5 3233.61 4357.5M3246.61 715.5 3246.61 4357.5M3258.61 715.5 3258.61 4357.5M3270.61 715.5 3270.61 4357.5M3282.61 715.5 3282.61 4357.5M3294.61 715.5 3294.61 4357.5M3307.61 715.5 3307.61 4357.5M3319.61 715.5 3319.61 4357.5M3331.61 715.5 3331.61 4357.5M3343.61 715.5 3343.61 4357.5M3355.61 715.5 3355.61 4357.5M3368.61 715.5 3368.61 4357.5M3380.61 715.5 3380.61 4357.5M3392.61 715.5 3392.61 4357.5M3404.61 715.5 3404.61 4357.5M3417.61 715.5 3417.61 4357.5M3429.61 715.5 3429.61 4357.5M3441.61 715.5 3441.61 4357.5M3453.61 715.5 3453.61 4357.5M3465.61 715.5 3465.61 4357.5M3478.61 715.5 3478.61 4357.5M3490.61 715.5 3490.61 4357.5M3502.62 715.5 3502.62 4357.5M3514.62 715.5 3514.62 4357.5M3527.62 715.5 3527.62 4357.5M3539.62 715.5 3539.62 4357.5M3551.62 715.5 3551.62 4357.5M3563.62 715.5 3563.62 4357.5M3575.62 715.5 3575.62 4357.5M3588.62 715.5 3588.62 4357.5M3600.62 715.5 3600.62 4357.5M3612.62 715.5 3612.62 4357.5M3624.62 715.5 3624.62 4357.5M3637.62 715.5 3637.62 4357.5M3649.62 715.5 3649.62 4357.5M3661.62 715.5 3661.62 4357.5M3673.62 715.5 3673.62 4357.5M3685.62 715.5 3685.62 4357.5M3698.62 715.5 3698.62 4357.5M3710.62 715.5 3710.62 4357.5M3722.62 715.5 3722.62 4357.5M3734.62 715.5 3734.62 4357.5M3746.62 715.5 3746.62 4357.5M3759.62 715.5 3759.62 4357.5M3771.62 715.5 3771.62 4357.5M3783.62 715.5 3783.62 4357.5M3795.62 715.5 3795.62 4357.5M3808.62 715.5 3808.62 4357.5M3820.63 715.5 3820.63 4357.5M3832.63 715.5 3832.63 4357.5M3844.63 715.5 3844.63 4357.5M3856.63 715.5 3856.63 4357.5M3869.63 715.5 3869.63 4357.5M3881.63 715.5 3881.63 4357.5M3893.63 715.5 3893.63 4357.5M3905.63 715.5 3905.63 4357.5M3918.63 715.5 3918.63 4357.5M3930.63 715.5 3930.63 4357.5M3942.63 715.5 3942.63 4357.5M3954.63 715.5 3954.63 4357.5M3966.63 715.5 3966.63 4357.5M3979.63 715.5 3979.63 4357.5M3991.63 715.5 3991.63 4357.5M4003.63 715.5 4003.63 4357.5M4015.63 715.5 4015.63 4357.5M4028.63 715.5 4028.63 4357.5M4040.63 715.5 4040.63 4357.5M4052.63 715.5 4052.63 4357.5M4064.63 715.5 4064.63 4357.5M4076.63 715.5 4076.63 4357.5M4089.63 715.5 4089.63 4357.5M4101.63 715.5 4101.63 4357.5M4113.64 715.5 4113.64 4357.5M4125.64 715.5 4125.64 4357.5M4137.64 715.5 4137.64 4357.5M4150.64 715.5 4150.64 4357.5M4162.64 715.5 4162.64 4357.5M4174.64 715.5 4174.64 4357.5M4186.64 715.5 4186.64 4357.5M4199.64 715.5 4199.64 4357.5M4211.64 715.5 4211.64 4357.5M4223.64 715.5 4223.64 4357.5M4235.64 715.5 4235.64 4357.5M4247.64 715.5 4247.64 4357.5M4260.64 715.5 4260.64 4357.5M4272.64 715.5 4272.64 4357.5M4284.64 715.5 4284.64 4357.5M4296.64 715.5 4296.64 4357.5M4309.64 715.5 4309.64 4357.5M4321.64 715.5 4321.64 4357.5M4333.64 715.5 4333.64 4357.5M4345.64 715.5 4345.64 4357.5M4357.64 715.5 4357.64 4357.5M4370.64 715.5 4370.64 4357.5M4382.64 715.5 4382.64 4357.5M4394.64 715.5 4394.64 4357.5M4406.64 715.5 4406.64 4357.5M4419.65 715.5 4419.65 4357.5M4431.65 715.5 4431.65 4357.5M4443.65 715.5 4443.65 4357.5M4455.65 715.5 4455.65 4357.5M4467.65 715.5 4467.65 4357.5M4480.65 715.5 4480.65 4357.5M4492.65 715.5 4492.65 4357.5M4504.65 715.5 4504.65 4357.5M4516.65 715.5 4516.65 4357.5M4528.65 715.5 4528.65 4357.5M4541.65 715.5 4541.65 4357.5M4553.65 715.5 4553.65 4357.5M4565.65 715.5 4565.65 4357.5M4577.65 715.5 4577.65 4357.5M4590.65 715.5 4590.65 4357.5M4602.65 715.5 4602.65 4357.5M4614.65 715.5 4614.65 4357.5M4626.65 715.5 4626.65 4357.5M4638.65 715.5 4638.65 4357.5M4651.65 715.5 4651.65 4357.5M4663.65 715.5 4663.65 4357.5M4675.65 715.5 4675.65 4357.5M4687.65 715.5 4687.65 4357.5M4700.65 715.5 4700.65 4357.5M4712.65 715.5 4712.65 4357.5M4724.66 715.5 4724.66 4357.5M4736.66 715.5 4736.66 4357.5M4748.66 715.5 4748.66 4357.5M4761.66 715.5 4761.66 4357.5M4773.66 715.5 4773.66 4357.5M4785.66 715.5 4785.66 4357.5M4797.66 715.5 4797.66 4357.5M4810.66 715.5 4810.66 4357.5M4822.66 715.5 4822.66 4357.5M4834.66 715.5 4834.66 4357.5M4846.66 715.5 4846.66 4357.5M4858.66 715.5 4858.66 4357.5M4871.66 715.5 4871.66 4357.5M4883.66 715.5 4883.66 4357.5M4895.66 715.5 4895.66 4357.5M4907.66 715.5 4907.66 4357.5M4919.66 715.5 4919.66 4357.5M4932.66 715.5 4932.66 4357.5M4944.66 715.5 4944.66 4357.5M4956.66 715.5 4956.66 4357.5M4968.66 715.5 4968.66 4357.5M4981.66 715.5 4981.66 4357.5M4993.66 715.5 4993.66 4357.5M5005.66 715.5 5005.66 4357.5M5017.66 715.5 5017.66 4357.5M5029.67 715.5 5029.67 4357.5M5042.67 715.5 5042.67 4357.5M5054.67 715.5 5054.67 4357.5M5066.67 715.5 5066.67 4357.5M5078.67 715.5 5078.67 4357.5M5091.67 715.5 5091.67 4357.5M5103.67 715.5 5103.67 4357.5M5115.67 715.5 5115.67 4357.5M5127.67 715.5 5127.67 4357.5M5139.67 715.5 5139.67 4357.5M5152.67 715.5 5152.67 4357.5M5164.67 715.5 5164.67 4357.5M5176.67 715.5 5176.67 4357.5M5188.67 715.5 5188.67 4357.5M5201.67 715.5 5201.67 4357.5M5213.67 715.5 5213.67 4357.5M5225.67 715.5 5225.67 4357.5M5237.67 715.5 5237.67 4357.5M5249.67 715.5 5249.67 4357.5M5262.67 715.5 5262.67 4357.5M5274.67 715.5 5274.67 4357.5M5286.67 715.5 5286.67 4357.5M5298.67 715.5 5298.67 4357.5M5311.67 715.5 5311.67 4357.5M5323.67 715.5 5323.67 4357.5M5335.68 715.5 5335.68 4357.5M5347.68 715.5 5347.68 4357.5M5359.68 715.5 5359.68 4357.5M5372.68 715.5 5372.68 4357.5M5384.68 715.5 5384.68 4357.5M5396.68 715.5 5396.68 4357.5M5408.68 715.5 5408.68 4357.5M5420.68 715.5 5420.68 4357.5M5433.68 715.5 5433.68 4357.5M5445.68 715.5 5445.68 4357.5M5457.68 715.5 5457.68 4357.5M5469.68 715.5 5469.68 4357.5M5482.68 715.5 5482.68 4357.5M5494.68 715.5 5494.68 4357.5M5506.68 715.5 5506.68 4357.5M5518.68 715.5 5518.68 4357.5M5530.68 715.5 5530.68 4357.5M5543.68 715.5 5543.68 4357.5M5555.68 715.5 5555.68 4357.5M5567.68 715.5 5567.68 4357.5M5579.68 715.5 5579.68 4357.5M5592.68 715.5 5592.68 4357.5M5604.68 715.5 5604.68 4357.5M5616.68 715.5 5616.68 4357.5M5628.68 715.5 5628.68 4357.5M5640.69 715.5 5640.69 4357.5M5653.69 715.5 5653.69 4357.5M5665.69 715.5 5665.69 4357.5M5677.69 715.5 5677.69 4357.5M5689.69 715.5 5689.69 4357.5M5702.69 715.5 5702.69 4357.5M5714.69 715.5 5714.69 4357.5M5726.69 715.5 5726.69 4357.5M5738.69 715.5 5738.69 4357.5M5750.69 715.5 5750.69 4357.5M5763.69 715.5 5763.69 4357.5M5775.69 715.5 5775.69 4357.5M5787.69 715.5 5787.69 4357.5M5799.69 715.5 5799.69 4357.5M5811.69 715.5 5811.69 4357.5M5824.69 715.5 5824.69 4357.5M5836.69 715.5 5836.69 4357.5M5848.69 715.5 5848.69 4357.5M5860.69 715.5 5860.69 4357.5M5873.69 715.5 5873.69 4357.5M5885.69 715.5 5885.69 4357.5M5897.69 715.5 5897.69 4357.5M5909.69 715.5 5909.69 4357.5M5921.69 715.5 5921.69 4357.5M5934.69 715.5 5934.69 4357.5M5946.7 715.5 5946.7 4357.5M5958.7 715.5 5958.7 4357.5M5970.7 715.5 5970.7 4357.5M5983.7 715.5 5983.7 4357.5M5995.7 715.5 5995.7 4357.5M6007.7 715.5 6007.7 4357.5M6019.7 715.5 6019.7 4357.5M6031.7 715.5 6031.7 4357.5M6044.7 715.5 6044.7 4357.5M6056.7 715.5 6056.7 4357.5M6068.7 715.5 6068.7 4357.5M6080.7 715.5 6080.7 4357.5M6093.7 715.5 6093.7 4357.5M6105.7 715.5 6105.7 4357.5M6117.7 715.5 6117.7 4357.5M6129.7 715.5 6129.7 4357.5M6141.7 715.5 6141.7 4357.5M6154.7 715.5 6154.7 4357.5M6166.7 715.5 6166.7 4357.5M6178.7 715.5 6178.7 4357.5M6190.7 715.5 6190.7 4357.5M6202.7 715.5 6202.7 4357.5M6215.7 715.5 6215.7 4357.5M6227.7 715.5 6227.7 4357.5M6239.7 715.5 6239.7 4357.5M6251.71 715.5 6251.71 4357.5M6264.71 715.5 6264.71 4357.5M6276.71 715.5 6276.71 4357.5M6288.71 715.5 6288.71 4357.5M6300.71 715.5 6300.71 4357.5M6312.71 715.5 6312.71 4357.5M6325.71 715.5 6325.71 4357.5M6337.71 715.5 6337.71 4357.5M6349.71 715.5 6349.71 4357.5M6361.71 715.5 6361.71 4357.5M6374.71 715.5 6374.71 4357.5M6386.71 715.5 6386.71 4357.5M6398.71 715.5 6398.71 4357.5M6410.71 715.5 6410.71 4357.5M6422.71 715.5 6422.71 4357.5M6435.71 715.5 6435.71 4357.5M6447.71 715.5 6447.71 4357.5M6459.71 715.5 6459.71 4357.5M6471.71 715.5 6471.71 4357.5M6484.71 715.5 6484.71 4357.5M6496.71 715.5 6496.71 4357.5M6508.71 715.5 6508.71 4357.5M6520.71 715.5 6520.71 4357.5M6532.71 715.5 6532.71 4357.5M6545.71 715.5 6545.71 4357.5M6557.72 715.5 6557.72 4357.5M6569.72 715.5 6569.72 4357.5M6581.72 715.5 6581.72 4357.5M6593.72 715.5 6593.72 4357.5M6606.72 715.5 6606.72 4357.5M6618.72 715.5 6618.72 4357.5M6630.72 715.5 6630.72 4357.5M6642.72 715.5 6642.72 4357.5M6655.72 715.5 6655.72 4357.5M6667.72 715.5 6667.72 4357.5M6679.72 715.5 6679.72 4357.5M6691.72 715.5 6691.72 4357.5M6703.72 715.5 6703.72 4357.5M6716.72 715.5 6716.72 4357.5M6728.72 715.5 6728.72 4357.5M6740.72 715.5 6740.72 4357.5M6752.72 715.5 6752.72 4357.5M6765.72 715.5 6765.72 4357.5M6777.72 715.5 6777.72 4357.5M6789.72 715.5 6789.72 4357.5M6801.72 715.5 6801.72 4357.5M6813.72 715.5 6813.72 4357.5M6826.5 715.5 6826.5 4357.5" stroke="#F2F2F2" stroke-width="3.4375" stroke-linejoin="round" stroke-miterlimit="10" fill="none"/></g><g clip-path="url(#clip4)"><path d="M0 0 0.000360892 3642" stroke="#E7E6E6" stroke-width="3.4375" stroke-linejoin="round" stroke-miterlimit="10" fill="none" fill-rule="evenodd" transform="matrix(1 0 0 -1 570.5 4357.5)"/></g><g clip-path="url(#clip5)"><path d="M570.5 4357.5 6826.5 4357.5" stroke="#D9D9D9" stroke-width="3.4375" stroke-linejoin="round" stroke-miterlimit="10" fill="none" fill-rule="evenodd"/></g><g clip-path="url(#clip6)"><path d="M582 5268 607.02 5268 631.021 5268 656.021 5268 680.022 5268 704.023 5268 729.024 5268 753.025 5268 778.026 5268 802.026 3262.11 827.027 2214.07 851.028 1762.06 876.029 1525.05 900.03 1388.05 924.03 1301.04 949.031 1242.04 973.032 1199.04 998.033 1167.04 1022.03 1142.04 1047.03 1121.04 1071.04 1105.04 1095.04 1091.04 1120.04 1079.04 1144.04 1069.04 1169.04 1060.03 1193.04 1053.03 1218.04 1046.03 1242.04 1040.03 1267.04 1035.03 1291.04 1030.03 1315.04 1026.03 1340.04 1022.03 1364.04 1018.03 1389.05 1018.03 1413.05 1019.03 1438.05 1019.03 1462.05 1019.03 1486.05 1019.03 1511.05 1019.03 1535.05 1019.03 1560.05 1019.03 1584.05 1019.03 1609.05 1019.03 1633.05 1019.03 1658.05 1019.03 1682.06 1019.03 1706.06 1019.03 1731.06 1019.03 1755.06 1019.03 1780.06 1019.03 1804.06 1019.03 1829.06 1019.03 1853.06 1019.03 1877.06 1019.03 1902.06 1018.03 1926.06 1018.03 1951.06 1018 1975.06 1058.03 2000.07 1106.04 2024.07 1165.04 2049.07 1235.04 2073.07 1321.04 2097.07 1423.05 2122.07 1542.05 2146.07 1672.05 2171.07 1811.06 2195.07 1922.06 2220.07 1980.06 2244.07 2014.07 2268.07 2062.07 2293.08 2187.07 2317.08 5268 2342.08 5268 2366.08 5268 2391.08 5268 2415.08 5268 2440.08 5268 2464.08 5268 2488.08 5268 2513.08 5268 2537.08 5268 2562.08 5268 2586.08 5268 2611.09 5268 2635.09 5268 2659.09 5268 2684.09 5268 2708.09 5268 2733.09 5268 2757.09 5268 2782.09 5268 2806.09 5268 2831.09 5268 2855.09 5268 2879.09 5268 2904.1 5268 2928.1 5268 2953.1 5268 2977.1 5268 3002.1 5268 3026.1 5268 3050.1 5268 3075.1 5268 3099.1 5268 3124.1 5268 3148.1 5268 3173.1 5268 3197.1 5268 3222.11 5268 3246.11 5268 3270.11 5268 3295.11 5268 3319.11 5268 3344.11 5268 3368.11 5268 3393.11 5268 3417.11 5268 3442.11 5268 3466.11 5268 3490.11 5268 3515.12 5268 3539.12 5268 3564.12 5268 3588.12 5268 3613.12 5268 3637.12 5268 3661.12 5268 3686.12 5268 3710.12 5268 3735.12 5268 3759.12 5268 3784.12 5268 3808.12 5268 3833.13 5268 3857.13 5268 3881.13 5268 3906.13 5268 3930.13 5268 3955.13 5268 3979.13 5268 4004.13 5268 4028.13 5268 4052.13 5268 4077.13 5268 4101.13 5268 4126.14 5268 4150.14 5268 4175.14 5268 4199.14 5268 4224.14 5268 4248.14 5268 4272.14 5268 4297.14 5268 4321.14 5268 4346.14 5268 4370.14 5268 4395.14 5268 4419.15 5268 4443.15 5268 4468.15 5268 4492.15 5268 4517.15 5268 4541.15 5268 4566.15 5268 4590.15 5268 4615.15 5268 4639.15 5268 4663.15 5268 4688.15 5268 4712.15 5268 4737.16 5268 4761.16 5268 4786.16 5268 4810.16 5268 4834.16 5268 4859.16 5268 4883.16 5268 4908.16 5268 4932.16 5268 4957.16 5268 4981.16 5268 5006.16 5268 5030.17 5268 5054.17 5268 5079.17 5268 5103.17 5268 5128.17 5268 5152.17 5268 5177.17 5268 5201.17 5268 5225.17 5268 5250.17 5268 5274.17 5268 5299.17 5268 5323.17 5268 5348.18 5268 5372.18 5268 5397.18 5268 5421.18 5268 5445.18 5268 5470.18 5268 5494.18 5268 5519.18 5268 5543.18 5268 5568.18 5268 5592.18 5268 5616.18 5268 5641.19 5268 5665.19 5268 5690.19 5268 5714.19 5268 5739.19 5268 5763.19 5268 5788.19 5268 5812.19 5268 5836.19 5268 5861.19 5268 5885.19 5268 5910.19 5268 5934.19 5268 5959.2 5268 5983.2 5268 6007.2 5268 6032.2 5268 6056.2 5268 6081.2 5268 6105.2 5268 6130.2 5268 6154.2 5268 6179.2 5268 6203.2 5268 6227.2 5268 6252.21 5268 6276.21 5268 6301.21 5268 6325.21 5268 6350.21 5268 6374.21 5268 6398.21 5268 6423.21 5268 6447.21 5268 6472.21 5268 6496.21 5268 6521.21 5268 6545.21 5268 6570.22 5268 6594.22 5268 6618.22 5268 6643.22 5268 6667.22 5268 6692.22 5268 6716.22 5268 6741.22 5268 6765.22 5268 6789.22 5268 6814 5268" stroke="#BF9000" stroke-width="10.3125" stroke-linecap="round" stroke-linejoin="round" stroke-miterlimit="10" fill="none"/></g><g clip-path="url(#clip7)"><path d="M582 5268 607.02 5268 631.021 5268 656.021 5268 680.022 5268 704.023 5268 729.024 5268 753.025 5268 778.026 5268 802.026 5268 827.027 5268 851.028 5268 876.029 5268 900.03 5268 924.03 5268 949.031 5268 973.032 5268 998.033 5268 1022.03 5268 1047.03 5268 1071.04 5268 1095.04 5268 1120.04 5268 1144.04 5268 1169.04 5268 1193.04 4039.13 1218.04 3850.13 1242.04 3765.12 1267.04 3746.12 1291.04 3649.12 1315.04 3614.12 1340.04 3545.12 1364.04 3545.12 1389.05 3489.11 1413.05 3379.11 1438.05 3337.11 1462.05 3280.11 1486.05 3234.11 1511.05 3151.1 1535.05 3100.1 1560.05 3045.1 1584.05 3014.1 1609.05 2980.1 1633.05 2969.1 1658.05 2947.1 1682.06 2946.1 1706.06 2951.1 1731.06 2956.1 1755.06 2955.1 1780.06 2962.1 1804.06 2966.1 1829.06 2963.1 1853.06 2978.1 1877.06 2975.1 1902.06 2972.1 1926.06 2960.1 1951.06 2944.1 1975.06 2665.09 2000.07 2502.08 2024.07 2368.08 2049.07 2266.07 2073.07 2188.07 2097.07 2128.07 2122.07 2084.07 2146.07 2053.07 2171.07 2032.07 2195.07 2022.07 2220.07 2018 2244.07 2020.07 2268.07 2027.07 2293.08 2041.07 2317.08 2061.07 2342.08 2088.07 2366.08 2123.07 2391.08 2168.07 2415.08 2223.07 2440.08 2287.07 2464.08 2365.08 2488.08 2454.08 2513.08 2562.08 2537.08 2687.09 2562.08 2829.09 2586.08 2994.1 2611.09 3185.1 2635.09 3391.11 2659.09 3678.12 2684.09 4083.13 2708.09 4220.14 2733.09 5268 2757.09 5268 2782.09 5268 2806.09 5268 2831.09 5268 2855.09 5268 2879.09 5268 2904.1 5268 2928.1 5268 2953.1 5268 2977.1 5268 3002.1 5268 3026.1 5268 3050.1 5268 3075.1 5268 3099.1 5268 3124.1 5268 3148.1 5268 3173.1 5268 3197.1 5268 3222.11 5268 3246.11 5268 3270.11 5268 3295.11 5268 3319.11 5268 3344.11 5268 3368.11 5268 3393.11 5268 3417.11 5268 3442.11 5268 3466.11 5268 3490.11 5268 3515.12 5268 3539.12 5268 3564.12 5268 3588.12 5268 3613.12 5268 3637.12 5268 3661.12 5268 3686.12 5268 3710.12 5268 3735.12 5268 3759.12 5268 3784.12 5268 3808.12 5268 3833.13 5268 3857.13 5268 3881.13 5268 3906.13 5268 3930.13 5268 3955.13 5268 3979.13 5268 4004.13 5268 4028.13 5268 4052.13 5268 4077.13 5268 4101.13 5268 4126.14 5268 4150.14 5268 4175.14 5268 4199.14 5268 4224.14 5268 4248.14 5268 4272.14 5268 4297.14 5268 4321.14 5268 4346.14 5268 4370.14 5268 4395.14 5268 4419.15 5268 4443.15 5268 4468.15 5268 4492.15 5268 4517.15 5268 4541.15 5268 4566.15 5268 4590.15 5268 4615.15 5268 4639.15 5268 4663.15 5268 4688.15 5268 4712.15 5268 4737.16 5268 4761.16 5268 4786.16 5268 4810.16 5268 4834.16 5268 4859.16 5268 4883.16 5268 4908.16 5268 4932.16 5268 4957.16 5268 4981.16 5268 5006.16 5268 5030.17 5268 5054.17 5268 5079.17 5268 5103.17 5268 5128.17 5268 5152.17 5268 5177.17 5268 5201.17 5268 5225.17 5268 5250.17 5268 5274.17 5268 5299.17 5268 5323.17 5268 5348.18 5268 5372.18 5268 5397.18 5268 5421.18 5268 5445.18 5268 5470.18 5268 5494.18 5268 5519.18 5268 5543.18 5268 5568.18 5268 5592.18 5268 5616.18 5268 5641.19 5268 5665.19 5268 5690.19 5268 5714.19 5268 5739.19 5268 5763.19 5268 5788.19 5268 5812.19 5268 5836.19 5268 5861.19 5268 5885.19 5268 5910.19 5268 5934.19 5268 5959.2 5268 5983.2 5268 6007.2 5268 6032.2 5268 6056.2 5268 6081.2 5268 6105.2 5268 6130.2 5268 6154.2 5268 6179.2 5268 6203.2 5268 6227.2 5268 6252.21 5268 6276.21 5268 6301.21 5268 6325.21 5268 6350.21 5268 6374.21 5268 6398.21 5268 6423.21 5268 6447.21 5268 6472.21 5268 6496.21 5268 6521.21 5268 6545.21 5268 6570.22 5268 6594.22 5268 6618.22 5268 6643.22 5268 6667.22 5268 6692.22 5268 6716.22 5268 6741.22 5268 6765.22 5268 6789.22 5268 6814 5268" stroke="#7030A0" stroke-width="10.3125" stroke-linecap="round" stroke-linejoin="round" stroke-miterlimit="10" fill="none"/></g><g clip-path="url(#clip8)"><path d="M582 5268 607.02 5268 631.021 5268 656.021 5268 680.022 5268 704.023 5268 729.024 5268 753.025 5268 778.026 5268 802.026 5268 827.027 5268 851.028 5268 876.029 5268 900.03 5268 924.03 5268 949.031 5268 973.032 5268 998.033 5268 1022.03 5268 1047.03 5268 1071.04 5268 1095.04 5268 1120.04 5268 1144.04 5268 1169.04 5268 1193.04 5268 1218.04 5268 1242.04 5268 1267.04 5268 1291.04 5268 1315.04 5268 1340.04 5268 1364.04 5268 1389.05 5268 1413.05 5268 1438.05 5268 1462.05 5268 1486.05 5268 1511.05 5268 1535.05 5268 1560.05 5268 1584.05 5268 1609.05 5268 1633.05 5268 1658.05 5268 1682.06 5268 1706.06 5268 1731.06 5268 1755.06 5268 1780.06 5268 1804.06 5268 1829.06 5268 1853.06 5268 1877.06 5268 1902.06 5268 1926.06 5268 1951.06 5268 1975.06 5268 2000.07 5268 2024.07 5268 2049.07 2903.1 2073.07 2971.1 2097.07 3183.1 2122.07 3424.11 2146.07 2835.09 2171.07 2893.09 2195.07 3128.1 2220.07 3382.11 2244.07 2758.09 2268.07 2818.09 2293.08 3065.1 2317.08 3380.11 2342.08 2697.09 2366.08 2755.09 2391.08 3005.1 2415.08 3288.11 2440.08 2991.1 2464.08 2990.1 2488.08 3186.1 2513.08 3319.11 2537.08 2929.1 2562.08 2927.1 2586.08 3050.1 2611.09 3170.1 2635.09 2813.09 2659.09 2829.09 2684.09 2993.1 2708.09 3120.1 2733.09 2818.09 2757.09 2850.09 2782.09 2972.1 2806.09 3195.1 2831.09 2845.09 2855.09 2827.09 2879.09 3053.1 2904.1 3140.1 2928.1 2797.09 2953.1 2877.09 2977.1 3003.1 3002.1 3211.11 3026.1 2802.09 3050.1 2848.09 3075.1 3035.1 3099.1 3127.1 3124.1 2799.09 3148.1 2804.09 3173.1 2952.1 3197.1 3048.1 3222.11 2758.09 3246.11 2741.09 3270.11 2992.1 3295.11 3101.1 3319.11 2738.09 3344.11 2725.09 3368.11 2919.1 3393.11 3057.1 3417.11 2683 3442.11 2765.09 3466.11 2891.09 3490.11 3162.1 3515.12 2785.09 3539.12 2766.09 3564.12 2909.1 3588.12 3073.1 3613.12 2785.09 3637.12 2810.09 3661.12 2933.1 3686.12 3023.1 3710.12 2809.09 3735.12 2824.09 3759.12 2921.1 3784.12 3075.1 3808.12 2775.09 3833.13 2836.09 3857.13 2897.09 3881.13 3033.1 3906.13 2760.09 3930.13 2777.09 3955.13 3001.1 3979.13 3107.1 4004.13 2753.09 4028.13 2811.09 4052.13 3171.1 4077.13 3185.1 4101.13 2772.09 4126.14 2872.09 4150.14 3167.1 4175.14 3189.1 4199.14 2758.09 4224.14 2873.09 4248.14 3200.1 4272.14 3300.11 4297.14 2825.09 4321.14 2908.1 4346.14 3202.1 4370.14 3270.11 4395.14 2898.1 4419.15 2913.1 4443.15 3339.11 4468.15 3289.11 4492.15 3071.1 4517.15 2954.1 4541.15 3397.11 4566.15 3506.11 4590.15 3035.1 4615.15 3062.1 4639.15 3623.12 4663.15 3649.12 4688.15 3003.1 4712.15 3063.1 4737.16 3765.12 4761.16 3765.12 4786.16 3146.1 4810.16 3169.1 4834.16 5268 4859.16 4357.14 4883.16 5268 4908.16 3375.11 4932.16 5268 4957.16 5268 4981.16 5268 5006.16 5268 5030.17 5268 5054.17 5268 5079.17 5268 5103.17 5268 5128.17 5268 5152.17 5268 5177.17 5268 5201.17 5268 5225.17 5268 5250.17 5268 5274.17 5268 5299.17 5268 5323.17 5268 5348.18 5268 5372.18 5268 5397.18 5268 5421.18 5268 5445.18 5268 5470.18 5268 5494.18 5268 5519.18 5268 5543.18 5268 5568.18 5268 5592.18 5268 5616.18 5268 5641.19 5268 5665.19 5268 5690.19 5268 5714.19 5268 5739.19 5268 5763.19 5268 5788.19 5268 5812.19 5268 5836.19 5268 5861.19 5268 5885.19 5268 5910.19 5268 5934.19 5268 5959.2 5268 5983.2 5268 6007.2 5268 6032.2 5268 6056.2 5268 6081.2 5268 6105.2 5268 6130.2 5268 6154.2 5268 6179.2 5268 6203.2 5268 6227.2 5268 6252.21 5268 6276.21 5268 6301.21 5268 6325.21 5268 6350.21 5268 6374.21 5268 6398.21 5268 6423.21 5268 6447.21 5268 6472.21 5268 6496.21 5268 6521.21 5268 6545.21 5268 6570.22 5268 6594.22 5268 6618.22 5268 6643.22 5268 6667.22 5268 6692.22 5268 6716.22 5268 6741.22 5268 6765.22 5268 6789.22 5268 6814 5268" stroke="#CC99FF" stroke-width="10.3125" stroke-linecap="round" stroke-linejoin="round" stroke-miterlimit="10" fill="none"/></g><g clip-path="url(#clip9)"><path d="M582 3157 607.02 3157 631.021 3157 656.021 3157 680.022 3157 704.023 3157 729.024 3157 753.025 3157 778.026 3157 802.026 3157 827.027 3157 851.028 3157 876.029 3157 900.03 3157 924.03 3157 949.031 3157 973.032 3157 998.033 3157 1022.03 3157 1047.03 3157 1071.04 3157 1095.04 3157 1120.04 3157 1144.04 3157 1169.04 3157 1193.04 3157 1218.04 3157 1242.04 3157 1267.04 3157 1291.04 3157 1315.04 3157 1340.04 3157 1364.04 3157 1389.05 3157 1413.05 3157 1438.05 3157 1462.05 3157 1486.05 3157 1511.05 3157 1535.05 3157 1560.05 3157 1584.05 3157 1609.05 3157 1633.05 3157 1658.05 3157 1682.06 3157 1706.06 3157 1731.06 3157 1755.06 3157 1780.06 3157 1804.06 3157 1829.06 3157 1853.06 3157 1877.06 3157 1902.06 3157 1926.06 3157 1951.06 3157 1975.06 3157 2000.07 3157 2024.07 3157 2049.07 3157 2073.07 3157 2097.07 3157 2122.07 3157 2146.07 3157 2171.07 3157 2195.07 3157 2220.07 3157 2244.07 3157 2268.07 3157 2293.08 3157 2317.08 3157 2342.08 3157 2366.08 3157 2391.08 3157 2415.08 3157 2440.08 3166.1 2464.08 3166.1 2488.08 3166.1 2513.08 3177.1 2537.08 3177.1 2562.08 3164.1 2586.08 3174.1 2611.09 3188.1 2635.09 3188.1 2659.09 3194.1 2684.09 3208.11 2708.09 3208.11 2733.09 3215.11 2757.09 3232.11 2782.09 3215.11 2806.09 3258.11 2831.09 3258.11 2855.09 3258.11 2879.09 3307.11 2904.1 3307.11 2928.1 3307.11 2953.1 3340.11 2977.1 3372.11 3002.1 3372.11 3026.1 3470.11 3050.1 3419.11 3075.1 3470.11 3099.1 5268 3124.1 5268 3148.1 3713.12 3173.1 3713.12 3197.1 5268 3222.11 5268 3246.11 3713.12 3270.11 3713.12 3295.11 5268 3319.11 5268 3344.11 3576.12 3368.11 5268 3393.11 3713.12 3417.11 5268 3442.11 5268 3466.11 5268 3490.11 5268 3515.12 5268 3539.12 3713.12 3564.12 3713.12 3588.12 3576.12 3613.12 5268 3637.12 3713.12 3661.12 5268 3686.12 3713.12 3710.12 5268 3735.12 3685.12 3759.12 3713.12 3784.12 5268 3808.12 5268 3833.13 3713.12 3857.13 3576.12 3881.13 5268 3906.13 5268 3930.13 5268 3955.13 3713.12 3979.13 5268 4004.13 5268 4028.13 5268 4052.13 3713.12 4077.13 5268 4101.13 5268 4126.14 3713.12 4150.14 5268 4175.14 5268 4199.14 5268 4224.14 3713.12 4248.14 5268 4272.14 5268 4297.14 5268 4321.14 5268 4346.14 3713.12 4370.14 5268 4395.14 5268 4419.15 5268 4443.15 5268 4468.15 5268 4492.15 5268 4517.15 5268 4541.15 5268 4566.15 5268 4590.15 5268 4615.15 5268 4639.15 5268 4663.15 5268 4688.15 5268 4712.15 5268 4737.16 5268 4761.16 5268 4786.16 5268 4810.16 5268 4834.16 5268 4859.16 5268 4883.16 5268 4908.16 5268 4932.16 5268 4957.16 5268 4981.16 5268 5006.16 5268 5030.17 5268 5054.17 5268 5079.17 5268 5103.17 5268 5128.17 5268 5152.17 5268 5177.17 5268 5201.17 5268 5225.17 5268 5250.17 5268 5274.17 5268 5299.17 5268 5323.17 5268 5348.18 5268 5372.18 5268 5397.18 5268 5421.18 5268 5445.18 5268 5470.18 5268 5494.18 5268 5519.18 5268 5543.18 5268 5568.18 5268 5592.18 5268 5616.18 5268 5641.19 5268 5665.19 5268 5690.19 5268 5714.19 5268 5739.19 5268 5763.19 5268 5788.19 5268 5812.19 5268 5836.19 5268 5861.19 5268 5885.19 5268 5910.19 5268 5934.19 5268 5959.2 5268 5983.2 5268 6007.2 5268 6032.2 5268 6056.2 5268 6081.2 5268 6105.2 5268 6130.2 5268 6154.2 5268 6179.2 5268 6203.2 5268 6227.2 5268 6252.21 5268 6276.21 5268 6301.21 5268 6325.21 5268 6350.21 5268 6374.21 5268 6398.21 5268 6423.21 5268 6447.21 5268 6472.21 5268 6496.21 5268 6521.21 5268 6545.21 5268 6570.22 5268 6594.22 5268 6618.22 5268 6643.22 5268 6667.22 5268 6692.22 5268 6716.22 5268 6741.22 5268 6765.22 5268 6789.22 5268 6814 5268" stroke="#595959" stroke-width="10.3125" stroke-linecap="round" stroke-linejoin="round" stroke-miterlimit="10" fill="none"/></g><g clip-path="url(#clip10)"><path d="M582 5268 607.02 5268 631.021 5268 656.021 5268 680.022 5268 704.023 5268 729.024 5268 753.025 5268 778.026 5268 802.026 5268 827.027 5268 851.028 5268 876.029 5268 900.03 5268 924.03 5268 949.031 5268 973.032 5268 998.033 5268 1022.03 5268 1047.03 5268 1071.04 5268 1095.04 5268 1120.04 5268 1144.04 5268 1169.04 5268 1193.04 5268 1218.04 5268 1242.04 5268 1267.04 5268 1291.04 5268 1315.04 5268 1340.04 5268 1364.04 5268 1389.05 5268 1413.05 5268 1438.05 5268 1462.05 5268 1486.05 5268 1511.05 5268 1535.05 5268 1560.05 5268 1584.05 5268 1609.05 5268 1633.05 5268 1658.05 5268 1682.06 5268 1706.06 5268 1731.06 5268 1755.06 5268 1780.06 5268 1804.06 4357.14 1829.06 5268 1853.06 5268 1877.06 5268 1902.06 5268 1926.06 5268 1951.06 5268 1975.06 5268 2000.07 5268 2024.07 5268 2049.07 5268 2073.07 5268 2097.07 4357.14 2122.07 4220.14 2146.07 3946.13 2171.07 4083.13 2195.07 3946.13 2220.07 3923 2244.07 4083.13 2268.07 4039.13 2293.08 4039.13 2317.08 4140.14 2342.08 5268 2366.08 4357.14 2391.08 5268 2415.08 5268 2440.08 5268 2464.08 5268 2488.08 5268 2513.08 5268 2537.08 5268 2562.08 5268 2586.08 5268 2611.09 5268 2635.09 5268 2659.09 5268 2684.09 5268 2708.09 5268 2733.09 5268 2757.09 5268 2782.09 5268 2806.09 5268 2831.09 5268 2855.09 5268 2879.09 5268 2904.1 5268 2928.1 5268 2953.1 5268 2977.1 5268 3002.1 5268 3026.1 5268 3050.1 5268 3075.1 5268 3099.1 5268 3124.1 5268 3148.1 5268 3173.1 5268 3197.1 5268 3222.11 5268 3246.11 5268 3270.11 5268 3295.11 5268 3319.11 5268 3344.11 5268 3368.11 5268 3393.11 5268 3417.11 5268 3442.11 5268 3466.11 5268 3490.11 5268 3515.12 5268 3539.12 5268 3564.12 5268 3588.12 5268 3613.12 5268 3637.12 5268 3661.12 5268 3686.12 5268 3710.12 5268 3735.12 5268 3759.12 5268 3784.12 5268 3808.12 5268 3833.13 5268 3857.13 5268 3881.13 5268 3906.13 5268 3930.13 5268 3955.13 5268 3979.13 5268 4004.13 5268 4028.13 5268 4052.13 5268 4077.13 5268 4101.13 5268 4126.14 5268 4150.14 5268 4175.14 5268 4199.14 5268 4224.14 5268 4248.14 5268 4272.14 5268 4297.14 5268 4321.14 5268 4346.14 5268 4370.14 5268 4395.14 5268 4419.15 5268 4443.15 5268 4468.15 5268 4492.15 5268 4517.15 5268 4541.15 5268 4566.15 5268 4590.15 5268 4615.15 5268 4639.15 5268 4663.15 5268 4688.15 5268 4712.15 5268 4737.16 5268 4761.16 5268 4786.16 5268 4810.16 5268 4834.16 5268 4859.16 5268 4883.16 5268 4908.16 5268 4932.16 5268 4957.16 5268 4981.16 5268 5006.16 5268 5030.17 5268 5054.17 5268 5079.17 5268 5103.17 5268 5128.17 5268 5152.17 5268 5177.17 5268 5201.17 5268 5225.17 5268 5250.17 5268 5274.17 5268 5299.17 5268 5323.17 5268 5348.18 5268 5372.18 5268 5397.18 5268 5421.18 5268 5445.18 5268 5470.18 5268 5494.18 5268 5519.18 5268 5543.18 5268 5568.18 5268 5592.18 5268 5616.18 5268 5641.19 5268 5665.19 5268 5690.19 5268 5714.19 5268 5739.19 5268 5763.19 5268 5788.19 5268 5812.19 5268 5836.19 5268 5861.19 5268 5885.19 5268 5910.19 5268 5934.19 5268 5959.2 5268 5983.2 5268 6007.2 5268 6032.2 5268 6056.2 5268 6081.2 5268 6105.2 5268 6130.2 5268 6154.2 5268 6179.2 5268 6203.2 5268 6227.2 5268 6252.21 5268 6276.21 5268 6301.21 5268 6325.21 5268 6350.21 5268 6374.21 5268 6398.21 5268 6423.21 5268 6447.21 5268 6472.21 5268 6496.21 5268 6521.21 5268 6545.21 5268 6570.22 5268 6594.22 5268 6618.22 5268 6643.22 5268 6667.22 5268 6692.22 5268 6716.22 5268 6741.22 5268 6765.22 5268 6789.22 5268 6814 5268" stroke="#0070C0" stroke-width="10.3125" stroke-linecap="round" stroke-linejoin="round" stroke-miterlimit="10" fill="none"/></g><g clip-path="url(#clip11)"><path d="M582 5268 607.02 5268 631.021 5268 656.021 5268 680.022 5268 704.023 5268 729.024 5268 753.025 5268 778.026 5268 802.026 5268 827.027 5268 851.028 5268 876.029 5268 900.03 5268 924.03 5268 949.031 5268 973.032 5268 998.033 5268 1022.03 5268 1047.03 5268 1071.04 5268 1095.04 5268 1120.04 5268 1144.04 5268 1169.04 5268 1193.04 5268 1218.04 5268 1242.04 5268 1267.04 5268 1291.04 5268 1315.04 5268 1340.04 5268 1364.04 5268 1389.05 5268 1413.05 5268 1438.05 5268 1462.05 5268 1486.05 5268 1511.05 5268 1535.05 5268 1560.05 5268 1584.05 5268 1609.05 5268 1633.05 5268 1658.05 5268 1682.06 5268 1706.06 5268 1731.06 5268 1755.06 5268 1780.06 5268 1804.06 5268 1829.06 5268 1853.06 5268 1877.06 5268 1902.06 5268 1926.06 5268 1951.06 5268 1975.06 5268 2000.07 5268 2024.07 5268 2049.07 5268 2073.07 5268 2097.07 5268 2122.07 5268 2146.07 5268 2171.07 5268 2195.07 5268 2220.07 5268 2244.07 5268 2268.07 5268 2293.08 5268 2317.08 5268 2342.08 5268 2366.08 5268 2391.08 5268 2415.08 5268 2440.08 5268 2464.08 5268 2488.08 5268 2513.08 5268 2537.08 5268 2562.08 5268 2586.08 5268 2611.09 5268 2635.09 5268 2659.09 5268 2684.09 5268 2708.09 4357.14 2733.09 4357.14 2757.09 5268 2782.09 5268 2806.09 4357.14 2831.09 5268 2855.09 5268 2879.09 4357.14 2904.1 5268 2928.1 4357.14 2953.1 5268 2977.1 5268 3002.1 5268 3026.1 5268 3050.1 5268 3075.1 5268 3099.1 4357.14 3124.1 5268 3148.1 5268 3173.1 5268 3197.1 4357.14 3222.11 5268 3246.11 5268 3270.11 5268 3295.11 4357.14 3319.11 4357.14 3344.11 4357.14 3368.11 5268 3393.11 4357.14 3417.11 4357.14 3442.11 5268 3466.11 5268 3490.11 4220 3515.12 5268 3539.12 4357.14 3564.12 5268 3588.12 5268 3613.12 5268 3637.12 5268 3661.12 5268 3686.12 4357.14 3710.12 4357.14 3735.12 4220 3759.12 5268 3784.12 4357.14 3808.12 5268 3833.13 4357.14 3857.13 5268 3881.13 4220 3906.13 4357.14 3930.13 5268 3955.13 5268 3979.13 4357.14 4004.13 4220 4028.13 5268 4052.13 5268 4077.13 5268 4101.13 4357.14 4126.14 5268 4150.14 5268 4175.14 5268 4199.14 4357.14 4224.14 5268 4248.14 5268 4272.14 4357.14 4297.14 5268 4321.14 5268 4346.14 5268 4370.14 4357.14 4395.14 5268 4419.15 5268 4443.15 5268 4468.15 5268 4492.15 4357.14 4517.15 5268 4541.15 5268 4566.15 5268 4590.15 5268 4615.15 5268 4639.15 5268 4663.15 5268 4688.15 5268 4712.15 5268 4737.16 5268 4761.16 5268 4786.16 5268 4810.16 5268 4834.16 5268 4859.16 5268 4883.16 5268 4908.16 5268 4932.16 5268 4957.16 5268 4981.16 5268 5006.16 5268 5030.17 5268 5054.17 5268 5079.17 5268 5103.17 5268 5128.17 5268 5152.17 5268 5177.17 5268 5201.17 5268 5225.17 5268 5250.17 5268 5274.17 5268 5299.17 5268 5323.17 5268 5348.18 5268 5372.18 5268 5397.18 5268 5421.18 5268 5445.18 5268 5470.18 5268 5494.18 5268 5519.18 5268 5543.18 5268 5568.18 5268 5592.18 5268 5616.18 5268 5641.19 5268 5665.19 5268 5690.19 5268 5714.19 5268 5739.19 5268 5763.19 5268 5788.19 5268 5812.19 5268 5836.19 5268 5861.19 5268 5885.19 5268 5910.19 5268 5934.19 5268 5959.2 5268 5983.2 5268 6007.2 5268 6032.2 5268 6056.2 5268 6081.2 5268 6105.2 5268 6130.2 5268 6154.2 5268 6179.2 5268 6203.2 5268 6227.2 5268 6252.21 5268 6276.21 5268 6301.21 5268 6325.21 5268 6350.21 5268 6374.21 5268 6398.21 5268 6423.21 5268 6447.21 5268 6472.21 5268 6496.21 5268 6521.21 5268 6545.21 5268 6570.22 5268 6594.22 5268 6618.22 5268 6643.22 5268 6667.22 5268 6692.22 5268 6716.22 5268 6741.22 5268 6765.22 5268 6789.22 5268 6814 5268" stroke="#FF0000" stroke-width="10.3125" stroke-linecap="round" stroke-linejoin="round" stroke-miterlimit="10" fill="none"/></g><g clip-path="url(#clip12)"><text fill="#595959" font-family="Calibri,Calibri_MSFontService,sans-serif" font-weight="400" font-size="41" transform="matrix(1 0 0 1 510.905 4369)">1</text></g><g clip-path="url(#clip13)"><text fill="#595959" font-family="Calibri,Calibri_MSFontService,sans-serif" font-weight="400" font-size="41" transform="matrix(1 0 0 1 490.004 3914)">10</text></g><g clip-path="url(#clip14)"><text fill="#595959" font-family="Calibri,Calibri_MSFontService,sans-serif" font-weight="400" font-size="41" transform="matrix(1 0 0 1 469.104 3459)">100</text></g><g clip-path="url(#clip15)"><text fill="#595959" font-family="Calibri,Calibri_MSFontService,sans-serif" font-weight="400" font-size="41" transform="matrix(1 0 0 1 437.915 3003)">1,000</text></g><g clip-path="url(#clip16)"><text fill="#595959" font-family="Calibri,Calibri_MSFontService,sans-serif" font-weight="400" font-size="41" transform="matrix(1 0 0 1 417.015 2548)">10,000</text></g><g clip-path="url(#clip17)"><text fill="#595959" font-family="Calibri,Calibri_MSFontService,sans-serif" font-weight="400" font-size="41" transform="matrix(1 0 0 1 396.115 2093)">100,000</text></g><g clip-path="url(#clip18)"><text fill="#595959" font-family="Calibri,Calibri_MSFontService,sans-serif" font-weight="400" font-size="41" transform="matrix(1 0 0 1 364.925 1638)">1,000,000</text></g><g clip-path="url(#clip19)"><text fill="#595959" font-family="Calibri,Calibri_MSFontService,sans-serif" font-weight="400" font-size="41" transform="matrix(1 0 0 1 344.025 1182)">10,000,000</text></g><g clip-path="url(#clip20)"><text fill="#595959" font-family="Calibri,Calibri_MSFontService,sans-serif" font-weight="400" font-size="41" transform="matrix(1 0 0 1 323.125 727)">100,000,000</text></g><g clip-path="url(#clip21)"><text fill="#595959" font-family="Calibri,Calibri_MSFontService,sans-serif" font-weight="400" font-size="41" transform="matrix(6.12323e-17 -1 1 6.12323e-17 596.117 4405)">1</text></g><g clip-path="url(#clip22)"><text fill="#595959" font-family="Calibri,Calibri_MSFontService,sans-serif" font-weight="400" font-size="41" transform="matrix(6.12323e-17 -1 1 6.12323e-17 669.433 4405)">4</text></g><g clip-path="url(#clip23)"><text fill="#595959" font-family="Calibri,Calibri_MSFontService,sans-serif" font-weight="400" font-size="41" transform="matrix(6.12323e-17 -1 1 6.12323e-17 742.749 4405)">7</text></g><g clip-path="url(#clip24)"><text fill="#595959" font-family="Calibri,Calibri_MSFontService,sans-serif" font-weight="400" font-size="41" transform="matrix(6.12323e-17 -1 1 6.12323e-17 816.065 4426)">10</text></g><g clip-path="url(#clip25)"><text fill="#595959" font-family="Calibri,Calibri_MSFontService,sans-serif" font-weight="400" font-size="41" transform="matrix(6.12323e-17 -1 1 6.12323e-17 889.381 4426)">13</text></g><g clip-path="url(#clip26)"><text fill="#595959" font-family="Calibri,Calibri_MSFontService,sans-serif" font-weight="400" font-size="41" transform="matrix(6.12323e-17 -1 1 6.12323e-17 962.697 4426)">16</text></g><g clip-path="url(#clip27)"><text fill="#595959" font-family="Calibri,Calibri_MSFontService,sans-serif" font-weight="400" font-size="41" transform="matrix(6.12323e-17 -1 1 6.12323e-17 1036.01 4426)">19</text></g><g clip-path="url(#clip28)"><text fill="#595959" font-family="Calibri,Calibri_MSFontService,sans-serif" font-weight="400" font-size="41" transform="matrix(6.12323e-17 -1 1 6.12323e-17 1109.33 4426)">22</text></g><g clip-path="url(#clip29)"><text fill="#595959" font-family="Calibri,Calibri_MSFontService,sans-serif" font-weight="400" font-size="41" transform="matrix(6.12323e-17 -1 1 6.12323e-17 1182.65 4426)">25</text></g><g clip-path="url(#clip30)"><text fill="#595959" font-family="Calibri,Calibri_MSFontService,sans-serif" font-weight="400" font-size="41" transform="matrix(6.12323e-17 -1 1 6.12323e-17 1255.96 4426)">28</text></g><g clip-path="url(#clip31)"><text fill="#595959" font-family="Calibri,Calibri_MSFontService,sans-serif" font-weight="400" font-size="41" transform="matrix(6.12323e-17 -1 1 6.12323e-17 1329.28 4426)">31</text></g><g clip-path="url(#clip32)"><text fill="#595959" font-family="Calibri,Calibri_MSFontService,sans-serif" font-weight="400" font-size="41" transform="matrix(6.12323e-17 -1 1 6.12323e-17 1402.59 4426)">34</text></g><g clip-path="url(#clip33)"><text fill="#595959" font-family="Calibri,Calibri_MSFontService,sans-serif" font-weight="400" font-size="41" transform="matrix(6.12323e-17 -1 1 6.12323e-17 1475.91 4426)">37</text></g><g clip-path="url(#clip34)"><text fill="#595959" font-family="Calibri,Calibri_MSFontService,sans-serif" font-weight="400" font-size="41" transform="matrix(6.12323e-17 -1 1 6.12323e-17 1549.23 4426)">40</text></g><g clip-path="url(#clip35)"><text fill="#595959" font-family="Calibri,Calibri_MSFontService,sans-serif" font-weight="400" font-size="41" transform="matrix(6.12323e-17 -1 1 6.12323e-17 1622.54 4426)">43</text></g><g clip-path="url(#clip36)"><text fill="#595959" font-family="Calibri,Calibri_MSFontService,sans-serif" font-weight="400" font-size="41" transform="matrix(6.12323e-17 -1 1 6.12323e-17 1695.86 4426)">46</text></g><g clip-path="url(#clip37)"><text fill="#595959" font-family="Calibri,Calibri_MSFontService,sans-serif" font-weight="400" font-size="41" transform="matrix(6.12323e-17 -1 1 6.12323e-17 1769.17 4426)">49</text></g><g clip-path="url(#clip38)"><text fill="#595959" font-family="Calibri,Calibri_MSFontService,sans-serif" font-weight="400" font-size="41" transform="matrix(6.12323e-17 -1 1 6.12323e-17 1842.49 4426)">52</text></g><g clip-path="url(#clip39)"><text fill="#595959" font-family="Calibri,Calibri_MSFontService,sans-serif" font-weight="400" font-size="41" transform="matrix(6.12323e-17 -1 1 6.12323e-17 1915.81 4426)">55</text></g><g clip-path="url(#clip40)"><text fill="#595959" font-family="Calibri,Calibri_MSFontService,sans-serif" font-weight="400" font-size="41" transform="matrix(6.12323e-17 -1 1 6.12323e-17 1989.12 4426)">58</text></g><g clip-path="url(#clip41)"><text fill="#595959" font-family="Calibri,Calibri_MSFontService,sans-serif" font-weight="400" font-size="41" transform="matrix(6.12323e-17 -1 1 6.12323e-17 2062.44 4426)">61</text></g><g clip-path="url(#clip42)"><text fill="#595959" font-family="Calibri,Calibri_MSFontService,sans-serif" font-weight="400" font-size="41" transform="matrix(6.12323e-17 -1 1 6.12323e-17 2135.75 4426)">64</text></g><g clip-path="url(#clip43)"><text fill="#595959" font-family="Calibri,Calibri_MSFontService,sans-serif" font-weight="400" font-size="41" transform="matrix(6.12323e-17 -1 1 6.12323e-17 2209.07 4426)">67</text></g><g clip-path="url(#clip44)"><text fill="#595959" font-family="Calibri,Calibri_MSFontService,sans-serif" font-weight="400" font-size="41" transform="matrix(6.12323e-17 -1 1 6.12323e-17 2282.39 4426)">70</text></g><g clip-path="url(#clip45)"><text fill="#595959" font-family="Calibri,Calibri_MSFontService,sans-serif" font-weight="400" font-size="41" transform="matrix(6.12323e-17 -1 1 6.12323e-17 2355.7 4426)">73</text></g><g clip-path="url(#clip46)"><text fill="#595959" font-family="Calibri,Calibri_MSFontService,sans-serif" font-weight="400" font-size="41" transform="matrix(6.12323e-17 -1 1 6.12323e-17 2429.02 4426)">76</text></g><g clip-path="url(#clip47)"><text fill="#595959" font-family="Calibri,Calibri_MSFontService,sans-serif" font-weight="400" font-size="41" transform="matrix(6.12323e-17 -1 1 6.12323e-17 2502.33 4426)">79</text></g><g clip-path="url(#clip48)"><text fill="#595959" font-family="Calibri,Calibri_MSFontService,sans-serif" font-weight="400" font-size="41" transform="matrix(6.12323e-17 -1 1 6.12323e-17 2575.65 4426)">82</text></g><g clip-path="url(#clip49)"><text fill="#595959" font-family="Calibri,Calibri_MSFontService,sans-serif" font-weight="400" font-size="41" transform="matrix(6.12323e-17 -1 1 6.12323e-17 2648.97 4426)">85</text></g><g clip-path="url(#clip50)"><text fill="#595959" font-family="Calibri,Calibri_MSFontService,sans-serif" font-weight="400" font-size="41" transform="matrix(6.12323e-17 -1 1 6.12323e-17 2722.28 4426)">88</text></g><g clip-path="url(#clip51)"><text fill="#595959" font-family="Calibri,Calibri_MSFontService,sans-serif" font-weight="400" font-size="41" transform="matrix(6.12323e-17 -1 1 6.12323e-17 2795.6 4426)">91</text></g><g clip-path="url(#clip52)"><text fill="#595959" font-family="Calibri,Calibri_MSFontService,sans-serif" font-weight="400" font-size="41" transform="matrix(6.12323e-17 -1 1 6.12323e-17 2868.92 4426)">94</text></g><g clip-path="url(#clip53)"><text fill="#595959" font-family="Calibri,Calibri_MSFontService,sans-serif" font-weight="400" font-size="41" transform="matrix(6.12323e-17 -1 1 6.12323e-17 2942.23 4426)">97</text></g><g clip-path="url(#clip54)"><text fill="#595959" font-family="Calibri,Calibri_MSFontService,sans-serif" font-weight="400" font-size="41" transform="matrix(6.12323e-17 -1 1 6.12323e-17 3015.55 4446)">100</text></g><g clip-path="url(#clip55)"><text fill="#595959" font-family="Calibri,Calibri_MSFontService,sans-serif" font-weight="400" font-size="41" transform="matrix(6.12323e-17 -1 1 6.12323e-17 3088.86 4446)">103</text></g><g clip-path="url(#clip56)"><text fill="#595959" font-family="Calibri,Calibri_MSFontService,sans-serif" font-weight="400" font-size="41" transform="matrix(6.12323e-17 -1 1 6.12323e-17 3162.18 4446)">106</text></g><g clip-path="url(#clip57)"><text fill="#595959" font-family="Calibri,Calibri_MSFontService,sans-serif" font-weight="400" font-size="41" transform="matrix(6.12323e-17 -1 1 6.12323e-17 3235.5 4446)">109</text></g><g clip-path="url(#clip58)"><text fill="#595959" font-family="Calibri,Calibri_MSFontService,sans-serif" font-weight="400" font-size="41" transform="matrix(6.12323e-17 -1 1 6.12323e-17 3308.81 4446)">112</text></g><g clip-path="url(#clip59)"><text fill="#595959" font-family="Calibri,Calibri_MSFontService,sans-serif" font-weight="400" font-size="41" transform="matrix(6.12323e-17 -1 1 6.12323e-17 3382.13 4446)">115</text></g><g clip-path="url(#clip60)"><text fill="#595959" font-family="Calibri,Calibri_MSFontService,sans-serif" font-weight="400" font-size="41" transform="matrix(6.12323e-17 -1 1 6.12323e-17 3455.44 4446)">118</text></g><g clip-path="url(#clip61)"><text fill="#595959" font-family="Calibri,Calibri_MSFontService,sans-serif" font-weight="400" font-size="41" transform="matrix(6.12323e-17 -1 1 6.12323e-17 3528.76 4446)">121</text></g><g clip-path="url(#clip62)"><text fill="#595959" font-family="Calibri,Calibri_MSFontService,sans-serif" font-weight="400" font-size="41" transform="matrix(6.12323e-17 -1 1 6.12323e-17 3602.08 4446)">124</text></g><g clip-path="url(#clip63)"><text fill="#595959" font-family="Calibri,Calibri_MSFontService,sans-serif" font-weight="400" font-size="41" transform="matrix(6.12323e-17 -1 1 6.12323e-17 3675.39 4446)">127</text></g><g clip-path="url(#clip64)"><text fill="#595959" font-family="Calibri,Calibri_MSFontService,sans-serif" font-weight="400" font-size="41" transform="matrix(6.12323e-17 -1 1 6.12323e-17 3748.71 4446)">130</text></g><g clip-path="url(#clip65)"><text fill="#595959" font-family="Calibri,Calibri_MSFontService,sans-serif" font-weight="400" font-size="41" transform="matrix(6.12323e-17 -1 1 6.12323e-17 3822.02 4446)">133</text></g><g clip-path="url(#clip66)"><text fill="#595959" font-family="Calibri,Calibri_MSFontService,sans-serif" font-weight="400" font-size="41" transform="matrix(6.12323e-17 -1 1 6.12323e-17 3895.34 4446)">136</text></g><g clip-path="url(#clip67)"><text fill="#595959" font-family="Calibri,Calibri_MSFontService,sans-serif" font-weight="400" font-size="41" transform="matrix(6.12323e-17 -1 1 6.12323e-17 3968.66 4446)">139</text></g><g clip-path="url(#clip68)"><text fill="#595959" font-family="Calibri,Calibri_MSFontService,sans-serif" font-weight="400" font-size="41" transform="matrix(6.12323e-17 -1 1 6.12323e-17 4041.97 4446)">142</text></g><g clip-path="url(#clip69)"><text fill="#595959" font-family="Calibri,Calibri_MSFontService,sans-serif" font-weight="400" font-size="41" transform="matrix(6.12323e-17 -1 1 6.12323e-17 4115.29 4446)">145</text></g><g clip-path="url(#clip70)"><text fill="#595959" font-family="Calibri,Calibri_MSFontService,sans-serif" font-weight="400" font-size="41" transform="matrix(6.12323e-17 -1 1 6.12323e-17 4188.6 4446)">148</text></g><g clip-path="url(#clip71)"><text fill="#595959" font-family="Calibri,Calibri_MSFontService,sans-serif" font-weight="400" font-size="41" transform="matrix(6.12323e-17 -1 1 6.12323e-17 4261.92 4446)">151</text></g><g clip-path="url(#clip72)"><text fill="#595959" font-family="Calibri,Calibri_MSFontService,sans-serif" font-weight="400" font-size="41" transform="matrix(6.12323e-17 -1 1 6.12323e-17 4335.24 4446)">154</text></g><g clip-path="url(#clip73)"><text fill="#595959" font-family="Calibri,Calibri_MSFontService,sans-serif" font-weight="400" font-size="41" transform="matrix(6.12323e-17 -1 1 6.12323e-17 4408.55 4446)">157</text></g><g clip-path="url(#clip74)"><text fill="#595959" font-family="Calibri,Calibri_MSFontService,sans-serif" font-weight="400" font-size="41" transform="matrix(6.12323e-17 -1 1 6.12323e-17 4481.87 4446)">160</text></g><g clip-path="url(#clip75)"><text fill="#595959" font-family="Calibri,Calibri_MSFontService,sans-serif" font-weight="400" font-size="41" transform="matrix(6.12323e-17 -1 1 6.12323e-17 4555.19 4446)">163</text></g><g clip-path="url(#clip76)"><text fill="#595959" font-family="Calibri,Calibri_MSFontService,sans-serif" font-weight="400" font-size="41" transform="matrix(6.12323e-17 -1 1 6.12323e-17 4628.5 4446)">166</text></g><g clip-path="url(#clip77)"><text fill="#595959" font-family="Calibri,Calibri_MSFontService,sans-serif" font-weight="400" font-size="41" transform="matrix(6.12323e-17 -1 1 6.12323e-17 4701.82 4446)">169</text></g><g clip-path="url(#clip78)"><text fill="#595959" font-family="Calibri,Calibri_MSFontService,sans-serif" font-weight="400" font-size="41" transform="matrix(6.12323e-17 -1 1 6.12323e-17 4775.13 4446)">172</text></g><g clip-path="url(#clip79)"><text fill="#595959" font-family="Calibri,Calibri_MSFontService,sans-serif" font-weight="400" font-size="41" transform="matrix(6.12323e-17 -1 1 6.12323e-17 4848.45 4446)">175</text></g><g clip-path="url(#clip80)"><text fill="#595959" font-family="Calibri,Calibri_MSFontService,sans-serif" font-weight="400" font-size="41" transform="matrix(6.12323e-17 -1 1 6.12323e-17 4921.77 4446)">178</text></g><g clip-path="url(#clip81)"><text fill="#595959" font-family="Calibri,Calibri_MSFontService,sans-serif" font-weight="400" font-size="41" transform="matrix(6.12323e-17 -1 1 6.12323e-17 4995.08 4446)">181</text></g><g clip-path="url(#clip82)"><text fill="#595959" font-family="Calibri,Calibri_MSFontService,sans-serif" font-weight="400" font-size="41" transform="matrix(6.12323e-17 -1 1 6.12323e-17 5068.4 4446)">184</text></g><g clip-path="url(#clip83)"><text fill="#595959" font-family="Calibri,Calibri_MSFontService,sans-serif" font-weight="400" font-size="41" transform="matrix(6.12323e-17 -1 1 6.12323e-17 5141.71 4446)">187</text></g><g clip-path="url(#clip84)"><text fill="#595959" font-family="Calibri,Calibri_MSFontService,sans-serif" font-weight="400" font-size="41" transform="matrix(6.12323e-17 -1 1 6.12323e-17 5215.03 4446)">190</text></g><g clip-path="url(#clip85)"><text fill="#595959" font-family="Calibri,Calibri_MSFontService,sans-serif" font-weight="400" font-size="41" transform="matrix(6.12323e-17 -1 1 6.12323e-17 5288.35 4446)">193</text></g><g clip-path="url(#clip86)"><text fill="#595959" font-family="Calibri,Calibri_MSFontService,sans-serif" font-weight="400" font-size="41" transform="matrix(6.12323e-17 -1 1 6.12323e-17 5361.66 4446)">196</text></g><g clip-path="url(#clip87)"><text fill="#595959" font-family="Calibri,Calibri_MSFontService,sans-serif" font-weight="400" font-size="41" transform="matrix(6.12323e-17 -1 1 6.12323e-17 5434.98 4446)">199</text></g><g clip-path="url(#clip88)"><text fill="#595959" font-family="Calibri,Calibri_MSFontService,sans-serif" font-weight="400" font-size="41" transform="matrix(6.12323e-17 -1 1 6.12323e-17 5508.29 4446)">202</text></g><g clip-path="url(#clip89)"><text fill="#595959" font-family="Calibri,Calibri_MSFontService,sans-serif" font-weight="400" font-size="41" transform="matrix(6.12323e-17 -1 1 6.12323e-17 5581.61 4446)">205</text></g><g clip-path="url(#clip90)"><text fill="#595959" font-family="Calibri,Calibri_MSFontService,sans-serif" font-weight="400" font-size="41" transform="matrix(6.12323e-17 -1 1 6.12323e-17 5654.93 4446)">208</text></g><g clip-path="url(#clip91)"><text fill="#595959" font-family="Calibri,Calibri_MSFontService,sans-serif" font-weight="400" font-size="41" transform="matrix(6.12323e-17 -1 1 6.12323e-17 5728.24 4446)">211</text></g><g clip-path="url(#clip92)"><text fill="#595959" font-family="Calibri,Calibri_MSFontService,sans-serif" font-weight="400" font-size="41" transform="matrix(6.12323e-17 -1 1 6.12323e-17 5801.56 4446)">214</text></g><g clip-path="url(#clip93)"><text fill="#595959" font-family="Calibri,Calibri_MSFontService,sans-serif" font-weight="400" font-size="41" transform="matrix(6.12323e-17 -1 1 6.12323e-17 5874.87 4446)">217</text></g><g clip-path="url(#clip94)"><text fill="#595959" font-family="Calibri,Calibri_MSFontService,sans-serif" font-weight="400" font-size="41" transform="matrix(6.12323e-17 -1 1 6.12323e-17 5948.19 4446)">220</text></g><g clip-path="url(#clip95)"><text fill="#595959" font-family="Calibri,Calibri_MSFontService,sans-serif" font-weight="400" font-size="41" transform="matrix(6.12323e-17 -1 1 6.12323e-17 6021.51 4446)">223</text></g><g clip-path="url(#clip96)"><text fill="#595959" font-family="Calibri,Calibri_MSFontService,sans-serif" font-weight="400" font-size="41" transform="matrix(6.12323e-17 -1 1 6.12323e-17 6094.82 4446)">226</text></g><g clip-path="url(#clip97)"><text fill="#595959" font-family="Calibri,Calibri_MSFontService,sans-serif" font-weight="400" font-size="41" transform="matrix(6.12323e-17 -1 1 6.12323e-17 6168.14 4446)">229</text></g><g clip-path="url(#clip98)"><text fill="#595959" font-family="Calibri,Calibri_MSFontService,sans-serif" font-weight="400" font-size="41" transform="matrix(6.12323e-17 -1 1 6.12323e-17 6241.46 4446)">232</text></g><g clip-path="url(#clip99)"><text fill="#595959" font-family="Calibri,Calibri_MSFontService,sans-serif" font-weight="400" font-size="41" transform="matrix(6.12323e-17 -1 1 6.12323e-17 6314.77 4446)">235</text></g><g clip-path="url(#clip100)"><text fill="#595959" font-family="Calibri,Calibri_MSFontService,sans-serif" font-weight="400" font-size="41" transform="matrix(6.12323e-17 -1 1 6.12323e-17 6388.09 4446)">238</text></g><g clip-path="url(#clip101)"><text fill="#595959" font-family="Calibri,Calibri_MSFontService,sans-serif" font-weight="400" font-size="41" transform="matrix(6.12323e-17 -1 1 6.12323e-17 6461.4 4446)">241</text></g><g clip-path="url(#clip102)"><text fill="#595959" font-family="Calibri,Calibri_MSFontService,sans-serif" font-weight="400" font-size="41" transform="matrix(6.12323e-17 -1 1 6.12323e-17 6534.72 4446)">244</text></g><g clip-path="url(#clip103)"><text fill="#595959" font-family="Calibri,Calibri_MSFontService,sans-serif" font-weight="400" font-size="41" transform="matrix(6.12323e-17 -1 1 6.12323e-17 6608.04 4446)">247</text></g><g clip-path="url(#clip104)"><text fill="#595959" font-family="Calibri,Calibri_MSFontService,sans-serif" font-weight="400" font-size="41" transform="matrix(6.12323e-17 -1 1 6.12323e-17 6681.35 4446)">250</text></g><g clip-path="url(#clip105)"><text fill="#595959" font-family="Calibri,Calibri_MSFontService,sans-serif" font-weight="400" font-size="41" transform="matrix(6.12323e-17 -1 1 6.12323e-17 6754.67 4446)">253</text></g><g clip-path="url(#clip106)"><text fill="#595959" font-family="Calibri,Calibri_MSFontService,sans-serif" font-weight="400" font-size="41" transform="matrix(6.12323e-17 -1 1 6.12323e-17 6827.98 4446)">256</text></g><g clip-path="url(#clip107)"><text fill="#595959" font-family="Arial,Arial_MSFontService,sans-serif" font-weight="400" font-size="46" transform="matrix(6.12323e-17 -1 1 6.12323e-17 299.658 2655)">Block count</text></g><g clip-path="url(#clip108)"><text fill="#595959" font-family="Arial,Arial_MSFontService,sans-serif" font-weight="400" font-size="46" transform="matrix(1 0 0 1 3621.8 4503)">Altitude</text></g><g clip-path="url(#clip109)"><text fill="#595959" font-family="Arial,Arial_MSFontService,sans-serif" font-weight="400" font-size="64" transform="matrix(1 0 0 1 2746.37 644)">Resource distribution by altitude (Minecraft 1.16.5, End)</text></g><g clip-path="url(#clip110)"><path d="M1836 4609 1924 4609" stroke="#BF9000" stroke-width="10.3125" stroke-linecap="round" stroke-linejoin="round" stroke-miterlimit="10" fill="none" fill-rule="evenodd"/></g><g clip-path="url(#clip111)"><text fill="#595959" font-family="Calibri,Calibri_MSFontService,sans-serif" font-weight="400" font-size="41" transform="matrix(1 0 0 1 1932.97 4620)">minecraft:end_stone</text></g><g clip-path="url(#clip112)"><path d="M2384 4609 2472 4609" stroke="#7030A0" stroke-width="10.3125" stroke-linecap="round" stroke-linejoin="round" stroke-miterlimit="10" fill="none" fill-rule="evenodd"/></g><g clip-path="url(#clip113)"><text fill="#595959" font-family="Calibri,Calibri_MSFontService,sans-serif" font-weight="400" font-size="41" transform="matrix(1 0 0 1 2480.81 4620)">minecraft:chorus_plant</text></g><g clip-path="url(#clip114)"><path d="M2973 4609 3061 4609" stroke="#CC99FF" stroke-width="10.3125" stroke-linecap="round" stroke-linejoin="round" stroke-miterlimit="10" fill="none" fill-rule="evenodd"/></g><g clip-path="url(#clip115)"><text fill="#595959" font-family="Calibri,Calibri_MSFontService,sans-serif" font-weight="400" font-size="41" transform="matrix(1 0 0 1 3070.32 4620)">minecraft:purpur_block</text></g><g clip-path="url(#clip116)"><path d="M3568 4609 3656 4609" stroke="#595959" stroke-width="10.3125" stroke-linecap="round" stroke-linejoin="round" stroke-miterlimit="10" fill="none" fill-rule="evenodd"/></g><g clip-path="url(#clip117)"><text fill="#595959" font-family="Calibri,Calibri_MSFontService,sans-serif" font-weight="400" font-size="41" transform="matrix(1 0 0 1 3664.94 4620)">minecraft:obsidian</text></g><g clip-path="url(#clip118)"><path d="M4079 4609 4167 4609" stroke="#0070C0" stroke-width="10.3125" stroke-linecap="round" stroke-linejoin="round" stroke-miterlimit="10" fill="none" fill-rule="evenodd"/></g><g clip-path="url(#clip119)"><text fill="#595959" font-family="Calibri,Calibri_MSFontService,sans-serif" font-weight="400" font-size="41" transform="matrix(1 0 0 1 4176.04 4620)">minecraft:end_gateway</text></g><g clip-path="url(#clip120)"><path d="M4674 4609 4762 4609" stroke="#FF0000" stroke-width="10.3125" stroke-linecap="round" stroke-linejoin="round" stroke-miterlimit="10" fill="none" fill-rule="evenodd"/></g><g clip-path="url(#clip121)"><text fill="#595959" font-family="Calibri,Calibri_MSFontService,sans-serif" font-weight="400" font-size="41" transform="matrix(1 0 0 1 4771.41 4620)">minecraft:dragon_wall_head</text></g><rect x="199.5" y="550.5" width="6678" height="4125" stroke="#D9D9D9" stroke-width="3.4375" stroke-linejoin="round" stroke-miterlimit="10" fill="none"/></g></svg>