<svg width="1920" height="1200" xmlns="http://www.w3.org/2000/svg" xmlns:xlink="http://www.w3.org/1999/xlink" overflow="hidden"><defs><clipPath id="clip0"><rect x="0" y="0" width="1920" height="1200"/></clipPath><clipPath id="clip1"><rect x="-6" y="0" width="1932" height="1200"/></clipPath><clipPath id="clip2"><rect x="-6" y="0" width="1932" height="1200"/></clipPath><clipPath id="clip3"><rect x="-6" y="0" width="1932" height="1200"/></clipPath><clipPath id="clip4"><rect x="-6" y="0" width="1932" height="1200"/></clipPath><clipPath id="clip5"><rect x="-6" y="0" width="1932" height="1200"/></clipPath><clipPath id="clip6"><rect x="100" y="48" width="1812" height="1067"/></clipPath><clipPath id="clip7"><rect x="100" y="48" width="1812" height="1067"/></clipPath><clipPath id="clip8"><rect x="100" y="48" width="1812" height="1067"/></clipPath><clipPath id="clip9"><rect x="100" y="48" width="1812" height="1067"/></clipPath><clipPath id="clip10"><rect x="100" y="48" width="1812" height="1067"/></clipPath><clipPath id="clip11"><rect x="100" y="48" width="1812" height="1067"/></clipPath><clipPath id="clip12"><rect x="100" y="48" width="1812" height="1067"/></clipPath><clipPath id="clip13"><rect x="100" y="48" width="1812" height="1067"/></clipPath><clipPath id="clip14"><rect x="100" y="48" width="1812" height="1067"/></clipPath><clipPath id="clip15"><rect x="100" y="48" width="1812" height="1067"/></clipPath><clipPath id="clip16"><rect x="100" y="48" width="1812" height="1067"/></clipPath><clipPath id="clip17"><rect x="100" y="48" width="1812" height="1067"/></clipPath><clipPath id="clip18"><rect x="100" y="48" width="1812" height="1067"/></clipPath><clipPath id="clip19"><rect x="-6" y="0" width="1932" height="1200"/></clipPath><clipPath id="clip20"><rect x="-6" y="0" width="1932" height="1200"/></clipPath><clipPath id="clip21"><rect x="-6" y="0" width="1932" height="1200"/></clipPath><clipPath id="clip22"><rect x="-6" y="0" width="1932" height="1200"/></clipPath><clipPath id="clip23"><rect x="-6" y="0" width="1932" height="1200"/></clipPath><clipPath id="clip24"><rect x="-6" y="0" width="1932" height="1200"/></clipPath><clipPath id="clip25"><rect x="-6" y="0" width="1932" height="1200"/></clipPath><clipPath id="clip26"><rect x="-6" y="0" width="1932" height="1200"/></clipPath><clipPath id="clip27"><rect x="-6" y="0" width="1932" height="1200"/></clipPath><clipPath id="clip28"><rect x="-6" y="0" width="1932" height="1200"/></clipPath><clipPath id="clip29"><rect x="-6" y="0" width="1932" height="1200"/></clipPath><clipPath id="clip30"><rect x="-6" y="0" width="1932" height="1200"/></clipPath><clipPath id="clip31"><rect x="-6" y="0" width="1932" height="1200"/></clipPath><clipPath id="clip32"><rect x="-6" y="0" width="1932" height="1200"/></clipPath><clipPath id="clip33"><rect x="-6" y="0" width="1932" height="1200"/></clipPath><clipPath id="clip34"><rect x="-6" y="0" width="1932" height="1200"/></clipPath><clipPath id="clip35"><rect x="-6" y="0" width="1932" height="1200"/></clipPath><clipPath id="clip36"><rect x="-6" y="0" width="1932" height="1200"/></clipPath><clipPath id="clip37"><rect x="-6" y="0" width="1932" height="1200"/></clipPath><clipPath id="clip38"><rect x="-6" y="0" width="1932" height="1200"/></clipPath><clipPath id="clip39"><rect x="-6" y="0" width="1932" height="1200"/></clipPath><clipPath id="clip40"><rect x="-6" y="0" width="1932" height="1200"/></clipPath><clipPath id="clip41"><rect x="-6" y="0" width="1932" height="1200"/></clipPath><clipPath id="clip42"><rect x="-6" y="0" width="1932" height="1200"/></clipPath><clipPath id="clip43"><rect x="-6" y="0" width="1932" height="1200"/></clipPath><clipPath id="clip44"><rect x="-6" y="0" width="1932" height="1200"/></clipPath><clipPath id="clip45"><rect x="-6" y="0" width="1932" height="1200"/></clipPath><clipPath id="clip46"><rect x="-6" y="0" width="1932" height="1200"/></clipPath><clipPath id="clip47"><rect x="-6" y="0" width="1932" height="1200"/></clipPath><clipPath id="clip48"><rect x="-6" y="0" width="1932" height="1200"/></clipPath><clipPath id="clip49"><rect x="-6" y="0" width="1932" height="1200"/></clipPath><clipPath id="clip50"><rect x="-6" y="0" width="1932" height="1200"/></clipPath><clipPath id="clip51"><rect x="-6" y="0" width="1932" height="1200"/></clipPath><clipPath id="clip52"><rect x="-6" y="0" width="1932" height="1200"/></clipPath><clipPath id="clip53"><rect x="-6" y="0" width="1932" height="1200"/></clipPath><clipPath id="clip54"><rect x="-6" y="0" width="1932" height="1200"/></clipPath><clipPath id="clip55"><rect x="-6" y="0" width="1932" height="1200"/></clipPath><clipPath id="clip56"><rect x="-6" y="0" width="1932" height="1200"/></clipPath><clipPath id="clip57"><rect x="-6" y="0" width="1932" height="1200"/></clipPath><clipPath id="clip58"><rect x="-6" y="0" width="1932" height="1200"/></clipPath><clipPath id="clip59"><rect x="-6" y="0" width="1932" height="1200"/></clipPath><clipPath id="clip60"><rect x="-6" y="0" width="1932" height="1200"/></clipPath><clipPath id="clip61"><rect x="-6" y="0" width="1932" height="1200"/></clipPath><clipPath id="clip62"><rect x="-6" y="0" width="1932" height="1200"/></clipPath><clipPath id="clip63"><rect x="-6" y="0" width="1932" height="1200"/></clipPath><clipPath id="clip64"><rect x="-6" y="0" width="1932" height="1200"/></clipPath><clipPath id="clip65"><rect x="-6" y="0" width="1932" height="1200"/></clipPath><clipPath id="clip66"><rect x="-6" y="0" width="1932" height="1200"/></clipPath><clipPath id="clip67"><rect x="-6" y="0" width="1932" height="1200"/></clipPath><clipPath id="clip68"><rect x="-6" y="0" width="1932" height="1200"/></clipPath><clipPath id="clip69"><rect x="-6" y="0" width="1932" height="1200"/></clipPath><clipPath id="clip70"><rect x="-6" y="0" width="1932" height="1200"/></clipPath><clipPath id="clip71"><rect x="-6" y="0" width="1932" height="1200"/></clipPath><clipPath id="clip72"><rect x="-6" y="0" width="1932" height="1200"/></clipPath><clipPath id="clip73"><rect x="-6" y="0" width="1932" height="1200"/></clipPath><clipPath id="clip74"><rect x="-6" y="0" width="1932" height="1200"/></clipPath><clipPath id="clip75"><rect x="-6" y="0" width="1932" height="1200"/></clipPath><clipPath id="clip76"><rect x="-6" y="0" width="1932" height="1200"/></clipPath><clipPath id="clip77"><rect x="-6" y="0" width="1932" height="1200"/></clipPath><clipPath id="clip78"><rect x="-6" y="0" width="1932" height="1200"/></clipPath><clipPath id="clip79"><rect x="-6" y="0" width="1932" height="1200"/></clipPath><clipPath id="clip80"><rect x="-6" y="0" width="1932" height="1200"/></clipPath><clipPath id="clip81"><rect x="-6" y="0" width="1932" height="1200"/></clipPath><clipPath id="clip82"><rect x="-6" y="0" width="1932" height="1200"/></clipPath><clipPath id="clip83"><rect x="-6" y="0" width="1932" height="1200"/></clipPath><clipPath id="clip84"><rect x="-6" y="0" width="1932" height="1200"/></clipPath><clipPath id="clip85"><rect x="-6" y="0" width="1932" height="1200"/></clipPath><clipPath id="clip86"><rect x="-6" y="0" width="1932" height="1200"/></clipPath><clipPath id="clip87"><rect x="-6" y="0" width="1932" height="1200"/></clipPath><clipPath id="clip88"><rect x="-6" y="0" width="1932" height="1200"/></clipPath><clipPath id="clip89"><rect x="-6" y="0" width="1932" height="1200"/></clipPath><clipPath id="clip90"><rect x="-6" y="0" width="1932" height="1200"/></clipPath><clipPath id="clip91"><rect x="-6" y="0" width="1932" height="1200"/></clipPath><clipPath id="clip92"><rect x="-6" y="0" width="1932" height="1200"/></clipPath><clipPath id="clip93"><rect x="-6" y="0" width="1932" height="1200"/></clipPath><clipPath id="clip94"><rect x="-6" y="0" width="1932" height="1200"/></clipPath><clipPath id="clip95"><rect x="-6" y="0" width="1932" height="1200"/></clipPath><clipPath id="clip96"><rect x="-6" y="0" width="1932" height="1200"/></clipPath><clipPath id="clip97"><rect x="-6" y="0" width="1932" height="1200"/></clipPath><clipPath id="clip98"><rect x="-6" y="0" width="1932" height="1200"/></clipPath><clipPath id="clip99"><rect x="-6" y="0" width="1932" height="1200"/></clipPath><clipPath id="clip100"><rect x="-6" y="0" width="1932" height="1200"/></clipPath><clipPath id="clip101"><rect x="-6" y="0" width="1932" height="1200"/></clipPath><clipPath id="clip102"><rect x="-6" y="0" width="1932" height="1200"/></clipPath><clipPath id="clip103"><rect x="-6" y="0" width="1932" height="1200"/></clipPath><clipPath id="clip104"><rect x="-6" y="0" width="1932" height="1200"/></clipPath><clipPath id="clip105"><rect x="-6" y="0" width="1932" height="1200"/></clipPath><clipPath id="clip106"><rect x="-6" y="0" width="1932" height="1200"/></clipPath><clipPath id="clip107"><rect x="-6" y="0" width="1932" height="1200"/></clipPath><clipPath id="clip108"><rect x="-6" y="0" width="1932" height="1200"/></clipPath><clipPath id="clip109"><rect x="-6" y="0" width="1932" height="1200"/></clipPath><clipPath id="clip110"><rect x="-6" y="0" width="1932" height="1200"/></clipPath><clipPath id="clip111"><rect x="-6" y="0" width="1932" height="1200"/></clipPath><clipPath id="clip112"><rect x="-6" y="0" width="1932" height="1200"/></clipPath><clipPath id="clip113"><rect x="-6" y="0" width="1932" height="1200"/></clipPath><clipPath id="clip114"><rect x="-6" y="0" width="1932" height="1200"/></clipPath><clipPath id="clip115"><rect x="-6" y="0" width="1932" height="1200"/></clipPath><clipPath id="clip116"><rect x="-6" y="0" width="1932" height="1200"/></clipPath><clipPath id="clip117"><rect x="-6" y="0" width="1932" height="1200"/></clipPath><clipPath id="clip118"><rect x="-6" y="0" width="1932" height="1200"/></clipPath><clipPath id="clip119"><rect x="-6" y="0" width="1932" height="1200"/></clipPath><clipPath id="clip120"><rect x="-6" y="0" width="1932" height="1200"/></clipPath><clipPath id="clip121"><rect x="-6" y="0" width="1932" height="1200"/></clipPath><clipPath id="clip122"><rect x="-6" y="0" width="1932" height="1200"/></clipPath><clipPath id="clip123"><rect x="-6" y="0" width="1932" height="1200"/></clipPath><clipPath id="clip124"><rect x="-6" y="0" width="1932" height="1200"/></clipPath><clipPath id="clip125"><rect x="-6" y="0" width="1932" height="1200"/></clipPath><clipPath id="clip126"><rect x="-6" y="0" width="1932" height="1200"/></clipPath><clipPath id="clip127"><rect x="-6" y="0" width="1932" height="1200"/></clipPath><clipPath id="clip128"><rect x="-6" y="0" width="1932" height="1200"/></clipPath><clipPath id="clip129"><rect x="-6" y="0" width="1932" height="1200"/></clipPath><clipPath id="clip130"><rect x="-6" y="0" width="1932" height="1200"/></clipPath><clipPath id="clip131"><rect x="-6" y="0" width="1932" height="1200"/></clipPath><clipPath id="clip132"><rect x="-6" y="0" width="1932" height="1200"/></clipPath><clipPath id="clip133"><rect x="-6" y="0" width="1932" height="1200"/></clipPath><clipPath id="clip134"><rect x="-6" y="0" width="1932" height="1200"/></clipPath><clipPath id="clip135"><rect x="-6" y="0" width="1932" height="1200"/></clipPath><clipPath id="clip136"><rect x="-6" y="0" width="1932" height="1200"/></clipPath><clipPath id="clip137"><rect x="-6" y="0" width="1932" height="1200"/></clipPath><clipPath id="clip138"><rect x="-6" y="0" width="1932" height="1200"/></clipPath><clipPath id="clip139"><rect x="-6" y="0" width="1932" height="1200"/></clipPath><clipPath id="clip140"><rect x="-6" y="0" width="1932" height="1200"/></clipPath><clipPath id="clip141"><rect x="-6" y="0" width="1932" height="1200"/></clipPath><clipPath id="clip142"><rect x="-6" y="0" width="1932" height="1200"/></clipPath><clipPath id="clip143"><rect x="-6" y="0" width="1932" height="1200"/></clipPath><clipPath id="clip144"><rect x="-6" y="0" width="1932" height="1200"/></clipPath><clipPath id="clip145"><rect x="-6" y="0" width="1932" height="1200"/></clipPath><clipPath id="clip146"><rect x="-6" y="0" width="1932" height="1200"/></clipPath><clipPath id="clip147"><rect x="-6" y="0" width="1932" height="1200"/></clipPath><clipPath id="clip148"><rect x="-6" y="0" width="1932" height="1200"/></clipPath><clipPath id="clip149"><rect x="-6" y="0" width="1932" height="1200"/></clipPath><clipPath id="clip150"><rect x="-6" y="0" width="1932" height="1200"/></clipPath><clipPath id="clip151"><rect x="-6" y="0" width="1932" height="1200"/></clipPath><clipPath id="clip152"><rect x="-6" y="0" width="1932" height="1200"/></clipPath><clipPath id="clip153"><rect x="-6" y="0" width="1932" height="1200"/></clipPath><clipPath id="clip154"><rect x="-6" y="0" width="1932" height="1200"/></clipPath><clipPath id="clip155"><rect x="-6" y="0" width="1932" height="1200"/></clipPath><clipPath id="clip156"><rect x="-6" y="0" width="1932" height="1200"/></clipPath><clipPath id="clip157"><rect x="-6" y="0" width="1932" height="1200"/></clipPath><clipPath id="clip158"><rect x="-6" y="0" width="1932" height="1200"/></clipPath><clipPath id="clip159"><rect x="-6" y="0" width="1932" height="1200"/></clipPath><clipPath id="clip160"><rect x="-6" y="0" width="1932" height="1200"/></clipPath><clipPath id="clip161"><rect x="-6" y="0" width="1932" height="1200"/></clipPath><clipPath id="clip162"><rect x="-6" y="0" width="1932" height="1200"/></clipPath><clipPath id="clip163"><rect x="-6" y="0" width="1932" height="1200"/></clipPath><clipPath id="clip164"><rect x="-6" y="0" width="1932" height="1200"/></clipPath><clipPath id="clip165"><rect x="-6" y="0" width="1932" height="1200"/></clipPath><clipPath id="clip166"><rect x="-6" y="0" width="1932" height="1200"/></clipPath><clipPath id="clip167"><rect x="-6" y="0" width="1932" height="1200"/></clipPath><clipPath id="clip168"><rect x="-6" y="0" width="1932" height="1200"/></clipPath><clipPath id="clip169"><rect x="-6" y="0" width="1932" height="1200"/></clipPath><clipPath id="clip170"><rect x="-6" y="0" width="1932" height="1200"/></clipPath><clipPath id="clip171"><rect x="-6" y="0" width="1932" height="1200"/></clipPath><clipPath id="clip172"><rect x="-6" y="0" width="1932" height="1200"/></clipPath><clipPath id="clip173"><rect x="-6" y="0" width="1932" height="1200"/></clipPath><clipPath id="clip174"><rect x="-6" y="0" width="1932" height="1200"/></clipPath><clipPath id="clip175"><rect x="-6" y="0" width="1932" height="1200"/></clipPath><clipPath id="clip176"><rect x="-6" y="0" width="1932" height="1200"/></clipPath><clipPath id="clip177"><rect x="-6" y="0" width="1932" height="1200"/></clipPath><clipPath id="clip178"><rect x="-6" y="0" width="1932" height="1200"/></clipPath><clipPath id="clip179"><rect x="-6" y="0" width="1932" height="1200"/></clipPath><clipPath id="clip180"><rect x="-6" y="0" width="1932" height="1200"/></clipPath><clipPath id="clip181"><rect x="-6" y="0" width="1932" height="1200"/></clipPath><clipPath id="clip182"><rect x="-6" y="0" width="1932" height="1200"/></clipPath><clipPath id="clip183"><rect x="-6" y="0" width="1932" height="1200"/></clipPath></defs><g clip-path="url(#clip0)"><rect x="0" y="0" width="1920" height="1200" fill="#FFFFFF"/><g clip-path="url(#clip1)"><path d="M100.5 1068.5 1911.5 1068.5M100.5 1041.5 1911.5 1041.5M100.5 1022.5 1911.5 1022.5M100.5 1007.5 1911.5 1007.5M100.5 995.5 1911.5 995.5M100.5 985.5 1911.5 985.5M100.5 976.5 1911.5 976.5M100.5 968.5 1911.5 968.5M100.5 915.5 1911.5 915.5M100.5 889.5 1911.5 889.5M100.5 870.5 1911.5 870.5M100.5 855.5 1911.5 855.5M100.5 843.5 1911.5 843.5M100.5 833.5 1911.5 833.5M100.5 824.5 1911.5 824.5M100.5 816.5 1911.5 816.5M100.5 763.5 1911.5 763.5M100.5 736.5 1911.5 736.5M100.5 717.5 1911.5 717.5M100.5 703.5 1911.5 703.5M100.5 691.5 1911.5 691.5M100.5 680.5 1911.5 680.5M100.5 672.5 1911.5 672.5M100.5 664.5 1911.5 664.5M100.5 611.5 1911.5 611.5M100.5 584.5 1911.5 584.5M100.5 565.5 1911.5 565.5M100.5 550.5 1911.5 550.5M100.5 538.5 1911.5 538.5M100.5 528.5 1911.5 528.5M100.5 519.5 1911.5 519.5M100.5 511.5 1911.5 511.5M100.5 459.5 1911.5 459.5M100.5 432.5 1911.5 432.5M100.5 413.5 1911.5 413.5M100.5 398.5 1911.5 398.5M100.5 386.5 1911.5 386.5M100.5 376.5 1911.5 376.5M100.5 367.5 1911.5 367.5M100.5 359.5 1911.5 359.5M100.5 306.5 1911.5 306.5M100.5 280.5 1911.5 280.5M100.5 261.5 1911.5 261.5M100.5 246.5 1911.5 246.5M100.5 234.5 1911.5 234.5M100.5 224.5 1911.5 224.5M100.5 215.5 1911.5 215.5M100.5 207.5 1911.5 207.5M100.5 154.5 1911.5 154.5M100.5 127.5 1911.5 127.5M100.5 108.5 1911.5 108.5M100.5 93.5001 1911.5 93.5001M100.5 81.5001 1911.5 81.5001M100.5 71.5001 1911.5 71.5001M100.5 62.5001 1911.5 62.5001M100.5 55.5001 1911.5 55.5001" stroke="#F2F2F2" stroke-linejoin="round" stroke-miterlimit="10" fill="none"/></g><g clip-path="url(#clip2)"><path d="M100.5 961.5 1911.5 961.5M100.5 809.5 1911.5 809.5M100.5 657.5 1911.5 657.5M100.5 504.5 1911.5 504.5M100.5 352.5 1911.5 352.5M100.5 200.5 1911.5 200.5M100.5 48.5001 1911.5 48.5001" stroke="#D9D9D9" stroke-linejoin="round" stroke-miterlimit="10" fill="none"/></g><g clip-path="url(#clip3)"><path d="M114.5 48.5001 114.5 1114.5M128.5 48.5001 128.5 1114.5M142.5 48.5001 142.5 1114.5M157.5 48.5001 157.5 1114.5M171.5 48.5001 171.5 1114.5M185.5 48.5001 185.5 1114.5M199.5 48.5001 199.5 1114.5M214.5 48.5001 214.5 1114.5M228.5 48.5001 228.5 1114.5M242.5 48.5001 242.5 1114.5M257.5 48.5001 257.5 1114.5M271.5 48.5001 271.5 1114.5M285.5 48.5001 285.5 1114.5M299.5 48.5001 299.5 1114.5M314.5 48.5001 314.5 1114.5M328.5 48.5001 328.5 1114.5M342.5 48.5001 342.5 1114.5M356.5 48.5001 356.5 1114.5M371.5 48.5001 371.5 1114.5M385.5 48.5001 385.5 1114.5M399.5 48.5001 399.5 1114.5M413.5 48.5001 413.5 1114.5M428.5 48.5001 428.5 1114.5M442.5 48.5001 442.5 1114.5M456.5 48.5001 456.5 1114.5M470.5 48.5001 470.5 1114.5M485.5 48.5001 485.5 1114.5M499.5 48.5001 499.5 1114.5M513.5 48.5001 513.5 1114.5M528.5 48.5001 528.5 1114.5M542.5 48.5001 542.5 1114.5M556.5 48.5001 556.5 1114.5M570.5 48.5001 570.5 1114.5M585.5 48.5001 585.5 1114.5M599.5 48.5001 599.5 1114.5M613.5 48.5001 613.5 1114.5M627.5 48.5001 627.5 1114.5M642.5 48.5001 642.5 1114.5M656.5 48.5001 656.5 1114.5M670.5 48.5001 670.5 1114.5M684.5 48.5001 684.5 1114.5M699.5 48.5001 699.5 1114.5M713.5 48.5001 713.5 1114.5M727.5 48.5001 727.5 1114.5M741.5 48.5001 741.5 1114.5M756.5 48.5001 756.5 1114.5M770.5 48.5001 770.5 1114.5M784.5 48.5001 784.5 1114.5M799.5 48.5001 799.5 1114.5M813.5 48.5001 813.5 1114.5M827.5 48.5001 827.5 1114.5M841.5 48.5001 841.5 1114.5M856.5 48.5001 856.5 1114.5M870.5 48.5001 870.5 1114.5M884.5 48.5001 884.5 1114.5M898.5 48.5001 898.5 1114.5M913.5 48.5001 913.5 1114.5M927.5 48.5001 927.5 1114.5M941.5 48.5001 941.5 1114.5M955.5 48.5001 955.5 1114.5M970.5 48.5001 970.5 1114.5M984.5 48.5001 984.5 1114.5M998.5 48.5001 998.5 1114.5M1012.5 48.5001 1012.5 1114.5M1027.5 48.5001 1027.5 1114.5M1041.5 48.5001 1041.5 1114.5M1055.5 48.5001 1055.5 1114.5M1070.5 48.5001 1070.5 1114.5M1084.5 48.5001 1084.5 1114.5M1098.5 48.5001 1098.5 1114.5M1112.5 48.5001 1112.5 1114.5M1127.5 48.5001 1127.5 1114.5M1141.5 48.5001 1141.5 1114.5M1155.5 48.5001 1155.5 1114.5M1169.5 48.5001 1169.5 1114.5M1184.5 48.5001 1184.5 1114.5M1198.5 48.5001 1198.5 1114.5M1212.5 48.5001 1212.5 1114.5M1226.5 48.5001 1226.5 1114.5M1241.5 48.5001 1241.5 1114.5M1255.5 48.5001 1255.5 1114.5M1269.5 48.5001 1269.5 1114.5M1283.5 48.5001 1283.5 1114.5M1298.5 48.5001 1298.5 1114.5M1312.5 48.5001 1312.5 1114.5M1326.5 48.5001 1326.5 1114.5M1341.5 48.5001 1341.5 1114.5M1355.5 48.5001 1355.5 1114.5M1369.5 48.5001 1369.5 1114.5M1383.5 48.5001 1383.5 1114.5M1398.5 48.5001 1398.5 1114.5M1412.5 48.5001 1412.5 1114.5M1426.5 48.5001 1426.5 1114.5M1440.5 48.5001 1440.5 1114.5M1455.5 48.5001 1455.5 1114.5M1469.5 48.5001 1469.5 1114.5M1483.5 48.5001 1483.5 1114.5M1497.5 48.5001 1497.5 1114.5M1512.5 48.5001 1512.5 1114.5M1526.5 48.5001 1526.5 1114.5M1540.5 48.5001 1540.5 1114.5M1554.5 48.5001 1554.5 1114.5M1569.5 48.5001 1569.5 1114.5M1583.5 48.5001 1583.5 1114.5M1597.5 48.5001 1597.5 1114.5M1612.5 48.5001 1612.5 1114.5M1626.5 48.5001 1626.5 1114.5M1640.5 48.5001 1640.5 1114.5M1654.5 48.5001 1654.5 1114.5M1669.5 48.5001 1669.5 1114.5M1683.5 48.5001 1683.5 1114.5M1697.5 48.5001 1697.5 1114.5M1711.5 48.5001 1711.5 1114.5M1726.5 48.5001 1726.5 1114.5M1740.5 48.5001 1740.5 1114.5M1754.5 48.5001 1754.5 1114.5M1768.5 48.5001 1768.5 1114.5M1783.5 48.5001 1783.5 1114.5M1797.5 48.5001 1797.5 1114.5M1811.5 48.5001 1811.5 1114.5M1825.5 48.5001 1825.5 1114.5M1840.5 48.5001 1840.5 1114.5M1854.5 48.5001 1854.5 1114.5M1868.5 48.5001 1868.5 1114.5M1883.5 48.5001 1883.5 1114.5M1897.5 48.5001 1897.5 1114.5M1911.5 48.5001 1911.5 1114.5" stroke="#D9D9D9" stroke-linejoin="round" stroke-miterlimit="10" fill="none"/></g><g clip-path="url(#clip4)"><path d="M0 0 0.000104987 1066" stroke="#BFBFBF" stroke-linejoin="round" stroke-miterlimit="10" fill="none" fill-rule="evenodd" transform="matrix(1 0 0 -1 100.5 1114.5)"/></g><g clip-path="url(#clip5)"><path d="M100.5 1114.5 1911.5 1114.5" stroke="#BFBFBF" stroke-linejoin="round" stroke-miterlimit="10" fill="none" fill-rule="evenodd"/></g><g clip-path="url(#clip6)"><path d="M100 1723 114 631 129 698 143 738 157 753 171 749 186 725 200 711 214 703 229 708 243 704 257 354 271 351 286 350 300 350 314 349 328 349 343 350 357 351 371 351 385 352 400 355 414 357 428 358 442 359 457 360 471 362 485 365 500 366 514 367 528 368 542 370 557 372 571 374 585 375 599 376 614 377 628 379 642 382 656 384 671 385 685 386 699 388 713 389 728 390 742 391 756 391 771 393 785 395 799 396 813 398 828 403 842 408 856 414 870 419 885 424 899 429 913 435 927 440 942 446 956 450 970 453 984 454 999 455 1013 220 1027 217 1042 215 1056 213 1070 211 1084 208 1099 206 1113 203 1127 199 1141 198 1156 196 1170 194 1184 191 1198 189 1213 187 1227 185 1241 184 1255 183 1270 182 1284 181 1298 181 1313 180 1327 180 1341 179 1355 179 1370 179 1384 178 1398 178 1412 178 1427 178 1441 177 1455 177 1469 177 1484 177 1498 177 1512 177 1526 176 1541 176 1555 176 1569 176 1584 176 1598 176 1612 176 1626 176 1641 176 1655 176 1669 176 1683 176 1698 176 1712 176 1726 176 1740 176 1755 176 1769 176 1783 176 1797 176 1812 176 1826 176 1840 176 1854 176 1869 176 1883 176 1897 176 1912 176" stroke="#9DC3E6" stroke-width="2" stroke-linecap="round" stroke-linejoin="round" stroke-miterlimit="10" stroke-dasharray="4 4" fill="none"/></g><g clip-path="url(#clip7)"><path d="M100 294 114 250 129 229 143 212 157 199 171 187 186 187 200 187 214 187 229 187 243 187 257 187 271 187 286 187 300 187 314 187 328 187 343 187 357 187 371 187 385 187 400 187 414 187 428 187 442 186 457 186 471 186 485 186 500 186 514 186 528 186 542 186 557 186 571 185 585 185 599 185 614 185 628 185 642 185 656 185 671 185 685 185 699 185 713 185 728 184 742 184 756 185 771 185 785 184 799 185 813 186 828 189 842 194 856 198 870 202 885 205 899 208 913 212 927 217 942 222 956 227 970 232 984 235 999 238 1013 242 1027 245 1042 250 1056 256 1070 263 1084 269 1099 275 1113 281 1127 289 1141 299 1156 311 1170 322 1184 332 1198 339 1213 345 1227 352 1241 358 1255 364 1270 370 1284 375 1298 381 1313 389 1327 398 1341 407 1355 414 1370 421 1384 428 1398 433 1412 439 1427 448 1441 460 1455 472 1469 479 1484 485 1498 489 1512 493 1526 498 1541 501 1555 504 1569 507 1584 510 1598 514 1612 517 1626 520 1641 525 1655 531 1669 540 1683 548 1698 557 1712 568 1726 586 1740 600 1755 604 1769 612 1783 618 1797 621 1812 629 1826 635 1840 642 1854 649 1869 778 1883 1723 1897 1723 1912 1723" stroke="#BFBFBF" stroke-width="2" stroke-linecap="round" stroke-linejoin="round" stroke-miterlimit="10" fill="none"/></g><g clip-path="url(#clip8)"><path d="M100 1723 114 539 129 462 143 415 157 387 171 372 186 373 200 373 214 374 229 374 243 374 257 374 271 374 286 374 300 373 314 373 328 373 343 374 357 374 371 373 385 371 400 371 414 372 428 372 442 373 457 374 471 376 485 376 500 375 514 374 528 373 542 373 557 374 571 374 585 374 599 374 614 373 628 373 642 372 656 371 671 370 685 370 699 371 713 373 728 375 742 374 756 374 771 374 785 373 799 366 813 344 828 316 842 290 856 274 870 270 885 280 899 300 913 302 927 308 942 319 956 333 970 337 984 343 999 365 1013 355 1027 344 1042 340 1056 333 1070 326 1084 328 1099 336 1113 349 1127 346 1141 342 1156 342 1170 347 1184 358 1198 376 1213 397 1227 416 1241 424 1255 430 1270 438 1284 446 1298 451 1313 448 1327 445 1341 444 1355 454 1370 465 1384 477 1398 489 1412 496 1427 496 1441 488 1455 481 1469 496 1484 518 1498 541 1512 560 1526 572 1541 578 1555 577 1569 571 1584 569 1598 580 1612 594 1626 611 1641 614 1655 607 1669 594 1683 587 1698 597 1712 605 1726 596 1740 594 1755 606 1769 636 1783 664 1797 663 1812 667 1826 685 1840 694 1854 699 1869 636 1883 634 1897 639 1912 1723" stroke="#996633" stroke-width="2" stroke-linecap="round" stroke-linejoin="round" stroke-miterlimit="10" fill="none"/></g><g clip-path="url(#clip9)"><path d="M100 1677 114 1677 129 1677 143 1677 157 1677 171 1677 186 1677 200 1677 214 1008 229 1008 243 916 257 543 271 656 286 664 300 654 314 667 328 655 343 664 357 666 371 672 385 677 400 658 414 682 428 667 442 673 457 682 471 698 485 706 500 695 514 715 528 689 542 717 557 710 571 730 585 707 599 701 614 737 628 720 642 734 656 734 671 733 685 730 699 748 713 768 728 743 742 740 756 776 771 766 785 765 799 759 813 766 828 768 842 660 856 523 870 406 885 330 899 287 913 278 927 269 942 260 956 251 970 244 984 236 999 228 1013 931 1027 969 1042 1022 1056 889 1070 874 1084 904 1099 956 1113 1677 1127 1114 1141 1677 1156 1677 1170 1068 1184 1677 1198 1677 1213 1677 1227 1677 1241 1677 1255 1677 1270 1114 1284 1677 1298 1114 1313 1677 1327 1677 1341 1022 1355 1114 1370 1114 1384 1677 1398 1677 1412 1677 1427 1677 1441 1114 1455 1068 1469 1677 1484 1677 1498 1677 1512 1677 1526 1677 1541 1677 1555 1677 1569 1677 1584 1677 1598 1677 1612 1677 1626 1677 1641 1677 1655 1677 1669 1677 1683 1677 1698 1677 1712 1677 1726 1677 1740 1677 1755 1677 1769 1677 1783 1677 1797 1677 1812 1677 1826 1677 1840 1677 1854 1677 1869 1677 1883 1677 1897 1677 1912 1677" stroke="#0070C0" stroke-width="2" stroke-linecap="round" stroke-linejoin="round" stroke-miterlimit="10" fill="none"/></g><g clip-path="url(#clip10)"><path d="M100 1723 114 632 129 510 143 461 157 435 171 421 186 421 200 422 214 424 229 426 243 425 257 422 271 420 286 421 300 422 314 422 328 423 343 424 357 423 371 422 385 421 400 422 414 422 428 422 442 422 457 422 471 422 485 421 500 421 514 420 528 420 542 420 557 420 571 420 585 420 599 419 614 418 628 417 642 419 656 419 671 419 685 420 699 421 713 422 728 422 742 421 756 419 771 417 785 418 799 419 813 422 828 424 842 428 856 434 870 440 885 442 899 446 913 450 927 451 942 451 956 449 970 448 984 452 999 466 1013 472 1027 480 1042 484 1056 491 1070 497 1084 504 1099 509 1113 515 1127 522 1141 534 1156 546 1170 561 1184 569 1198 576 1213 590 1227 595 1241 595 1255 594 1270 600 1284 611 1298 619 1313 625 1327 630 1341 641 1355 648 1370 661 1384 681 1398 684 1412 693 1427 698 1441 711 1455 725 1469 746 1484 780 1498 789 1512 747 1526 725 1541 711 1555 717 1569 729 1584 754 1598 768 1612 778 1626 790 1641 780 1655 770 1669 764 1683 778 1698 794 1712 807 1726 840 1740 881 1755 853 1769 828 1783 817 1797 831 1812 854 1826 872 1840 885 1854 862 1869 896 1883 1723 1897 1723 1912 1723" stroke="#A18F8B" stroke-width="2" stroke-linecap="round" stroke-linejoin="round" stroke-miterlimit="10" fill="none"/></g><g clip-path="url(#clip11)"><path d="M100 1723 114 677 129 576 143 524 157 500 171 487 186 488 200 488 214 490 229 489 243 487 257 488 271 490 286 490 300 490 314 491 328 491 343 490 357 488 371 488 385 489 400 489 414 489 428 488 442 489 457 491 471 490 485 490 500 488 514 487 528 487 542 489 557 487 571 488 585 488 599 487 614 486 628 487 642 489 656 489 671 491 685 490 699 487 713 487 728 487 742 485 756 485 771 486 785 487 799 488 813 490 828 494 842 499 856 500 870 503 885 507 899 513 913 518 927 519 942 525 956 533 970 536 984 537 999 539 1013 544 1027 547 1042 550 1056 556 1070 571 1084 578 1099 577 1113 582 1127 590 1141 603 1156 615 1170 626 1184 640 1198 649 1213 652 1227 653 1241 662 1255 680 1270 685 1284 683 1298 684 1313 690 1327 707 1341 711 1355 707 1370 707 1384 712 1398 726 1412 729 1427 726 1441 752 1455 774 1469 773 1484 777 1498 793 1512 829 1526 801 1541 789 1555 785 1569 799 1584 803 1598 820 1612 810 1626 814 1641 832 1655 819 1669 804 1683 818 1698 840 1712 852 1726 864 1740 862 1755 849 1769 864 1783 916 1797 956 1812 962 1826 956 1840 1008 1854 956 1869 1723 1883 1723 1897 1723 1912 1723" stroke="#3B3838" stroke-width="2" stroke-linecap="round" stroke-linejoin="round" stroke-miterlimit="10" fill="none"/></g><g clip-path="url(#clip12)"><path d="M100 1723 114 1723 129 1723 143 1723 157 1723 171 1723 186 1723 200 1723 214 1723 229 1723 243 1723 257 1723 271 1723 286 1723 300 1723 314 1723 328 1723 343 1723 357 1723 371 1723 385 1723 400 1723 414 1723 428 1723 442 1723 457 1723 471 1723 485 1723 500 1723 514 1723 528 1723 542 1723 557 1723 571 1723 585 1723 599 1723 614 1723 628 1723 642 1723 656 1723 671 1723 685 1723 699 1723 713 1723 728 1723 742 1723 756 1723 771 1723 785 1723 799 1723 813 1723 828 1723 842 1723 856 1723 870 1723 885 1723 899 1723 913 1723 927 1723 942 1008 956 825 970 770 984 775 999 439 1013 492 1027 490 1042 429 1056 431 1070 426 1084 413 1099 405 1113 390 1127 435 1141 429 1156 416 1170 410 1184 413 1198 418 1213 430 1227 448 1241 484 1255 499 1270 504 1284 511 1298 518 1313 528 1327 537 1341 537 1355 517 1370 521 1384 533 1398 548 1412 559 1427 572 1441 585 1455 602 1469 553 1484 556 1498 577 1512 604 1526 629 1541 643 1555 657 1569 668 1584 641 1598 644 1612 654 1626 654 1641 684 1655 704 1669 708 1683 710 1698 650 1712 652 1726 683 1740 694 1755 687 1769 652 1783 678 1797 756 1812 714 1826 726 1840 753 1854 773 1869 775 1883 782 1897 792 1912 636" stroke="#70AD47" stroke-width="2" stroke-linecap="round" stroke-linejoin="round" stroke-miterlimit="10" fill="none"/></g><g clip-path="url(#clip13)"><path d="M100 1723 114 1723 129 1723 143 1723 157 1723 171 1723 186 1723 200 1723 214 1723 229 1723 243 1723 257 1723 271 1723 286 1723 300 1723 314 1723 328 1723 343 1723 357 1723 371 1723 385 1723 400 1723 414 1723 428 1723 442 1723 457 1723 471 1723 485 1723 500 1723 514 1723 528 1723 542 1723 557 1723 571 1723 585 1723 599 1723 614 1723 628 1723 642 1723 656 1723 671 1723 685 1723 699 1723 713 1723 728 1723 742 1723 756 1723 771 1723 785 1723 799 1022 813 962 828 931 842 913 856 901 870 887 885 795 899 542 913 440 927 384 942 353 956 332 970 335 984 346 999 370 1013 418 1027 466 1042 1723 1056 1723 1070 1723 1084 1723 1099 1723 1113 1723 1127 1723 1141 1723 1156 1723 1170 1723 1184 1723 1198 1723 1213 1723 1227 1723 1241 1723 1255 1723 1270 1723 1284 1723 1298 1723 1313 1723 1327 1723 1341 1723 1355 1723 1370 1723 1384 1723 1398 1723 1412 1723 1427 1723 1441 1723 1455 1723 1469 1723 1484 1723 1498 1723 1512 1723 1526 1723 1541 1723 1555 1723 1569 1723 1584 1723 1598 1723 1612 1723 1626 1723 1641 1723 1655 1723 1669 1723 1683 1723 1698 1723 1712 1723 1726 1723 1740 1723 1755 1723 1769 1723 1783 1723 1797 1723 1812 1723 1826 1723 1840 1723 1854 1723 1869 1723 1883 1723 1897 1723 1912 1723" stroke="#E0D08C" stroke-width="2" stroke-linecap="round" stroke-linejoin="round" stroke-miterlimit="10" fill="none"/></g><g clip-path="url(#clip14)"><path d="M100 907 114 907 129 411 143 387 157 368 171 354 186 352 200 351 214 350 229 349 243 352 257 721 271 714 286 733 300 753 314 740 328 767 343 766 357 768 371 778 385 784 400 797 414 768 428 774 442 787 457 777 471 788 485 814 500 800 514 808 528 803 542 816 557 798 571 825 585 817 599 867 614 877 628 859 642 862 656 879 671 877 685 883 699 901 713 874 728 853 742 879 756 923 771 864 785 923 799 1041 813 950 828 865 842 916 856 891 870 919 885 985 899 935 913 907 927 916 942 872 956 923 970 996 984 1022 999 1008 1013 996 1027 1677 1042 1114 1056 1677 1070 1677 1084 1677 1099 1677 1113 1677 1127 1677 1141 1677 1156 1677 1170 1677 1184 1677 1198 1677 1213 1677 1227 1677 1241 1677 1255 1677 1270 1677 1284 1677 1298 1677 1313 1677 1327 1677 1341 1677 1355 1677 1370 1677 1384 1677 1398 1677 1412 1677 1427 1677 1441 1677 1455 1677 1469 1677 1484 1677 1498 1677 1512 1677 1526 1677 1541 1677 1555 1677 1569 1114 1584 1041 1598 1068 1612 1677 1626 1677 1641 1677 1655 1677 1669 1677 1683 1677 1698 1677 1712 1677 1726 1677 1740 1677 1755 1677 1769 1677 1783 1677 1797 1677 1812 1677 1826 1677 1840 1677 1854 1677 1869 1677 1883 1677 1897 1677 1912 1677" stroke="#ED7D31" stroke-width="2" stroke-linecap="round" stroke-linejoin="round" stroke-miterlimit="10" fill="none"/></g><g clip-path="url(#clip15)"><path d="M100 1723 114 746 129 621 143 569 157 545 171 533 186 534 200 533 214 534 229 532 243 533 257 535 271 536 286 536 300 533 314 533 328 536 343 536 357 535 371 535 385 535 400 536 414 535 428 532 442 531 457 534 471 534 485 531 500 534 514 534 528 533 542 535 557 533 571 531 585 530 599 531 614 532 628 529 642 529 656 532 671 532 685 532 699 532 713 530 728 532 742 533 756 533 771 532 785 533 799 534 813 535 828 537 842 542 856 547 870 551 885 553 899 557 913 563 927 567 942 569 956 575 970 577 984 583 999 587 1013 592 1027 600 1042 644 1056 745 1070 1723 1084 1723 1099 1723 1113 1723 1127 1723 1141 1723 1156 1723 1170 1723 1184 1723 1198 1723 1213 1723 1227 1723 1241 1723 1255 1723 1270 1723 1284 1723 1298 1723 1313 1723 1327 1723 1341 1723 1355 1723 1370 1723 1384 1723 1398 1723 1412 1723 1427 1723 1441 1723 1455 1723 1469 1723 1484 1723 1498 1723 1512 1723 1526 1723 1541 1723 1555 1723 1569 1723 1584 1723 1598 1723 1612 1723 1626 1723 1641 1723 1655 1723 1669 1723 1683 1723 1698 1723 1712 1723 1726 1723 1740 1723 1755 1723 1769 1723 1783 1723 1797 1723 1812 1723 1826 1723 1840 1723 1854 1723 1869 1723 1883 1723 1897 1723 1912 1723" stroke="#00B0F0" stroke-width="2" stroke-linecap="round" stroke-linejoin="round" stroke-miterlimit="10" fill="none"/></g><g clip-path="url(#clip16)"><path d="M100 1723 114 904 129 770 143 716 157 701 171 689 186 690 200 689 214 688 229 692 243 689 257 688 271 694 286 685 300 689 314 690 328 689 343 689 357 687 371 689 385 687 400 686 414 690 428 687 442 687 457 684 471 684 485 682 500 687 514 678 528 686 542 687 557 685 571 693 585 737 599 838 614 1723 628 1723 642 1723 656 1723 671 1723 685 1723 699 1723 713 1723 728 1723 742 1723 756 1723 771 1723 785 1723 799 1723 813 1723 828 1723 842 1723 856 1723 870 1723 885 1723 899 1723 913 1723 927 1723 942 1723 956 1723 970 1723 984 1723 999 1723 1013 1723 1027 1723 1042 1723 1056 1723 1070 1723 1084 1723 1099 1723 1113 1723 1127 1723 1141 1723 1156 1723 1170 1723 1184 1723 1198 1723 1213 1723 1227 1723 1241 1723 1255 1723 1270 1723 1284 1723 1298 1723 1313 1723 1327 1723 1341 1723 1355 1723 1370 1723 1384 1723 1398 1723 1412 1723 1427 1723 1441 1723 1455 1723 1469 1723 1484 1723 1498 1723 1512 1723 1526 1723 1541 1723 1555 1723 1569 1723 1584 1723 1598 1723 1612 1723 1626 1723 1641 1723 1655 1723 1669 1723 1683 1723 1698 1723 1712 1723 1726 1723 1740 1723 1755 1723 1769 1723 1783 1723 1797 1723 1812 1723 1826 1723 1840 1723 1854 1723 1869 1723 1883 1723 1897 1723 1912 1723" stroke="#FFC000" stroke-width="2" stroke-linecap="round" stroke-linejoin="round" stroke-miterlimit="10" fill="none"/></g><g clip-path="url(#clip17)"><path d="M100 1723 114 985 129 817 143 759 157 738 171 732 186 738 200 733 214 732 229 736 243 727 257 727 271 741 286 736 300 731 314 729 328 729 343 746 357 784 371 907 385 1723 400 1723 414 1723 428 1723 442 1723 457 1723 471 1723 485 1723 500 1723 514 1723 528 1723 542 1723 557 1723 571 1723 585 1723 599 1723 614 1723 628 1723 642 1723 656 1723 671 1723 685 1723 699 1723 713 1723 728 1723 742 1723 756 1723 771 1723 785 1723 799 1723 813 1723 828 1723 842 1723 856 1723 870 1723 885 1723 899 1723 913 1723 927 1723 942 1723 956 1723 970 1723 984 1723 999 1723 1013 1723 1027 1723 1042 1723 1056 1723 1070 1723 1084 1723 1099 1723 1113 1723 1127 1723 1141 1723 1156 1723 1170 1723 1184 1723 1198 1723 1213 1723 1227 1723 1241 1723 1255 1723 1270 1723 1284 1723 1298 1723 1313 1723 1327 1723 1341 1723 1355 1723 1370 1723 1384 1723 1398 1723 1412 1723 1427 1723 1441 1723 1455 1723 1469 1723 1484 1723 1498 1723 1512 1723 1526 1723 1541 1723 1555 1723 1569 1723 1584 1723 1598 1723 1612 1723 1626 1723 1641 1723 1655 1723 1669 1723 1683 1723 1698 1723 1712 1723 1726 1723 1740 1723 1755 1723 1769 1723 1783 1723 1797 1723 1812 1723 1826 1723 1840 1723 1854 1723 1869 1723 1883 1723 1897 1723 1912 1723" stroke="#9DC3E6" stroke-width="2" stroke-linecap="round" stroke-linejoin="round" stroke-miterlimit="10" fill="none"/></g><g clip-path="url(#clip18)"><path d="M100 1723 114 1723 129 1723 143 1723 157 1723 171 1723 186 1723 200 1068 214 1041 229 919 243 565 257 1723 271 1723 286 1723 300 1723 314 1723 328 1723 343 1723 357 1723 371 1723 385 1723 400 1723 414 1114 428 1723 442 1723 457 1723 471 1723 485 1723 500 1723 514 1723 528 1723 542 1723 557 1723 571 1723 585 1723 599 1114 614 1723 628 1723 642 1723 656 1723 671 1723 685 1723 699 1723 713 1723 728 1723 742 1723 756 1723 771 1723 785 1723 799 1723 813 1723 828 1723 842 1723 856 1723 870 1723 885 1723 899 1723 913 1723 927 1723 942 1723 956 1723 970 1723 984 1723 999 1723 1013 1723 1027 1723 1042 1723 1056 1723 1070 1723 1084 1723 1099 1723 1113 1723 1127 1723 1141 1723 1156 1723 1170 1723 1184 1723 1198 1723 1213 1723 1227 1723 1241 1723 1255 1723 1270 1723 1284 1723 1298 1723 1313 1723 1327 1723 1341 1723 1355 1723 1370 1723 1384 1723 1398 1723 1412 1723 1427 1723 1441 1723 1455 1723 1469 1723 1484 1723 1498 1723 1512 1723 1526 1723 1541 1723 1555 1723 1569 1723 1584 1723 1598 1723 1612 1723 1626 1723 1641 1723 1655 1723 1669 1723 1683 1723 1698 1723 1712 1723 1726 1723 1740 1723 1755 1723 1769 1723 1783 1723 1797 1723 1812 1723 1826 1723 1840 1723 1854 1723 1869 1723 1883 1723 1897 1723 1912 1723" stroke="#7030A0" stroke-width="2" stroke-linecap="round" stroke-linejoin="round" stroke-miterlimit="10" fill="none"/></g><g clip-path="url(#clip19)"><text fill="#595959" font-family="Arial,Arial_MSFontService,sans-serif" font-weight="400" font-size="12" transform="translate(83.1619 1118)">1</text></g><g clip-path="url(#clip20)"><text fill="#595959" font-family="Arial,Arial_MSFontService,sans-serif" font-weight="400" font-size="12" transform="translate(76.4885 966)">10</text></g><g clip-path="url(#clip21)"><text fill="#595959" font-family="Arial,Arial_MSFontService,sans-serif" font-weight="400" font-size="12" transform="translate(69.8151 813)">100</text></g><g clip-path="url(#clip22)"><text fill="#595959" font-family="Arial,Arial_MSFontService,sans-serif" font-weight="400" font-size="12" transform="translate(59.8084 661)">1,000</text></g><g clip-path="url(#clip23)"><text fill="#595959" font-family="Arial,Arial_MSFontService,sans-serif" font-weight="400" font-size="12" transform="translate(53.135 509)">10,000</text></g><g clip-path="url(#clip24)"><text fill="#595959" font-family="Arial,Arial_MSFontService,sans-serif" font-weight="400" font-size="12" transform="translate(46.4616 357)">100,000</text></g><g clip-path="url(#clip25)"><text fill="#595959" font-family="Arial,Arial_MSFontService,sans-serif" font-weight="400" font-size="12" transform="translate(36.4549 204)">1,000,000</text></g><g clip-path="url(#clip26)"><text fill="#595959" font-family="Arial,Arial_MSFontService,sans-serif" font-weight="400" font-size="12" transform="translate(29.7815 52)">10,000,000</text></g><g clip-path="url(#clip27)"><text fill="#595959" font-family="Arial,Arial_MSFontService,sans-serif" font-weight="400" font-size="12" transform="matrix(6.12323e-17 -1 1 6.12323e-17 104.455 1128)">0</text></g><g clip-path="url(#clip28)"><text fill="#595959" font-family="Arial,Arial_MSFontService,sans-serif" font-weight="400" font-size="12" transform="matrix(6.12323e-17 -1 1 6.12323e-17 118.718 1128)">1</text></g><g clip-path="url(#clip29)"><text fill="#595959" font-family="Arial,Arial_MSFontService,sans-serif" font-weight="400" font-size="12" transform="matrix(6.12323e-17 -1 1 6.12323e-17 132.981 1128)">2</text></g><g clip-path="url(#clip30)"><text fill="#595959" font-family="Arial,Arial_MSFontService,sans-serif" font-weight="400" font-size="12" transform="matrix(6.12323e-17 -1 1 6.12323e-17 147.244 1128)">3</text></g><g clip-path="url(#clip31)"><text fill="#595959" font-family="Arial,Arial_MSFontService,sans-serif" font-weight="400" font-size="12" transform="matrix(6.12323e-17 -1 1 6.12323e-17 161.507 1128)">4</text></g><g clip-path="url(#clip32)"><text fill="#595959" font-family="Arial,Arial_MSFontService,sans-serif" font-weight="400" font-size="12" transform="matrix(6.12323e-17 -1 1 6.12323e-17 175.77 1128)">5</text></g><g clip-path="url(#clip33)"><text fill="#595959" font-family="Arial,Arial_MSFontService,sans-serif" font-weight="400" font-size="12" transform="matrix(6.12323e-17 -1 1 6.12323e-17 190.033 1128)">6</text></g><g clip-path="url(#clip34)"><text fill="#595959" font-family="Arial,Arial_MSFontService,sans-serif" font-weight="400" font-size="12" transform="matrix(6.12323e-17 -1 1 6.12323e-17 204.296 1128)">7</text></g><g clip-path="url(#clip35)"><text fill="#595959" font-family="Arial,Arial_MSFontService,sans-serif" font-weight="400" font-size="12" transform="matrix(6.12323e-17 -1 1 6.12323e-17 218.559 1128)">8</text></g><g clip-path="url(#clip36)"><text fill="#595959" font-family="Arial,Arial_MSFontService,sans-serif" font-weight="400" font-size="12" transform="matrix(6.12323e-17 -1 1 6.12323e-17 232.822 1128)">9</text></g><g clip-path="url(#clip37)"><text fill="#595959" font-family="Arial,Arial_MSFontService,sans-serif" font-weight="400" font-size="12" transform="matrix(6.12323e-17 -1 1 6.12323e-17 247.085 1135)">10</text></g><g clip-path="url(#clip38)"><text fill="#595959" font-family="Arial,Arial_MSFontService,sans-serif" font-weight="400" font-size="12" transform="matrix(6.12323e-17 -1 1 6.12323e-17 261.348 1135)">11</text></g><g clip-path="url(#clip39)"><text fill="#595959" font-family="Arial,Arial_MSFontService,sans-serif" font-weight="400" font-size="12" transform="matrix(6.12323e-17 -1 1 6.12323e-17 275.611 1135)">12</text></g><g clip-path="url(#clip40)"><text fill="#595959" font-family="Arial,Arial_MSFontService,sans-serif" font-weight="400" font-size="12" transform="matrix(6.12323e-17 -1 1 6.12323e-17 289.874 1135)">13</text></g><g clip-path="url(#clip41)"><text fill="#595959" font-family="Arial,Arial_MSFontService,sans-serif" font-weight="400" font-size="12" transform="matrix(6.12323e-17 -1 1 6.12323e-17 304.137 1135)">14</text></g><g clip-path="url(#clip42)"><text fill="#595959" font-family="Arial,Arial_MSFontService,sans-serif" font-weight="400" font-size="12" transform="matrix(6.12323e-17 -1 1 6.12323e-17 318.4 1135)">15</text></g><g clip-path="url(#clip43)"><text fill="#595959" font-family="Arial,Arial_MSFontService,sans-serif" font-weight="400" font-size="12" transform="matrix(6.12323e-17 -1 1 6.12323e-17 332.663 1135)">16</text></g><g clip-path="url(#clip44)"><text fill="#595959" font-family="Arial,Arial_MSFontService,sans-serif" font-weight="400" font-size="12" transform="matrix(6.12323e-17 -1 1 6.12323e-17 346.926 1135)">17</text></g><g clip-path="url(#clip45)"><text fill="#595959" font-family="Arial,Arial_MSFontService,sans-serif" font-weight="400" font-size="12" transform="matrix(6.12323e-17 -1 1 6.12323e-17 361.189 1135)">18</text></g><g clip-path="url(#clip46)"><text fill="#595959" font-family="Arial,Arial_MSFontService,sans-serif" font-weight="400" font-size="12" transform="matrix(6.12323e-17 -1 1 6.12323e-17 375.452 1135)">19</text></g><g clip-path="url(#clip47)"><text fill="#595959" font-family="Arial,Arial_MSFontService,sans-serif" font-weight="400" font-size="12" transform="matrix(6.12323e-17 -1 1 6.12323e-17 389.715 1135)">20</text></g><g clip-path="url(#clip48)"><text fill="#595959" font-family="Arial,Arial_MSFontService,sans-serif" font-weight="400" font-size="12" transform="matrix(6.12323e-17 -1 1 6.12323e-17 403.978 1135)">21</text></g><g clip-path="url(#clip49)"><text fill="#595959" font-family="Arial,Arial_MSFontService,sans-serif" font-weight="400" font-size="12" transform="matrix(6.12323e-17 -1 1 6.12323e-17 418.241 1135)">22</text></g><g clip-path="url(#clip50)"><text fill="#595959" font-family="Arial,Arial_MSFontService,sans-serif" font-weight="400" font-size="12" transform="matrix(6.12323e-17 -1 1 6.12323e-17 432.504 1135)">23</text></g><g clip-path="url(#clip51)"><text fill="#595959" font-family="Arial,Arial_MSFontService,sans-serif" font-weight="400" font-size="12" transform="matrix(6.12323e-17 -1 1 6.12323e-17 446.767 1135)">24</text></g><g clip-path="url(#clip52)"><text fill="#595959" font-family="Arial,Arial_MSFontService,sans-serif" font-weight="400" font-size="12" transform="matrix(6.12323e-17 -1 1 6.12323e-17 461.03 1135)">25</text></g><g clip-path="url(#clip53)"><text fill="#595959" font-family="Arial,Arial_MSFontService,sans-serif" font-weight="400" font-size="12" transform="matrix(6.12323e-17 -1 1 6.12323e-17 475.292 1135)">26</text></g><g clip-path="url(#clip54)"><text fill="#595959" font-family="Arial,Arial_MSFontService,sans-serif" font-weight="400" font-size="12" transform="matrix(6.12323e-17 -1 1 6.12323e-17 489.555 1135)">27</text></g><g clip-path="url(#clip55)"><text fill="#595959" font-family="Arial,Arial_MSFontService,sans-serif" font-weight="400" font-size="12" transform="matrix(6.12323e-17 -1 1 6.12323e-17 503.818 1135)">28</text></g><g clip-path="url(#clip56)"><text fill="#595959" font-family="Arial,Arial_MSFontService,sans-serif" font-weight="400" font-size="12" transform="matrix(6.12323e-17 -1 1 6.12323e-17 518.081 1135)">29</text></g><g clip-path="url(#clip57)"><text fill="#595959" font-family="Arial,Arial_MSFontService,sans-serif" font-weight="400" font-size="12" transform="matrix(6.12323e-17 -1 1 6.12323e-17 532.344 1135)">30</text></g><g clip-path="url(#clip58)"><text fill="#595959" font-family="Arial,Arial_MSFontService,sans-serif" font-weight="400" font-size="12" transform="matrix(6.12323e-17 -1 1 6.12323e-17 546.607 1135)">31</text></g><g clip-path="url(#clip59)"><text fill="#595959" font-family="Arial,Arial_MSFontService,sans-serif" font-weight="400" font-size="12" transform="matrix(6.12323e-17 -1 1 6.12323e-17 560.87 1135)">32</text></g><g clip-path="url(#clip60)"><text fill="#595959" font-family="Arial,Arial_MSFontService,sans-serif" font-weight="400" font-size="12" transform="matrix(6.12323e-17 -1 1 6.12323e-17 575.133 1135)">33</text></g><g clip-path="url(#clip61)"><text fill="#595959" font-family="Arial,Arial_MSFontService,sans-serif" font-weight="400" font-size="12" transform="matrix(6.12323e-17 -1 1 6.12323e-17 589.396 1135)">34</text></g><g clip-path="url(#clip62)"><text fill="#595959" font-family="Arial,Arial_MSFontService,sans-serif" font-weight="400" font-size="12" transform="matrix(6.12323e-17 -1 1 6.12323e-17 603.659 1135)">35</text></g><g clip-path="url(#clip63)"><text fill="#595959" font-family="Arial,Arial_MSFontService,sans-serif" font-weight="400" font-size="12" transform="matrix(6.12323e-17 -1 1 6.12323e-17 617.922 1135)">36</text></g><g clip-path="url(#clip64)"><text fill="#595959" font-family="Arial,Arial_MSFontService,sans-serif" font-weight="400" font-size="12" transform="matrix(6.12323e-17 -1 1 6.12323e-17 632.185 1135)">37</text></g><g clip-path="url(#clip65)"><text fill="#595959" font-family="Arial,Arial_MSFontService,sans-serif" font-weight="400" font-size="12" transform="matrix(6.12323e-17 -1 1 6.12323e-17 646.448 1135)">38</text></g><g clip-path="url(#clip66)"><text fill="#595959" font-family="Arial,Arial_MSFontService,sans-serif" font-weight="400" font-size="12" transform="matrix(6.12323e-17 -1 1 6.12323e-17 660.711 1135)">39</text></g><g clip-path="url(#clip67)"><text fill="#595959" font-family="Arial,Arial_MSFontService,sans-serif" font-weight="400" font-size="12" transform="matrix(6.12323e-17 -1 1 6.12323e-17 674.974 1135)">40</text></g><g clip-path="url(#clip68)"><text fill="#595959" font-family="Arial,Arial_MSFontService,sans-serif" font-weight="400" font-size="12" transform="matrix(6.12323e-17 -1 1 6.12323e-17 689.237 1135)">41</text></g><g clip-path="url(#clip69)"><text fill="#595959" font-family="Arial,Arial_MSFontService,sans-serif" font-weight="400" font-size="12" transform="matrix(6.12323e-17 -1 1 6.12323e-17 703.5 1135)">42</text></g><g clip-path="url(#clip70)"><text fill="#595959" font-family="Arial,Arial_MSFontService,sans-serif" font-weight="400" font-size="12" transform="matrix(6.12323e-17 -1 1 6.12323e-17 717.763 1135)">43</text></g><g clip-path="url(#clip71)"><text fill="#595959" font-family="Arial,Arial_MSFontService,sans-serif" font-weight="400" font-size="12" transform="matrix(6.12323e-17 -1 1 6.12323e-17 732.026 1135)">44</text></g><g clip-path="url(#clip72)"><text fill="#595959" font-family="Arial,Arial_MSFontService,sans-serif" font-weight="400" font-size="12" transform="matrix(6.12323e-17 -1 1 6.12323e-17 746.289 1135)">45</text></g><g clip-path="url(#clip73)"><text fill="#595959" font-family="Arial,Arial_MSFontService,sans-serif" font-weight="400" font-size="12" transform="matrix(6.12323e-17 -1 1 6.12323e-17 760.552 1135)">46</text></g><g clip-path="url(#clip74)"><text fill="#595959" font-family="Arial,Arial_MSFontService,sans-serif" font-weight="400" font-size="12" transform="matrix(6.12323e-17 -1 1 6.12323e-17 774.815 1135)">47</text></g><g clip-path="url(#clip75)"><text fill="#595959" font-family="Arial,Arial_MSFontService,sans-serif" font-weight="400" font-size="12" transform="matrix(6.12323e-17 -1 1 6.12323e-17 789.078 1135)">48</text></g><g clip-path="url(#clip76)"><text fill="#595959" font-family="Arial,Arial_MSFontService,sans-serif" font-weight="400" font-size="12" transform="matrix(6.12323e-17 -1 1 6.12323e-17 803.341 1135)">49</text></g><g clip-path="url(#clip77)"><text fill="#595959" font-family="Arial,Arial_MSFontService,sans-serif" font-weight="400" font-size="12" transform="matrix(6.12323e-17 -1 1 6.12323e-17 817.604 1135)">50</text></g><g clip-path="url(#clip78)"><text fill="#595959" font-family="Arial,Arial_MSFontService,sans-serif" font-weight="400" font-size="12" transform="matrix(6.12323e-17 -1 1 6.12323e-17 831.867 1135)">51</text></g><g clip-path="url(#clip79)"><text fill="#595959" font-family="Arial,Arial_MSFontService,sans-serif" font-weight="400" font-size="12" transform="matrix(6.12323e-17 -1 1 6.12323e-17 846.129 1135)">52</text></g><g clip-path="url(#clip80)"><text fill="#595959" font-family="Arial,Arial_MSFontService,sans-serif" font-weight="400" font-size="12" transform="matrix(6.12323e-17 -1 1 6.12323e-17 860.392 1135)">53</text></g><g clip-path="url(#clip81)"><text fill="#595959" font-family="Arial,Arial_MSFontService,sans-serif" font-weight="400" font-size="12" transform="matrix(6.12323e-17 -1 1 6.12323e-17 874.655 1135)">54</text></g><g clip-path="url(#clip82)"><text fill="#595959" font-family="Arial,Arial_MSFontService,sans-serif" font-weight="400" font-size="12" transform="matrix(6.12323e-17 -1 1 6.12323e-17 888.918 1135)">55</text></g><g clip-path="url(#clip83)"><text fill="#595959" font-family="Arial,Arial_MSFontService,sans-serif" font-weight="400" font-size="12" transform="matrix(6.12323e-17 -1 1 6.12323e-17 903.181 1135)">56</text></g><g clip-path="url(#clip84)"><text fill="#595959" font-family="Arial,Arial_MSFontService,sans-serif" font-weight="400" font-size="12" transform="matrix(6.12323e-17 -1 1 6.12323e-17 917.444 1135)">57</text></g><g clip-path="url(#clip85)"><text fill="#595959" font-family="Arial,Arial_MSFontService,sans-serif" font-weight="400" font-size="12" transform="matrix(6.12323e-17 -1 1 6.12323e-17 931.707 1135)">58</text></g><g clip-path="url(#clip86)"><text fill="#595959" font-family="Arial,Arial_MSFontService,sans-serif" font-weight="400" font-size="12" transform="matrix(6.12323e-17 -1 1 6.12323e-17 945.97 1135)">59</text></g><g clip-path="url(#clip87)"><text fill="#595959" font-family="Arial,Arial_MSFontService,sans-serif" font-weight="400" font-size="12" transform="matrix(6.12323e-17 -1 1 6.12323e-17 960.233 1135)">60</text></g><g clip-path="url(#clip88)"><text fill="#595959" font-family="Arial,Arial_MSFontService,sans-serif" font-weight="400" font-size="12" transform="matrix(6.12323e-17 -1 1 6.12323e-17 974.496 1135)">61</text></g><g clip-path="url(#clip89)"><text fill="#595959" font-family="Arial,Arial_MSFontService,sans-serif" font-weight="400" font-size="12" transform="matrix(6.12323e-17 -1 1 6.12323e-17 988.759 1135)">62</text></g><g clip-path="url(#clip90)"><text fill="#595959" font-family="Arial,Arial_MSFontService,sans-serif" font-weight="400" font-size="12" transform="matrix(6.12323e-17 -1 1 6.12323e-17 1003.02 1135)">63</text></g><g clip-path="url(#clip91)"><text fill="#595959" font-family="Arial,Arial_MSFontService,sans-serif" font-weight="400" font-size="12" transform="matrix(6.12323e-17 -1 1 6.12323e-17 1017.29 1135)">64</text></g><g clip-path="url(#clip92)"><text fill="#595959" font-family="Arial,Arial_MSFontService,sans-serif" font-weight="400" font-size="12" transform="matrix(6.12323e-17 -1 1 6.12323e-17 1031.55 1135)">65</text></g><g clip-path="url(#clip93)"><text fill="#595959" font-family="Arial,Arial_MSFontService,sans-serif" font-weight="400" font-size="12" transform="matrix(6.12323e-17 -1 1 6.12323e-17 1045.81 1135)">66</text></g><g clip-path="url(#clip94)"><text fill="#595959" font-family="Arial,Arial_MSFontService,sans-serif" font-weight="400" font-size="12" transform="matrix(6.12323e-17 -1 1 6.12323e-17 1060.07 1135)">67</text></g><g clip-path="url(#clip95)"><text fill="#595959" font-family="Arial,Arial_MSFontService,sans-serif" font-weight="400" font-size="12" transform="matrix(6.12323e-17 -1 1 6.12323e-17 1074.34 1135)">68</text></g><g clip-path="url(#clip96)"><text fill="#595959" font-family="Arial,Arial_MSFontService,sans-serif" font-weight="400" font-size="12" transform="matrix(6.12323e-17 -1 1 6.12323e-17 1088.6 1135)">69</text></g><g clip-path="url(#clip97)"><text fill="#595959" font-family="Arial,Arial_MSFontService,sans-serif" font-weight="400" font-size="12" transform="matrix(6.12323e-17 -1 1 6.12323e-17 1102.86 1135)">70</text></g><g clip-path="url(#clip98)"><text fill="#595959" font-family="Arial,Arial_MSFontService,sans-serif" font-weight="400" font-size="12" transform="matrix(6.12323e-17 -1 1 6.12323e-17 1117.13 1135)">71</text></g><g clip-path="url(#clip99)"><text fill="#595959" font-family="Arial,Arial_MSFontService,sans-serif" font-weight="400" font-size="12" transform="matrix(6.12323e-17 -1 1 6.12323e-17 1131.39 1135)">72</text></g><g clip-path="url(#clip100)"><text fill="#595959" font-family="Arial,Arial_MSFontService,sans-serif" font-weight="400" font-size="12" transform="matrix(6.12323e-17 -1 1 6.12323e-17 1145.65 1135)">73</text></g><g clip-path="url(#clip101)"><text fill="#595959" font-family="Arial,Arial_MSFontService,sans-serif" font-weight="400" font-size="12" transform="matrix(6.12323e-17 -1 1 6.12323e-17 1159.91 1135)">74</text></g><g clip-path="url(#clip102)"><text fill="#595959" font-family="Arial,Arial_MSFontService,sans-serif" font-weight="400" font-size="12" transform="matrix(6.12323e-17 -1 1 6.12323e-17 1174.18 1135)">75</text></g><g clip-path="url(#clip103)"><text fill="#595959" font-family="Arial,Arial_MSFontService,sans-serif" font-weight="400" font-size="12" transform="matrix(6.12323e-17 -1 1 6.12323e-17 1188.44 1135)">76</text></g><g clip-path="url(#clip104)"><text fill="#595959" font-family="Arial,Arial_MSFontService,sans-serif" font-weight="400" font-size="12" transform="matrix(6.12323e-17 -1 1 6.12323e-17 1202.7 1135)">77</text></g><g clip-path="url(#clip105)"><text fill="#595959" font-family="Arial,Arial_MSFontService,sans-serif" font-weight="400" font-size="12" transform="matrix(6.12323e-17 -1 1 6.12323e-17 1216.97 1135)">78</text></g><g clip-path="url(#clip106)"><text fill="#595959" font-family="Arial,Arial_MSFontService,sans-serif" font-weight="400" font-size="12" transform="matrix(6.12323e-17 -1 1 6.12323e-17 1231.23 1135)">79</text></g><g clip-path="url(#clip107)"><text fill="#595959" font-family="Arial,Arial_MSFontService,sans-serif" font-weight="400" font-size="12" transform="matrix(6.12323e-17 -1 1 6.12323e-17 1245.49 1135)">80</text></g><g clip-path="url(#clip108)"><text fill="#595959" font-family="Arial,Arial_MSFontService,sans-serif" font-weight="400" font-size="12" transform="matrix(6.12323e-17 -1 1 6.12323e-17 1259.76 1135)">81</text></g><g clip-path="url(#clip109)"><text fill="#595959" font-family="Arial,Arial_MSFontService,sans-serif" font-weight="400" font-size="12" transform="matrix(6.12323e-17 -1 1 6.12323e-17 1274.02 1135)">82</text></g><g clip-path="url(#clip110)"><text fill="#595959" font-family="Arial,Arial_MSFontService,sans-serif" font-weight="400" font-size="12" transform="matrix(6.12323e-17 -1 1 6.12323e-17 1288.28 1135)">83</text></g><g clip-path="url(#clip111)"><text fill="#595959" font-family="Arial,Arial_MSFontService,sans-serif" font-weight="400" font-size="12" transform="matrix(6.12323e-17 -1 1 6.12323e-17 1302.54 1135)">84</text></g><g clip-path="url(#clip112)"><text fill="#595959" font-family="Arial,Arial_MSFontService,sans-serif" font-weight="400" font-size="12" transform="matrix(6.12323e-17 -1 1 6.12323e-17 1316.81 1135)">85</text></g><g clip-path="url(#clip113)"><text fill="#595959" font-family="Arial,Arial_MSFontService,sans-serif" font-weight="400" font-size="12" transform="matrix(6.12323e-17 -1 1 6.12323e-17 1331.07 1135)">86</text></g><g clip-path="url(#clip114)"><text fill="#595959" font-family="Arial,Arial_MSFontService,sans-serif" font-weight="400" font-size="12" transform="matrix(6.12323e-17 -1 1 6.12323e-17 1345.33 1135)">87</text></g><g clip-path="url(#clip115)"><text fill="#595959" font-family="Arial,Arial_MSFontService,sans-serif" font-weight="400" font-size="12" transform="matrix(6.12323e-17 -1 1 6.12323e-17 1359.6 1135)">88</text></g><g clip-path="url(#clip116)"><text fill="#595959" font-family="Arial,Arial_MSFontService,sans-serif" font-weight="400" font-size="12" transform="matrix(6.12323e-17 -1 1 6.12323e-17 1373.86 1135)">89</text></g><g clip-path="url(#clip117)"><text fill="#595959" font-family="Arial,Arial_MSFontService,sans-serif" font-weight="400" font-size="12" transform="matrix(6.12323e-17 -1 1 6.12323e-17 1388.12 1135)">90</text></g><g clip-path="url(#clip118)"><text fill="#595959" font-family="Arial,Arial_MSFontService,sans-serif" font-weight="400" font-size="12" transform="matrix(6.12323e-17 -1 1 6.12323e-17 1402.39 1135)">91</text></g><g clip-path="url(#clip119)"><text fill="#595959" font-family="Arial,Arial_MSFontService,sans-serif" font-weight="400" font-size="12" transform="matrix(6.12323e-17 -1 1 6.12323e-17 1416.65 1135)">92</text></g><g clip-path="url(#clip120)"><text fill="#595959" font-family="Arial,Arial_MSFontService,sans-serif" font-weight="400" font-size="12" transform="matrix(6.12323e-17 -1 1 6.12323e-17 1430.91 1135)">93</text></g><g clip-path="url(#clip121)"><text fill="#595959" font-family="Arial,Arial_MSFontService,sans-serif" font-weight="400" font-size="12" transform="matrix(6.12323e-17 -1 1 6.12323e-17 1445.17 1135)">94</text></g><g clip-path="url(#clip122)"><text fill="#595959" font-family="Arial,Arial_MSFontService,sans-serif" font-weight="400" font-size="12" transform="matrix(6.12323e-17 -1 1 6.12323e-17 1459.44 1135)">95</text></g><g clip-path="url(#clip123)"><text fill="#595959" font-family="Arial,Arial_MSFontService,sans-serif" font-weight="400" font-size="12" transform="matrix(6.12323e-17 -1 1 6.12323e-17 1473.7 1135)">96</text></g><g clip-path="url(#clip124)"><text fill="#595959" font-family="Arial,Arial_MSFontService,sans-serif" font-weight="400" font-size="12" transform="matrix(6.12323e-17 -1 1 6.12323e-17 1487.96 1135)">97</text></g><g clip-path="url(#clip125)"><text fill="#595959" font-family="Arial,Arial_MSFontService,sans-serif" font-weight="400" font-size="12" transform="matrix(6.12323e-17 -1 1 6.12323e-17 1502.23 1135)">98</text></g><g clip-path="url(#clip126)"><text fill="#595959" font-family="Arial,Arial_MSFontService,sans-serif" font-weight="400" font-size="12" transform="matrix(6.12323e-17 -1 1 6.12323e-17 1516.49 1135)">99</text></g><g clip-path="url(#clip127)"><text fill="#595959" font-family="Arial,Arial_MSFontService,sans-serif" font-weight="400" font-size="12" transform="matrix(6.12323e-17 -1 1 6.12323e-17 1530.75 1141)">100</text></g><g clip-path="url(#clip128)"><text fill="#595959" font-family="Arial,Arial_MSFontService,sans-serif" font-weight="400" font-size="12" transform="matrix(6.12323e-17 -1 1 6.12323e-17 1545.01 1141)">101</text></g><g clip-path="url(#clip129)"><text fill="#595959" font-family="Arial,Arial_MSFontService,sans-serif" font-weight="400" font-size="12" transform="matrix(6.12323e-17 -1 1 6.12323e-17 1559.28 1141)">102</text></g><g clip-path="url(#clip130)"><text fill="#595959" font-family="Arial,Arial_MSFontService,sans-serif" font-weight="400" font-size="12" transform="matrix(6.12323e-17 -1 1 6.12323e-17 1573.54 1141)">103</text></g><g clip-path="url(#clip131)"><text fill="#595959" font-family="Arial,Arial_MSFontService,sans-serif" font-weight="400" font-size="12" transform="matrix(6.12323e-17 -1 1 6.12323e-17 1587.8 1141)">104</text></g><g clip-path="url(#clip132)"><text fill="#595959" font-family="Arial,Arial_MSFontService,sans-serif" font-weight="400" font-size="12" transform="matrix(6.12323e-17 -1 1 6.12323e-17 1602.07 1141)">105</text></g><g clip-path="url(#clip133)"><text fill="#595959" font-family="Arial,Arial_MSFontService,sans-serif" font-weight="400" font-size="12" transform="matrix(6.12323e-17 -1 1 6.12323e-17 1616.33 1141)">106</text></g><g clip-path="url(#clip134)"><text fill="#595959" font-family="Arial,Arial_MSFontService,sans-serif" font-weight="400" font-size="12" transform="matrix(6.12323e-17 -1 1 6.12323e-17 1630.59 1141)">107</text></g><g clip-path="url(#clip135)"><text fill="#595959" font-family="Arial,Arial_MSFontService,sans-serif" font-weight="400" font-size="12" transform="matrix(6.12323e-17 -1 1 6.12323e-17 1644.86 1141)">108</text></g><g clip-path="url(#clip136)"><text fill="#595959" font-family="Arial,Arial_MSFontService,sans-serif" font-weight="400" font-size="12" transform="matrix(6.12323e-17 -1 1 6.12323e-17 1659.12 1141)">109</text></g><g clip-path="url(#clip137)"><text fill="#595959" font-family="Arial,Arial_MSFontService,sans-serif" font-weight="400" font-size="12" transform="matrix(6.12323e-17 -1 1 6.12323e-17 1673.38 1141)">110</text></g><g clip-path="url(#clip138)"><text fill="#595959" font-family="Arial,Arial_MSFontService,sans-serif" font-weight="400" font-size="12" transform="matrix(6.12323e-17 -1 1 6.12323e-17 1687.64 1141)">111</text></g><g clip-path="url(#clip139)"><text fill="#595959" font-family="Arial,Arial_MSFontService,sans-serif" font-weight="400" font-size="12" transform="matrix(6.12323e-17 -1 1 6.12323e-17 1701.91 1141)">112</text></g><g clip-path="url(#clip140)"><text fill="#595959" font-family="Arial,Arial_MSFontService,sans-serif" font-weight="400" font-size="12" transform="matrix(6.12323e-17 -1 1 6.12323e-17 1716.17 1141)">113</text></g><g clip-path="url(#clip141)"><text fill="#595959" font-family="Arial,Arial_MSFontService,sans-serif" font-weight="400" font-size="12" transform="matrix(6.12323e-17 -1 1 6.12323e-17 1730.43 1141)">114</text></g><g clip-path="url(#clip142)"><text fill="#595959" font-family="Arial,Arial_MSFontService,sans-serif" font-weight="400" font-size="12" transform="matrix(6.12323e-17 -1 1 6.12323e-17 1744.7 1141)">115</text></g><g clip-path="url(#clip143)"><text fill="#595959" font-family="Arial,Arial_MSFontService,sans-serif" font-weight="400" font-size="12" transform="matrix(6.12323e-17 -1 1 6.12323e-17 1758.96 1141)">116</text></g><g clip-path="url(#clip144)"><text fill="#595959" font-family="Arial,Arial_MSFontService,sans-serif" font-weight="400" font-size="12" transform="matrix(6.12323e-17 -1 1 6.12323e-17 1773.22 1141)">117</text></g><g clip-path="url(#clip145)"><text fill="#595959" font-family="Arial,Arial_MSFontService,sans-serif" font-weight="400" font-size="12" transform="matrix(6.12323e-17 -1 1 6.12323e-17 1787.49 1141)">118</text></g><g clip-path="url(#clip146)"><text fill="#595959" font-family="Arial,Arial_MSFontService,sans-serif" font-weight="400" font-size="12" transform="matrix(6.12323e-17 -1 1 6.12323e-17 1801.75 1141)">119</text></g><g clip-path="url(#clip147)"><text fill="#595959" font-family="Arial,Arial_MSFontService,sans-serif" font-weight="400" font-size="12" transform="matrix(6.12323e-17 -1 1 6.12323e-17 1816.01 1141)">120</text></g><g clip-path="url(#clip148)"><text fill="#595959" font-family="Arial,Arial_MSFontService,sans-serif" font-weight="400" font-size="12" transform="matrix(6.12323e-17 -1 1 6.12323e-17 1830.27 1141)">121</text></g><g clip-path="url(#clip149)"><text fill="#595959" font-family="Arial,Arial_MSFontService,sans-serif" font-weight="400" font-size="12" transform="matrix(6.12323e-17 -1 1 6.12323e-17 1844.54 1141)">122</text></g><g clip-path="url(#clip150)"><text fill="#595959" font-family="Arial,Arial_MSFontService,sans-serif" font-weight="400" font-size="12" transform="matrix(6.12323e-17 -1 1 6.12323e-17 1858.8 1141)">123</text></g><g clip-path="url(#clip151)"><text fill="#595959" font-family="Arial,Arial_MSFontService,sans-serif" font-weight="400" font-size="12" transform="matrix(6.12323e-17 -1 1 6.12323e-17 1873.06 1141)">124</text></g><g clip-path="url(#clip152)"><text fill="#595959" font-family="Arial,Arial_MSFontService,sans-serif" font-weight="400" font-size="12" transform="matrix(6.12323e-17 -1 1 6.12323e-17 1887.33 1141)">125</text></g><g clip-path="url(#clip153)"><text fill="#595959" font-family="Arial,Arial_MSFontService,sans-serif" font-weight="400" font-size="12" transform="matrix(6.12323e-17 -1 1 6.12323e-17 1901.59 1141)">126</text></g><g clip-path="url(#clip154)"><text fill="#595959" font-family="Arial,Arial_MSFontService,sans-serif" font-weight="400" font-size="12" transform="matrix(6.12323e-17 -1 1 6.12323e-17 1915.85 1141)">127</text></g><g clip-path="url(#clip155)"><text fill="#595959" font-family="Arial,Arial_MSFontService,sans-serif" font-weight="400" font-size="13" transform="matrix(6.12323e-17 -1 1 6.12323e-17 23.4482 616)">Block count</text></g><g clip-path="url(#clip156)"><text fill="#595959" font-family="Arial,Arial_MSFontService,sans-serif" font-weight="400" font-size="13" transform="translate(983.62 1152)">Altitude</text></g><g clip-path="url(#clip157)"><text fill="#595959" font-family="Arial,Arial_MSFontService,sans-serif" font-weight="400" font-size="19" transform="translate(752 28)">Resource distribution by altitude (Minecraft Infdev)</text></g><g clip-path="url(#clip158)"><path d="M361 1181 395 1181" stroke="#9DC3E6" stroke-width="2" stroke-linecap="round" stroke-linejoin="round" stroke-miterlimit="10" stroke-dasharray="4 4" fill="none" fill-rule="evenodd"/></g><g clip-path="url(#clip159)"><text fill="#595959" font-family="Arial,Arial_MSFontService,sans-serif" font-weight="400" font-size="12" transform="translate(398.673 1185)">air</text></g><g clip-path="url(#clip160)"><path d="M431 1181 465 1181" stroke="#BFBFBF" stroke-width="2" stroke-linecap="round" stroke-linejoin="round" stroke-miterlimit="10" fill="none" fill-rule="evenodd"/></g><g clip-path="url(#clip161)"><text fill="#595959" font-family="Arial,Arial_MSFontService,sans-serif" font-weight="400" font-size="12" transform="translate(468.734 1185)">stone</text></g><g clip-path="url(#clip162)"><path d="M518 1181 551 1181" stroke="#996633" stroke-width="2" stroke-linecap="round" stroke-linejoin="round" stroke-miterlimit="10" fill="none" fill-rule="evenodd"/></g><g clip-path="url(#clip163)"><text fill="#595959" font-family="Arial,Arial_MSFontService,sans-serif" font-weight="400" font-size="12" transform="translate(554.815 1185)">dirt</text></g><g clip-path="url(#clip164)"><path d="M591 1181 625 1181" stroke="#0070C0" stroke-width="2" stroke-linecap="round" stroke-linejoin="round" stroke-miterlimit="10" fill="none" fill-rule="evenodd"/></g><g clip-path="url(#clip165)"><text fill="#595959" font-family="Arial,Arial_MSFontService,sans-serif" font-weight="400" font-size="12" transform="translate(628.209 1185)">water</text></g><g clip-path="url(#clip166)"><path d="M677 1181 711 1181" stroke="#A18F8B" stroke-width="2" stroke-linecap="round" stroke-linejoin="round" stroke-miterlimit="10" fill="none" fill-rule="evenodd"/></g><g clip-path="url(#clip167)"><text fill="#595959" font-family="Arial,Arial_MSFontService,sans-serif" font-weight="400" font-size="12" transform="translate(714.277 1185)">gravel</text></g><g clip-path="url(#clip168)"><path d="M766 1181 800 1181" stroke="#3B3838" stroke-width="2" stroke-linecap="round" stroke-linejoin="round" stroke-miterlimit="10" fill="none" fill-rule="evenodd"/></g><g clip-path="url(#clip169)"><text fill="#595959" font-family="Arial,Arial_MSFontService,sans-serif" font-weight="400" font-size="12" transform="translate(803.684 1185)">coal_ore</text></g><g clip-path="url(#clip170)"><path d="M869 1181 903 1181" stroke="#70AD47" stroke-width="2" stroke-linecap="round" stroke-linejoin="round" stroke-miterlimit="10" fill="none" fill-rule="evenodd"/></g><g clip-path="url(#clip171)"><text fill="#595959" font-family="Arial,Arial_MSFontService,sans-serif" font-weight="400" font-size="12" transform="translate(906.439 1185)">grass_block</text></g><g clip-path="url(#clip172)"><path d="M990 1181 1023 1181" stroke="#E0D08C" stroke-width="2" stroke-linecap="round" stroke-linejoin="round" stroke-miterlimit="10" fill="none" fill-rule="evenodd"/></g><g clip-path="url(#clip173)"><text fill="#595959" font-family="Arial,Arial_MSFontService,sans-serif" font-weight="400" font-size="12" transform="translate(1027.19 1185)">sand</text></g><g clip-path="url(#clip174)"><path d="M1073 1181 1106 1181" stroke="#ED7D31" stroke-width="2" stroke-linecap="round" stroke-linejoin="round" stroke-miterlimit="10" fill="none" fill-rule="evenodd"/></g><g clip-path="url(#clip175)"><text fill="#595959" font-family="Arial,Arial_MSFontService,sans-serif" font-weight="400" font-size="12" transform="translate(1109.94 1185)">lava</text></g><g clip-path="url(#clip176)"><path d="M1151 1181 1185 1181" stroke="#00B0F0" stroke-width="2" stroke-linecap="round" stroke-linejoin="round" stroke-miterlimit="10" fill="none" fill-rule="evenodd"/></g><g clip-path="url(#clip177)"><text fill="#595959" font-family="Arial,Arial_MSFontService,sans-serif" font-weight="400" font-size="12" transform="translate(1188.68 1185)">iron_ore</text></g><g clip-path="url(#clip178)"><path d="M1252 1181 1286 1181" stroke="#FFC000" stroke-width="2" stroke-linecap="round" stroke-linejoin="round" stroke-miterlimit="10" fill="none" fill-rule="evenodd"/></g><g clip-path="url(#clip179)"><text fill="#595959" font-family="Arial,Arial_MSFontService,sans-serif" font-weight="400" font-size="12" transform="translate(1289.43 1185)">gold_ore</text></g><g clip-path="url(#clip180)"><path d="M1356 1181 1389 1181" stroke="#9DC3E6" stroke-width="2" stroke-linecap="round" stroke-linejoin="round" stroke-miterlimit="10" fill="none" fill-rule="evenodd"/></g><g clip-path="url(#clip181)"><text fill="#595959" font-family="Arial,Arial_MSFontService,sans-serif" font-weight="400" font-size="12" transform="translate(1392.86 1185)">diamond_ore</text></g><g clip-path="url(#clip182)"><path d="M1482 1181 1516 1181" stroke="#7030A0" stroke-width="2" stroke-linecap="round" stroke-linejoin="round" stroke-miterlimit="10" fill="none" fill-rule="evenodd"/></g><g clip-path="url(#clip183)"><text fill="#595959" font-family="Arial,Arial_MSFontService,sans-serif" font-weight="400" font-size="12" transform="translate(1519.62 1185)">obsidian</text></g></g></svg>