<svg width="1908" height="1054" xmlns="http://www.w3.org/2000/svg" xmlns:xlink="http://www.w3.org/1999/xlink" overflow="hidden"><defs><clipPath id="clip0"><rect x="0" y="0" width="1908" height="1054"/></clipPath><clipPath id="clip1"><rect x="117" y="49" width="1777" height="912"/></clipPath><clipPath id="clip2"><rect x="117" y="49" width="1777" height="912"/></clipPath><clipPath id="clip3"><rect x="117" y="49" width="1777" height="912"/></clipPath><clipPath id="clip4"><rect x="117" y="49" width="1777" height="912"/></clipPath><clipPath id="clip5"><rect x="117" y="49" width="1777" height="912"/></clipPath><clipPath id="clip6"><rect x="117" y="49" width="1777" height="912"/></clipPath><clipPath id="clip7"><rect x="117" y="49" width="1777" height="912"/></clipPath></defs><g clip-path="url(#clip0)"><rect x="0" y="0" width="1908" height="1053.72" fill="#FFFFFF"/><g><path d="M117.5 859.32 1893.5 859.32M117.5 758.341 1893.5 758.341M117.5 657.362 1893.5 657.362M117.5 555.383 1893.5 555.383M117.5 454.405 1893.5 454.405M117.5 353.426 1893.5 353.426M117.5 252.447 1893.5 252.447M117.5 150.468 1893.5 150.468M117.5 49.487 1893.5 49.487" stroke="#D9D9D9" stroke-width="1.00026" stroke-linejoin="round" stroke-miterlimit="10" fill="none"/></g><g><path d="M117.5 49.487 117.5 960.248M127.507 49.487 127.507 960.248M136.507 49.487 136.507 960.248M145.508 49.487 145.508 960.248M155.508 49.487 155.508 960.248M164.509 49.487 164.509 960.248M174.509 49.487 174.509 960.248M183.51 49.487 183.51 960.248M192.51 49.487 192.51 960.248M202.511 49.487 202.511 960.248M211.511 49.487 211.511 960.248M220.512 49.487 220.512 960.248M230.512 49.487 230.512 960.248M239.513 49.487 239.513 960.248M248.513 49.487 248.513 960.248M258.514 49.487 258.514 960.248M267.514 49.487 267.514 960.248M276.514 49.487 276.514 960.248M286.515 49.487 286.515 960.248M295.515 49.487 295.515 960.248M304.516 49.487 304.516 960.248M314.516 49.487 314.516 960.248M323.517 49.487 323.517 960.248M332.517 49.487 332.517 960.248M342.518 49.487 342.518 960.248M351.518 49.487 351.518 960.248M360.519 49.487 360.519 960.248M370.519 49.487 370.519 960.248M379.52 49.487 379.52 960.248M388.52 49.487 388.52 960.248M398.521 49.487 398.521 960.248M407.521 49.487 407.521 960.248M416.522 49.487 416.522 960.248M426.522 49.487 426.522 960.248M435.523 49.487 435.523 960.248M444.523 49.487 444.523 960.248M454.524 49.487 454.524 960.248M463.524 49.487 463.524 960.248M472.525 49.487 472.525 960.248M482.525 49.487 482.525 960.248M491.526 49.487 491.526 960.248M501.526 49.487 501.526 960.248M510.527 49.487 510.527 960.248M519.527 49.487 519.527 960.248M529.528 49.487 529.528 960.248M538.528 49.487 538.528 960.248M547.529 49.487 547.529 960.248M557.529 49.487 557.529 960.248M566.53 49.487 566.53 960.248M575.53 49.487 575.53 960.248M585.531 49.487 585.531 960.248M594.531 49.487 594.531 960.248M603.531 49.487 603.531 960.248M613.532 49.487 613.532 960.248M622.532 49.487 622.532 960.248M631.533 49.487 631.533 960.248M641.534 49.487 641.534 960.248M650.534 49.487 650.534 960.248M659.534 49.487 659.534 960.248M669.535 49.487 669.535 960.248M678.535 49.487 678.535 960.248M687.536 49.487 687.536 960.248M697.536 49.487 697.536 960.248M706.537 49.487 706.537 960.248M715.537 49.487 715.537 960.248M725.538 49.487 725.538 960.248M734.538 49.487 734.538 960.248M743.539 49.487 743.539 960.248M753.539 49.487 753.539 960.248M762.54 49.487 762.54 960.248M771.54 49.487 771.54 960.248M781.541 49.487 781.541 960.248M790.541 49.487 790.541 960.248M800.542 49.487 800.542 960.248M809.542 49.487 809.542 960.248M818.543 49.487 818.543 960.248M828.543 49.487 828.543 960.248M837.544 49.487 837.544 960.248M846.544 49.487 846.544 960.248M856.545 49.487 856.545 960.248M865.545 49.487 865.545 960.248M874.546 49.487 874.546 960.248M884.546 49.487 884.546 960.248M893.547 49.487 893.547 960.248M902.547 49.487 902.547 960.248M912.548 49.487 912.548 960.248M921.548 49.487 921.548 960.248M930.549 49.487 930.549 960.248M940.549 49.487 940.549 960.248M949.55 49.487 949.55 960.248M958.55 49.487 958.55 960.248M968.551 49.487 968.551 960.248M977.551 49.487 977.551 960.248M986.552 49.487 986.552 960.248M996.552 49.487 996.552 960.248M1005.55 49.487 1005.55 960.248M1014.55 49.487 1014.55 960.248M1024.55 49.487 1024.55 960.248M1033.55 49.487 1033.55 960.248M1042.55 49.487 1042.55 960.248M1052.55 49.487 1052.55 960.248M1061.56 49.487 1061.56 960.248M1070.56 49.487 1070.56 960.248M1080.56 49.487 1080.56 960.248M1089.56 49.487 1089.56 960.248M1098.56 49.487 1098.56 960.248M1108.56 49.487 1108.56 960.248M1117.56 49.487 1117.56 960.248M1127.56 49.487 1127.56 960.248M1136.56 49.487 1136.56 960.248M1145.56 49.487 1145.56 960.248M1155.56 49.487 1155.56 960.248M1164.56 49.487 1164.56 960.248M1173.56 49.487 1173.56 960.248M1183.56 49.487 1183.56 960.248M1192.56 49.487 1192.56 960.248M1201.56 49.487 1201.56 960.248M1211.56 49.487 1211.56 960.248M1220.56 49.487 1220.56 960.248M1229.56 49.487 1229.56 960.248M1239.56 49.487 1239.56 960.248M1248.57 49.487 1248.57 960.248M1257.57 49.487 1257.57 960.248M1267.57 49.487 1267.57 960.248M1276.57 49.487 1276.57 960.248M1285.57 49.487 1285.57 960.248M1295.57 49.487 1295.57 960.248M1304.57 49.487 1304.57 960.248M1313.57 49.487 1313.57 960.248M1323.57 49.487 1323.57 960.248M1332.57 49.487 1332.57 960.248M1341.57 49.487 1341.57 960.248M1351.57 49.487 1351.57 960.248M1360.57 49.487 1360.57 960.248M1369.57 49.487 1369.57 960.248M1379.57 49.487 1379.57 960.248M1388.57 49.487 1388.57 960.248M1397.57 49.487 1397.57 960.248M1407.57 49.487 1407.57 960.248M1416.57 49.487 1416.57 960.248M1425.57 49.487 1425.57 960.248M1435.57 49.487 1435.57 960.248M1444.58 49.487 1444.58 960.248M1454.58 49.487 1454.58 960.248M1463.58 49.487 1463.58 960.248M1472.58 49.487 1472.58 960.248M1482.58 49.487 1482.58 960.248M1491.58 49.487 1491.58 960.248M1500.58 49.487 1500.58 960.248M1510.58 49.487 1510.58 960.248M1519.58 49.487 1519.58 960.248M1528.58 49.487 1528.58 960.248M1538.58 49.487 1538.58 960.248M1547.58 49.487 1547.58 960.248M1556.58 49.487 1556.58 960.248M1566.58 49.487 1566.58 960.248M1575.58 49.487 1575.58 960.248M1584.58 49.487 1584.58 960.248M1594.58 49.487 1594.58 960.248M1603.58 49.487 1603.58 960.248M1612.58 49.487 1612.58 960.248M1622.58 49.487 1622.58 960.248M1631.59 49.487 1631.59 960.248M1640.59 49.487 1640.59 960.248M1650.59 49.487 1650.59 960.248M1659.59 49.487 1659.59 960.248M1668.59 49.487 1668.59 960.248M1678.59 49.487 1678.59 960.248M1687.59 49.487 1687.59 960.248M1696.59 49.487 1696.59 960.248M1706.59 49.487 1706.59 960.248M1715.59 49.487 1715.59 960.248M1724.59 49.487 1724.59 960.248M1734.59 49.487 1734.59 960.248M1743.59 49.487 1743.59 960.248M1753.59 49.487 1753.59 960.248M1762.59 49.487 1762.59 960.248M1771.59 49.487 1771.59 960.248M1781.59 49.487 1781.59 960.248M1790.59 49.487 1790.59 960.248M1799.59 49.487 1799.59 960.248M1809.59 49.487 1809.59 960.248M1818.59 49.487 1818.59 960.248M1827.6 49.487 1827.6 960.248M1837.6 49.487 1837.6 960.248M1846.6 49.487 1846.6 960.248M1855.6 49.487 1855.6 960.248M1865.6 49.487 1865.6 960.248M1874.6 49.487 1874.6 960.248M1883.6 49.487 1883.6 960.248M1893.5 49.487 1893.5 960.248" stroke="#D9D9D9" stroke-width="1.00026" stroke-linejoin="round" stroke-miterlimit="10" fill="none"/></g><g><path d="M117.5 960.248 1893.5 960.248" stroke="#D9D9D9" stroke-width="1.00026" stroke-linejoin="round" stroke-miterlimit="10" fill="none" fill-rule="evenodd"/></g><g clip-path="url(#clip1)"><path d="M122.5 1365.14 131.507 1365.14 141.507 1365.14 150.508 1365.14 160.508 1365.14 169.509 1365.14 178.509 1365.14 188.51 1365.14 197.51 1365.14 206.511 604.373 216.511 350.426 225.512 251.447 234.512 201.458 244.513 172.464 253.513 154.468 262.514 141.47 272.514 159.467 281.515 147.469 290.515 138.471 300.516 131.472 309.516 126.473 318.517 122.474 328.517 118.475 337.518 115.476 346.518 113.476 356.519 111.477 365.519 109.477 374.52 107.477 384.52 106.478 393.521 104.478 402.521 103.478 412.522 102.479 421.522 128.473 430.522 128.473 440.523 128.473 449.523 128.473 458.524 128.473 468.524 128.473 477.525 128.473 487.525 128.473 496.526 128.473 505.526 128.473 515.527 128.473 524.527 128.473 533.528 128.473 543.528 128.473 552.529 128.473 561.529 128.473 571.53 92.4806 580.53 92.4806 589.531 92.4806 599.531 92.4806 608.532 92.4806 617.532 92.4806 627.533 92.4806 636.533 92.4806 645.534 92.4758 655.534 101.479 664.535 112.476 673.535 125.474 683.536 142.47 692.536 162.466 701.537 188.46 711.537 219.454 720.538 241.449 729.538 278.442 739.539 301.437 748.539 309.435 757.54 315.434 767.54 325.432 776.541 349.427 785.541 1365.14 795.542 1365.14 804.542 1365.14 814.542 1365.14 823.543 1365.14 832.543 1365.14 842.544 1365.14 851.544 1365.14 860.545 1365.14 870.545 1365.14 879.546 1365.14 888.546 1365.14 898.547 1365.14 907.547 1365.14 916.548 1365.14 926.548 1365.14 935.549 1365.14 944.549 1365.14 954.55 1365.14 963.55 1365.14 972.551 1365.14 982.551 1365.14 991.552 1365.14 1000.55 1365.14 1010.55 1365.14 1019.55 1365.14 1028.55 1365.14 1038.55 1365.14 1047.55 1365.14 1056.56 1365.14 1066.56 1365.14 1075.56 1365.14 1084.56 1365.14 1094.56 1365.14 1103.56 1365.14 1113.56 1365.14 1122.56 1365.14 1131.56 1365.14 1141.56 1365.14 1150.56 1365.14 1159.56 1365.14 1169.56 1365.14 1178.56 1365.14 1187.56 1365.14 1197.56 1365.14 1206.56 1365.14 1215.56 1365.14 1225.56 1365.14 1234.56 1365.14 1243.56 1365.14 1253.57 1365.14 1262.57 1365.14 1271.57 1365.14 1281.57 1365.14 1290.57 1365.14 1299.57 1365.14 1309.57 1365.14 1318.57 1365.14 1327.57 1365.14 1337.57 1365.14 1346.57 1365.14 1355.57 1365.14 1365.57 1365.14 1374.57 1365.14 1383.57 1365.14 1393.57 1365.14 1402.57 1365.14 1411.57 1365.14 1421.57 1365.14 1430.57 1365.14 1440.58 1365.14 1449.58 1365.14 1458.58 1365.14 1468.58 1365.14 1477.58 1365.14 1486.58 1365.14 1496.58 1365.14 1505.58 1365.14 1514.58 1365.14 1524.58 1365.14 1533.58 1365.14 1542.58 1365.14 1552.58 1365.14 1561.58 1365.14 1570.58 1365.14 1580.58 1365.14 1589.58 1365.14 1598.58 1365.14 1608.58 1365.14 1617.58 1365.14 1626.58 1365.14 1636.59 1365.14 1645.59 1365.14 1654.59 1365.14 1664.59 1365.14 1673.59 1365.14 1682.59 1365.14 1692.59 1365.14 1701.59 1365.14 1710.59 1365.14 1720.59 1365.14 1729.59 1365.14 1738.59 1365.14 1748.59 1365.14 1757.59 1365.14 1767.59 1365.14 1776.59 1365.14 1785.59 1365.14 1795.59 1365.14 1804.59 1365.14 1813.59 1365.14 1823.6 1365.14 1832.6 1365.14 1841.6 1365.14 1851.6 1365.14 1860.6 1365.14 1869.6 1365.14 1879.6 1365.14 1888.5 1365.14" stroke="#DBDE9E" stroke-width="3.00079" stroke-linecap="round" stroke-linejoin="round" stroke-miterlimit="10" fill="none"/></g><g clip-path="url(#clip2)"><path d="M122.5 1365.14 131.507 1365.14 141.507 1365.14 150.508 1365.14 160.508 1365.14 169.509 1365.14 178.509 1365.14 188.51 1365.14 197.51 1365.14 206.511 1365.14 216.511 1365.14 225.512 1365.14 234.512 1365.14 244.513 1365.14 253.513 1365.14 262.514 1365.14 272.514 1365.14 281.515 881.315 290.515 864.318 300.516 889.313 309.516 855.32 318.517 727.347 328.517 698.353 337.518 677.358 346.518 664.36 356.519 656.362 365.519 650.363 374.52 650.363 384.52 648.364 393.521 645.365 402.521 644.365 412.522 643.365 421.522 642.365 430.522 632.367 440.523 626.369 449.523 619.37 458.524 613.371 468.524 597.375 477.525 580.378 487.525 565.381 496.526 552.384 505.526 546.385 515.527 541.386 524.527 538.387 533.528 536.387 543.528 534.388 552.529 533.388 561.529 530.389 571.53 529.389 580.53 528.389 589.531 527.389 599.531 526.389 608.532 526.389 617.532 528.389 627.533 529.389 636.533 529.389 645.534 529.389 655.534 465.402 664.535 426.41 673.535 394.417 683.536 370.422 692.536 351.426 701.537 337.429 711.537 327.431 720.538 320.433 729.538 315.434 739.539 312.434 748.539 311.418 757.54 312.434 767.54 314.434 776.541 317.433 785.541 321.433 795.542 327.431 804.542 335.43 814.542 345.427 823.543 357.425 832.543 372.422 842.544 390.418 851.544 412.413 860.545 437.408 870.545 466.402 879.546 500.395 888.546 539.387 898.547 584.377 907.547 636.366 916.548 700.353 926.548 773.338 935.549 855.32 944.549 1365.14 954.55 1365.14 963.55 1365.14 972.551 1365.14 982.551 1365.14 991.552 1365.14 1000.55 1365.14 1010.55 1365.14 1019.55 1365.14 1028.55 1365.14 1038.55 1365.14 1047.55 1365.14 1056.56 1365.14 1066.56 1365.14 1075.56 1365.14 1084.56 1365.14 1094.56 1365.14 1103.56 1365.14 1113.56 1365.14 1122.56 1365.14 1131.56 1365.14 1141.56 1365.14 1150.56 1365.14 1159.56 1365.14 1169.56 1365.14 1178.56 1365.14 1187.56 1365.14 1197.56 1365.14 1206.56 1365.14 1215.56 1365.14 1225.56 1365.14 1234.56 1365.14 1243.56 1365.14 1253.57 1365.14 1262.57 1365.14 1271.57 1365.14 1281.57 1365.14 1290.57 1365.14 1299.57 1365.14 1309.57 1365.14 1318.57 1365.14 1327.57 1365.14 1337.57 1365.14 1346.57 1365.14 1355.57 1365.14 1365.57 1365.14 1374.57 1365.14 1383.57 1365.14 1393.57 1365.14 1402.57 1365.14 1411.57 1365.14 1421.57 1365.14 1430.57 1365.14 1440.58 1365.14 1449.58 1365.14 1458.58 1365.14 1468.58 1365.14 1477.58 1365.14 1486.58 1365.14 1496.58 1365.14 1505.58 1365.14 1514.58 1365.14 1524.58 1365.14 1533.58 1365.14 1542.58 1365.14 1552.58 1365.14 1561.58 1365.14 1570.58 1365.14 1580.58 1365.14 1589.58 1365.14 1598.58 1365.14 1608.58 1365.14 1617.58 1365.14 1626.58 1365.14 1636.59 1365.14 1645.59 1365.14 1654.59 1365.14 1664.59 1365.14 1673.59 1365.14 1682.59 1365.14 1692.59 1365.14 1701.59 1365.14 1710.59 1365.14 1720.59 1365.14 1729.59 1365.14 1738.59 1365.14 1748.59 1365.14 1757.59 1365.14 1767.59 1365.14 1776.59 1365.14 1785.59 1365.14 1795.59 1365.14 1804.59 1365.14 1813.59 1365.14 1823.6 1365.14 1832.6 1365.14 1841.6 1365.14 1851.6 1365.14 1860.6 1365.14 1869.6 1365.14 1879.6 1365.14 1888.5 1365.14" stroke="#6D436D" stroke-width="3.00079" stroke-linecap="round" stroke-linejoin="round" stroke-miterlimit="10" fill="none"/></g><g clip-path="url(#clip3)"><path d="M122.5 1365.14 131.507 1365.14 141.507 1365.14 150.508 1365.14 160.508 1365.14 169.509 1365.14 178.509 1365.14 188.51 1365.14 197.51 1365.14 206.511 1365.14 216.511 1365.14 225.512 1365.14 234.512 1365.14 244.513 1365.14 253.513 1365.14 262.514 1365.14 272.514 1365.14 281.515 1365.14 290.515 1365.14 300.516 1365.14 309.516 1365.14 318.517 1365.14 328.517 1365.14 337.518 1365.14 346.518 1365.14 356.519 1365.14 365.519 1365.14 374.52 1365.14 384.52 1365.14 393.521 1365.14 402.521 1365.14 412.522 1365.14 421.522 1365.14 430.522 1365.14 440.523 1365.14 449.523 1365.14 458.524 1365.14 468.524 1365.14 477.525 1365.14 487.525 1365.14 496.526 1365.14 505.526 1365.14 515.527 1365.14 524.527 1365.14 533.528 1365.14 543.528 1365.14 552.529 1365.14 561.529 1365.14 571.53 1365.14 580.53 1365.14 589.531 1365.14 599.531 1365.14 608.532 1365.14 617.532 1365.14 627.533 1365.14 636.533 1365.14 645.534 1365.14 655.534 1365.14 664.535 1365.14 673.535 1365.14 683.536 515.392 692.536 529.389 701.537 558.383 711.537 578.379 720.538 497.396 729.538 514.392 739.539 545.385 748.539 566.381 757.54 480.399 767.54 497.396 776.541 530.389 785.541 553.384 795.542 467.378 804.542 484.398 814.542 517.391 823.543 538.387 832.543 526.39 842.544 542.386 851.544 576.379 860.545 578.379 870.545 514.392 879.546 520.391 888.546 544.386 898.547 550.384 907.547 492.397 916.548 503.394 926.548 525.39 935.549 540.387 944.549 487.398 954.55 499.395 963.55 527.389 972.551 543.386 982.551 486.398 991.552 502.395 1000.55 532.388 1010.55 544.386 1019.55 485.398 1028.55 499.395 1038.55 525.39 1047.55 539.387 1056.56 485.398 1066.56 499.395 1075.56 524.39 1084.56 533.388 1094.56 483.399 1103.56 493.396 1113.56 517.391 1122.56 528.389 1131.56 479.399 1141.56 491.397 1150.56 515.392 1159.56 524.39 1169.56 481.399 1178.56 488.397 1187.56 513.392 1197.56 527.389 1206.56 476.4 1215.56 489.397 1225.56 509.393 1234.56 530.389 1243.56 481.399 1253.57 497.396 1262.57 514.392 1271.57 536.387 1281.57 483.399 1290.57 500.395 1299.57 523.39 1309.57 537.387 1318.57 487.398 1327.57 500.395 1337.57 524.39 1346.57 538.387 1355.57 488.397 1365.57 501.395 1374.57 530.389 1383.57 540.387 1393.57 490.397 1402.57 507.393 1411.57 529.389 1421.57 549.385 1430.57 494.396 1440.58 521.391 1449.58 533.388 1458.58 561.382 1468.58 501.395 1477.58 528.389 1486.58 544.386 1496.58 569.38 1505.58 522.39 1514.58 538.387 1524.58 556.383 1533.58 593.375 1542.58 534.388 1552.58 547.385 1561.58 562.382 1570.58 608.372 1580.58 543.386 1589.58 558.383 1598.58 573.38 1608.58 616.371 1617.58 555.383 1626.58 568.381 1636.59 587.377 1645.59 634.367 1654.59 567.381 1664.59 586.377 1673.59 608.372 1682.59 645.365 1692.59 588.376 1701.59 615.371 1710.59 624.369 1720.59 663.361 1729.59 598.374 1738.59 651.363 1748.59 668.36 1757.59 685.356 1767.59 631.367 1776.59 680.357 1785.59 732.346 1795.59 720.349 1804.59 665.36 1813.59 701.353 1823.6 751.342 1832.6 829.326 1841.6 723.348 1851.6 712.35 1860.6 864.318 1869.6 841.323 1879.6 740.345 1888.5 728.347" stroke="#A97DA9" stroke-width="3.00079" stroke-linecap="round" stroke-linejoin="round" stroke-miterlimit="10" fill="none"/></g><g clip-path="url(#clip4)"><path d="M122.5 1365.14 131.507 1365.14 141.507 1365.14 150.508 1365.14 160.508 1365.14 169.509 1365.14 178.509 1365.14 188.51 1365.14 197.51 1365.14 206.511 1365.14 216.511 1365.14 225.512 1365.14 234.512 1365.14 244.513 1365.14 253.513 1365.14 262.514 1365.14 272.514 1365.14 281.515 1365.14 290.515 1365.14 300.516 1365.14 309.516 1365.14 318.517 1365.14 328.517 1365.14 337.518 1365.14 346.518 1365.14 356.519 1365.14 365.519 1365.14 374.52 1365.14 384.52 1365.14 393.521 1365.14 402.521 1365.14 412.522 1365.14 421.522 1365.14 430.522 1365.14 440.523 1365.14 449.523 1365.14 458.524 1365.14 468.524 1365.14 477.525 1365.14 487.525 1365.14 496.526 1365.14 505.526 1365.14 515.527 1365.14 524.527 1365.14 533.528 1365.14 543.528 1365.14 552.529 1365.14 561.529 1365.14 571.53 1365.14 580.53 1365.14 589.531 1365.14 599.531 1365.14 608.532 1365.14 617.532 1365.14 627.533 1365.14 636.533 1365.14 645.534 1365.14 655.534 1365.14 664.535 1365.14 673.535 1365.14 683.536 1365.14 692.536 564.382 701.537 546.385 711.537 540.387 720.538 561.382 729.538 533.388 739.539 525.39 748.539 523.39 757.54 546.385 767.54 522.39 776.541 519.364 785.541 521.391 795.542 544.386 804.542 573.38 814.542 602.374 823.543 641.365 832.543 701.353 842.544 683.357 851.544 660.361 860.545 657.362 870.545 671.359 879.546 612.371 888.546 596.375 898.547 594.375 907.547 614.371 916.548 576.379 926.548 562.382 935.549 562.382 944.549 584.377 954.55 559.383 963.55 551.384 972.551 550.384 982.551 574.379 991.552 560.382 1000.55 556.383 1010.55 556.383 1019.55 581.378 1028.55 567.381 1038.55 566.381 1047.55 566.381 1056.56 593.375 1066.56 575.379 1075.56 567.381 1084.56 569.38 1094.56 589.376 1103.56 564.382 1113.56 552.384 1122.56 553.384 1131.56 571.38 1141.56 560.382 1150.56 549.385 1159.56 550.384 1169.56 567.381 1178.56 550.384 1187.56 543.386 1197.56 540.387 1206.56 561.382 1215.56 551.384 1225.56 553.384 1234.56 549.385 1243.56 572.38 1253.57 555.383 1262.57 558.383 1271.57 558.383 1281.57 586.377 1290.57 568.381 1299.57 561.382 1309.57 562.382 1318.57 584.377 1327.57 571.38 1337.57 562.382 1346.57 564.382 1355.57 585.377 1365.57 569.38 1374.57 562.382 1383.57 562.382 1393.57 585.377 1402.57 567.381 1411.57 568.381 1421.57 565.381 1430.57 597.375 1440.58 570.38 1449.58 574.379 1458.58 571.38 1468.58 607.372 1477.58 594.375 1486.58 594.375 1496.58 590.376 1505.58 618.37 1514.58 608.372 1524.58 607.372 1533.58 598.374 1542.58 624.369 1552.58 612.371 1561.58 612.371 1570.58 605.373 1580.58 631.367 1589.58 624.369 1598.58 625.369 1608.58 619.37 1617.58 644.365 1626.58 633.367 1636.59 633.367 1645.59 628.368 1654.59 655.362 1664.59 649.364 1673.59 655.362 1682.59 648.364 1692.59 679.357 1701.59 654.363 1710.59 669.359 1720.59 666.36 1729.59 704.352 1738.59 689.355 1748.59 696.354 1757.59 705.352 1767.59 741.344 1776.59 726.348 1785.59 719.349 1795.59 725.348 1804.59 765.339 1813.59 772.338 1823.6 752.342 1832.6 760.34 1841.6 785.335 1851.6 808.33 1860.6 777.337 1869.6 786.335 1879.6 814.329 1888.5 1365.14" stroke="#929046" stroke-width="3.00079" stroke-linecap="round" stroke-linejoin="round" stroke-miterlimit="10" fill="none"/></g><g clip-path="url(#clip5)"><path d="M122.5 693.354 131.507 693.354 141.507 693.354 150.508 693.354 160.508 693.354 169.509 693.354 178.509 693.354 188.51 693.354 197.51 693.354 206.511 693.354 216.511 693.354 225.512 693.354 234.512 693.354 244.513 693.354 253.513 693.354 262.514 693.354 272.514 693.354 281.515 693.354 290.515 693.354 300.516 693.354 309.516 693.354 318.517 693.354 328.517 693.354 337.518 693.354 346.518 693.354 356.519 693.354 365.519 693.354 374.52 693.354 384.52 693.354 393.521 693.354 402.521 693.354 412.522 693.354 421.522 693.354 430.522 693.354 440.523 693.354 449.523 693.354 458.524 693.354 468.524 693.354 477.525 693.354 487.525 693.354 496.526 693.354 505.526 693.354 515.527 693.354 524.527 693.354 533.528 693.354 543.528 693.354 552.529 693.354 561.529 693.354 571.53 693.354 580.53 693.354 589.531 693.354 599.531 693.354 608.532 693.354 617.532 693.354 627.533 693.354 636.533 693.354 645.534 693.354 655.534 693.354 664.535 693.354 673.535 693.354 683.536 693.354 692.536 693.354 701.537 693.354 711.537 693.354 720.538 693.354 729.538 693.354 739.539 693.354 748.539 693.354 757.54 693.354 767.54 693.354 776.541 693.354 785.541 693.354 795.542 693.354 804.542 693.354 814.542 693.354 823.543 693.354 832.543 695.354 842.544 693.354 851.544 688.355 860.545 695.354 870.545 695.354 879.546 665.326 888.546 685.356 898.547 697.354 907.547 692.355 916.548 672.359 926.548 681.357 935.549 698.353 944.549 700.353 954.55 691.355 963.55 689.355 972.551 698.353 982.551 704.352 991.552 679.357 1000.55 698.353 1010.55 717.349 1019.55 721.349 1028.55 717.349 1038.55 717.349 1047.55 722.348 1056.56 763.34 1066.56 687.356 1075.56 714.35 1084.56 817.328 1094.56 787.335 1103.56 716.35 1113.56 716.35 1122.56 769.339 1131.56 720.349 1141.56 690.355 1150.56 746.343 1159.56 731.346 1169.56 787.335 1178.56 701.353 1187.56 726.348 1197.56 746.343 1206.56 769.339 1215.56 704.352 1225.56 731.346 1234.56 769.339 1243.56 817.328 1253.57 716.35 1262.57 708.351 1271.57 769.339 1281.57 769.339 1290.57 681.357 1299.57 708.351 1309.57 769.339 1318.57 787.335 1327.57 708.351 1337.57 688.355 1346.57 746.343 1355.57 817.328 1365.57 692.355 1374.57 738.345 1383.57 746.343 1393.57 829.326 1402.57 688.355 1411.57 731.346 1421.57 769.339 1430.57 756.341 1440.58 726.348 1449.58 720.349 1458.58 769.339 1468.58 817.328 1477.58 747.343 1486.58 756.341 1496.58 769.339 1505.58 787.335 1514.58 756.341 1524.58 787.335 1533.58 756.341 1542.58 1365.14 1552.58 817.328 1561.58 787.335 1570.58 817.328 1580.58 1365.14 1589.58 746.343 1598.58 1365.14 1608.58 1365.14 1617.58 1365.14 1626.58 1365.14 1636.59 1365.14 1645.59 817.328 1654.59 1365.14 1664.59 817.328 1673.59 769.339 1682.59 1365.14 1692.59 1365.14 1701.59 1365.14 1710.59 1365.14 1720.59 1365.14 1729.59 1365.14 1738.59 1365.14 1748.59 1365.14 1757.59 1365.14 1767.59 1365.14 1776.59 1365.14 1785.59 1365.14 1795.59 1365.14 1804.59 1365.14 1813.59 1365.14 1823.6 1365.14 1832.6 1365.14 1841.6 1365.14 1851.6 1365.14 1860.6 1365.14 1869.6 1365.14 1879.6 1365.14 1888.5 1365.14" stroke="#0F0A18" stroke-width="3.00079" stroke-linecap="round" stroke-linejoin="round" stroke-miterlimit="10" fill="none"/></g><g clip-path="url(#clip6)"><path d="M122.5 1365.14 131.507 1365.14 141.507 1365.14 150.508 1365.14 160.508 1365.14 169.509 1365.14 178.509 1365.14 188.51 1365.14 197.51 1365.14 206.511 1365.14 216.511 1365.14 225.512 1365.14 234.512 1365.14 244.513 1365.14 253.513 1365.14 262.514 1365.14 272.514 1365.14 281.515 1365.14 290.515 1365.14 300.516 1365.14 309.516 1365.14 318.517 1365.14 328.517 1365.14 337.518 1365.14 346.518 1365.14 356.519 1365.14 365.519 1365.14 374.52 1365.14 384.52 1365.14 393.521 1365.14 402.521 1365.14 412.522 1365.14 421.522 1365.14 430.522 1365.14 440.523 1365.14 449.523 1365.14 458.524 1365.14 468.524 1365.14 477.525 1365.14 487.525 1365.14 496.526 1365.14 505.526 1365.14 515.527 1365.14 524.527 960.298 533.528 1365.14 543.528 930.305 552.529 960.298 561.529 930.305 571.53 960.298 580.53 1365.14 589.531 930.305 599.531 1365.14 608.532 1365.14 617.532 930.305 627.533 912.308 636.533 1365.14 645.534 1365.14 655.534 1365.14 664.535 960.298 673.535 930.305 683.536 875.316 692.536 821.328 701.537 805.331 711.537 779.336 720.538 762.34 729.538 757.341 739.539 760.34 748.539 754.342 757.54 742.305 767.54 759.341 776.541 762.34 785.541 786.335 795.542 807.331 804.542 836.324 814.542 881.315 823.543 899.311 832.543 930.305 842.544 1365.14 851.544 1365.14 860.545 1365.14 870.545 1365.14 879.546 1365.14 888.546 1365.14 898.547 1365.14 907.547 1365.14 916.548 1365.14 926.548 1365.14 935.549 1365.14 944.549 1365.14 954.55 1365.14 963.55 1365.14 972.551 1365.14 982.551 1365.14 991.552 1365.14 1000.55 1365.14 1010.55 1365.14 1019.55 1365.14 1028.55 1365.14 1038.55 1365.14 1047.55 1365.14 1056.56 1365.14 1066.56 1365.14 1075.56 1365.14 1084.56 1365.14 1094.56 1365.14 1103.56 1365.14 1113.56 1365.14 1122.56 1365.14 1131.56 960.298 1141.56 1365.14 1150.56 1365.14 1159.56 1365.14 1169.56 1365.14 1178.56 1365.14 1187.56 1365.14 1197.56 1365.14 1206.56 1365.14 1215.56 1365.14 1225.56 1365.14 1234.56 1365.14 1243.56 1365.14 1253.57 1365.14 1262.57 1365.14 1271.57 1365.14 1281.57 1365.14 1290.57 1365.14 1299.57 1365.14 1309.57 1365.14 1318.57 1365.14 1327.57 1365.14 1337.57 1365.14 1346.57 960.298 1355.57 1365.14 1365.57 1365.14 1374.57 1365.14 1383.57 1365.14 1393.57 1365.14 1402.57 1365.14 1411.57 1365.14 1421.57 1365.14 1430.57 1365.14 1440.58 1365.14 1449.58 1365.14 1458.58 1365.14 1468.58 1365.14 1477.58 1365.14 1486.58 1365.14 1496.58 1365.14 1505.58 1365.14 1514.58 1365.14 1524.58 1365.14 1533.58 1365.14 1542.58 1365.14 1552.58 1365.14 1561.58 1365.14 1570.58 1365.14 1580.58 1365.14 1589.58 1365.14 1598.58 1365.14 1608.58 1365.14 1617.58 1365.14 1626.58 1365.14 1636.59 1365.14 1645.59 1365.14 1654.59 1365.14 1664.59 1365.14 1673.59 1365.14 1682.59 1365.14 1692.59 1365.14 1701.59 1365.14 1710.59 1365.14 1720.59 1365.14 1729.59 1365.14 1738.59 1365.14 1748.59 1365.14 1757.59 1365.14 1767.59 1365.14 1776.59 1365.14 1785.59 1365.14 1795.59 1365.14 1804.59 1365.14 1813.59 1365.14 1823.6 1365.14 1832.6 1365.14 1841.6 1365.14 1851.6 1365.14 1860.6 1365.14 1869.6 1365.14 1879.6 1365.14 1888.5 1365.14" stroke="#2F5597" stroke-width="3.00079" stroke-linecap="round" stroke-linejoin="round" stroke-miterlimit="10" fill="none"/></g><g clip-path="url(#clip7)"><path d="M122.5 1365.14 131.507 1365.14 141.507 1365.14 150.508 1365.14 160.508 1365.14 169.509 1365.14 178.509 1365.14 188.51 1365.14 197.51 1365.14 206.511 1365.14 216.511 1365.14 225.512 1365.14 234.512 1365.14 244.513 1365.14 253.513 1365.14 262.514 1365.14 272.514 1365.14 281.515 1365.14 290.515 1365.14 300.516 1365.14 309.516 1365.14 318.517 1365.14 328.517 1365.14 337.518 1365.14 346.518 1365.14 356.519 1365.14 365.519 1365.14 374.52 1365.14 384.52 1365.14 393.521 1365.14 402.521 1365.14 412.522 1365.14 421.522 1365.14 430.522 1365.14 440.523 1365.14 449.523 1365.14 458.524 1365.14 468.524 1365.14 477.525 1365.14 487.525 1365.14 496.526 1365.14 505.526 1365.14 515.527 1365.14 524.527 1365.14 533.528 1365.14 543.528 1365.14 552.529 1365.14 561.529 1365.14 571.53 1365.14 580.53 1365.14 589.531 1365.14 599.531 1365.14 608.532 1365.14 617.532 1365.14 627.533 1365.14 636.533 1365.14 645.534 1365.14 655.534 1365.14 664.535 1365.14 673.535 1365.14 683.536 1365.14 692.536 1365.14 701.537 1365.14 711.537 1365.14 720.538 1365.14 729.538 1365.14 739.539 1365.14 748.539 1365.14 757.54 1365.14 767.54 1365.14 776.541 1365.14 785.541 1365.14 795.542 1365.14 804.542 1365.14 814.542 1365.14 823.543 1365.14 832.543 1365.14 842.544 1365.14 851.544 1365.14 860.545 1365.14 870.545 1365.14 879.546 1365.14 888.546 1365.14 898.547 960.298 907.547 912.308 916.548 960.298 926.548 960.298 935.549 836.324 944.549 881.315 954.55 960.298 963.55 912.308 972.551 844.323 982.551 864.319 991.552 930.305 1000.55 912.308 1010.55 881.315 1019.55 875.316 1028.55 889.313 1038.55 912.308 1047.55 847.322 1056.56 875.316 1066.56 930.305 1075.56 960.298 1084.56 899.311 1094.56 899.311 1103.56 912.308 1113.56 1365.14 1122.56 838.324 1131.56 875.316 1141.56 960.298 1150.56 930.305 1159.56 859.32 1169.56 859.32 1178.56 912.308 1187.56 864.319 1197.56 833.325 1206.56 889.313 1215.56 875.316 1225.56 930.305 1234.56 844.323 1243.56 869.318 1253.57 889.313 1262.57 912.308 1271.57 847.322 1281.57 875.316 1290.57 912.308 1299.57 960.298 1309.57 859.32 1318.57 855.32 1327.57 912.308 1337.57 912.308 1346.57 826.283 1355.57 851.321 1365.57 912.308 1374.57 930.305 1383.57 851.321 1393.57 831.326 1402.57 889.313 1411.57 960.298 1421.57 836.324 1430.57 881.315 1440.58 899.311 1449.58 1365.14 1458.58 833.325 1468.58 875.316 1477.58 912.308 1486.58 899.311 1496.58 875.316 1505.58 864.319 1514.58 912.308 1524.58 960.298 1533.58 912.308 1542.58 899.311 1552.58 912.308 1561.58 930.305 1570.58 899.311 1580.58 930.305 1589.58 899.311 1598.58 1365.14 1608.58 960.298 1617.58 930.305 1626.58 960.298 1636.59 1365.14 1645.59 889.313 1654.59 1365.14 1664.59 1365.14 1673.59 1365.14 1682.59 1365.14 1692.59 1365.14 1701.59 960.298 1710.59 1365.14 1720.59 960.298 1729.59 912.308 1738.59 1365.14 1748.59 1365.14 1757.59 1365.14 1767.59 1365.14 1776.59 1365.14 1785.59 1365.14 1795.59 1365.14 1804.59 1365.14 1813.59 1365.14 1823.6 1365.14 1832.6 1365.14 1841.6 1365.14 1851.6 1365.14 1860.6 1365.14 1869.6 1365.14 1879.6 1365.14 1888.5 1365.14" stroke="#CC0099" stroke-width="3.00079" stroke-linecap="round" stroke-linejoin="round" stroke-miterlimit="10" fill="none"/></g><g><text fill="#595959" font-family="Calibri,Calibri_MSFontService,sans-serif" font-weight="400" font-size="12" transform="matrix(1 0 0 0.999738 100.746 963)">1</text></g><g><text fill="#595959" font-family="Calibri,Calibri_MSFontService,sans-serif" font-weight="400" font-size="12" transform="matrix(1 0 0 0.999738 94.6643 862)">10</text></g><g><text fill="#595959" font-family="Calibri,Calibri_MSFontService,sans-serif" font-weight="400" font-size="12" transform="matrix(1 0 0 0.999738 88.5827 761)">100</text></g><g><text fill="#595959" font-family="Calibri,Calibri_MSFontService,sans-serif" font-weight="400" font-size="12" transform="matrix(1 0 0 0.999738 79.5069 660)">1,000</text></g><g><text fill="#595959" font-family="Calibri,Calibri_MSFontService,sans-serif" font-weight="400" font-size="12" transform="matrix(1 0 0 0.999738 73.4253 559)">10,000</text></g><g><text fill="#595959" font-family="Calibri,Calibri_MSFontService,sans-serif" font-weight="400" font-size="12" transform="matrix(1 0 0 0.999738 67.3437 457)">100,000</text></g><g><text fill="#595959" font-family="Calibri,Calibri_MSFontService,sans-serif" font-weight="400" font-size="12" transform="matrix(1 0 0 0.999738 58.268 356)">1,000,000</text></g><g><text fill="#595959" font-family="Calibri,Calibri_MSFontService,sans-serif" font-weight="400" font-size="12" transform="matrix(1 0 0 0.999738 52.1864 255)">10,000,000</text></g><g><text fill="#595959" font-family="Calibri,Calibri_MSFontService,sans-serif" font-weight="400" font-size="12" transform="matrix(1 0 0 0.999738 46.1048 154)">100,000,000</text></g><g><text fill="#595959" font-family="Calibri,Calibri_MSFontService,sans-serif" font-weight="400" font-size="12" transform="matrix(1 0 0 0.999738 37.029 53)">1,000,000,000</text></g><g><text fill="#595959" font-family="Calibri,Calibri_MSFontService,sans-serif" font-weight="400" font-size="12" transform="matrix(6.12323e-17 -0.999476 1.00026 6.12163e-17 126.312 974)">1</text></g><g><text fill="#595959" font-family="Calibri,Calibri_MSFontService,sans-serif" font-weight="400" font-size="12" transform="matrix(6.12323e-17 -0.999476 1.00026 6.12163e-17 144.999 974)">3</text></g><g><text fill="#595959" font-family="Calibri,Calibri_MSFontService,sans-serif" font-weight="400" font-size="12" transform="matrix(6.12323e-17 -0.999476 1.00026 6.12163e-17 163.686 974)">5</text></g><g><text fill="#595959" font-family="Calibri,Calibri_MSFontService,sans-serif" font-weight="400" font-size="12" transform="matrix(6.12323e-17 -0.999476 1.00026 6.12163e-17 182.374 974)">7</text></g><g><text fill="#595959" font-family="Calibri,Calibri_MSFontService,sans-serif" font-weight="400" font-size="12" transform="matrix(6.12323e-17 -0.999476 1.00026 6.12163e-17 201.061 974)">9</text></g><g><text fill="#595959" font-family="Calibri,Calibri_MSFontService,sans-serif" font-weight="400" font-size="12" transform="matrix(6.12323e-17 -0.999476 1.00026 6.12163e-17 219.748 980)">11</text></g><g><text fill="#595959" font-family="Calibri,Calibri_MSFontService,sans-serif" font-weight="400" font-size="12" transform="matrix(6.12323e-17 -0.999476 1.00026 6.12163e-17 238.435 980)">13</text></g><g><text fill="#595959" font-family="Calibri,Calibri_MSFontService,sans-serif" font-weight="400" font-size="12" transform="matrix(6.12323e-17 -0.999476 1.00026 6.12163e-17 257.123 980)">15</text></g><g><text fill="#595959" font-family="Calibri,Calibri_MSFontService,sans-serif" font-weight="400" font-size="12" transform="matrix(6.12323e-17 -0.999476 1.00026 6.12163e-17 275.81 980)">17</text></g><g><text fill="#595959" font-family="Calibri,Calibri_MSFontService,sans-serif" font-weight="400" font-size="12" transform="matrix(6.12323e-17 -0.999476 1.00026 6.12163e-17 294.497 980)">19</text></g><g><text fill="#595959" font-family="Calibri,Calibri_MSFontService,sans-serif" font-weight="400" font-size="12" transform="matrix(6.12323e-17 -0.999476 1.00026 6.12163e-17 313.184 980)">21</text></g><g><text fill="#595959" font-family="Calibri,Calibri_MSFontService,sans-serif" font-weight="400" font-size="12" transform="matrix(6.12323e-17 -0.999476 1.00026 6.12163e-17 331.872 980)">23</text></g><g><text fill="#595959" font-family="Calibri,Calibri_MSFontService,sans-serif" font-weight="400" font-size="12" transform="matrix(6.12323e-17 -0.999476 1.00026 6.12163e-17 350.559 980)">25</text></g><g><text fill="#595959" font-family="Calibri,Calibri_MSFontService,sans-serif" font-weight="400" font-size="12" transform="matrix(6.12323e-17 -0.999476 1.00026 6.12163e-17 369.246 980)">27</text></g><g><text fill="#595959" font-family="Calibri,Calibri_MSFontService,sans-serif" font-weight="400" font-size="12" transform="matrix(6.12323e-17 -0.999476 1.00026 6.12163e-17 387.933 980)">29</text></g><g><text fill="#595959" font-family="Calibri,Calibri_MSFontService,sans-serif" font-weight="400" font-size="12" transform="matrix(6.12323e-17 -0.999476 1.00026 6.12163e-17 406.621 980)">31</text></g><g><text fill="#595959" font-family="Calibri,Calibri_MSFontService,sans-serif" font-weight="400" font-size="12" transform="matrix(6.12323e-17 -0.999476 1.00026 6.12163e-17 425.308 980)">33</text></g><g><text fill="#595959" font-family="Calibri,Calibri_MSFontService,sans-serif" font-weight="400" font-size="12" transform="matrix(6.12323e-17 -0.999476 1.00026 6.12163e-17 443.995 980)">35</text></g><g><text fill="#595959" font-family="Calibri,Calibri_MSFontService,sans-serif" font-weight="400" font-size="12" transform="matrix(6.12323e-17 -0.999476 1.00026 6.12163e-17 462.682 980)">37</text></g><g><text fill="#595959" font-family="Calibri,Calibri_MSFontService,sans-serif" font-weight="400" font-size="12" transform="matrix(6.12323e-17 -0.999476 1.00026 6.12163e-17 481.37 980)">39</text></g><g><text fill="#595959" font-family="Calibri,Calibri_MSFontService,sans-serif" font-weight="400" font-size="12" transform="matrix(6.12323e-17 -0.999476 1.00026 6.12163e-17 500.057 980)">41</text></g><g><text fill="#595959" font-family="Calibri,Calibri_MSFontService,sans-serif" font-weight="400" font-size="12" transform="matrix(6.12323e-17 -0.999476 1.00026 6.12163e-17 518.744 980)">43</text></g><g><text fill="#595959" font-family="Calibri,Calibri_MSFontService,sans-serif" font-weight="400" font-size="12" transform="matrix(6.12323e-17 -0.999476 1.00026 6.12163e-17 537.431 980)">45</text></g><g><text fill="#595959" font-family="Calibri,Calibri_MSFontService,sans-serif" font-weight="400" font-size="12" transform="matrix(6.12323e-17 -0.999476 1.00026 6.12163e-17 556.118 980)">47</text></g><g><text fill="#595959" font-family="Calibri,Calibri_MSFontService,sans-serif" font-weight="400" font-size="12" transform="matrix(6.12323e-17 -0.999476 1.00026 6.12163e-17 574.806 980)">49</text></g><g><text fill="#595959" font-family="Calibri,Calibri_MSFontService,sans-serif" font-weight="400" font-size="12" transform="matrix(6.12323e-17 -0.999476 1.00026 6.12163e-17 593.493 980)">51</text></g><g><text fill="#595959" font-family="Calibri,Calibri_MSFontService,sans-serif" font-weight="400" font-size="12" transform="matrix(6.12323e-17 -0.999476 1.00026 6.12163e-17 612.18 980)">53</text></g><g><text fill="#595959" font-family="Calibri,Calibri_MSFontService,sans-serif" font-weight="400" font-size="12" transform="matrix(6.12323e-17 -0.999476 1.00026 6.12163e-17 630.867 980)">55</text></g><g><text fill="#595959" font-family="Calibri,Calibri_MSFontService,sans-serif" font-weight="400" font-size="12" transform="matrix(6.12323e-17 -0.999476 1.00026 6.12163e-17 649.555 980)">57</text></g><g><text fill="#595959" font-family="Calibri,Calibri_MSFontService,sans-serif" font-weight="400" font-size="12" transform="matrix(6.12323e-17 -0.999476 1.00026 6.12163e-17 668.242 980)">59</text></g><g><text fill="#595959" font-family="Calibri,Calibri_MSFontService,sans-serif" font-weight="400" font-size="12" transform="matrix(6.12323e-17 -0.999476 1.00026 6.12163e-17 686.929 980)">61</text></g><g><text fill="#595959" font-family="Calibri,Calibri_MSFontService,sans-serif" font-weight="400" font-size="12" transform="matrix(6.12323e-17 -0.999476 1.00026 6.12163e-17 705.616 980)">63</text></g><g><text fill="#595959" font-family="Calibri,Calibri_MSFontService,sans-serif" font-weight="400" font-size="12" transform="matrix(6.12323e-17 -0.999476 1.00026 6.12163e-17 724.304 980)">65</text></g><g><text fill="#595959" font-family="Calibri,Calibri_MSFontService,sans-serif" font-weight="400" font-size="12" transform="matrix(6.12323e-17 -0.999476 1.00026 6.12163e-17 742.991 980)">67</text></g><g><text fill="#595959" font-family="Calibri,Calibri_MSFontService,sans-serif" font-weight="400" font-size="12" transform="matrix(6.12323e-17 -0.999476 1.00026 6.12163e-17 761.678 980)">69</text></g><g><text fill="#595959" font-family="Calibri,Calibri_MSFontService,sans-serif" font-weight="400" font-size="12" transform="matrix(6.12323e-17 -0.999476 1.00026 6.12163e-17 780.365 980)">71</text></g><g><text fill="#595959" font-family="Calibri,Calibri_MSFontService,sans-serif" font-weight="400" font-size="12" transform="matrix(6.12323e-17 -0.999476 1.00026 6.12163e-17 799.053 980)">73</text></g><g><text fill="#595959" font-family="Calibri,Calibri_MSFontService,sans-serif" font-weight="400" font-size="12" transform="matrix(6.12323e-17 -0.999476 1.00026 6.12163e-17 817.74 980)">75</text></g><g><text fill="#595959" font-family="Calibri,Calibri_MSFontService,sans-serif" font-weight="400" font-size="12" transform="matrix(6.12323e-17 -0.999476 1.00026 6.12163e-17 836.427 980)">77</text></g><g><text fill="#595959" font-family="Calibri,Calibri_MSFontService,sans-serif" font-weight="400" font-size="12" transform="matrix(6.12323e-17 -0.999476 1.00026 6.12163e-17 855.114 980)">79</text></g><g><text fill="#595959" font-family="Calibri,Calibri_MSFontService,sans-serif" font-weight="400" font-size="12" transform="matrix(6.12323e-17 -0.999476 1.00026 6.12163e-17 873.801 980)">81</text></g><g><text fill="#595959" font-family="Calibri,Calibri_MSFontService,sans-serif" font-weight="400" font-size="12" transform="matrix(6.12323e-17 -0.999476 1.00026 6.12163e-17 892.489 980)">83</text></g><g><text fill="#595959" font-family="Calibri,Calibri_MSFontService,sans-serif" font-weight="400" font-size="12" transform="matrix(6.12323e-17 -0.999476 1.00026 6.12163e-17 911.176 980)">85</text></g><g><text fill="#595959" font-family="Calibri,Calibri_MSFontService,sans-serif" font-weight="400" font-size="12" transform="matrix(6.12323e-17 -0.999476 1.00026 6.12163e-17 929.863 980)">87</text></g><g><text fill="#595959" font-family="Calibri,Calibri_MSFontService,sans-serif" font-weight="400" font-size="12" transform="matrix(6.12323e-17 -0.999476 1.00026 6.12163e-17 948.55 980)">89</text></g><g><text fill="#595959" font-family="Calibri,Calibri_MSFontService,sans-serif" font-weight="400" font-size="12" transform="matrix(6.12323e-17 -0.999476 1.00026 6.12163e-17 967.238 980)">91</text></g><g><text fill="#595959" font-family="Calibri,Calibri_MSFontService,sans-serif" font-weight="400" font-size="12" transform="matrix(6.12323e-17 -0.999476 1.00026 6.12163e-17 985.925 980)">93</text></g><g><text fill="#595959" font-family="Calibri,Calibri_MSFontService,sans-serif" font-weight="400" font-size="12" transform="matrix(6.12323e-17 -0.999476 1.00026 6.12163e-17 1004.61 980)">95</text></g><g><text fill="#595959" font-family="Calibri,Calibri_MSFontService,sans-serif" font-weight="400" font-size="12" transform="matrix(6.12323e-17 -0.999476 1.00026 6.12163e-17 1023.3 980)">97</text></g><g><text fill="#595959" font-family="Calibri,Calibri_MSFontService,sans-serif" font-weight="400" font-size="12" transform="matrix(6.12323e-17 -0.999476 1.00026 6.12163e-17 1041.99 980)">99</text></g><g><text fill="#595959" font-family="Calibri,Calibri_MSFontService,sans-serif" font-weight="400" font-size="12" transform="matrix(6.12323e-17 -0.999476 1.00026 6.12163e-17 1060.67 986)">101</text></g><g><text fill="#595959" font-family="Calibri,Calibri_MSFontService,sans-serif" font-weight="400" font-size="12" transform="matrix(6.12323e-17 -0.999476 1.00026 6.12163e-17 1079.36 986)">103</text></g><g><text fill="#595959" font-family="Calibri,Calibri_MSFontService,sans-serif" font-weight="400" font-size="12" transform="matrix(6.12323e-17 -0.999476 1.00026 6.12163e-17 1098.05 986)">105</text></g><g><text fill="#595959" font-family="Calibri,Calibri_MSFontService,sans-serif" font-weight="400" font-size="12" transform="matrix(6.12323e-17 -0.999476 1.00026 6.12163e-17 1116.74 986)">107</text></g><g><text fill="#595959" font-family="Calibri,Calibri_MSFontService,sans-serif" font-weight="400" font-size="12" transform="matrix(6.12323e-17 -0.999476 1.00026 6.12163e-17 1135.42 986)">109</text></g><g><text fill="#595959" font-family="Calibri,Calibri_MSFontService,sans-serif" font-weight="400" font-size="12" transform="matrix(6.12323e-17 -0.999476 1.00026 6.12163e-17 1154.11 986)">111</text></g><g><text fill="#595959" font-family="Calibri,Calibri_MSFontService,sans-serif" font-weight="400" font-size="12" transform="matrix(6.12323e-17 -0.999476 1.00026 6.12163e-17 1172.8 986)">113</text></g><g><text fill="#595959" font-family="Calibri,Calibri_MSFontService,sans-serif" font-weight="400" font-size="12" transform="matrix(6.12323e-17 -0.999476 1.00026 6.12163e-17 1191.48 986)">115</text></g><g><text fill="#595959" font-family="Calibri,Calibri_MSFontService,sans-serif" font-weight="400" font-size="12" transform="matrix(6.12323e-17 -0.999476 1.00026 6.12163e-17 1210.17 986)">117</text></g><g><text fill="#595959" font-family="Calibri,Calibri_MSFontService,sans-serif" font-weight="400" font-size="12" transform="matrix(6.12323e-17 -0.999476 1.00026 6.12163e-17 1228.86 986)">119</text></g><g><text fill="#595959" font-family="Calibri,Calibri_MSFontService,sans-serif" font-weight="400" font-size="12" transform="matrix(6.12323e-17 -0.999476 1.00026 6.12163e-17 1247.55 986)">121</text></g><g><text fill="#595959" font-family="Calibri,Calibri_MSFontService,sans-serif" font-weight="400" font-size="12" transform="matrix(6.12323e-17 -0.999476 1.00026 6.12163e-17 1266.23 986)">123</text></g><g><text fill="#595959" font-family="Calibri,Calibri_MSFontService,sans-serif" font-weight="400" font-size="12" transform="matrix(6.12323e-17 -0.999476 1.00026 6.12163e-17 1284.92 986)">125</text></g><g><text fill="#595959" font-family="Calibri,Calibri_MSFontService,sans-serif" font-weight="400" font-size="12" transform="matrix(6.12323e-17 -0.999476 1.00026 6.12163e-17 1303.61 986)">127</text></g><g><text fill="#595959" font-family="Calibri,Calibri_MSFontService,sans-serif" font-weight="400" font-size="12" transform="matrix(6.12323e-17 -0.999476 1.00026 6.12163e-17 1322.3 986)">129</text></g><g><text fill="#595959" font-family="Calibri,Calibri_MSFontService,sans-serif" font-weight="400" font-size="12" transform="matrix(6.12323e-17 -0.999476 1.00026 6.12163e-17 1340.98 986)">131</text></g><g><text fill="#595959" font-family="Calibri,Calibri_MSFontService,sans-serif" font-weight="400" font-size="12" transform="matrix(6.12323e-17 -0.999476 1.00026 6.12163e-17 1359.67 986)">133</text></g><g><text fill="#595959" font-family="Calibri,Calibri_MSFontService,sans-serif" font-weight="400" font-size="12" transform="matrix(6.12323e-17 -0.999476 1.00026 6.12163e-17 1378.36 986)">135</text></g><g><text fill="#595959" font-family="Calibri,Calibri_MSFontService,sans-serif" font-weight="400" font-size="12" transform="matrix(6.12323e-17 -0.999476 1.00026 6.12163e-17 1397.04 986)">137</text></g><g><text fill="#595959" font-family="Calibri,Calibri_MSFontService,sans-serif" font-weight="400" font-size="12" transform="matrix(6.12323e-17 -0.999476 1.00026 6.12163e-17 1415.73 986)">139</text></g><g><text fill="#595959" font-family="Calibri,Calibri_MSFontService,sans-serif" font-weight="400" font-size="12" transform="matrix(6.12323e-17 -0.999476 1.00026 6.12163e-17 1434.42 986)">141</text></g><g><text fill="#595959" font-family="Calibri,Calibri_MSFontService,sans-serif" font-weight="400" font-size="12" transform="matrix(6.12323e-17 -0.999476 1.00026 6.12163e-17 1453.11 986)">143</text></g><g><text fill="#595959" font-family="Calibri,Calibri_MSFontService,sans-serif" font-weight="400" font-size="12" transform="matrix(6.12323e-17 -0.999476 1.00026 6.12163e-17 1471.79 986)">145</text></g><g><text fill="#595959" font-family="Calibri,Calibri_MSFontService,sans-serif" font-weight="400" font-size="12" transform="matrix(6.12323e-17 -0.999476 1.00026 6.12163e-17 1490.48 986)">147</text></g><g><text fill="#595959" font-family="Calibri,Calibri_MSFontService,sans-serif" font-weight="400" font-size="12" transform="matrix(6.12323e-17 -0.999476 1.00026 6.12163e-17 1509.17 986)">149</text></g><g><text fill="#595959" font-family="Calibri,Calibri_MSFontService,sans-serif" font-weight="400" font-size="12" transform="matrix(6.12323e-17 -0.999476 1.00026 6.12163e-17 1527.85 986)">151</text></g><g><text fill="#595959" font-family="Calibri,Calibri_MSFontService,sans-serif" font-weight="400" font-size="12" transform="matrix(6.12323e-17 -0.999476 1.00026 6.12163e-17 1546.54 986)">153</text></g><g><text fill="#595959" font-family="Calibri,Calibri_MSFontService,sans-serif" font-weight="400" font-size="12" transform="matrix(6.12323e-17 -0.999476 1.00026 6.12163e-17 1565.23 986)">155</text></g><g><text fill="#595959" font-family="Calibri,Calibri_MSFontService,sans-serif" font-weight="400" font-size="12" transform="matrix(6.12323e-17 -0.999476 1.00026 6.12163e-17 1583.92 986)">157</text></g><g><text fill="#595959" font-family="Calibri,Calibri_MSFontService,sans-serif" font-weight="400" font-size="12" transform="matrix(6.12323e-17 -0.999476 1.00026 6.12163e-17 1602.6 986)">159</text></g><g><text fill="#595959" font-family="Calibri,Calibri_MSFontService,sans-serif" font-weight="400" font-size="12" transform="matrix(6.12323e-17 -0.999476 1.00026 6.12163e-17 1621.29 986)">161</text></g><g><text fill="#595959" font-family="Calibri,Calibri_MSFontService,sans-serif" font-weight="400" font-size="12" transform="matrix(6.12323e-17 -0.999476 1.00026 6.12163e-17 1639.98 986)">163</text></g><g><text fill="#595959" font-family="Calibri,Calibri_MSFontService,sans-serif" font-weight="400" font-size="12" transform="matrix(6.12323e-17 -0.999476 1.00026 6.12163e-17 1658.67 986)">165</text></g><g><text fill="#595959" font-family="Calibri,Calibri_MSFontService,sans-serif" font-weight="400" font-size="12" transform="matrix(6.12323e-17 -0.999476 1.00026 6.12163e-17 1677.35 986)">167</text></g><g><text fill="#595959" font-family="Calibri,Calibri_MSFontService,sans-serif" font-weight="400" font-size="12" transform="matrix(6.12323e-17 -0.999476 1.00026 6.12163e-17 1696.04 986)">169</text></g><g><text fill="#595959" font-family="Calibri,Calibri_MSFontService,sans-serif" font-weight="400" font-size="12" transform="matrix(6.12323e-17 -0.999476 1.00026 6.12163e-17 1714.73 986)">171</text></g><g><text fill="#595959" font-family="Calibri,Calibri_MSFontService,sans-serif" font-weight="400" font-size="12" transform="matrix(6.12323e-17 -0.999476 1.00026 6.12163e-17 1733.41 986)">173</text></g><g><text fill="#595959" font-family="Calibri,Calibri_MSFontService,sans-serif" font-weight="400" font-size="12" transform="matrix(6.12323e-17 -0.999476 1.00026 6.12163e-17 1752.1 986)">175</text></g><g><text fill="#595959" font-family="Calibri,Calibri_MSFontService,sans-serif" font-weight="400" font-size="12" transform="matrix(6.12323e-17 -0.999476 1.00026 6.12163e-17 1770.79 986)">177</text></g><g><text fill="#595959" font-family="Calibri,Calibri_MSFontService,sans-serif" font-weight="400" font-size="12" transform="matrix(6.12323e-17 -0.999476 1.00026 6.12163e-17 1789.48 986)">179</text></g><g><text fill="#595959" font-family="Calibri,Calibri_MSFontService,sans-serif" font-weight="400" font-size="12" transform="matrix(6.12323e-17 -0.999476 1.00026 6.12163e-17 1808.16 986)">181</text></g><g><text fill="#595959" font-family="Calibri,Calibri_MSFontService,sans-serif" font-weight="400" font-size="12" transform="matrix(6.12323e-17 -0.999476 1.00026 6.12163e-17 1826.85 986)">183</text></g><g><text fill="#595959" font-family="Calibri,Calibri_MSFontService,sans-serif" font-weight="400" font-size="12" transform="matrix(6.12323e-17 -0.999476 1.00026 6.12163e-17 1845.54 986)">185</text></g><g><text fill="#595959" font-family="Calibri,Calibri_MSFontService,sans-serif" font-weight="400" font-size="12" transform="matrix(6.12323e-17 -0.999476 1.00026 6.12163e-17 1864.23 986)">187</text></g><g><text fill="#595959" font-family="Calibri,Calibri_MSFontService,sans-serif" font-weight="400" font-size="12" transform="matrix(6.12323e-17 -0.999476 1.00026 6.12163e-17 1882.91 986)">189</text></g><g><text fill="#595959" font-family="Calibri,Calibri_MSFontService,sans-serif" font-weight="400" font-size="13" transform="matrix(6.12323e-17 -0.999476 1.00026 6.12163e-17 29.7537 537)">Block count</text></g><g><text fill="#595959" font-family="Calibri,Calibri_MSFontService,sans-serif" font-weight="400" font-size="13" transform="matrix(1 0 0 0.999738 983.894 1003)">Altitude</text></g><g><text fill="#595959" font-family="Calibri,Calibri_MSFontService,sans-serif" font-weight="400" font-size="19" transform="matrix(1 0 0 0.999738 740.937 28)">Resource distribution by altitude (Minecraft 1.20.2, End)</text></g><g><path d="M561.5 1034.23 587.5 1034.23" stroke="#DBDE9E" stroke-width="3.00079" stroke-linecap="round" stroke-linejoin="round" stroke-miterlimit="10" fill="none" fill-rule="evenodd"/></g><g><text fill="#595959" font-family="Calibri,Calibri_MSFontService,sans-serif" font-weight="400" font-size="12" transform="matrix(1 0 0 0.999738 590.102 1037)">end_stone</text></g><g><path d="M662.5 1034.23 688.5 1034.23" stroke="#6D436D" stroke-width="3.00079" stroke-linecap="round" stroke-linejoin="round" stroke-miterlimit="10" fill="none" fill-rule="evenodd"/></g><g><text fill="#595959" font-family="Calibri,Calibri_MSFontService,sans-serif" font-weight="400" font-size="12" transform="matrix(1 0 0 0.999738 691.239 1037)">chorus_plant</text></g><g><path d="M776.5 1034.23 801.5 1034.23" stroke="#A97DA9" stroke-width="3.00079" stroke-linecap="round" stroke-linejoin="round" stroke-miterlimit="10" fill="none" fill-rule="evenodd"/></g><g><text fill="#595959" font-family="Calibri,Calibri_MSFontService,sans-serif" font-weight="400" font-size="12" transform="matrix(1 0 0 0.999738 804.5 1037)">purpur_block</text></g><g><path d="M890.5 1034.23 916.5 1034.23" stroke="#929046" stroke-width="3.00079" stroke-linecap="round" stroke-linejoin="round" stroke-miterlimit="10" fill="none" fill-rule="evenodd"/></g><g><text fill="#595959" font-family="Calibri,Calibri_MSFontService,sans-serif" font-weight="400" font-size="12" transform="matrix(1 0 0 0.999738 919.247 1037)">end_stone_bricks</text></g><g><path d="M1026.5 1034.23 1052.5 1034.23" stroke="#0F0A18" stroke-width="3.00079" stroke-linecap="round" stroke-linejoin="round" stroke-miterlimit="10" fill="none" fill-rule="evenodd"/></g><g><text fill="#595959" font-family="Calibri,Calibri_MSFontService,sans-serif" font-weight="400" font-size="12" transform="matrix(1 0 0 0.999738 1054.83 1037)">obsidian</text></g><g><path d="M1116.5 1034.23 1142.5 1034.23" stroke="#2F5597" stroke-width="3.00079" stroke-linecap="round" stroke-linejoin="round" stroke-miterlimit="10" fill="none" fill-rule="evenodd"/></g><g><text fill="#595959" font-family="Calibri,Calibri_MSFontService,sans-serif" font-weight="400" font-size="12" transform="matrix(1 0 0 0.999738 1145.28 1037)">end_gateway</text></g><g><path d="M1231.5 1034.23 1257.5 1034.23" stroke="#CC0099" stroke-width="3.00079" stroke-linecap="round" stroke-linejoin="round" stroke-miterlimit="10" fill="none" fill-rule="evenodd"/></g><g><text fill="#595959" font-family="Calibri,Calibri_MSFontService,sans-serif" font-weight="400" font-size="12" transform="matrix(1 0 0 0.999738 1260.25 1037)">dragon_wall_head</text></g></g></svg>