<svg width="1934" height="1108" xmlns="http://www.w3.org/2000/svg" xmlns:xlink="http://www.w3.org/1999/xlink" overflow="hidden"><defs><clipPath id="clip0"><rect x="0" y="0" width="1934" height="1108"/></clipPath><clipPath id="clip1"><rect x="118" y="49" width="1802" height="966"/></clipPath><clipPath id="clip2"><rect x="118" y="49" width="1802" height="966"/></clipPath><clipPath id="clip3"><rect x="118" y="49" width="1802" height="966"/></clipPath><clipPath id="clip4"><rect x="118" y="49" width="1802" height="966"/></clipPath><clipPath id="clip5"><rect x="118" y="49" width="1802" height="966"/></clipPath><clipPath id="clip6"><rect x="118" y="49" width="1802" height="966"/></clipPath><clipPath id="clip7"><rect x="118" y="49" width="1802" height="966"/></clipPath><clipPath id="clip8"><rect x="118" y="49" width="1802" height="966"/></clipPath><clipPath id="clip9"><rect x="118" y="49" width="1802" height="966"/></clipPath><clipPath id="clip10"><rect x="118" y="49" width="1802" height="966"/></clipPath></defs><g clip-path="url(#clip0)"><rect x="0" y="0" width="1934" height="1107.88" fill="#FFFFFF"/><g><path d="M118.5 907.446 1919.5 907.446M118.5 800.452 1919.5 800.452M118.5 692.459 1919.5 692.459M118.5 585.465 1919.5 585.465M118.5 478.472 1919.5 478.472M118.5 371.478 1919.5 371.478M118.5 264.484 1919.5 264.484M118.5 156.491 1919.5 156.491M118.5 49.4947 1919.5 49.4947" stroke="#D9D9D9" stroke-width="1.00026" stroke-linejoin="round" stroke-miterlimit="10" fill="none"/></g><g><path d="M118.5 49.4947 118.5 1014.39M131.506 49.4947 131.506 1014.39M145.507 49.4947 145.507 1014.39M159.508 49.4947 159.508 1014.39M173.508 49.4947 173.508 1014.39M187.509 49.4947 187.509 1014.39M201.51 49.4947 201.51 1014.39M215.511 49.4947 215.511 1014.39M229.511 49.4947 229.511 1014.39M243.512 49.4947 243.512 1014.39M257.513 49.4947 257.513 1014.39M271.513 49.4947 271.513 1014.39M285.514 49.4947 285.514 1014.39M299.515 49.4947 299.515 1014.39M313.515 49.4947 313.515 1014.39M327.516 49.4947 327.516 1014.39M341.517 49.4947 341.517 1014.39M355.517 49.4947 355.517 1014.39M369.518 49.4947 369.518 1014.39M383.519 49.4947 383.519 1014.39M397.519 49.4947 397.519 1014.39M411.52 49.4947 411.52 1014.39M425.521 49.4947 425.521 1014.39M439.521 49.4947 439.521 1014.39M453.522 49.4947 453.522 1014.39M467.523 49.4947 467.523 1014.39M481.523 49.4947 481.523 1014.39M494.524 49.4947 494.524 1014.39M508.525 49.4947 508.525 1014.39M522.525 49.4947 522.525 1014.39M536.526 49.4947 536.526 1014.39M550.527 49.4947 550.527 1014.39M564.527 49.4947 564.527 1014.39M578.528 49.4947 578.528 1014.39M592.529 49.4947 592.529 1014.39M606.53 49.4947 606.53 1014.39M620.53 49.4947 620.53 1014.39M634.531 49.4947 634.531 1014.39M648.531 49.4947 648.531 1014.39M662.532 49.4947 662.532 1014.39M676.533 49.4947 676.533 1014.39M690.534 49.4947 690.534 1014.39M704.534 49.4947 704.534 1014.39M718.535 49.4947 718.535 1014.39M732.536 49.4947 732.536 1014.39M746.536 49.4947 746.536 1014.39M760.537 49.4947 760.537 1014.39M774.538 49.4947 774.538 1014.39M788.538 49.4947 788.538 1014.39M802.539 49.4947 802.539 1014.39M816.54 49.4947 816.54 1014.39M830.54 49.4947 830.54 1014.39M844.541 49.4947 844.541 1014.39M857.542 49.4947 857.542 1014.39M871.542 49.4947 871.542 1014.39M885.543 49.4947 885.543 1014.39M899.544 49.4947 899.544 1014.39M913.544 49.4947 913.544 1014.39M927.545 49.4947 927.545 1014.39M941.546 49.4947 941.546 1014.39M955.547 49.4947 955.547 1014.39M969.547 49.4947 969.547 1014.39M983.548 49.4947 983.548 1014.39M997.548 49.4947 997.548 1014.39M1011.55 49.4947 1011.55 1014.39M1025.55 49.4947 1025.55 1014.39M1039.55 49.4947 1039.55 1014.39M1053.55 49.4947 1053.55 1014.39M1067.55 49.4947 1067.55 1014.39M1081.55 49.4947 1081.55 1014.39M1095.55 49.4947 1095.55 1014.39M1109.55 49.4947 1109.55 1014.39M1123.55 49.4947 1123.55 1014.39M1137.56 49.4947 1137.56 1014.39M1151.56 49.4947 1151.56 1014.39M1165.56 49.4947 1165.56 1014.39M1179.56 49.4947 1179.56 1014.39M1193.56 49.4947 1193.56 1014.39M1207.56 49.4947 1207.56 1014.39M1221.56 49.4947 1221.56 1014.39M1234.56 49.4947 1234.56 1014.39M1248.56 49.4947 1248.56 1014.39M1262.56 49.4947 1262.56 1014.39M1276.56 49.4947 1276.56 1014.39M1290.56 49.4947 1290.56 1014.39M1304.56 49.4947 1304.56 1014.39M1318.56 49.4947 1318.56 1014.39M1332.56 49.4947 1332.56 1014.39M1346.57 49.4947 1346.57 1014.39M1360.57 49.4947 1360.57 1014.39M1374.57 49.4947 1374.57 1014.39M1388.57 49.4947 1388.57 1014.39M1402.57 49.4947 1402.57 1014.39M1416.57 49.4947 1416.57 1014.39M1430.57 49.4947 1430.57 1014.39M1444.57 49.4947 1444.57 1014.39M1458.57 49.4947 1458.57 1014.39M1472.57 49.4947 1472.57 1014.39M1486.57 49.4947 1486.57 1014.39M1500.57 49.4947 1500.57 1014.39M1514.57 49.4947 1514.57 1014.39M1528.57 49.4947 1528.57 1014.39M1542.57 49.4947 1542.57 1014.39M1556.58 49.4947 1556.58 1014.39M1570.58 49.4947 1570.58 1014.39M1584.58 49.4947 1584.58 1014.39M1597.58 49.4947 1597.58 1014.39M1611.58 49.4947 1611.58 1014.39M1625.58 49.4947 1625.58 1014.39M1639.58 49.4947 1639.58 1014.39M1653.58 49.4947 1653.58 1014.39M1667.58 49.4947 1667.58 1014.39M1681.58 49.4947 1681.58 1014.39M1695.58 49.4947 1695.58 1014.39M1709.58 49.4947 1709.58 1014.39M1723.58 49.4947 1723.58 1014.39M1737.58 49.4947 1737.58 1014.39M1751.59 49.4947 1751.59 1014.39M1765.59 49.4947 1765.59 1014.39M1779.59 49.4947 1779.59 1014.39M1793.59 49.4947 1793.59 1014.39M1807.59 49.4947 1807.59 1014.39M1821.59 49.4947 1821.59 1014.39M1835.59 49.4947 1835.59 1014.39M1849.59 49.4947 1849.59 1014.39M1863.59 49.4947 1863.59 1014.39M1877.59 49.4947 1877.59 1014.39M1891.59 49.4947 1891.59 1014.39M1905.59 49.4947 1905.59 1014.39M1919.5 49.4947 1919.5 1014.39" stroke="#D9D9D9" stroke-width="1.00026" stroke-linejoin="round" stroke-miterlimit="10" fill="none"/></g><g><path d="M118.5 1014.39 1919.5 1014.39" stroke="#D9D9D9" stroke-width="1.00026" stroke-linejoin="round" stroke-miterlimit="10" fill="none" fill-rule="evenodd"/></g><g clip-path="url(#clip1)"><path d="M124.5 1443.34 138.507 161.49 152.507 130.492 166.508 107.494 180.509 89.4947 194.509 78.4954 208.51 78.4954 222.511 78.4954 236.512 78.4954 250.512 79.4953 264.513 79.4953 278.514 79.4953 292.514 79.4953 306.515 79.4953 320.516 79.4953 334.516 79.4953 348.517 80.4953 362.518 80.4953 376.518 81.4952 390.519 83.4951 404.52 85.495 418.52 88.4948 432.521 93.4945 446.522 102.494 460.522 115.493 474.523 117.493 487.524 119.493 501.524 121.493 515.525 122.493 529.526 122.493 543.526 121.493 557.527 121.493 571.528 121.493 585.529 121.493 599.529 120.493 613.53 119.493 627.531 117.493 641.531 116.493 655.532 115.493 669.533 115.493 683.533 114.493 697.534 114.493 711.535 114.493 725.535 114.493 739.536 114.493 753.537 114.493 767.537 114.493 781.538 114.493 795.539 114.493 809.539 114.493 823.54 114.493 837.541 114.493 851.541 114.493 864.542 114.493 878.543 114.493 892.543 114.493 906.544 114.493 920.545 114.493 934.545 114.493 948.546 115.493 962.547 115.493 976.547 115.493 990.548 115.493 1004.55 115.493 1018.55 115.493 1032.55 115.493 1046.55 115.493 1060.55 116.493 1074.55 115.493 1088.55 115.493 1102.55 115.493 1116.55 114.493 1130.56 114.493 1144.56 114.493 1158.56 114.493 1172.56 114.493 1186.56 114.493 1200.56 114.493 1214.56 114.493 1227.56 113.493 1241.56 113.493 1255.56 113.493 1269.56 113.493 1283.56 113.493 1297.56 113.493 1311.56 113.493 1325.56 113.493 1339.57 113.493 1353.57 114.493 1367.57 114.493 1381.57 115.493 1395.57 115.493 1409.57 115.493 1423.57 115.493 1437.57 114.493 1451.57 114.493 1465.57 114.493 1479.57 114.493 1493.57 114.493 1507.57 114.493 1521.57 114.493 1535.57 113.493 1549.58 113.493 1563.58 112.493 1577.58 112.493 1591.58 107.494 1604.58 102.494 1618.58 96.4943 1632.58 91.4946 1646.58 87.4948 1660.58 84.495 1674.58 81.4952 1688.58 79.4953 1702.58 77.4954 1716.58 76.4955 1730.58 76.4955 1744.58 76.4955 1758.59 75.4956 1772.59 75.4956 1786.59 75.4956 1800.59 75.4956 1814.59 72.4922 1828.59 72.4957 1842.59 82.4951 1856.59 95.4944 1870.59 113.493 1884.59 145.491 1898.59 1443.34 1912.5 1443.34" stroke="#BE5A5A" stroke-width="3.00078" stroke-linecap="round" stroke-linejoin="round" stroke-miterlimit="10" fill="none"/></g><g clip-path="url(#clip2)"><path d="M124.5 1443.34 138.507 1443.34 152.507 253.485 166.508 231.486 180.509 215.487 194.509 203.488 208.51 201.488 222.511 199.488 236.512 197.488 250.512 195.488 264.513 194.488 278.514 192.489 292.514 191.489 306.515 190.489 320.516 189.489 334.516 188.489 348.517 188.489 362.518 187.489 376.518 186.489 390.519 184.489 404.52 177.489 418.52 158.491 432.521 134.492 446.522 114.493 460.522 99.4941 474.523 98.4942 487.524 97.4942 501.524 97.4942 515.525 96.4943 529.526 96.4943 543.526 96.4943 557.527 96.4896 571.528 462.472 585.529 397.476 599.529 395.477 613.53 411.476 627.531 412.475 641.531 413.475 655.532 415.475 669.533 419.475 683.533 449.473 697.534 418.475 711.535 416.475 725.535 415.475 739.536 415.475 753.537 416.475 767.537 418.475 781.538 422.475 795.539 453.473 809.539 428.475 823.54 425.475 837.541 423.475 851.541 422.475 864.542 422.475 878.543 423.475 892.543 426.475 906.544 449.473 920.545 405.476 934.545 402.476 948.546 411.476 962.547 408.476 976.547 406.476 990.548 404.476 1004.55 403.476 1018.55 428.475 1032.55 404.476 1046.55 402.476 1060.55 401.476 1074.55 403.476 1088.55 408.476 1102.55 413.475 1116.55 419.475 1130.56 448.473 1144.56 414.475 1158.56 414.475 1172.56 413.475 1186.56 416.475 1200.56 420.475 1214.56 426.475 1227.56 430.474 1241.56 450.473 1255.56 428.475 1269.56 426.475 1283.56 426.475 1297.56 428.475 1311.56 430.474 1325.56 433.474 1339.57 437.474 1353.57 439.474 1367.57 404.476 1381.57 401.476 1395.57 400.476 1409.57 400.476 1423.57 404.476 1437.57 408.476 1451.57 413.475 1465.57 451.473 1479.57 428.475 1493.57 425.475 1507.57 424.475 1521.57 425.475 1535.57 429.474 1549.58 434.474 1563.58 438.474 1577.58 462.472 1591.58 460.473 1604.58 455.473 1618.58 451.473 1632.58 446.473 1646.58 441.474 1660.58 436.474 1674.58 433.474 1688.58 434.474 1702.58 433.474 1716.58 432.474 1730.58 432.474 1744.58 431.474 1758.59 431.474 1772.59 535.468 1786.59 537.468 1800.59 604.464 1814.59 598.464 1828.59 1443.34 1842.59 1443.34 1856.59 1443.34 1870.59 1443.34 1884.59 1443.34 1898.59 1443.34 1912.5 1443.34" stroke="#ED7D31" stroke-width="3.00078" stroke-linecap="round" stroke-linejoin="round" stroke-miterlimit="10" fill="none"/></g><g clip-path="url(#clip3)"><path d="M124.5 1443.34 138.507 256.485 152.507 230.475 166.508 233.486 180.509 277.484 194.509 339.48 208.51 354.479 222.511 354.479 236.512 354.479 250.512 354.479 264.513 354.479 278.514 355.479 292.514 355.479 306.515 355.479 320.516 354.479 334.516 348.479 348.517 328.48 362.518 298.482 376.518 268.484 390.519 246.485 404.52 234.486 418.52 234.486 432.521 248.485 446.522 275.484 460.522 320.481 474.523 308.482 487.524 294.483 501.524 281.483 515.525 272.484 529.526 267.484 543.526 269.484 557.527 271.484 571.528 272.484 585.529 278.483 599.529 285.483 613.53 282.483 627.531 280.483 641.531 282.483 655.532 286.483 669.533 290.483 683.533 292.483 697.534 292.483 711.535 291.483 725.535 289.483 739.536 287.483 753.537 289.483 767.537 292.483 781.538 295.482 795.539 298.482 809.539 300.482 823.54 300.482 837.541 298.482 851.541 297.482 864.542 298.482 878.543 300.482 892.543 301.482 906.544 300.482 920.545 298.482 934.545 293.483 948.546 288.483 962.547 284.483 976.547 283.483 990.548 283.483 1004.55 282.483 1018.55 281.483 1032.55 279.483 1046.55 277.484 1060.55 276.484 1074.55 276.484 1088.55 278.483 1102.55 282.483 1116.55 287.483 1130.56 290.483 1144.56 291.483 1158.56 290.483 1172.56 288.483 1186.56 288.483 1200.56 290.483 1214.56 294.483 1227.56 298.482 1241.56 302.482 1255.56 304.482 1269.56 304.482 1283.56 303.482 1297.56 303.482 1311.56 303.482 1325.56 303.482 1339.57 301.482 1353.57 296.482 1367.57 289.483 1381.57 283.483 1395.57 278.483 1409.57 276.484 1423.57 277.484 1437.57 281.483 1451.57 287.483 1465.57 292.483 1479.57 296.482 1493.57 298.482 1507.57 299.482 1521.57 300.482 1535.57 304.482 1549.58 311.482 1563.58 321.481 1577.58 334.48 1591.58 295.482 1604.58 270.484 1618.58 252.485 1632.58 243.486 1646.58 242.486 1660.58 247.485 1674.58 259.485 1688.58 276.484 1702.58 294.483 1716.58 316.481 1730.58 343.48 1744.58 377.478 1758.59 428.475 1772.59 501.47 1786.59 599.464 1800.59 717.457 1814.59 623.463 1828.59 1443.34 1842.59 1443.34 1856.59 1443.34 1870.59 1443.34 1884.59 1443.34 1898.59 1443.34 1912.5 1443.34" stroke="#775B49" stroke-width="3.00078" stroke-linecap="round" stroke-linejoin="round" stroke-miterlimit="10" fill="none"/></g><g clip-path="url(#clip4)"><path d="M124.5 1443.34 138.507 495.471 152.507 388.477 166.508 326.481 180.509 288.483 194.509 267.484 208.51 265.471 222.511 266.484 236.512 266.484 250.512 266.484 264.513 266.484 278.514 266.484 292.514 266.484 306.515 266.484 320.516 266.484 334.516 266.484 348.517 267.484 362.518 267.484 376.518 268.484 390.519 269.484 404.52 271.484 418.52 274.484 432.521 280.483 446.522 289.483 460.522 302.482 474.523 302.482 487.524 295.482 501.524 285.483 515.525 275.484 529.526 268.484 543.526 271.484 557.527 274.484 571.528 279.483 585.529 285.483 599.529 309.482 613.53 307.482 627.531 305.482 641.531 303.482 655.532 305.482 669.533 314.481 683.533 334.48 697.534 373.478 711.535 449.473 725.535 784.453 739.536 1443.34 753.537 1443.34 767.537 1443.34 781.538 1443.34 795.539 1443.34 809.539 1443.34 823.54 1443.34 837.541 1443.34 851.541 1443.34 864.542 1443.34 878.543 1443.34 892.543 1443.34 906.544 1443.34 920.545 1443.34 934.545 1443.34 948.546 1443.34 962.547 1443.34 976.547 1443.34 990.548 1443.34 1004.55 1443.34 1018.55 1443.34 1032.55 1443.34 1046.55 1443.34 1060.55 1443.34 1074.55 1443.34 1088.55 1443.34 1102.55 1443.34 1116.55 1443.34 1130.56 1443.34 1144.56 1443.34 1158.56 1443.34 1172.56 1443.34 1186.56 1443.34 1200.56 1443.34 1214.56 1443.34 1227.56 1443.34 1241.56 1443.34 1255.56 1443.34 1269.56 1443.34 1283.56 1443.34 1297.56 1443.34 1311.56 1443.34 1325.56 1443.34 1339.57 1443.34 1353.57 1443.34 1367.57 1443.34 1381.57 1443.34 1395.57 1443.34 1409.57 1443.34 1423.57 1443.34 1437.57 1443.34 1451.57 1443.34 1465.57 1443.34 1479.57 1443.34 1493.57 1443.34 1507.57 1443.34 1521.57 1443.34 1535.57 1443.34 1549.58 1443.34 1563.58 1443.34 1577.58 1443.34 1591.58 1443.34 1604.58 1443.34 1618.58 1443.34 1632.58 1443.34 1646.58 1443.34 1660.58 1443.34 1674.58 1443.34 1688.58 1443.34 1702.58 1443.34 1716.58 1443.34 1730.58 1443.34 1744.58 1443.34 1758.59 1443.34 1772.59 1443.34 1786.59 1443.34 1800.59 1443.34 1814.59 1443.34 1828.59 1443.34 1842.59 1443.34 1856.59 1443.34 1870.59 1443.34 1884.59 1443.34 1898.59 1443.34 1912.5 1443.34" stroke="#BFBFBF" stroke-width="3.00078" stroke-linecap="round" stroke-linejoin="round" stroke-miterlimit="10" fill="none"/></g><g clip-path="url(#clip5)"><path d="M124.5 1443.34 138.507 1443.34 152.507 1443.34 166.508 1443.34 180.509 1443.34 194.509 1443.34 208.51 1443.34 222.511 405.476 236.512 344.48 250.512 319.481 264.513 312.481 278.514 312.481 292.514 312.481 306.515 312.481 320.516 313.481 334.516 313.481 348.517 313.481 362.518 314.481 376.518 315.481 390.519 316.481 404.52 317.481 418.52 320.481 432.521 326.481 446.522 335.48 460.522 348.479 474.523 350.479 487.524 353.479 501.524 355.479 515.525 355.479 529.526 355.479 543.526 355.479 557.527 355.479 571.528 355.479 585.529 355.479 599.529 353.479 613.53 351.479 627.531 349.479 641.531 348.479 655.532 347.479 669.533 347.479 683.533 346.479 697.534 346.479 711.535 346.479 725.535 346.479 739.536 346.479 753.537 346.479 767.537 346.479 781.538 346.479 795.539 346.479 809.539 345.479 823.54 346.479 837.541 346.479 851.541 346.479 864.542 346.479 878.543 345.479 892.543 346.479 906.544 346.479 920.545 346.479 934.545 346.479 948.546 346.479 962.547 347.479 976.547 347.479 990.548 347.479 1004.55 346.479 1018.55 346.479 1032.55 347.479 1046.55 347.479 1060.55 347.479 1074.55 347.479 1088.55 346.479 1102.55 346.479 1116.55 345.479 1130.56 345.479 1144.56 345.479 1158.56 345.479 1172.56 346.479 1186.56 346.479 1200.56 345.479 1214.56 345.479 1227.56 344.48 1241.56 344.48 1255.56 344.48 1269.56 344.48 1283.56 344.48 1297.56 344.48 1311.56 344.48 1325.56 344.48 1339.57 344.48 1353.57 345.479 1367.57 345.479 1381.57 345.479 1395.57 346.479 1409.57 346.479 1423.57 345.479 1437.57 345.479 1451.57 344.48 1465.57 344.48 1479.57 344.48 1493.57 344.48 1507.57 343.48 1521.57 343.48 1535.57 343.48 1549.58 342.48 1563.58 342.48 1577.58 341.48 1591.58 337.48 1604.58 332.48 1618.58 327.481 1632.58 322.481 1646.58 317.481 1660.58 314.481 1674.58 311.482 1688.58 309.482 1702.58 308.482 1716.58 307.467 1730.58 314.481 1744.58 339.48 1758.59 400.476 1772.59 1443.34 1786.59 1443.34 1800.59 1443.34 1814.59 1443.34 1828.59 1443.34 1842.59 1443.34 1856.59 1443.34 1870.59 1443.34 1884.59 1443.34 1898.59 1443.34 1912.5 1443.34" stroke="#C9ABAB" stroke-width="3.00078" stroke-linecap="round" stroke-linejoin="round" stroke-miterlimit="10" fill="none"/></g><g clip-path="url(#clip6)"><path d="M124.5 1443.34 138.507 1443.34 152.507 606.464 166.508 558.467 180.509 531.468 194.509 517.469 208.51 513.469 222.511 510.47 236.512 507.47 250.512 504.47 264.513 500.47 278.514 497.47 292.514 494.471 306.515 491.471 320.516 488.471 334.516 484.471 348.517 482.471 362.518 479.471 376.518 476.472 390.519 471.472 404.52 457.473 418.52 431.474 432.521 407.476 446.522 389.477 460.522 378.478 474.523 375.478 487.524 373.478 501.524 371.478 515.525 370.478 529.526 368.478 543.526 367.478 557.527 366.478 571.528 365.478 585.529 364.478 599.529 362.478 613.53 360.479 627.531 359.479 641.531 357.479 655.532 356.479 669.533 355.479 683.533 354.479 697.534 353.479 711.535 351.479 725.535 349.479 739.536 348.479 753.537 346.479 767.537 345.479 781.538 344.48 795.539 339.48 809.539 337.48 823.54 334.48 837.541 324.481 851.541 321.481 864.542 330.48 878.543 334.48 892.543 329.48 906.544 327.481 920.545 320.465 934.545 322.481 948.546 321.481 962.547 335.48 976.547 346.479 990.548 341.48 1004.55 338.48 1018.55 328.48 1032.55 330.48 1046.55 333.48 1060.55 354.479 1074.55 374.478 1088.55 373.478 1102.55 372.478 1116.55 359.479 1130.56 364.478 1144.56 378.478 1158.56 399.476 1172.56 427.475 1186.56 434.474 1200.56 432.474 1214.56 424.475 1227.56 432.474 1241.56 466.472 1255.56 484.471 1269.56 509.47 1283.56 516.469 1297.56 521.469 1311.56 528.469 1325.56 537.468 1339.57 596.465 1353.57 626.463 1367.57 614.464 1381.57 607.464 1395.57 611.464 1409.57 651.461 1423.57 735.456 1437.57 710.458 1451.57 780.454 1465.57 776.454 1479.57 1443.34 1493.57 1443.34 1507.57 1443.34 1521.57 1443.34 1535.57 1443.34 1549.58 1443.34 1563.58 1443.34 1577.58 1443.34 1591.58 1443.34 1604.58 1443.34 1618.58 1443.34 1632.58 1443.34 1646.58 1443.34 1660.58 1443.34 1674.58 1443.34 1688.58 1443.34 1702.58 1443.34 1716.58 1443.34 1730.58 1443.34 1744.58 1443.34 1758.59 1443.34 1772.59 1443.34 1786.59 1443.34 1800.59 1443.34 1814.59 1443.34 1828.59 1443.34 1842.59 1443.34 1856.59 1443.34 1870.59 1443.34 1884.59 1443.34 1898.59 1443.34 1912.5 1443.34" stroke="#632F3A" stroke-width="3.00078" stroke-linecap="round" stroke-linejoin="round" stroke-miterlimit="10" fill="none"/></g><g clip-path="url(#clip7)"><path d="M124.5 1443.34 138.507 1443.34 152.507 1443.34 166.508 1443.34 180.509 1443.34 194.509 1443.34 208.51 1443.34 222.511 467.472 236.512 393.477 250.512 366.478 264.513 362.478 278.514 362.478 292.514 362.478 306.515 362.478 320.516 362.478 334.516 362.478 348.517 362.478 362.518 363.478 376.518 364.478 390.519 365.478 404.52 367.478 418.52 370.478 432.521 375.478 446.522 384.477 460.522 397.476 474.523 400.476 487.524 402.476 501.524 404.476 515.525 405.476 529.526 405.476 543.526 405.476 557.527 405.476 571.528 405.476 585.529 404.476 599.529 403.476 613.53 401.476 627.531 399.476 641.531 398.476 655.532 397.476 669.533 396.476 683.533 396.476 697.534 396.476 711.535 396.476 725.535 396.476 739.536 396.476 753.537 396.476 767.537 396.476 781.538 395.477 795.539 395.477 809.539 395.477 823.54 395.477 837.541 395.477 851.541 395.477 864.542 395.477 878.543 395.477 892.543 395.477 906.544 395.477 920.545 395.477 934.545 396.476 948.546 396.476 962.547 396.476 976.547 396.476 990.548 396.476 1004.55 396.476 1018.55 396.476 1032.55 396.476 1046.55 396.476 1060.55 396.476 1074.55 396.476 1088.55 396.476 1102.55 395.477 1116.55 395.477 1130.56 394.477 1144.56 394.477 1158.56 395.477 1172.56 395.477 1186.56 395.477 1200.56 394.477 1214.56 394.477 1227.56 394.477 1241.56 394.477 1255.56 394.477 1269.56 394.477 1283.56 394.477 1297.56 393.477 1311.56 394.477 1325.56 394.477 1339.57 394.477 1353.57 394.477 1367.57 394.477 1381.57 395.477 1395.57 395.477 1409.57 395.477 1423.57 395.477 1437.57 394.477 1451.57 394.477 1465.57 393.477 1479.57 393.477 1493.57 393.477 1507.57 393.477 1521.57 393.477 1535.57 392.477 1549.58 392.477 1563.58 391.477 1577.58 391.477 1591.58 386.477 1604.58 381.477 1618.58 376.478 1632.58 371.478 1646.58 367.478 1660.58 363.478 1674.58 361.479 1688.58 359.479 1702.58 358.479 1716.58 357.461 1730.58 361.479 1744.58 388.477 1758.59 462.473 1772.59 1443.34 1786.59 1443.34 1800.59 1443.34 1814.59 1443.34 1828.59 1443.34 1842.59 1443.34 1856.59 1443.34 1870.59 1443.34 1884.59 1443.34 1898.59 1443.34 1912.5 1443.34" stroke="#F6D03D" stroke-width="3.00078" stroke-linecap="round" stroke-linejoin="round" stroke-miterlimit="10" fill="none"/></g><g clip-path="url(#clip8)"><path d="M124.5 1443.34 138.507 1443.34 152.507 1443.34 166.508 1443.34 180.509 1443.34 194.509 1443.34 208.51 1443.34 222.511 1443.34 236.512 1443.34 250.512 1443.34 264.513 1443.34 278.514 1443.34 292.514 1443.34 306.515 1443.34 320.516 1443.34 334.516 1443.34 348.517 1443.34 362.518 1443.34 376.518 1443.34 390.519 1443.34 404.52 1443.34 418.52 1443.34 432.521 1443.34 446.522 1443.34 460.522 1443.34 474.523 1443.34 487.524 1443.34 501.524 1443.34 515.525 797.453 529.526 465.472 543.526 465.472 557.527 463.472 571.528 385.458 585.529 405.476 599.529 407.476 613.53 405.476 627.531 413.475 641.531 416.475 655.532 411.476 669.533 413.475 683.533 423.475 697.534 424.475 711.535 407.476 725.535 417.475 739.536 424.475 753.537 430.474 767.537 409.476 781.538 424.475 795.539 431.474 809.539 421.475 823.54 431.474 837.541 435.474 851.541 436.474 864.542 410.476 878.543 422.475 892.543 428.475 906.544 412.475 920.545 397.476 934.545 391.477 948.546 397.476 962.547 395.476 976.547 389.477 990.548 390.477 1004.55 393.477 1018.55 395.476 1032.55 395.476 1046.55 397.476 1060.55 403.476 1074.55 407.476 1088.55 410.476 1102.55 413.475 1116.55 410.476 1130.56 424.475 1144.56 441.474 1158.56 435.474 1172.56 428.475 1186.56 407.476 1200.56 408.476 1214.56 399.476 1227.56 400.476 1241.56 428.475 1255.56 431.474 1269.56 434.474 1283.56 446.473 1297.56 465.472 1311.56 467.472 1325.56 465.472 1339.57 467.472 1353.57 466.472 1367.57 452.473 1381.57 455.473 1395.57 467.472 1409.57 477.472 1423.57 484.471 1437.57 502.47 1451.57 525.469 1465.57 557.467 1479.57 603.464 1493.57 806.452 1507.57 853.449 1521.57 866.448 1535.57 818.451 1549.58 853.449 1563.58 924.445 1577.58 917.445 1591.58 982.442 1604.58 939.444 1618.58 939.444 1632.58 982.442 1646.58 982.442 1660.58 939.444 1674.58 1014.44 1688.58 1443.34 1702.58 1443.34 1716.58 1443.34 1730.58 1443.34 1744.58 1443.34 1758.59 1443.34 1772.59 1443.34 1786.59 1443.34 1800.59 1443.34 1814.59 1443.34 1828.59 1443.34 1842.59 1443.34 1856.59 1443.34 1870.59 1443.34 1884.59 1443.34 1898.59 1443.34 1912.5 1443.34" stroke="#000000" stroke-width="3.00078" stroke-linecap="round" stroke-linejoin="round" stroke-miterlimit="10" fill="none"/></g><g clip-path="url(#clip9)"><path d="M124.5 1443.34 138.507 1443.34 152.507 1443.34 166.508 1443.34 180.509 1443.34 194.509 1443.34 208.51 1443.34 222.511 1443.34 236.512 1443.34 250.512 1443.34 264.513 1443.34 278.514 1443.34 292.514 1443.34 306.515 1443.34 320.516 1443.34 334.516 1443.34 348.517 1443.34 362.518 1443.34 376.518 1443.34 390.519 1443.34 404.52 1443.34 418.52 1443.34 432.521 1443.34 446.522 1443.34 460.522 1443.34 474.523 1443.34 487.524 1443.34 501.524 1443.34 515.525 1443.34 529.526 1443.34 543.526 950.443 557.527 982.442 571.528 492.471 585.529 488.471 599.529 487.471 613.53 489.471 627.531 491.471 641.531 497.47 655.532 503.47 669.533 506.47 683.533 500.47 697.534 497.47 711.535 496.47 725.535 496.47 739.536 499.47 753.537 503.47 767.537 510.47 781.538 515.469 795.539 512.47 809.539 510.47 823.54 506.47 837.541 506.47 851.541 507.47 864.542 509.47 878.543 512.47 892.543 512.47 906.544 505.47 920.545 500.47 934.545 494.471 948.546 490.471 962.547 488.471 976.547 489.471 990.548 491.471 1004.55 492.471 1018.55 487.471 1032.55 483.471 1046.55 482.471 1060.55 483.471 1074.55 488.471 1088.55 496.47 1102.55 503.47 1116.55 506.47 1130.56 499.47 1144.56 496.47 1158.56 495.471 1172.56 497.47 1186.56 502.47 1200.56 508.47 1214.56 515.469 1227.56 518.469 1241.56 512.47 1255.56 510.47 1269.56 510.47 1283.56 511.47 1297.56 514.469 1311.56 514.469 1325.56 511.47 1339.57 503.47 1353.57 489.471 1367.57 484.471 1381.57 482.471 1395.57 483.471 1409.57 486.471 1423.57 494.471 1437.57 503.47 1451.57 511.47 1465.57 510.47 1479.57 506.47 1493.57 504.47 1507.57 502.47 1521.57 497.47 1535.57 486.471 1549.58 466.472 1563.58 444.474 1577.58 425.475 1591.58 422.454 1604.58 423.475 1618.58 430.474 1632.58 443.474 1646.58 462.473 1660.58 482.471 1674.58 501.47 1688.58 515.469 1702.58 547.467 1716.58 560.467 1730.58 554.467 1744.58 539.468 1758.59 518.469 1772.59 499.47 1786.59 486.471 1800.59 472.472 1814.59 1443.34 1828.59 1443.34 1842.59 1443.34 1856.59 1443.34 1870.59 1443.34 1884.59 1443.34 1898.59 1443.34 1912.5 1443.34" stroke="#997300" stroke-width="3.00078" stroke-linecap="round" stroke-linejoin="round" stroke-miterlimit="10" fill="none"/></g><g clip-path="url(#clip10)"><path d="M124.5 1443.34 138.507 1443.34 152.507 1443.34 166.508 1443.34 180.509 1443.34 194.509 1443.34 208.51 777.454 222.511 628.463 236.512 518.469 250.512 494.471 264.513 478.472 278.514 467.472 292.514 457.473 306.515 450.473 320.516 443.474 334.516 437.474 348.517 434.453 362.518 438.474 376.518 444.474 390.519 452.473 404.52 462.473 418.52 474.472 432.521 490.471 446.522 514.469 460.522 549.467 474.523 595.465 487.524 608.464 501.524 610.464 515.525 611.464 529.526 611.464 543.526 612.464 557.527 612.464 571.528 616.463 585.529 616.463 599.529 616.463 613.53 614.463 627.531 612.464 641.531 610.464 655.532 610.464 669.533 610.464 683.533 609.464 697.534 609.464 711.535 610.464 725.535 610.464 739.536 610.464 753.537 609.464 767.537 610.464 781.538 608.464 795.539 609.464 809.539 610.464 823.54 608.464 837.541 609.464 851.541 608.464 864.542 609.464 878.543 609.464 892.543 608.464 906.544 608.464 920.545 610.464 934.545 609.464 948.546 608.464 962.547 610.464 976.547 610.464 990.548 609.464 1004.55 610.464 1018.55 610.464 1032.55 611.464 1046.55 611.464 1060.55 610.464 1074.55 612.464 1088.55 611.464 1102.55 610.464 1116.55 609.464 1130.56 610.464 1144.56 609.464 1158.56 610.464 1172.56 610.464 1186.56 610.464 1200.56 609.464 1214.56 609.464 1227.56 609.464 1241.56 608.464 1255.56 608.464 1269.56 608.464 1283.56 608.464 1297.56 608.464 1311.56 608.464 1325.56 607.464 1339.57 608.464 1353.57 608.464 1367.57 609.464 1381.57 611.464 1395.57 610.464 1409.57 611.464 1423.57 612.464 1437.57 610.464 1451.57 610.464 1465.57 608.464 1479.57 609.464 1493.57 609.464 1507.57 610.464 1521.57 608.464 1535.57 608.464 1549.58 607.464 1563.58 607.464 1577.58 607.464 1591.58 604.464 1604.58 600.464 1618.58 594.465 1632.58 589.465 1646.58 583.465 1660.58 579.466 1674.58 575.466 1688.58 573.466 1702.58 572.466 1716.58 571.466 1730.58 571.466 1744.58 570.466 1758.59 570.466 1772.59 569.466 1786.59 572.466 1800.59 708.458 1814.59 1443.34 1828.59 1443.34 1842.59 1443.34 1856.59 1443.34 1870.59 1443.34 1884.59 1443.34 1898.59 1443.34 1912.5 1443.34" stroke="#7030A0" stroke-width="3.00078" stroke-linecap="round" stroke-linejoin="round" stroke-miterlimit="10" fill="none"/></g><g><text fill="#595959" font-family="Calibri,Calibri_MSFontService,sans-serif" font-weight="400" font-size="12" transform="matrix(1 0 0 0.999892 100.788 1018)">1</text></g><g><text fill="#595959" font-family="Calibri,Calibri_MSFontService,sans-serif" font-weight="400" font-size="12" transform="matrix(1 0 0 0.999892 94.7064 910)">10</text></g><g><text fill="#595959" font-family="Calibri,Calibri_MSFontService,sans-serif" font-weight="400" font-size="12" transform="matrix(1 0 0 0.999892 88.6248 803)">100</text></g><g><text fill="#595959" font-family="Calibri,Calibri_MSFontService,sans-serif" font-weight="400" font-size="12" transform="matrix(1 0 0 0.999892 79.5491 696)">1,000</text></g><g><text fill="#595959" font-family="Calibri,Calibri_MSFontService,sans-serif" font-weight="400" font-size="12" transform="matrix(1 0 0 0.999892 73.4675 589)">10,000</text></g><g><text fill="#595959" font-family="Calibri,Calibri_MSFontService,sans-serif" font-weight="400" font-size="12" transform="matrix(1 0 0 0.999892 67.3859 481)">100,000</text></g><g><text fill="#595959" font-family="Calibri,Calibri_MSFontService,sans-serif" font-weight="400" font-size="12" transform="matrix(1 0 0 0.999892 58.3102 374)">1,000,000</text></g><g><text fill="#595959" font-family="Calibri,Calibri_MSFontService,sans-serif" font-weight="400" font-size="12" transform="matrix(1 0 0 0.999892 52.2286 267)">10,000,000</text></g><g><text fill="#595959" font-family="Calibri,Calibri_MSFontService,sans-serif" font-weight="400" font-size="12" transform="matrix(1 0 0 0.999892 46.147 160)">100,000,000</text></g><g><text fill="#595959" font-family="Calibri,Calibri_MSFontService,sans-serif" font-weight="400" font-size="12" transform="matrix(1 0 0 0.999892 37.0713 53)">1,000,000,000</text></g><g><text fill="#595959" font-family="Calibri,Calibri_MSFontService,sans-serif" font-weight="400" font-size="12" transform="matrix(6.12323e-17 -0.999784 1.00011 6.12257e-17 128.662 1028)">1</text></g><g><text fill="#595959" font-family="Calibri,Calibri_MSFontService,sans-serif" font-weight="400" font-size="12" transform="matrix(6.12323e-17 -0.999784 1.00011 6.12257e-17 156.588 1028)">3</text></g><g><text fill="#595959" font-family="Calibri,Calibri_MSFontService,sans-serif" font-weight="400" font-size="12" transform="matrix(6.12323e-17 -0.999784 1.00011 6.12257e-17 184.513 1028)">5</text></g><g><text fill="#595959" font-family="Calibri,Calibri_MSFontService,sans-serif" font-weight="400" font-size="12" transform="matrix(6.12323e-17 -0.999784 1.00011 6.12257e-17 212.439 1028)">7</text></g><g><text fill="#595959" font-family="Calibri,Calibri_MSFontService,sans-serif" font-weight="400" font-size="12" transform="matrix(6.12323e-17 -0.999784 1.00011 6.12257e-17 240.364 1028)">9</text></g><g><text fill="#595959" font-family="Calibri,Calibri_MSFontService,sans-serif" font-weight="400" font-size="12" transform="matrix(6.12323e-17 -0.999784 1.00011 6.12257e-17 268.29 1034)">11</text></g><g><text fill="#595959" font-family="Calibri,Calibri_MSFontService,sans-serif" font-weight="400" font-size="12" transform="matrix(6.12323e-17 -0.999784 1.00011 6.12257e-17 296.216 1034)">13</text></g><g><text fill="#595959" font-family="Calibri,Calibri_MSFontService,sans-serif" font-weight="400" font-size="12" transform="matrix(6.12323e-17 -0.999784 1.00011 6.12257e-17 324.141 1034)">15</text></g><g><text fill="#595959" font-family="Calibri,Calibri_MSFontService,sans-serif" font-weight="400" font-size="12" transform="matrix(6.12323e-17 -0.999784 1.00011 6.12257e-17 352.067 1034)">17</text></g><g><text fill="#595959" font-family="Calibri,Calibri_MSFontService,sans-serif" font-weight="400" font-size="12" transform="matrix(6.12323e-17 -0.999784 1.00011 6.12257e-17 379.993 1034)">19</text></g><g><text fill="#595959" font-family="Calibri,Calibri_MSFontService,sans-serif" font-weight="400" font-size="12" transform="matrix(6.12323e-17 -0.999784 1.00011 6.12257e-17 407.918 1034)">21</text></g><g><text fill="#595959" font-family="Calibri,Calibri_MSFontService,sans-serif" font-weight="400" font-size="12" transform="matrix(6.12323e-17 -0.999784 1.00011 6.12257e-17 435.844 1034)">23</text></g><g><text fill="#595959" font-family="Calibri,Calibri_MSFontService,sans-serif" font-weight="400" font-size="12" transform="matrix(6.12323e-17 -0.999784 1.00011 6.12257e-17 463.769 1034)">25</text></g><g><text fill="#595959" font-family="Calibri,Calibri_MSFontService,sans-serif" font-weight="400" font-size="12" transform="matrix(6.12323e-17 -0.999784 1.00011 6.12257e-17 491.695 1034)">27</text></g><g><text fill="#595959" font-family="Calibri,Calibri_MSFontService,sans-serif" font-weight="400" font-size="12" transform="matrix(6.12323e-17 -0.999784 1.00011 6.12257e-17 519.621 1034)">29</text></g><g><text fill="#595959" font-family="Calibri,Calibri_MSFontService,sans-serif" font-weight="400" font-size="12" transform="matrix(6.12323e-17 -0.999784 1.00011 6.12257e-17 547.546 1034)">31</text></g><g><text fill="#595959" font-family="Calibri,Calibri_MSFontService,sans-serif" font-weight="400" font-size="12" transform="matrix(6.12323e-17 -0.999784 1.00011 6.12257e-17 575.472 1034)">33</text></g><g><text fill="#595959" font-family="Calibri,Calibri_MSFontService,sans-serif" font-weight="400" font-size="12" transform="matrix(6.12323e-17 -0.999784 1.00011 6.12257e-17 603.398 1034)">35</text></g><g><text fill="#595959" font-family="Calibri,Calibri_MSFontService,sans-serif" font-weight="400" font-size="12" transform="matrix(6.12323e-17 -0.999784 1.00011 6.12257e-17 631.323 1034)">37</text></g><g><text fill="#595959" font-family="Calibri,Calibri_MSFontService,sans-serif" font-weight="400" font-size="12" transform="matrix(6.12323e-17 -0.999784 1.00011 6.12257e-17 659.249 1034)">39</text></g><g><text fill="#595959" font-family="Calibri,Calibri_MSFontService,sans-serif" font-weight="400" font-size="12" transform="matrix(6.12323e-17 -0.999784 1.00011 6.12257e-17 687.174 1034)">41</text></g><g><text fill="#595959" font-family="Calibri,Calibri_MSFontService,sans-serif" font-weight="400" font-size="12" transform="matrix(6.12323e-17 -0.999784 1.00011 6.12257e-17 715.1 1034)">43</text></g><g><text fill="#595959" font-family="Calibri,Calibri_MSFontService,sans-serif" font-weight="400" font-size="12" transform="matrix(6.12323e-17 -0.999784 1.00011 6.12257e-17 743.026 1034)">45</text></g><g><text fill="#595959" font-family="Calibri,Calibri_MSFontService,sans-serif" font-weight="400" font-size="12" transform="matrix(6.12323e-17 -0.999784 1.00011 6.12257e-17 770.951 1034)">47</text></g><g><text fill="#595959" font-family="Calibri,Calibri_MSFontService,sans-serif" font-weight="400" font-size="12" transform="matrix(6.12323e-17 -0.999784 1.00011 6.12257e-17 798.877 1034)">49</text></g><g><text fill="#595959" font-family="Calibri,Calibri_MSFontService,sans-serif" font-weight="400" font-size="12" transform="matrix(6.12323e-17 -0.999784 1.00011 6.12257e-17 826.803 1034)">51</text></g><g><text fill="#595959" font-family="Calibri,Calibri_MSFontService,sans-serif" font-weight="400" font-size="12" transform="matrix(6.12323e-17 -0.999784 1.00011 6.12257e-17 854.728 1034)">53</text></g><g><text fill="#595959" font-family="Calibri,Calibri_MSFontService,sans-serif" font-weight="400" font-size="12" transform="matrix(6.12323e-17 -0.999784 1.00011 6.12257e-17 882.654 1034)">55</text></g><g><text fill="#595959" font-family="Calibri,Calibri_MSFontService,sans-serif" font-weight="400" font-size="12" transform="matrix(6.12323e-17 -0.999784 1.00011 6.12257e-17 910.58 1034)">57</text></g><g><text fill="#595959" font-family="Calibri,Calibri_MSFontService,sans-serif" font-weight="400" font-size="12" transform="matrix(6.12323e-17 -0.999784 1.00011 6.12257e-17 938.505 1034)">59</text></g><g><text fill="#595959" font-family="Calibri,Calibri_MSFontService,sans-serif" font-weight="400" font-size="12" transform="matrix(6.12323e-17 -0.999784 1.00011 6.12257e-17 966.431 1034)">61</text></g><g><text fill="#595959" font-family="Calibri,Calibri_MSFontService,sans-serif" font-weight="400" font-size="12" transform="matrix(6.12323e-17 -0.999784 1.00011 6.12257e-17 994.356 1034)">63</text></g><g><text fill="#595959" font-family="Calibri,Calibri_MSFontService,sans-serif" font-weight="400" font-size="12" transform="matrix(6.12323e-17 -0.999784 1.00011 6.12257e-17 1022.28 1034)">65</text></g><g><text fill="#595959" font-family="Calibri,Calibri_MSFontService,sans-serif" font-weight="400" font-size="12" transform="matrix(6.12323e-17 -0.999784 1.00011 6.12257e-17 1050.21 1034)">67</text></g><g><text fill="#595959" font-family="Calibri,Calibri_MSFontService,sans-serif" font-weight="400" font-size="12" transform="matrix(6.12323e-17 -0.999784 1.00011 6.12257e-17 1078.13 1034)">69</text></g><g><text fill="#595959" font-family="Calibri,Calibri_MSFontService,sans-serif" font-weight="400" font-size="12" transform="matrix(6.12323e-17 -0.999784 1.00011 6.12257e-17 1106.06 1034)">71</text></g><g><text fill="#595959" font-family="Calibri,Calibri_MSFontService,sans-serif" font-weight="400" font-size="12" transform="matrix(6.12323e-17 -0.999784 1.00011 6.12257e-17 1133.98 1034)">73</text></g><g><text fill="#595959" font-family="Calibri,Calibri_MSFontService,sans-serif" font-weight="400" font-size="12" transform="matrix(6.12323e-17 -0.999784 1.00011 6.12257e-17 1161.91 1034)">75</text></g><g><text fill="#595959" font-family="Calibri,Calibri_MSFontService,sans-serif" font-weight="400" font-size="12" transform="matrix(6.12323e-17 -0.999784 1.00011 6.12257e-17 1189.84 1034)">77</text></g><g><text fill="#595959" font-family="Calibri,Calibri_MSFontService,sans-serif" font-weight="400" font-size="12" transform="matrix(6.12323e-17 -0.999784 1.00011 6.12257e-17 1217.76 1034)">79</text></g><g><text fill="#595959" font-family="Calibri,Calibri_MSFontService,sans-serif" font-weight="400" font-size="12" transform="matrix(6.12323e-17 -0.999784 1.00011 6.12257e-17 1245.69 1034)">81</text></g><g><text fill="#595959" font-family="Calibri,Calibri_MSFontService,sans-serif" font-weight="400" font-size="12" transform="matrix(6.12323e-17 -0.999784 1.00011 6.12257e-17 1273.61 1034)">83</text></g><g><text fill="#595959" font-family="Calibri,Calibri_MSFontService,sans-serif" font-weight="400" font-size="12" transform="matrix(6.12323e-17 -0.999784 1.00011 6.12257e-17 1301.54 1034)">85</text></g><g><text fill="#595959" font-family="Calibri,Calibri_MSFontService,sans-serif" font-weight="400" font-size="12" transform="matrix(6.12323e-17 -0.999784 1.00011 6.12257e-17 1329.46 1034)">87</text></g><g><text fill="#595959" font-family="Calibri,Calibri_MSFontService,sans-serif" font-weight="400" font-size="12" transform="matrix(6.12323e-17 -0.999784 1.00011 6.12257e-17 1357.39 1034)">89</text></g><g><text fill="#595959" font-family="Calibri,Calibri_MSFontService,sans-serif" font-weight="400" font-size="12" transform="matrix(6.12323e-17 -0.999784 1.00011 6.12257e-17 1385.32 1034)">91</text></g><g><text fill="#595959" font-family="Calibri,Calibri_MSFontService,sans-serif" font-weight="400" font-size="12" transform="matrix(6.12323e-17 -0.999784 1.00011 6.12257e-17 1413.24 1034)">93</text></g><g><text fill="#595959" font-family="Calibri,Calibri_MSFontService,sans-serif" font-weight="400" font-size="12" transform="matrix(6.12323e-17 -0.999784 1.00011 6.12257e-17 1441.17 1034)">95</text></g><g><text fill="#595959" font-family="Calibri,Calibri_MSFontService,sans-serif" font-weight="400" font-size="12" transform="matrix(6.12323e-17 -0.999784 1.00011 6.12257e-17 1469.09 1034)">97</text></g><g><text fill="#595959" font-family="Calibri,Calibri_MSFontService,sans-serif" font-weight="400" font-size="12" transform="matrix(6.12323e-17 -0.999784 1.00011 6.12257e-17 1497.02 1034)">99</text></g><g><text fill="#595959" font-family="Calibri,Calibri_MSFontService,sans-serif" font-weight="400" font-size="12" transform="matrix(6.12323e-17 -0.999784 1.00011 6.12257e-17 1524.94 1040)">101</text></g><g><text fill="#595959" font-family="Calibri,Calibri_MSFontService,sans-serif" font-weight="400" font-size="12" transform="matrix(6.12323e-17 -0.999784 1.00011 6.12257e-17 1552.87 1040)">103</text></g><g><text fill="#595959" font-family="Calibri,Calibri_MSFontService,sans-serif" font-weight="400" font-size="12" transform="matrix(6.12323e-17 -0.999784 1.00011 6.12257e-17 1580.79 1040)">105</text></g><g><text fill="#595959" font-family="Calibri,Calibri_MSFontService,sans-serif" font-weight="400" font-size="12" transform="matrix(6.12323e-17 -0.999784 1.00011 6.12257e-17 1608.72 1040)">107</text></g><g><text fill="#595959" font-family="Calibri,Calibri_MSFontService,sans-serif" font-weight="400" font-size="12" transform="matrix(6.12323e-17 -0.999784 1.00011 6.12257e-17 1636.65 1040)">109</text></g><g><text fill="#595959" font-family="Calibri,Calibri_MSFontService,sans-serif" font-weight="400" font-size="12" transform="matrix(6.12323e-17 -0.999784 1.00011 6.12257e-17 1664.57 1040)">111</text></g><g><text fill="#595959" font-family="Calibri,Calibri_MSFontService,sans-serif" font-weight="400" font-size="12" transform="matrix(6.12323e-17 -0.999784 1.00011 6.12257e-17 1692.5 1040)">113</text></g><g><text fill="#595959" font-family="Calibri,Calibri_MSFontService,sans-serif" font-weight="400" font-size="12" transform="matrix(6.12323e-17 -0.999784 1.00011 6.12257e-17 1720.42 1040)">115</text></g><g><text fill="#595959" font-family="Calibri,Calibri_MSFontService,sans-serif" font-weight="400" font-size="12" transform="matrix(6.12323e-17 -0.999784 1.00011 6.12257e-17 1748.35 1040)">117</text></g><g><text fill="#595959" font-family="Calibri,Calibri_MSFontService,sans-serif" font-weight="400" font-size="12" transform="matrix(6.12323e-17 -0.999784 1.00011 6.12257e-17 1776.27 1040)">119</text></g><g><text fill="#595959" font-family="Calibri,Calibri_MSFontService,sans-serif" font-weight="400" font-size="12" transform="matrix(6.12323e-17 -0.999784 1.00011 6.12257e-17 1804.2 1040)">121</text></g><g><text fill="#595959" font-family="Calibri,Calibri_MSFontService,sans-serif" font-weight="400" font-size="12" transform="matrix(6.12323e-17 -0.999784 1.00011 6.12257e-17 1832.13 1040)">123</text></g><g><text fill="#595959" font-family="Calibri,Calibri_MSFontService,sans-serif" font-weight="400" font-size="12" transform="matrix(6.12323e-17 -0.999784 1.00011 6.12257e-17 1860.05 1040)">125</text></g><g><text fill="#595959" font-family="Calibri,Calibri_MSFontService,sans-serif" font-weight="400" font-size="12" transform="matrix(6.12323e-17 -0.999784 1.00011 6.12257e-17 1887.98 1040)">127</text></g><g><text fill="#595959" font-family="Calibri,Calibri_MSFontService,sans-serif" font-weight="400" font-size="12" transform="matrix(6.12323e-17 -0.999784 1.00011 6.12257e-17 1915.9 1040)">129</text></g><g><text fill="#595959" font-family="Calibri,Calibri_MSFontService,sans-serif" font-weight="400" font-size="13" transform="matrix(6.12323e-17 -0.999784 1.00011 6.12257e-17 29.7962 564)">Block count</text></g><g><text fill="#595959" font-family="Calibri,Calibri_MSFontService,sans-serif" font-weight="400" font-size="13" transform="matrix(1 0 0 0.999892 996.894 1057)">Altitude</text></g><g><text fill="#595959" font-family="Calibri,Calibri_MSFontService,sans-serif" font-weight="400" font-size="19" transform="matrix(1 0 0 0.999892 741.755 28)">Resource distribution by altitude (Minecraft 1.20.2, Nether)</text></g><g><path d="M406.5 1088.38 431.5 1088.38" stroke="#BE5A5A" stroke-width="3.00078" stroke-linecap="round" stroke-linejoin="round" stroke-miterlimit="10" fill="none" fill-rule="evenodd"/></g><g><text fill="#595959" font-family="Calibri,Calibri_MSFontService,sans-serif" font-weight="400" font-size="12" transform="matrix(1 0 0 0.999892 434.322 1092)">netherrack</text></g><g><path d="M508.5 1088.38 534.5 1088.38" stroke="#ED7D31" stroke-width="3.00078" stroke-linecap="round" stroke-linejoin="round" stroke-miterlimit="10" fill="none" fill-rule="evenodd"/></g><g><text fill="#595959" font-family="Calibri,Calibri_MSFontService,sans-serif" font-weight="400" font-size="12" transform="matrix(1 0 0 0.999892 537.233 1092)">lava</text></g><g><path d="M578.5 1088.38 603.5 1088.38" stroke="#775B49" stroke-width="3.00078" stroke-linecap="round" stroke-linejoin="round" stroke-miterlimit="10" fill="none" fill-rule="evenodd"/></g><g><text fill="#595959" font-family="Calibri,Calibri_MSFontService,sans-serif" font-weight="400" font-size="12" transform="matrix(1 0 0 0.999892 606.575 1092)">soul_sand</text></g><g><path d="M677.5 1088.38 702.5 1088.38" stroke="#BFBFBF" stroke-width="3.00078" stroke-linecap="round" stroke-linejoin="round" stroke-miterlimit="10" fill="none" fill-rule="evenodd"/></g><g><text fill="#595959" font-family="Calibri,Calibri_MSFontService,sans-serif" font-weight="400" font-size="12" transform="matrix(1 0 0 0.999892 705.365 1092)">gravel</text></g><g><path d="M756.5 1088.38 782.5 1088.38" stroke="#C9ABAB" stroke-width="3.00078" stroke-linecap="round" stroke-linejoin="round" stroke-miterlimit="10" fill="none" fill-rule="evenodd"/></g><g><text fill="#595959" font-family="Calibri,Calibri_MSFontService,sans-serif" font-weight="400" font-size="12" transform="matrix(1 0 0 0.999892 784.769 1092)">nether_quartz_ore</text></g><g><path d="M898.5 1088.38 924.5 1088.38" stroke="#632F3A" stroke-width="3.00078" stroke-linecap="round" stroke-linejoin="round" stroke-miterlimit="10" fill="none" fill-rule="evenodd"/></g><g><text fill="#595959" font-family="Calibri,Calibri_MSFontService,sans-serif" font-weight="400" font-size="12" transform="matrix(1 0 0 0.999892 926.97 1092)">nether_bricks</text></g><g><path d="M1015.5 1088.38 1041.5 1088.38" stroke="#F6D03D" stroke-width="3.00078" stroke-linecap="round" stroke-linejoin="round" stroke-miterlimit="10" fill="none" fill-rule="evenodd"/></g><g><text fill="#595959" font-family="Calibri,Calibri_MSFontService,sans-serif" font-weight="400" font-size="12" transform="matrix(1 0 0 0.999892 1043.86 1092)">nether_gold_ore</text></g><g><path d="M1147.5 1088.38 1173.5 1088.38" stroke="#000000" stroke-width="3.00078" stroke-linecap="round" stroke-linejoin="round" stroke-miterlimit="10" fill="none" fill-rule="evenodd"/></g><g><text fill="#595959" font-family="Calibri,Calibri_MSFontService,sans-serif" font-weight="400" font-size="12" transform="matrix(1 0 0 0.999892 1175.79 1092)">polished_blackstone_bricks</text></g><g><path d="M1331.5 1088.38 1357.5 1088.38" stroke="#997300" stroke-width="3.00078" stroke-linecap="round" stroke-linejoin="round" stroke-miterlimit="10" fill="none" fill-rule="evenodd"/></g><g><text fill="#595959" font-family="Calibri,Calibri_MSFontService,sans-serif" font-weight="400" font-size="12" transform="matrix(1 0 0 0.999892 1359.98 1092)">glowstone</text></g><g><path d="M1431.5 1088.38 1457.5 1088.38" stroke="#7030A0" stroke-width="3.00078" stroke-linecap="round" stroke-linejoin="round" stroke-miterlimit="10" fill="none" fill-rule="evenodd"/></g><g><text fill="#595959" font-family="Calibri,Calibri_MSFontService,sans-serif" font-weight="400" font-size="12" transform="matrix(1 0 0 0.999892 1460.29 1092)">ancient_debris</text></g></g></svg>